<svg width="146" height="138" viewBox="0 0 146 138" fill="none" xmlns="http://www.w3.org/2000/svg">
<path d="M72.1923 120C100.195 120 122.896 97.2982 122.896 69.196C122.896 41.0938 100.195 18.392 72.1923 18.392C44.1901 18.392 21.4883 41.0938 21.4883 69.196C21.4883 97.2982 44.1901 120 72.1923 120Z" fill="#EDF1F5"/>
<path d="M34.8895 36.2935H106.995C109.895 36.2935 112.096 38.4936 112.096 41.3939V87.0975C112.096 89.9977 109.895 92.1979 106.995 92.1979H34.8895C31.9892 92.1979 29.7891 89.9977 29.7891 87.0975V41.3939C29.7891 38.4936 32.1893 36.2935 34.8895 36.2935Z" fill="#8898AA"/>
<path d="M113.496 65.5956V88.0974C113.496 90.9976 111.196 93.3978 108.195 93.3978H34.0895C31.1893 93.3978 28.7891 90.9976 28.7891 88.0974V63.6954" stroke="#16CC53" stroke-width="3" stroke-linecap="round" stroke-linejoin="round"/>
<path d="M107.194 52.9948H83.7922C81.492 52.9948 79.2919 53.7948 77.5917 55.1949L71.4912 60.1953C69.7911 61.5954 67.5909 62.3955 65.2908 62.3955H38.8887C36.1885 62.3955 33.9883 64.5957 33.9883 67.2959C33.9883 67.4959 33.9883 67.7959 34.0883 67.9959L38.9887 93.798C39.3887 96.1982 41.3889 97.9983 43.8891 97.9983H100.394C102.794 97.9983 104.894 96.2982 105.294 93.898L112.094 58.5952C112.594 55.895 110.794 53.4948 108.094 52.9948C107.694 52.9948 107.394 52.9948 107.194 52.9948Z" fill="white"/>
<g filter="url(#filter0_d_6826_48745)">
<path d="M117.694 46.0941H87.2919C84.2916 46.0941 81.4914 47.0942 79.1912 48.9944L71.1906 55.4949C68.9904 57.295 66.0902 58.3951 63.0899 58.3951H28.6872C25.1869 58.3951 22.3867 61.2953 22.3867 64.6956C22.3867 64.9956 22.3867 65.2957 22.4867 65.5957L28.7872 99.2984C29.2873 102.499 31.9875 104.799 35.0877 104.799H108.694C111.894 104.799 114.494 102.599 114.994 99.3984L123.895 53.2947C124.495 49.7944 122.195 46.6942 118.694 45.9941C118.394 46.0941 117.994 46.0941 117.694 46.0941Z" fill="url(#paint0_linear_6826_48745)"/>
</g>
<path d="M58.894 80.9969C60.6942 80.9969 62.1943 79.4968 62.1943 77.6966C62.1943 75.8965 60.6942 74.3964 58.894 74.3964C57.0939 74.3964 55.5938 75.8965 55.5938 77.6966C55.5938 79.4968 57.0939 80.9969 58.894 80.9969Z" fill="#8898AA"/>
<path d="M84.5932 80.8969C86.3934 80.8969 87.8935 79.3968 87.8935 77.5966C87.8935 75.7965 86.3934 74.2964 84.5932 74.2964C82.7931 74.2964 81.293 75.7965 81.293 77.5966C81.293 79.4968 82.7931 80.8969 84.5932 80.8969Z" fill="#8898AA"/>
<path d="M122.595 102.499C122.195 104.199 121.595 105.999 120.895 107.499C118.995 111.199 115.995 114.1 112.295 116C108.494 117.9 103.994 118.7 99.4935 117.7C88.8927 115.5 82.0921 105.099 84.2923 94.498C86.4925 83.8972 96.7933 76.9966 107.394 79.2968C111.194 80.0969 114.495 81.997 117.295 84.5972C121.995 89.2976 123.995 96.0981 122.595 102.499Z" fill="#8898AA"/>
<path d="M109.699 96.7982H105.198V92.2978C105.198 91.3977 104.498 90.5977 103.498 90.5977C102.598 90.5977 101.798 91.2977 101.798 92.2978V96.7982H97.2978C96.3977 96.7982 95.5977 97.4982 95.5977 98.4983C95.5977 99.4984 96.2977 100.198 97.2978 100.198H101.798V104.699C101.798 105.599 102.498 106.399 103.498 106.399C104.398 106.399 105.198 105.699 105.198 104.699V100.198H109.699C110.599 100.198 111.399 99.4984 111.399 98.4983C111.399 97.4982 110.599 96.7982 109.699 96.7982Z" fill="white"/>
<path d="M67.6925 57.295C64.0922 50.2945 63.2921 41.8938 65.6923 34.2932C67.9925 26.6926 73.4929 20.1921 80.2934 16.4918C82.3936 15.3917 84.7938 14.4917 87.194 14.3916C89.5942 14.2916 92.1944 15.0917 93.7945 17.0919C95.3946 18.892 95.6947 21.8922 94.3946 23.8924C92.9945 25.7925 90.1942 26.5926 87.8941 25.9926C84.1938 25.2925 81.1935 22.3923 80.2934 18.892C79.3934 15.3917 80.5935 11.2914 83.3937 8.99122C85.1938 7.39109 87.694 6.49102 89.9942 5.79097C101.195 2.49071 113.396 2.09067 124.797 4.59087" stroke="#C8CFD6" stroke-width="2" stroke-miterlimit="10" stroke-dasharray="4 4"/>
<path d="M74.8919 84.4972H68.6914V85.9973H74.8919V84.4972Z" fill="#8898AA"/>
<path d="M130.796 1.99061C130.696 3.49073 130.596 4.89084 129.496 5.19087C128.396 5.49089 127.896 4.49081 127.196 3.0907C126.496 1.7906 126.896 0.390488 128.096 0.0904644C129.196 -0.209559 130.996 0.190472 130.796 1.99061Z" fill="#EDF1F5"/>
<path d="M129.598 9.19123C129.898 7.39109 130.198 6.39101 129.198 5.89097C128.098 5.39093 127.398 6.29101 126.198 7.4911C125.197 8.59119 125.798 10.1913 126.798 10.6914C127.998 11.2914 129.298 10.6914 129.598 9.19123Z" fill="#EDF1F5"/>
<path d="M130.996 5.89107C130.896 6.59113 130.396 7.09117 129.696 7.19117C129.396 7.19117 129.096 7.19117 128.696 7.19117C127.295 6.99116 126.195 6.09109 126.295 5.19102C126.395 4.29095 127.695 3.79091 129.296 3.99092C129.596 3.99092 129.896 4.09093 130.096 4.19094C130.696 4.39095 131.096 5.09101 130.996 5.89107C130.996 5.89107 130.996 5.79106 130.996 5.89107Z" fill="#8898AA"/>
<path d="M19.3867 33.9932C19.3867 32.293 19.3867 30.5929 20.5868 30.0928C21.8869 29.5928 22.587 30.7929 23.5871 32.493C24.4871 33.9932 24.0871 35.5933 22.787 36.0933C21.6869 36.5934 19.3867 36.2933 19.3867 33.9932Z" fill="#EDF1F5"/>
<path d="M20.0895 25.5925C19.8894 27.6926 19.5894 28.8927 20.8895 29.3928C22.1896 29.8928 22.8897 28.7927 24.1898 27.1926C25.1899 25.7925 24.4898 23.9923 23.1897 23.4923C21.8896 22.9923 20.2895 23.8923 20.0895 25.5925Z" fill="#EDF1F5"/>
<path d="M18.9883 29.5928C18.9883 28.7928 19.5883 28.1927 20.2884 28.0927C20.5884 27.9927 20.9884 27.9927 21.3885 28.0927C22.9886 28.1927 24.3887 29.0928 24.2887 30.0929C24.1887 31.0929 22.8886 31.793 21.1885 31.593C20.8884 31.593 20.5884 31.493 20.2884 31.393C19.4883 31.293 18.9883 30.4929 18.9883 29.5928Z" fill="#8898AA"/>
<path d="M25.7891 29.8928C36.2899 29.8928 55.6914 35.9933 55.9915 58.3951" stroke="#C8CFD6" stroke-width="2" stroke-miterlimit="10" stroke-dasharray="4 4"/>
<defs>
<filter id="filter0_d_6826_48745" x="0.386719" y="34.9941" width="145.602" height="102.805" filterUnits="userSpaceOnUse" color-interpolation-filters="sRGB">
<feFlood flood-opacity="0" result="BackgroundImageFix"/>
<feColorMatrix in="SourceAlpha" type="matrix" values="0 0 0 0 0 0 0 0 0 0 0 0 0 0 0 0 0 0 127 0" result="hardAlpha"/>
<feOffset dy="11"/>
<feGaussianBlur stdDeviation="11"/>
<feColorMatrix type="matrix" values="0 0 0 0 0.397708 0 0 0 0 0.47749 0 0 0 0 0.575 0 0 0 0.27 0"/>
<feBlend mode="normal" in2="BackgroundImageFix" result="effect1_dropShadow_6826_48745"/>
<feBlend mode="normal" in="SourceGraphic" in2="effect1_dropShadow_6826_48745" result="shape"/>
</filter>
<linearGradient id="paint0_linear_6826_48745" x1="73.1552" y1="44.6339" x2="73.1552" y2="105.433" gradientUnits="userSpaceOnUse">
<stop stop-color="#FDFEFF"/>
<stop offset="0.9964" stop-color="#ECF0F5"/>
</linearGradient>
</defs>
</svg>
