<svg width="166" height="128" viewBox="0 0 166 128" fill="none" xmlns="http://www.w3.org/2000/svg">
<path d="M79.981 120C111.769 120 137.54 94.2288 137.54 62.3272C137.54 30.4256 111.656 4.65454 79.981 4.65454C48.1929 4.65454 22.4219 30.4256 22.4219 62.3272C22.4219 94.2288 48.1929 120 79.981 120Z" fill="#EDF1F5"/>
<path d="M133.791 24.5223C136.362 24.5223 138.446 22.4383 138.446 19.8676C138.446 17.2969 136.362 15.2129 133.791 15.2129C131.221 15.2129 129.137 17.2969 129.137 19.8676C129.137 22.4383 131.221 24.5223 133.791 24.5223Z" fill="#EDF1F5"/>
<path d="M140.605 6.35762C142.36 6.35762 143.783 4.93441 143.783 3.17881C143.783 1.4232 142.36 0 140.605 0C138.849 0 137.426 1.4232 137.426 3.17881C137.426 4.93441 138.849 6.35762 140.605 6.35762Z" fill="#EDF1F5"/>
<path d="M25.4874 24.4086C27.243 24.4086 28.6662 22.9854 28.6662 21.2298C28.6662 19.4742 27.243 18.051 25.4874 18.051C23.7318 18.051 22.3086 19.4742 22.3086 21.2298C22.3086 22.9854 23.7318 24.4086 25.4874 24.4086Z" fill="#EDF1F5"/>
<path d="M12.1105 93.1255C15.3709 93.1255 18.014 90.4824 18.014 87.222C18.014 83.9616 15.3709 81.3185 12.1105 81.3185C8.85012 81.3185 6.20703 83.9616 6.20703 87.222C6.20703 90.4824 8.85012 93.1255 12.1105 93.1255Z" fill="#EDF1F5"/>
<g filter="url(#filter0_d_6826_48828)">
<path d="M141.242 88.0179H123.78C122.954 88.0179 122.246 87.4869 122.01 86.779C120.3 81.7056 116.524 80.4667 107.38 76.8681C106.849 76.6321 106.79 75.9242 107.321 75.6293C109.976 74.3314 109.504 73.2105 109.504 65.4234C109.386 65.3054 109.268 65.1285 109.209 65.0105C108.619 64.1256 108.206 63.0637 108.088 62.0018L107.498 61.7068C105.728 62.1198 105.846 60.232 105.374 56.5744C105.197 55.0406 105.433 54.7456 106.082 54.5097L106.672 53.7427C103.192 45.9556 104.961 41.0592 108.383 39.2894C107.262 36.8117 107.203 35.9268 107.203 35.9268C107.203 35.9268 114.459 37.1656 116.937 36.6347C120.123 35.9858 124.96 36.7527 126.789 40.9412C129.798 42.1211 130.977 44.0678 131.272 46.0736C131.685 49.3772 129.857 52.9758 129.503 54.3917C129.562 54.4507 129.562 54.5097 129.621 54.5686C130.092 54.8046 130.269 55.2176 130.092 56.5154C129.68 59.996 129.739 62.1788 127.969 61.6478L126.376 64.4205C126.317 64.7745 126.258 64.8925 126.258 65.0695C126.199 65.6004 126.199 66.6033 126.199 72.3846C126.199 73.0925 126.376 73.7415 126.73 74.2724C127.084 74.9213 127.674 75.3933 128.382 75.6883H128.441C132.57 77.3991 135.52 78.5199 137.703 79.4048C142.54 81.3516 143.366 81.8826 143.779 85.1272C143.897 86.72 142.776 88.0179 141.242 88.0179Z" fill="white"/>
</g>
<path d="M129.387 54.3317C129.564 53.4468 129.151 52.3849 128.797 51.618C128.738 51.5 128.679 51.3821 128.62 51.2051C127.263 48.4324 124.136 47.2525 121.187 47.1345C113.636 46.7216 112.928 48.1964 110.568 46.0137C111.276 47.1345 111.394 48.8454 110.214 51.0281C109.447 52.5619 107.913 53.2109 106.556 53.6828C103.135 45.8957 104.846 40.9992 108.267 39.2294C107.146 36.7517 107.087 35.8668 107.087 35.8668C107.087 35.8668 114.344 37.1057 116.821 36.5747C120.007 35.9258 124.844 36.6927 126.673 40.8813C129.682 42.0611 130.862 44.0079 131.157 46.0137C131.629 49.3173 129.741 52.9159 129.387 54.3317Z" fill="#8898AA"/>
<path opacity="0.1" d="M139.415 88.017C141.244 85.1853 140.536 82.5306 137.586 79.4039C142.423 81.3507 143.249 81.8816 143.662 85.1263C143.898 86.6011 142.718 87.958 141.185 87.958H139.415V88.017Z" fill="#8898AA"/>
<path d="M126.615 74.3305V75.6873H109.094V73.9175C109.507 72.9736 109.389 73.0326 109.389 65.4225C109.271 65.3045 109.153 65.1275 109.094 65.0095V64.5966C109.448 65.2455 109.979 65.8354 110.51 66.3074L115.996 70.1419C117.294 71.2038 119.123 71.2628 120.42 70.2009L125.553 65.5994C125.73 65.4225 125.907 65.3045 126.084 65.1275C126.025 65.6584 126.025 66.6613 126.025 72.4427C126.084 73.0916 126.261 73.7405 126.615 74.3305Z" fill="url(#paint0_linear_6826_48828)"/>
<g filter="url(#filter1_d_6826_48828)">
<path d="M50.9799 74.8616C48.1482 74.8026 47.8532 74.2717 47.8532 74.2717V69.5522C50.8619 67.0745 53.3986 64.1838 54.1065 60.4082C55.9943 59.9953 57.1742 58.2845 56.9972 56.3967C56.9382 55.5708 56.4073 54.8039 56.3483 53.919C56.3483 53.506 56.3483 53.0931 56.3483 52.6801C56.3483 52.3851 56.3483 52.1492 56.2893 51.8542C56.2893 51.5592 56.2303 51.2643 56.2303 50.9693C56.0533 49.5535 55.6994 48.0786 54.7555 46.3678C52.3957 41.9433 47.7353 38.9937 42.4848 38.9937C41.423 38.9937 40.3611 39.1116 39.3582 39.3476C37.4704 39.7606 35.7596 40.5865 34.2258 41.7663C33.9308 42.0023 33.6359 42.2383 33.3409 42.4743C33.2819 42.5333 33.2229 42.5922 33.1049 42.6512C31.4531 44.1851 30.1552 46.1318 29.4473 48.3146C28.7394 50.4973 28.5624 52.7391 28.8574 54.9808C28.8574 55.0398 28.8574 55.0988 28.8574 55.1578C28.8574 55.2168 28.8574 55.2758 28.8574 55.3348C28.9164 55.7478 29.0344 55.6888 28.7394 56.0427C28.6804 56.1607 28.5624 56.2787 28.5034 56.4557C28.1495 57.1046 27.8545 57.9895 28.2675 59.0514C28.9754 61.0571 30.3912 60.7622 31.6891 61.8831C31.6301 61.9421 31.5121 62.001 31.4531 62.001H31.3941L29.9193 62.473C21.0703 65.2457 20.0674 74.6256 29.1524 76.3364C28.5034 76.3954 27.9135 76.7494 27.5005 77.0443C24.6099 79.2861 22.7811 82.7077 22.3091 86.0703C22.1322 87.0732 22.9581 88.0171 24.0199 88.0171H38.0604C38.3553 88.0171 38.6503 87.7811 38.7683 87.4862C40.0661 82.7667 43.0158 81.1149 49.1511 78.6372L52.6907 77.2213C53.2806 76.9853 53.9296 76.7494 54.6375 76.4544C55.2864 76.2184 55.2274 75.2745 54.5195 75.0976C53.8116 74.9206 53.1036 74.8616 52.3957 74.8026C51.8058 74.8616 51.3338 74.8616 50.9799 74.8616ZM32.9869 68.8443C32.9869 68.2543 33.3999 67.6054 34.2848 66.8975C34.6387 67.3694 35.1107 67.9004 35.6416 68.3723C36.0546 68.7263 36.4675 69.0802 36.9395 69.4342C37.2344 69.6112 37.5294 69.8472 37.8244 70.0831C37.8834 70.1421 37.9424 70.2011 38.0014 70.2011C38.0604 70.2601 38.1783 70.3191 38.2373 70.3781V73.2688C38.1783 73.2098 38.1193 73.1508 38.0604 73.1508C37.7654 72.9148 37.5294 72.6788 37.2934 72.5019C36.8805 72.2069 36.4675 71.9709 36.0546 71.7349C35.8776 71.617 35.7596 71.558 35.6416 71.44C34.2848 70.5551 33.0459 69.7292 32.9869 68.8443Z" fill="white"/>
</g>
<path d="M50.981 74.8616C50.509 76.5724 49.9781 77.6342 49.9781 77.6342L34.7578 75.2155L35.6427 71.4399C35.7607 71.5579 35.9377 71.6169 36.0557 71.6759C36.4686 71.9119 36.9406 72.2069 37.2945 72.5018C37.5305 72.6788 37.8255 72.8558 38.0614 73.1508C38.1204 73.2097 38.1794 73.2687 38.1794 73.2687V70.3781C38.0614 70.3191 38.0024 70.2601 37.9435 70.2011C40.4212 71.4399 43.4888 72.0889 47.9133 69.4932C47.8543 69.4932 47.8543 69.5522 47.7953 69.5522V74.2716C47.7953 74.2716 48.1493 74.8026 50.981 74.8616Z" fill="url(#paint1_linear_6826_48828)"/>
<path d="M56.2329 51.8543C53.6962 52.7392 50.9825 53.0931 48.2688 52.8572C44.0213 52.5032 39.8917 50.7924 36.7061 47.9607C35.6442 51.0284 32.9895 53.3291 29.9808 54.686C29.5679 54.8629 29.1549 55.0399 28.742 55.1579C28.742 55.0989 28.742 55.0399 28.742 55.0399C28.447 52.7982 28.624 50.5564 29.3319 48.3737C30.0398 46.1909 31.3377 44.2441 32.9895 42.7103C33.0485 42.6513 33.1075 42.5923 33.2255 42.5333C33.5204 42.2974 33.8154 42.0614 34.1104 41.8254C35.6442 40.7045 37.414 39.8786 39.2428 39.4067C40.3047 39.1707 41.3076 39.0527 42.3694 39.0527C47.6198 39.0527 52.2803 42.0024 54.6401 46.4269C55.525 48.1377 55.9379 49.6125 56.1149 50.9694C56.2329 51.2644 56.2329 51.5593 56.2329 51.8543Z" fill="#8898AA"/>
<path d="M34.4609 67.0745C34.8149 67.5464 35.2279 67.9594 35.5818 68.3133C35.1689 67.9594 34.7559 67.5464 34.4609 67.0745Z" fill="#16CC53"/>
<path d="M40.0044 82C38.8835 83.4158 36.7598 83.4748 34.99 83.4158C36.8778 81.587 35.8159 75.6287 29.2086 76.3366H29.1496C20.0647 74.6258 21.0675 65.2459 29.8576 62.4732L31.3324 62.0012C31.4504 62.0602 31.5094 62.1192 31.5684 62.2372C32.2763 64.066 33.2202 65.5998 34.2231 66.8387C30.6245 69.8473 35.6389 70.7912 38.0576 73.092C40.1814 74.3308 41.9512 79.5222 40.0044 82Z" fill="#8898AA"/>
<path d="M34.4031 67.0744C34.3442 67.0154 34.2852 66.9565 34.2852 66.8975C34.2852 66.8975 34.3442 67.0154 34.4031 67.0744Z" fill="#16CC53"/>
<g filter="url(#filter2_d_6826_48828)">
<path d="M118.649 90.7308C118.944 92.9135 117.233 94.9193 114.991 94.9193H45.8509C43.6091 94.9193 41.8983 92.9135 42.1933 90.7308C42.8422 86.1883 43.8451 85.2444 50.5704 82.5307L52.2222 81.8818C55.3488 80.6429 59.4193 79.1091 64.9057 76.8084C66.1446 76.2774 67.1475 75.3335 67.6784 74.0947C67.9734 73.4457 68.1504 72.6788 68.1504 71.9119V61.5881C67.9734 61.3521 67.7964 61.1751 67.6784 60.9392C66.7935 59.6413 66.2036 58.1075 66.0266 56.4557L65.1417 56.0427C62.487 56.6916 62.723 53.86 62.0151 48.4326C61.7201 46.1908 62.074 45.7189 63.0769 45.3649L63.9028 44.2441C58.8294 32.7404 61.3661 25.5432 66.3806 23.0065C64.8467 19.3489 64.7287 18.051 64.7287 18.051C64.7287 18.051 75.4065 19.8208 79.0641 19.1129C83.7246 18.169 90.9218 19.2899 93.5765 25.4842C98.001 27.254 99.7118 30.0267 100.125 33.0943C100.774 37.9318 98.001 43.2412 97.47 45.3059C97.529 45.4239 97.529 45.4829 97.588 45.5419C98.2959 45.8959 98.5319 46.4858 98.2959 48.4326C97.647 53.565 97.824 56.7506 95.1693 56.0427L92.8096 60.1723C92.6916 60.6442 92.6916 60.8212 92.6326 61.1751C92.5146 61.9421 92.5736 63.4759 92.5736 71.9119C92.5736 72.9148 92.8686 73.9177 93.3995 74.6846C93.9894 75.5695 94.8153 76.3364 95.8182 76.7494C95.8772 76.7494 95.8772 76.7494 95.9362 76.8084C102.013 79.3451 106.378 80.9969 109.564 82.2358C116.82 85.0674 117.941 85.9523 118.649 90.7308Z" fill="white"/>
</g>
<path d="M97.5269 45.3059C97.7629 44.0081 97.173 42.4153 96.701 41.2944C96.642 41.1174 96.5241 40.9404 96.4651 40.7045C94.4003 36.5749 89.8578 34.9231 85.4923 34.6871C74.3426 34.0972 73.3397 36.221 69.8591 33.0353C70.921 34.6871 71.0389 37.2239 69.3871 40.4095C68.2073 42.6512 65.9655 43.6541 64.0187 44.303C58.9453 32.7994 61.482 25.6022 66.4965 23.0655C64.8447 19.3489 64.7267 18.051 64.7267 18.051C64.7267 18.051 75.4045 19.8208 79.062 19.1129C83.7225 18.169 90.9197 19.2899 93.5744 25.4842C97.9989 27.254 99.7097 30.0267 100.123 33.0943C100.831 37.8728 98.0579 43.1822 97.5269 45.3059Z" fill="#8898AA"/>
<path opacity="0.1" d="M112.397 94.8603C115.111 90.7308 114.049 86.8372 109.684 82.2357C116.822 85.0674 118.002 85.9523 118.651 90.6718C118.946 92.8545 117.235 94.8603 114.993 94.8603H112.397Z" fill="#8898AA"/>
<path d="M93.4555 74.6846V76.6904H67.7344V74.0947C68.0293 73.4458 68.2063 72.6788 68.2063 71.9119V61.5881C68.0293 61.3521 67.8524 61.1751 67.7344 60.9392V60.3492C68.2653 61.2931 68.9732 62.178 69.8581 62.886L77.9402 68.5493C79.828 70.1421 82.5417 70.2011 84.4885 68.6673L92.0396 61.8831C92.2756 61.6471 92.5706 61.4111 92.8065 61.1752C92.6885 61.9421 92.7475 63.4759 92.7475 71.9119C92.6885 72.9148 92.9835 73.8587 93.4555 74.6846Z" fill="url(#paint2_linear_6826_48828)"/>
<path d="M100.417 105.69C100.051 107.246 99.5019 108.894 98.8611 110.267C97.122 113.654 94.3759 116.308 90.989 118.048C87.5106 119.787 83.3915 120.519 79.2724 119.604C69.5695 117.59 63.3451 108.07 65.3589 98.3673C67.3727 88.6644 76.8009 82.3484 86.5037 84.4538C89.9821 85.1861 93.0028 86.9252 95.5658 89.3052C99.868 93.6074 101.699 99.8319 100.417 105.69Z" fill="#8898AA"/>
<path d="M88.6097 100.472H84.4906V96.3532C84.4906 95.5294 83.8499 94.7971 82.9345 94.7971C82.1107 94.7971 81.3784 95.4379 81.3784 96.3532V100.472H77.2592C76.4354 100.472 75.7031 101.113 75.7031 102.028C75.7031 102.944 76.3439 103.585 77.2592 103.585H81.3784V107.704C81.3784 108.528 82.0191 109.26 82.9345 109.26C83.7583 109.26 84.4906 108.619 84.4906 107.704V103.585H88.6097C89.4336 103.585 90.1659 102.944 90.1659 102.028C90.1659 101.113 89.4336 100.472 88.6097 100.472Z" fill="white"/>
<defs>
<filter id="filter0_d_6826_48828" x="82.7812" y="24.9268" width="83.0078" height="96.0911" filterUnits="userSpaceOnUse" color-interpolation-filters="sRGB">
<feFlood flood-opacity="0" result="BackgroundImageFix"/>
<feColorMatrix in="SourceAlpha" type="matrix" values="0 0 0 0 0 0 0 0 0 0 0 0 0 0 0 0 0 0 127 0" result="hardAlpha"/>
<feOffset dy="11"/>
<feGaussianBlur stdDeviation="11"/>
<feColorMatrix type="matrix" values="0 0 0 0 0.397708 0 0 0 0 0.47749 0 0 0 0 0.575 0 0 0 0.27 0"/>
<feBlend mode="normal" in2="BackgroundImageFix" result="effect1_dropShadow_6826_48828"/>
<feBlend mode="normal" in="SourceGraphic" in2="effect1_dropShadow_6826_48828" result="shape"/>
</filter>
<filter id="filter1_d_6826_48828" x="0.285156" y="27.9937" width="78.7305" height="93.0234" filterUnits="userSpaceOnUse" color-interpolation-filters="sRGB">
<feFlood flood-opacity="0" result="BackgroundImageFix"/>
<feColorMatrix in="SourceAlpha" type="matrix" values="0 0 0 0 0 0 0 0 0 0 0 0 0 0 0 0 0 0 127 0" result="hardAlpha"/>
<feOffset dy="11"/>
<feGaussianBlur stdDeviation="11"/>
<feColorMatrix type="matrix" values="0 0 0 0 0.397708 0 0 0 0 0.47749 0 0 0 0 0.575 0 0 0 0.27 0"/>
<feBlend mode="normal" in2="BackgroundImageFix" result="effect1_dropShadow_6826_48828"/>
<feBlend mode="normal" in="SourceGraphic" in2="effect1_dropShadow_6826_48828" result="shape"/>
</filter>
<filter id="filter2_d_6826_48828" x="20.1602" y="7.05103" width="120.523" height="120.868" filterUnits="userSpaceOnUse" color-interpolation-filters="sRGB">
<feFlood flood-opacity="0" result="BackgroundImageFix"/>
<feColorMatrix in="SourceAlpha" type="matrix" values="0 0 0 0 0 0 0 0 0 0 0 0 0 0 0 0 0 0 127 0" result="hardAlpha"/>
<feOffset dy="11"/>
<feGaussianBlur stdDeviation="11"/>
<feColorMatrix type="matrix" values="0 0 0 0 0.397708 0 0 0 0 0.47749 0 0 0 0 0.575 0 0 0 0.27 0"/>
<feBlend mode="normal" in2="BackgroundImageFix" result="effect1_dropShadow_6826_48828"/>
<feBlend mode="normal" in="SourceGraphic" in2="effect1_dropShadow_6826_48828" result="shape"/>
</filter>
<linearGradient id="paint0_linear_6826_48828" x1="117.86" y1="75.7548" x2="117.86" y2="69.645" gradientUnits="userSpaceOnUse">
<stop stop-color="white"/>
<stop offset="1" stop-color="#E2E5EC"/>
</linearGradient>
<linearGradient id="paint1_linear_6826_48828" x1="42.8743" y1="77.6838" x2="42.8743" y2="73.1989" gradientUnits="userSpaceOnUse">
<stop stop-color="white"/>
<stop offset="1" stop-color="#E2E5EC"/>
</linearGradient>
<linearGradient id="paint2_linear_6826_48828" x1="80.6027" y1="76.7899" x2="80.6027" y2="67.7876" gradientUnits="userSpaceOnUse">
<stop stop-color="white"/>
<stop offset="1" stop-color="#E2E5EC"/>
</linearGradient>
</defs>
</svg>
