<svg width="168" height="148" viewBox="0 0 168 148" fill="none" xmlns="http://www.w3.org/2000/svg">
<path d="M88.8433 141C127.589 141 159 109.497 159 70.5C159 31.503 127.589 0 88.8433 0C50.098 0 18.6865 31.503 18.6865 70.5C18.6865 109.497 50.098 141 88.8433 141Z" fill="#F7F9FA"/>
<g filter="url(#filter0_d_4681_80436)">
<path d="M153.878 42.3276H33.906C31.2768 42.3276 29.2012 40.2459 29.2012 37.6091V10.5471C29.2012 7.91031 31.2768 5.82861 33.906 5.82861H153.74C156.369 5.82861 158.445 7.91031 158.445 10.5471V37.6091C158.583 40.2459 156.369 42.3276 153.878 42.3276Z" fill="white"/>
</g>
<path d="M58.2604 24.0088C58.2604 27.062 56.8766 29.8375 54.801 31.7805C53.0021 33.4458 50.5113 34.4173 47.8821 34.4173C45.253 34.4173 42.7622 33.4458 40.9633 31.7805C38.7493 29.8375 37.5039 27.062 37.5039 24.0088C37.5039 18.3188 42.2087 13.6003 47.8821 13.6003C53.5556 13.6003 58.2604 18.3188 58.2604 24.0088Z" fill="#EDF1F5"/>
<path d="M47.6666 25.4434L44.6845 22.4526C44.2601 22.0269 43.572 22.0269 43.1475 22.4526C42.7231 22.8782 42.7231 23.5683 43.1475 23.994L46.1297 26.9848C46.5541 27.4104 47.2422 27.4104 47.6666 26.9848C48.091 26.5591 48.091 25.869 47.6666 25.4434Z" fill="#8898AA"/>
<path d="M51.3741 20.1998L46.1669 25.4222C45.7425 25.8478 45.7425 26.5379 46.1669 26.9636C46.5913 27.3892 47.2794 27.3892 47.7038 26.9636L52.9111 21.7412C53.3355 21.3155 53.3355 20.6254 52.9111 20.1998C52.4866 19.7741 51.7985 19.7741 51.3741 20.1998Z" fill="#8898AA"/>
<path d="M92.3003 20.9556H65.732C65.0401 20.9556 64.625 20.4005 64.625 19.8453V16.3759C64.625 15.682 65.1785 15.2656 65.732 15.2656H92.3003C92.9922 15.2656 93.4073 15.8207 93.4073 16.3759V19.8453C93.4073 20.5392 92.9922 20.9556 92.3003 20.9556Z" fill="#C8CFD6"/>
<path d="M123.85 32.7519H65.732C65.0401 32.7519 64.625 32.1967 64.625 31.6416V28.1721C64.625 27.4782 65.1785 27.0619 65.732 27.0619H123.85C124.542 27.0619 124.957 27.617 124.957 28.1721V31.6416C124.957 32.3355 124.404 32.7519 123.85 32.7519Z" fill="#C8CFD6"/>
<g filter="url(#filter1_d_4681_80436)">
<path d="M153.878 133.367H33.906C31.2768 133.367 29.2012 131.285 29.2012 128.649V101.587C29.2012 98.9498 31.2768 96.8682 33.906 96.8682H153.74C156.369 96.8682 158.445 98.9498 158.445 101.587V128.649C158.583 131.285 156.369 133.367 153.878 133.367Z" fill="white"/>
</g>
<path d="M58.2604 115.048C58.2604 118.102 56.8766 120.877 54.801 122.82C53.0021 124.485 50.5113 125.457 47.8821 125.457C45.253 125.457 42.7622 124.485 40.9633 122.82C38.7493 120.877 37.5039 118.102 37.5039 115.048C37.5039 109.358 42.2087 104.64 47.8821 104.64C53.5556 104.64 58.2604 109.358 58.2604 115.048Z" fill="#EDF1F5"/>
<path d="M47.6666 117.038L44.6845 114.047C44.2601 113.621 43.572 113.621 43.1475 114.047C42.7231 114.473 42.7231 115.163 43.1475 115.588L46.1297 118.579C46.5541 119.005 47.2422 119.005 47.6666 118.579C48.091 118.154 48.091 117.464 47.6666 117.038Z" fill="#8898AA"/>
<path d="M51.3741 111.794L46.1669 117.017C45.7425 117.442 45.7425 118.132 46.1669 118.558C46.5913 118.984 47.2794 118.984 47.7038 118.558L52.9111 113.336C53.3355 112.91 53.3355 112.22 52.9111 111.794C52.4866 111.369 51.7985 111.369 51.3741 111.794Z" fill="#8898AA"/>
<path d="M92.3003 112.134H65.732C65.0401 112.134 64.625 111.579 64.625 111.024V107.554C64.625 106.86 65.1785 106.444 65.732 106.444H92.3003C92.9922 106.444 93.4073 106.999 93.4073 107.554V111.024C93.4073 111.579 92.9922 112.134 92.3003 112.134Z" fill="#C8CFD6"/>
<path d="M123.85 123.93H65.732C65.0401 123.93 64.625 123.375 64.625 122.82V119.35C64.625 118.656 65.1785 118.24 65.732 118.24H123.85C124.542 118.24 124.957 118.795 124.957 119.35V122.82C124.957 123.375 124.404 123.93 123.85 123.93Z" fill="#C8CFD6"/>
<g filter="url(#filter2_d_4681_80436)">
<path d="M133.539 87.8475H13.7048C11.0756 87.8475 9 85.7658 9 83.129V56.067C9 53.4301 11.0756 51.3484 13.7048 51.3484H133.539C136.168 51.3484 138.244 53.4301 138.244 56.067V83.129C138.382 85.7658 136.168 87.8475 133.539 87.8475Z" fill="white"/>
</g>
<path d="M72.0991 66.4757H45.5308C44.839 66.4757 44.4238 65.9205 44.4238 65.3654V61.8959C44.4238 61.202 44.9773 60.7857 45.5308 60.7857H72.0991C72.791 60.7857 73.2061 61.3408 73.2061 61.8959V65.3654C73.2061 66.0593 72.791 66.4757 72.0991 66.4757Z" fill="#C8CFD6"/>
<path d="M103.649 78.4107H45.5308C44.839 78.4107 44.4238 77.8556 44.4238 77.3005V73.831C44.4238 73.1371 44.9773 72.7208 45.5308 72.7208H103.511C104.202 72.7208 104.618 73.2759 104.618 73.831V77.3005C104.756 77.8556 104.202 78.4107 103.649 78.4107Z" fill="#C8CFD6"/>
<path d="M38.1966 69.5289C38.1966 72.4433 36.9512 75.0801 35.0139 77.023C34.8756 77.1618 34.8756 77.1618 34.7372 77.3005C32.9383 78.9659 30.4475 79.9374 27.8184 79.9374C25.1892 79.9374 22.8368 78.9659 21.0379 77.4393C21.0379 77.4393 21.0379 77.4393 20.8995 77.4393C18.6855 75.4964 17.3018 72.7208 17.3018 69.5289C17.3018 63.8389 22.0066 59.1204 27.68 59.1204C33.4918 59.1204 38.1966 63.8389 38.1966 69.5289Z" fill="#EDF1F5"/>
<path d="M26.9107 71.2408L23.9286 68.25C23.5042 67.8244 22.8161 67.8244 22.3917 68.25C21.9673 68.6757 21.9673 69.3658 22.3917 69.7914L25.3738 72.7822C25.7982 73.2079 26.4863 73.2079 26.9107 72.7822C27.3351 72.3566 27.3351 71.6665 26.9107 71.2408Z" fill="#8898AA"/>
<path d="M30.6183 65.9972L25.411 71.2196C24.9866 71.6452 24.9866 72.3354 25.411 72.761C25.8355 73.1866 26.5236 73.1866 26.948 72.761L32.1552 67.5386C32.5796 67.113 32.5796 66.4229 32.1552 65.9972C31.7308 65.5716 31.0427 65.5716 30.6183 65.9972Z" fill="#8898AA"/>
<defs>
<filter id="filter0_d_4681_80436" x="20.2012" y="1.82861" width="147.25" height="54.499" filterUnits="userSpaceOnUse" color-interpolation-filters="sRGB">
<feFlood flood-opacity="0" result="BackgroundImageFix"/>
<feColorMatrix in="SourceAlpha" type="matrix" values="0 0 0 0 0 0 0 0 0 0 0 0 0 0 0 0 0 0 127 0" result="hardAlpha"/>
<feOffset dy="5"/>
<feGaussianBlur stdDeviation="4.5"/>
<feColorMatrix type="matrix" values="0 0 0 0 0.397708 0 0 0 0 0.47749 0 0 0 0 0.575 0 0 0 0.17 0"/>
<feBlend mode="normal" in2="BackgroundImageFix" result="effect1_dropShadow_4681_80436"/>
<feBlend mode="normal" in="SourceGraphic" in2="effect1_dropShadow_4681_80436" result="shape"/>
</filter>
<filter id="filter1_d_4681_80436" x="20.2012" y="92.8682" width="147.25" height="54.499" filterUnits="userSpaceOnUse" color-interpolation-filters="sRGB">
<feFlood flood-opacity="0" result="BackgroundImageFix"/>
<feColorMatrix in="SourceAlpha" type="matrix" values="0 0 0 0 0 0 0 0 0 0 0 0 0 0 0 0 0 0 127 0" result="hardAlpha"/>
<feOffset dy="5"/>
<feGaussianBlur stdDeviation="4.5"/>
<feColorMatrix type="matrix" values="0 0 0 0 0.397708 0 0 0 0 0.47749 0 0 0 0 0.575 0 0 0 0.17 0"/>
<feBlend mode="normal" in2="BackgroundImageFix" result="effect1_dropShadow_4681_80436"/>
<feBlend mode="normal" in="SourceGraphic" in2="effect1_dropShadow_4681_80436" result="shape"/>
</filter>
<filter id="filter2_d_4681_80436" x="0" y="47.3484" width="147.25" height="54.499" filterUnits="userSpaceOnUse" color-interpolation-filters="sRGB">
<feFlood flood-opacity="0" result="BackgroundImageFix"/>
<feColorMatrix in="SourceAlpha" type="matrix" values="0 0 0 0 0 0 0 0 0 0 0 0 0 0 0 0 0 0 127 0" result="hardAlpha"/>
<feOffset dy="5"/>
<feGaussianBlur stdDeviation="4.5"/>
<feColorMatrix type="matrix" values="0 0 0 0 0.397708 0 0 0 0 0.47749 0 0 0 0 0.575 0 0 0 0.17 0"/>
<feBlend mode="normal" in2="BackgroundImageFix" result="effect1_dropShadow_4681_80436"/>
<feBlend mode="normal" in="SourceGraphic" in2="effect1_dropShadow_4681_80436" result="shape"/>
</filter>
</defs>
</svg>
