<svg width="90" height="90" viewBox="0 0 90 90" fill="none" xmlns="http://www.w3.org/2000/svg">
<g clip-path="url(#clip0_13_51)">
<path d="M77.0366 57.3225C77.0366 66.2867 73.3771 74.367 67.5093 80.1748C61.7677 85.9195 53.8177 89.3915 45.0476 89.3915C36.3405 89.3915 28.3906 85.8564 22.5859 80.1748C16.7181 74.367 13.0586 66.2867 13.0586 57.3225C13.0586 39.5835 27.3811 25.2534 45.0476 25.2534C62.7141 25.2534 77.0366 39.6466 77.0366 57.3225Z" fill="#EAEEF9"/>
<path d="M80.3506 45.1582C81.7792 45.1582 82.9374 43.9994 82.9374 42.5699C82.9374 41.1405 81.7792 39.9817 80.3506 39.9817C78.9219 39.9817 77.7637 41.1405 77.7637 42.5699C77.7637 43.9994 78.9219 45.1582 80.3506 45.1582Z" fill="#EAEEF9"/>
<path d="M78.0479 26.2005C79.0236 26.2005 79.8145 25.4091 79.8145 24.4329C79.8145 23.4567 79.0236 22.6653 78.0479 22.6653C77.0722 22.6653 76.2812 23.4567 76.2812 24.4329C76.2812 25.4091 77.0722 26.2005 78.0479 26.2005Z" fill="#EAEEF9"/>
<path d="M14.0694 36.2376C15.0451 36.2376 15.836 35.4462 15.836 34.47C15.836 33.4938 15.0451 32.7024 14.0694 32.7024C13.0937 32.7024 12.3027 33.4938 12.3027 34.47C12.3027 35.4462 13.0937 36.2376 14.0694 36.2376Z" fill="#EAEEF9"/>
<path d="M3.28092 70.327C5.09293 70.327 6.56184 68.8573 6.56184 67.0444C6.56184 65.2314 5.09293 63.7617 3.28092 63.7617C1.46892 63.7617 0 65.2314 0 67.0444C0 68.8573 1.46892 70.327 3.28092 70.327Z" fill="#EAEEF9"/>
<path d="M69.3078 38.4431L66.6765 57.5664L63.3874 81.1959C62.62 81.6355 61.7429 81.9652 60.8658 81.9652H22.9316C21.287 81.9652 19.8618 81.4157 18.6558 80.5365C18.3269 80.3167 17.998 79.987 17.669 79.6572C16.3534 78.3384 15.4763 76.3601 15.4763 74.2719V33.3875C15.4763 31.5191 17.0112 30.0903 18.7654 30.0903H30.2772C31.0447 30.0903 31.8121 30.42 32.47 31.0795L36.1976 35.1459C36.7458 35.6955 37.5132 36.0252 38.2807 36.0252H67.1151C68.4307 36.0252 69.4174 37.1242 69.3078 38.4431Z" fill="url(#paint0_linear_13_51)"/>
<g filter="url(#filter0_d_13_51)">
<path d="M21.0681 77.7891L24.1379 42.2899C24.2476 40.9711 25.3439 39.9819 26.6596 39.9819H70.2948C71.5008 39.9819 72.3779 40.9711 72.2683 42.18L69.1985 72.4038L21.0681 77.7891Z" fill="url(#paint1_linear_13_51)"/>
</g>
<g filter="url(#filter1_d_13_51)">
<path d="M38.4989 73.9424L22.4919 77.6791L32.3592 50.5327C32.7978 49.3238 33.8941 48.5544 35.2098 48.5544H73.9114C75.3367 48.5544 76.3234 50.0931 75.6656 51.412L65.1405 72.9532L38.4989 73.9424Z" fill="url(#paint2_linear_13_51)"/>
</g>
<g filter="url(#filter2_d_13_51)">
<path d="M79.3946 60.204L64.7033 79.9868C64.3744 80.4264 63.8262 80.866 63.3876 81.1957C62.6202 81.6354 61.7431 81.9651 60.866 81.9651H22.9318C21.2873 81.9651 19.862 81.4156 18.656 80.5363L32.1918 64.7382C33.3427 63.395 35.0232 62.6219 36.792 62.6219H58.1251C59.2215 62.6219 60.3178 62.2922 61.1949 61.5228L65.3611 58.3356C65.7997 58.0059 66.2382 57.7861 66.6767 57.5663C67.2249 57.3465 67.8827 57.2366 68.4309 57.2366H77.8597C79.3946 57.1267 80.2717 58.995 79.3946 60.204Z" fill="url(#paint3_linear_13_51)"/>
</g>
<path d="M71.221 34.0544L54.0105 22.9008C53.021 22.2532 52.7324 20.9366 53.3764 19.9355L64.0638 3.47185C64.7124 2.48207 66.0296 2.19246 67.0304 2.83547L84.2409 13.989C85.2304 14.6367 85.519 15.9533 84.8751 16.9543L74.1922 33.4293C73.5436 34.4191 72.2105 34.702 71.221 34.0544Z" fill="#EAEEF9"/>
<path d="M71.8704 30.9718L56.739 21.1647C56.3114 20.8923 56.1961 20.3209 56.4688 19.8932L65.3068 6.2804C65.5796 5.85269 66.1513 5.73692 66.5789 6.00927L81.7103 15.8164C82.1379 16.0887 82.2532 16.6602 81.9805 17.0879L73.1424 30.7007C72.8697 31.1284 72.298 31.2442 71.8704 30.9718Z" fill="white"/>
<path d="M67.9507 21.1113L62.4277 17.5296L67.213 16.1876L67.9507 21.1113Z" fill="#B0B7C4"/>
<path d="M72.5213 24.0701L64.5644 18.9188L71.4544 16.9907L72.5213 24.0701Z" fill="#CED6E2"/>
<path d="M66.8063 14.0373C67.0662 14.6724 67.792 14.9761 68.4275 14.7157C69.0629 14.4554 69.3673 13.7295 69.1074 13.0944C68.8474 12.4594 68.1216 12.1557 67.4862 12.416C66.8507 12.6764 66.5463 13.4023 66.8063 14.0373Z" fill="#B0B7C4"/>
<path d="M56.4585 79.884C56.2381 80.8205 55.9076 81.8121 55.522 82.6384C54.4753 84.6766 52.8227 86.2741 50.7845 87.3207C48.6912 88.3674 46.2123 88.8081 43.7334 88.2572C37.8943 87.0453 34.1484 81.3163 35.3603 75.4771C36.5722 69.6379 42.2461 65.837 48.0853 67.1039C50.1786 67.5446 51.9964 68.5913 53.5389 70.0235C56.1279 72.6126 57.2297 76.3585 56.4585 79.884Z" fill="white"/>
<g filter="url(#filter3_d_13_51)">
<path d="M49.3512 76.7437H46.8723V74.2648C46.8723 73.7691 46.4867 73.3284 45.9358 73.3284C45.4401 73.3284 44.9994 73.714 44.9994 74.2648V76.7437H42.5205C42.0247 76.7437 41.584 77.1293 41.584 77.6802C41.584 78.2311 41.9696 78.6167 42.5205 78.6167H44.9994V81.0956C44.9994 81.5914 45.385 82.0321 45.9358 82.0321C46.4316 82.0321 46.8723 81.6465 46.8723 81.0956V78.6167H49.3512C49.847 78.6167 50.2877 78.2311 50.2877 77.6802C50.2877 77.1293 49.847 76.7437 49.3512 76.7437Z" fill="url(#paint4_linear_13_51)"/>
</g>
</g>
<defs>
<filter id="filter0_d_13_51" x="8.95273" y="31.3281" width="68.5172" height="55.1148" filterUnits="userSpaceOnUse" color-interpolation-filters="sRGB">
<feFlood flood-opacity="0" result="BackgroundImageFix"/>
<feColorMatrix in="SourceAlpha" type="matrix" values="0 0 0 0 0 0 0 0 0 0 0 0 0 0 0 0 0 0 127 0" result="hardAlpha"/>
<feOffset dx="-3.46154"/>
<feGaussianBlur stdDeviation="4.32692"/>
<feColorMatrix type="matrix" values="0 0 0 0 0.397708 0 0 0 0 0.47749 0 0 0 0 0.575 0 0 0 0.15 0"/>
<feBlend mode="normal" in2="BackgroundImageFix" result="effect1_dropShadow_13_51"/>
<feBlend mode="normal" in="SourceGraphic" in2="effect1_dropShadow_13_51" result="shape"/>
</filter>
<filter id="filter1_d_13_51" x="10.3766" y="39.9006" width="70.6895" height="46.4324" filterUnits="userSpaceOnUse" color-interpolation-filters="sRGB">
<feFlood flood-opacity="0" result="BackgroundImageFix"/>
<feColorMatrix in="SourceAlpha" type="matrix" values="0 0 0 0 0 0 0 0 0 0 0 0 0 0 0 0 0 0 127 0" result="hardAlpha"/>
<feOffset dx="-3.46154"/>
<feGaussianBlur stdDeviation="4.32692"/>
<feColorMatrix type="matrix" values="0 0 0 0 0.397708 0 0 0 0 0.47749 0 0 0 0 0.575 0 0 0 0.15 0"/>
<feBlend mode="normal" in2="BackgroundImageFix" result="effect1_dropShadow_13_51"/>
<feBlend mode="normal" in="SourceGraphic" in2="effect1_dropShadow_13_51" result="shape"/>
</filter>
<filter id="filter2_d_13_51" x="5.67524" y="48.5781" width="78.3946" height="42.0408" filterUnits="userSpaceOnUse" color-interpolation-filters="sRGB">
<feFlood flood-opacity="0" result="BackgroundImageFix"/>
<feColorMatrix in="SourceAlpha" type="matrix" values="0 0 0 0 0 0 0 0 0 0 0 0 0 0 0 0 0 0 127 0" result="hardAlpha"/>
<feOffset dx="-4.32692"/>
<feGaussianBlur stdDeviation="4.32692"/>
<feColorMatrix type="matrix" values="0 0 0 0 0.397708 0 0 0 0 0.47749 0 0 0 0 0.575 0 0 0 0.2 0"/>
<feBlend mode="normal" in2="BackgroundImageFix" result="effect1_dropShadow_13_51"/>
<feBlend mode="normal" in="SourceGraphic" in2="effect1_dropShadow_13_51" result="shape"/>
</filter>
<filter id="filter3_d_13_51" x="28.6032" y="64.6745" width="26.0113" height="26.0113" filterUnits="userSpaceOnUse" color-interpolation-filters="sRGB">
<feFlood flood-opacity="0" result="BackgroundImageFix"/>
<feColorMatrix in="SourceAlpha" type="matrix" values="0 0 0 0 0 0 0 0 0 0 0 0 0 0 0 0 0 0 127 0" result="hardAlpha"/>
<feOffset dx="-4.32692"/>
<feGaussianBlur stdDeviation="4.32692"/>
<feColorMatrix type="matrix" values="0 0 0 0 0.397708 0 0 0 0 0.47749 0 0 0 0 0.575 0 0 0 0.2 0"/>
<feBlend mode="normal" in2="BackgroundImageFix" result="effect1_dropShadow_13_51"/>
<feBlend mode="normal" in="SourceGraphic" in2="effect1_dropShadow_13_51" result="shape"/>
</filter>
<linearGradient id="paint0_linear_13_51" x1="42.4005" y1="31.8924" x2="42.4005" y2="61.0093" gradientUnits="userSpaceOnUse">
<stop stop-color="#B0BACC"/>
<stop offset="1" stop-color="#969EAE"/>
</linearGradient>
<linearGradient id="paint1_linear_13_51" x1="46.6561" y1="39.1074" x2="46.6561" y2="78.1967" gradientUnits="userSpaceOnUse">
<stop stop-color="#FDFEFF"/>
<stop offset="0.9964" stop-color="#ECF0F5"/>
</linearGradient>
<linearGradient id="paint2_linear_13_51" x1="49.1655" y1="47.8808" x2="49.1655" y2="77.9931" gradientUnits="userSpaceOnUse">
<stop stop-color="#FDFEFF"/>
<stop offset="0.9964" stop-color="#ECF0F5"/>
</linearGradient>
<linearGradient id="paint3_linear_13_51" x1="49.2043" y1="58.0911" x2="49.2043" y2="71.9736" gradientUnits="userSpaceOnUse">
<stop stop-color="#B0BACC"/>
<stop offset="1" stop-color="#969EAE"/>
</linearGradient>
<linearGradient id="paint4_linear_13_51" x1="45.9365" y1="73.6307" x2="45.9365" y2="78.516" gradientUnits="userSpaceOnUse">
<stop stop-color="#B0BACC"/>
<stop offset="1" stop-color="#969EAE"/>
</linearGradient>
<clipPath id="clip0_13_51">
<rect width="90" height="90" fill="white"/>
</clipPath>
</defs>
</svg>
