<svg width="156" height="130" viewBox="0 0 156 130" fill="none" xmlns="http://www.w3.org/2000/svg">
<path d="M76.7079 115C108.897 115 134.951 89.2385 134.951 57.4537C134.951 25.6688 108.897 0 76.7079 0C44.6128 0 18.4648 25.7615 18.4648 57.5463C18.4648 89.3312 44.6128 115 76.7079 115Z" fill="#F7F9FA"/>
<path d="M104.555 114.786C95.6817 115.064 85.0148 114.786 77.4631 114.693C70.0057 114.971 59.2444 115.064 50.3711 114.786C59.15 109.874 62.2651 100.7 62.6427 94.6768H92.0946C92.7554 100.607 95.8705 109.874 104.555 114.786Z" fill="#C8CFD6"/>
<g filter="url(#filter0_d_42_59)">
<path d="M133.059 17.9486V93.6577C133.059 95.6037 131.549 96.9937 129.85 96.9937H25.6353C23.8417 96.9937 22.4258 95.511 22.4258 93.6577V17.9486C22.4258 16.1879 23.9361 14.6125 25.6353 14.6125H129.661C131.643 14.7052 133.059 16.1879 133.059 17.9486Z" fill="white"/>
</g>
<path d="M132.815 17.5022V84.2145H22.1836V17.5022C22.1836 15.6852 23.7327 14.1277 25.4109 14.1277H129.458C131.395 14.1277 132.815 15.6852 132.815 17.5022Z" fill="#8898AA"/>
<path d="M128.837 18.928H26.0312V80.3739H128.966V18.928H128.837Z" fill="white"/>
<rect x="30.4141" y="23.3865" width="31.8768" height="23.8739" fill="#F7F9FA"/>
<rect x="69.8828" y="23.3865" width="53.128" height="9.69877" fill="#F7F9FA"/>
<rect x="69.8828" y="52.4827" width="53.128" height="9.69878" fill="#F7F9FA"/>
<rect x="69.8828" y="36.8152" width="53.128" height="4.47636" fill="#F7F9FA"/>
<rect x="69.8828" y="65.9114" width="53.128" height="4.47637" fill="#F7F9FA"/>
<rect x="30.4141" y="52.4827" width="31.8768" height="23.8739" fill="#F7F9FA"/>
<path d="M77.5578 92.4528C79.0682 92.4528 80.2953 91.3408 80.2953 89.7655C80.2953 88.2828 79.1626 87.0781 77.5578 87.0781C76.0475 87.0781 74.8203 88.1901 74.8203 89.7655C74.8203 91.2481 75.9531 92.4528 77.5578 92.4528Z" fill="#EDF1F5"/>
<path d="M1 114.971H150.147" stroke="#EDF1F5" stroke-width="2" stroke-miterlimit="10" stroke-linecap="round" stroke-linejoin="round"/>
<path d="M11.4836 50.5965C13.6547 50.5965 15.3538 48.9285 15.3538 46.7972C15.3538 44.6658 13.6547 42.9978 11.4836 42.9978C9.31243 42.9978 7.61328 44.6658 7.61328 46.7972C7.61328 48.9285 9.40683 50.5965 11.4836 50.5965Z" fill="#F7F9FA"/>
<path d="M7.61187 38.2719C9.02783 38.2719 10.255 37.0672 10.255 35.6772C10.255 34.2872 9.02783 33.0825 7.61187 33.0825C6.19591 33.0825 4.96875 34.2872 4.96875 35.6772C4.96875 37.1599 6.19591 38.2719 7.61187 38.2719Z" fill="#F7F9FA"/>
<path d="M146.092 60.1411C148.83 60.1411 151.001 58.0097 151.001 55.3224C151.001 52.635 148.83 50.5037 146.092 50.5037C143.355 50.5037 141.184 52.635 141.184 55.3224C141.184 58.0097 143.355 60.1411 146.092 60.1411Z" fill="#F7F9FA"/>
<path d="M101.757 49.8717C101.757 53.0966 101.211 56.0527 99.9803 58.8745C97.2464 65.8618 91.3684 71.2366 84.1235 73.6553C81.663 74.4615 79.0657 74.8646 76.3318 74.8646C62.2521 74.8646 50.9062 63.7119 50.9062 49.8717C50.9062 36.0315 62.2521 24.8787 76.3318 24.8787C90.4115 24.8787 101.757 36.1658 101.757 49.8717Z" fill="#E62E30"/>
<path d="M82.0282 46.7167V41.7659C82.0282 39.0655 79.6801 36.8152 76.8624 36.8152C75.4535 36.8152 74.2012 37.4153 73.1054 38.3154C72.1661 39.2156 71.54 40.4157 71.54 41.916V46.8667C70.1311 47.7669 69.0353 48.817 68.0961 50.3172C67.3134 51.6674 66.8438 53.3177 66.8438 54.968C66.8438 60.2188 71.2269 64.4194 76.7058 64.4194C82.1848 64.4194 86.5679 60.2188 86.5679 54.968C86.7245 51.3674 84.846 48.367 82.0282 46.7167ZM77.9582 55.8681V58.4185C77.9582 58.7185 77.6451 59.0186 77.332 59.0186H76.2362C75.9231 59.0186 75.61 58.7185 75.61 58.4185V56.7682V55.8681C74.6708 55.418 74.2012 54.3679 74.3577 53.3177C74.5143 52.4176 75.297 51.6675 76.2362 51.5174C77.8016 51.2174 79.2105 52.4176 79.2105 53.7678C79.2105 54.6679 78.7409 55.418 77.9582 55.8681ZM79.5236 45.6665C78.5843 45.3665 77.8016 45.2165 76.7058 45.2165C75.7666 45.2165 74.8273 45.3665 73.8881 45.6665V41.916C73.8881 41.1659 74.2012 40.4157 74.6708 39.9657C75.1404 39.5156 75.9231 39.2156 76.7058 39.2156C78.2712 39.2156 79.5236 40.4157 79.5236 41.916V45.6665Z" fill="white"/>
<defs>
<filter id="filter0_d_42_59" x="0.425781" y="3.61255" width="154.633" height="126.381" filterUnits="userSpaceOnUse" color-interpolation-filters="sRGB">
<feFlood flood-opacity="0" result="BackgroundImageFix"/>
<feColorMatrix in="SourceAlpha" type="matrix" values="0 0 0 0 0 0 0 0 0 0 0 0 0 0 0 0 0 0 127 0" result="hardAlpha"/>
<feOffset dy="11"/>
<feGaussianBlur stdDeviation="11"/>
<feColorMatrix type="matrix" values="0 0 0 0 0.397708 0 0 0 0 0.47749 0 0 0 0 0.575 0 0 0 0.27 0"/>
<feBlend mode="normal" in2="BackgroundImageFix" result="effect1_dropShadow_42_59"/>
<feBlend mode="normal" in="SourceGraphic" in2="effect1_dropShadow_42_59" result="shape"/>
</filter>
</defs>
</svg>
