<svg width="193" height="150" viewBox="0 0 193 150" fill="none" xmlns="http://www.w3.org/2000/svg">
<path d="M92.8471 146.819C131.659 146.819 163.124 115.354 163.124 76.4035C163.124 37.453 131.52 5.98767 92.8471 5.98767C54.0352 5.98767 22.5698 37.453 22.5698 76.4035C22.5698 115.354 54.0352 146.819 92.8471 146.819Z" fill="#EDF1F5"/>
<path d="M158.55 30.2451C161.689 30.2451 164.233 27.7007 164.233 24.562C164.233 21.4232 161.689 18.8788 158.55 18.8788C155.411 18.8788 152.867 21.4232 152.867 24.562C152.867 27.7007 155.411 30.2451 158.55 30.2451Z" fill="#EDF1F5"/>
<path d="M166.867 8.06682C169.011 8.06682 170.748 6.32915 170.748 4.18563C170.748 2.04211 169.011 0.304443 166.867 0.304443C164.724 0.304443 162.986 2.04211 162.986 4.18563C162.986 6.32915 164.724 8.06682 166.867 8.06682Z" fill="#EDF1F5"/>
<path d="M26.3123 30.1065C28.4559 30.1065 30.1935 28.3688 30.1935 26.2253C30.1935 24.0818 28.4559 22.3441 26.3123 22.3441C24.1688 22.3441 22.4312 24.0818 22.4312 26.2253C22.4312 28.3688 24.1688 30.1065 26.3123 30.1065Z" fill="#EDF1F5"/>
<path d="M9.98087 114.007C13.9617 114.007 17.1888 110.78 17.1888 106.799C17.1888 102.818 13.9617 99.5909 9.98087 99.5909C6.00005 99.5909 2.77295 102.818 2.77295 106.799C2.77295 110.78 6.00005 114.007 9.98087 114.007Z" fill="#EDF1F5"/>
<g filter="url(#filter0_d_8_45)">
<path d="M167.64 107.77H146.32C145.312 107.77 144.447 107.122 144.159 106.258C142.07 100.063 137.46 98.5508 126.296 94.1571C125.648 93.869 125.576 93.0046 126.224 92.6445C129.465 91.0599 128.889 89.6913 128.889 80.1836C128.745 80.0395 128.601 79.8234 128.529 79.6794C127.809 78.599 127.304 77.3025 127.16 76.0059L126.44 75.6458C124.279 76.15 124.423 73.8451 123.847 69.3793C123.631 67.5066 123.919 67.1465 124.711 66.8584L125.432 65.922C121.182 56.4142 123.343 50.4359 127.521 48.275C126.152 45.2499 126.08 44.1694 126.08 44.1694C126.08 44.1694 134.939 45.682 137.965 45.0338C141.854 44.2415 147.761 45.1778 149.993 50.2918C153.667 51.7324 155.107 54.1093 155.468 56.5583C155.972 60.5919 153.739 64.9856 153.307 66.7143C153.379 66.7863 153.379 66.8584 153.451 66.9304C154.027 67.2185 154.243 67.7227 154.027 69.3073C153.523 73.557 153.595 76.222 151.434 75.5738L149.489 78.9591C149.417 79.3913 149.345 79.5353 149.345 79.7514C149.273 80.3997 149.273 81.6242 149.273 88.6829C149.273 89.5473 149.489 90.3396 149.921 90.9878C150.354 91.7801 151.074 92.3564 151.938 92.7165H152.01C157.052 94.8053 160.654 96.1739 163.319 97.2543C169.225 99.6312 170.233 100.279 170.738 104.241C170.882 106.186 169.513 107.77 167.64 107.77Z" fill="white"/>
</g>
<path d="M153.161 66.6412C153.377 65.5607 152.873 64.2642 152.441 63.3279C152.369 63.1838 152.297 63.0398 152.225 62.8237C150.568 59.4383 146.75 57.9978 143.149 57.8537C133.929 57.3495 133.065 59.1502 130.184 56.4852C131.048 57.8537 131.192 59.9425 129.752 62.6076C128.815 64.4803 126.943 65.2726 125.286 65.8489C121.108 56.3411 123.197 50.3628 127.375 48.2019C126.006 45.1767 125.934 44.0963 125.934 44.0963C125.934 44.0963 134.794 45.6089 137.819 44.9607C141.708 44.1683 147.615 45.1047 149.848 50.2187C153.521 51.6593 154.962 54.0362 155.322 56.4852C155.898 60.5188 153.593 64.9125 153.161 66.6412Z" fill="url(#paint0_linear_8_45)"/>
<path opacity="0.1" d="M165.406 107.769C167.639 104.312 166.774 101.071 163.173 97.2532C169.079 99.6301 170.088 100.278 170.592 104.24C170.88 106.041 169.439 107.697 167.567 107.697H165.406V107.769Z" fill="#606468"/>
<path d="M149.775 91.0587V92.7154H128.383V90.5545C128.887 89.4021 128.743 89.4741 128.743 80.1825C128.599 80.0384 128.455 79.8223 128.383 79.6783V79.1741C128.815 79.9664 129.463 80.6867 130.112 81.2629L136.81 85.9447C138.395 87.2412 140.628 87.3133 142.212 86.0168L148.479 80.3986C148.695 80.1825 148.911 80.0384 149.127 79.8223C149.055 80.4706 149.055 81.6951 149.055 88.7538C149.127 89.5461 149.343 90.3385 149.775 91.0587Z" fill="url(#paint1_linear_8_45)"/>
<g filter="url(#filter1_d_8_45)">
<path d="M57.4352 91.7072C53.9778 91.6351 53.6177 90.9869 53.6177 90.9869V85.2246C57.2911 82.1994 60.3883 78.67 61.2527 74.0602C63.5576 73.556 64.9982 71.4672 64.7821 69.1623C64.71 68.1539 64.0618 67.2175 63.9898 66.1371C63.9898 65.6329 63.9898 65.1287 63.9898 64.6245C63.9898 64.2644 63.9898 63.9763 63.9177 63.6161C63.9177 63.256 63.8457 62.8958 63.8457 62.5357C63.6296 60.807 63.1974 59.0063 62.045 56.9175C59.1639 51.5154 53.4736 47.9139 47.0631 47.9139C45.7666 47.9139 44.4701 48.058 43.2456 48.3461C40.9407 48.8503 38.8519 49.8587 36.9791 51.2993C36.619 51.5874 36.2589 51.8755 35.8987 52.1636C35.8267 52.2356 35.7547 52.3077 35.6106 52.3797C33.5938 54.2524 32.0092 56.6294 31.1448 59.2944C30.2805 61.9595 30.0644 64.6965 30.4246 67.4336C30.4246 67.5056 30.4246 67.5777 30.4246 67.6497C30.4246 67.7217 30.4246 67.7938 30.4246 67.8658C30.4966 68.37 30.6407 68.298 30.2805 68.7301C30.2085 68.8742 30.0644 69.0182 29.9924 69.2343C29.5602 70.0266 29.2001 71.1071 29.7043 72.4036C30.5686 74.8525 32.2973 74.4924 33.8819 75.8609C33.8099 75.933 33.6658 76.005 33.5938 76.005H33.5218L31.7211 76.5812C20.9168 79.9665 19.6923 91.419 30.7847 93.5079C29.9924 93.5799 29.2721 94.0121 28.7679 94.3722C25.2385 97.1093 23.0057 101.287 22.4294 105.393C22.2133 106.617 23.2217 107.769 24.5182 107.769H41.661C42.0211 107.769 42.3813 107.481 42.5253 107.121C44.1099 101.359 47.7114 99.3422 55.2023 96.317L59.524 94.5883C60.2443 94.3002 61.0366 94.0121 61.9009 93.6519C62.6932 93.3638 62.6212 92.2113 61.7569 91.9953C60.8925 91.7792 60.0282 91.7072 59.1639 91.6351C58.4436 91.7072 57.8674 91.7072 57.4352 91.7072ZM35.4665 84.3603C35.4665 83.64 35.9707 82.8477 37.0512 81.9833C37.4833 82.5596 38.0596 83.2078 38.7078 83.784C39.212 84.2162 39.7162 84.6484 40.2924 85.0805C40.6526 85.2966 41.0127 85.5847 41.3729 85.8729C41.4449 85.9449 41.5169 86.0169 41.589 86.0169C41.661 86.0889 41.805 86.161 41.8771 86.233V89.7624C41.805 89.6904 41.733 89.6183 41.661 89.6183C41.3008 89.3302 41.0127 89.0421 40.7246 88.826C40.2204 88.4659 39.7162 88.1778 39.212 87.8897C38.9959 87.7456 38.8519 87.6736 38.7078 87.5295C37.0512 86.4491 35.5386 85.4407 35.4665 84.3603Z" fill="white"/>
</g>
<path d="M57.4352 91.7072C56.859 93.796 56.2107 95.0925 56.2107 95.0925L37.6274 92.1393L38.7079 87.5295C38.8519 87.6736 39.068 87.7456 39.2121 87.8176C39.7163 88.1058 40.2925 88.4659 40.7247 88.826C41.0128 89.0421 41.3729 89.2582 41.661 89.6183C41.7331 89.6904 41.8051 89.7624 41.8051 89.7624V86.233C41.661 86.161 41.589 86.089 41.517 86.0169C44.5422 87.5295 48.2876 88.3218 53.6898 85.1526C53.6177 85.1526 53.6177 85.2246 53.5457 85.2246V90.9869C53.5457 90.9869 53.9779 91.6351 57.4352 91.7072Z" fill="url(#paint2_linear_8_45)"/>
<path d="M63.8456 63.6161C60.7484 64.6965 57.4351 65.1287 54.1218 64.8406C48.9358 64.4084 43.8938 62.3196 40.0043 58.8622C38.7078 62.6077 35.4665 65.4168 31.793 67.0735C31.2888 67.2895 30.7846 67.5056 30.2804 67.6497C30.2804 67.5777 30.2804 67.5056 30.2804 67.5056C29.9203 64.7686 30.1364 62.0315 31.0007 59.3664C31.8651 56.7014 33.4497 54.3245 35.4665 52.4517C35.5385 52.3797 35.6105 52.3077 35.7546 52.2356C36.1147 51.9475 36.4749 51.6594 36.835 51.3713C38.7078 50.0028 40.8686 48.9944 43.1015 48.4181C44.398 48.13 45.6225 47.986 46.919 47.986C53.3295 47.986 59.0197 51.5874 61.9009 56.9895C62.9813 59.0783 63.4855 60.879 63.7016 62.5357C63.8456 62.8958 63.8456 63.256 63.8456 63.6161Z" fill="url(#paint3_linear_8_45)"/>
<path d="M44.0379 100.423C42.6693 102.151 40.0763 102.223 37.9155 102.151C40.2204 99.9184 38.9239 92.6435 30.8567 93.5079H30.7847C19.6923 91.4191 20.9168 79.9666 31.649 76.5812L33.4497 76.005C33.5938 76.077 33.6658 76.1491 33.7378 76.2931C34.6022 78.526 35.7546 80.3987 36.9791 81.9113C32.5854 85.5848 38.7078 86.7372 41.6609 89.5463C44.254 91.0589 46.4148 97.3974 44.0379 100.423Z" fill="url(#paint4_linear_8_45)"/>
<g filter="url(#filter2_d_8_45)">
<path d="M140.052 111.083C140.412 113.748 138.323 116.197 135.586 116.197H51.1688C48.4317 116.197 46.3429 113.748 46.7031 111.083C47.4954 105.537 48.7199 104.384 56.9311 101.071L58.9479 100.278C62.7654 98.7659 67.7353 96.8932 74.434 94.0841C75.9466 93.4358 77.171 92.2834 77.8193 90.7708C78.1794 89.9784 78.3955 89.0421 78.3955 88.1057V75.5008C78.1794 75.2126 77.9634 74.9966 77.8193 74.7084C76.7389 73.1238 76.0186 71.2511 75.8025 69.2343L74.7221 68.7301C71.4808 69.5224 71.7689 66.0651 70.9046 59.4384C70.5444 56.7014 70.9766 56.1251 72.2011 55.693L73.2095 54.3244C67.015 40.2789 70.1123 31.4915 76.2347 28.3942C74.3619 23.9285 74.2179 22.3439 74.2179 22.3439C74.2179 22.3439 87.255 24.5047 91.7208 23.6404C97.411 22.4879 106.198 23.8565 109.44 31.4194C114.842 33.5803 116.931 36.9656 117.435 40.7111C118.227 46.6174 114.842 53.1 114.194 55.6209C114.266 55.765 114.266 55.837 114.338 55.9091C115.202 56.3412 115.49 57.0615 115.202 59.4384C114.41 65.7049 114.626 69.5944 111.384 68.7301L108.503 73.7721C108.359 74.3483 108.359 74.5644 108.287 74.9966C108.143 75.9329 108.215 77.8057 108.215 88.1057C108.215 89.3302 108.575 90.5547 109.224 91.491C109.944 92.5715 110.952 93.5078 112.177 94.012C112.249 94.012 112.249 94.012 112.321 94.0841C119.74 97.1813 125.07 99.1981 128.959 100.711C137.819 104.168 139.187 105.248 140.052 111.083Z" fill="white"/>
</g>
<path d="M114.265 55.6209C114.554 54.0363 113.833 52.0916 113.257 50.723C113.185 50.5069 113.041 50.2909 112.969 50.0027C110.448 44.9608 104.902 42.944 99.5717 42.6559C85.9584 41.9356 84.7339 44.5286 80.4842 40.6391C81.7807 42.6559 81.9248 45.7531 79.908 49.6426C78.4674 52.3797 75.7304 53.6042 73.3534 54.3965C67.159 40.3509 70.2562 31.5635 76.3786 28.4663C74.3618 23.9285 74.2178 22.3439 74.2178 22.3439C74.2178 22.3439 87.2549 24.5047 91.7206 23.6404C97.4109 22.4879 106.198 23.8565 109.44 31.4194C114.842 33.5803 116.931 36.9656 117.435 40.7111C118.299 46.5454 114.914 53.0279 114.265 55.6209Z" fill="url(#paint5_linear_8_45)"/>
<path opacity="0.1" d="M132.417 116.125C135.73 111.083 134.434 106.329 129.104 100.711C137.819 104.168 139.26 105.248 140.052 111.011C140.412 113.676 138.323 116.125 135.586 116.125H132.417Z" fill="#606468"/>
<path d="M109.296 91.491V93.94H77.8914V90.7708C78.2515 89.9784 78.4676 89.0421 78.4676 88.1057V75.5008C78.2515 75.2126 78.0354 74.9966 77.8914 74.7084V73.9882C78.5396 75.1406 79.404 76.221 80.4844 77.0854L90.3523 84.0001C92.6572 85.9449 95.9705 86.0169 98.3474 84.1442L107.567 75.8609C107.855 75.5728 108.215 75.2847 108.503 74.9966C108.359 75.9329 108.431 77.8057 108.431 88.1057C108.359 89.3302 108.719 90.4826 109.296 91.491Z" fill="url(#paint6_linear_8_45)"/>
<path d="M117.793 129.348C117.346 131.247 116.676 133.259 115.893 134.936C113.77 139.071 110.417 142.312 106.282 144.435C102.035 146.559 97.0057 147.453 91.9764 146.335C80.1296 143.877 72.5298 132.253 74.9886 120.407C77.4474 108.56 88.9588 100.848 100.806 103.419C105.053 104.313 108.741 106.436 111.87 109.342C117.123 114.595 119.358 122.195 117.793 129.348Z" fill="url(#paint7_linear_8_45)"/>
<path d="M88 126.12L92.5714 130.6L104 119.4" stroke="white" stroke-width="5" stroke-linecap="round" stroke-linejoin="round"/>
<defs>
<filter id="filter0_d_8_45" x="101.123" y="33.1694" width="91.625" height="107.601" filterUnits="userSpaceOnUse" color-interpolation-filters="sRGB">
<feFlood flood-opacity="0" result="BackgroundImageFix"/>
<feColorMatrix in="SourceAlpha" type="matrix" values="0 0 0 0 0 0 0 0 0 0 0 0 0 0 0 0 0 0 127 0" result="hardAlpha"/>
<feOffset dy="11"/>
<feGaussianBlur stdDeviation="11"/>
<feColorMatrix type="matrix" values="0 0 0 0 0.397708 0 0 0 0 0.47749 0 0 0 0 0.575 0 0 0 0.27 0"/>
<feBlend mode="normal" in2="BackgroundImageFix" result="effect1_dropShadow_8_45"/>
<feBlend mode="normal" in="SourceGraphic" in2="effect1_dropShadow_8_45" result="shape"/>
</filter>
<filter id="filter1_d_8_45" x="0.400146" y="36.9139" width="86.4033" height="103.855" filterUnits="userSpaceOnUse" color-interpolation-filters="sRGB">
<feFlood flood-opacity="0" result="BackgroundImageFix"/>
<feColorMatrix in="SourceAlpha" type="matrix" values="0 0 0 0 0 0 0 0 0 0 0 0 0 0 0 0 0 0 127 0" result="hardAlpha"/>
<feOffset dy="11"/>
<feGaussianBlur stdDeviation="11"/>
<feColorMatrix type="matrix" values="0 0 0 0 0.397708 0 0 0 0 0.47749 0 0 0 0 0.575 0 0 0 0.27 0"/>
<feBlend mode="normal" in2="BackgroundImageFix" result="effect1_dropShadow_8_45"/>
<feBlend mode="normal" in="SourceGraphic" in2="effect1_dropShadow_8_45" result="shape"/>
</filter>
<filter id="filter2_d_8_45" x="24.6626" y="11.3439" width="137.43" height="137.853" filterUnits="userSpaceOnUse" color-interpolation-filters="sRGB">
<feFlood flood-opacity="0" result="BackgroundImageFix"/>
<feColorMatrix in="SourceAlpha" type="matrix" values="0 0 0 0 0 0 0 0 0 0 0 0 0 0 0 0 0 0 127 0" result="hardAlpha"/>
<feOffset dy="11"/>
<feGaussianBlur stdDeviation="11"/>
<feColorMatrix type="matrix" values="0 0 0 0 0.397708 0 0 0 0 0.47749 0 0 0 0 0.575 0 0 0 0.27 0"/>
<feBlend mode="normal" in2="BackgroundImageFix" result="effect1_dropShadow_8_45"/>
<feBlend mode="normal" in="SourceGraphic" in2="effect1_dropShadow_8_45" result="shape"/>
</filter>
<linearGradient id="paint0_linear_8_45" x1="122.994" y1="55.3712" x2="155.42" y2="55.3712" gradientUnits="userSpaceOnUse">
<stop stop-color="#B0BACC"/>
<stop offset="1" stop-color="#969EAE"/>
</linearGradient>
<linearGradient id="paint1_linear_8_45" x1="139.086" y1="92.7978" x2="139.086" y2="85.338" gradientUnits="userSpaceOnUse">
<stop stop-color="white"/>
<stop offset="1" stop-color="#E2E5EC"/>
</linearGradient>
<linearGradient id="paint2_linear_8_45" x1="47.5373" y1="95.153" x2="47.5373" y2="89.6771" gradientUnits="userSpaceOnUse">
<stop stop-color="white"/>
<stop offset="1" stop-color="#E2E5EC"/>
</linearGradient>
<linearGradient id="paint3_linear_8_45" x1="30.0983" y1="57.82" x2="63.8518" y2="57.82" gradientUnits="userSpaceOnUse">
<stop stop-color="#B0BACC"/>
<stop offset="1" stop-color="#969EAE"/>
</linearGradient>
<linearGradient id="paint4_linear_8_45" x1="23.0038" y1="89.0898" x2="45.0669" y2="89.0898" gradientUnits="userSpaceOnUse">
<stop stop-color="#B0BACC"/>
<stop offset="1" stop-color="#969EAE"/>
</linearGradient>
<linearGradient id="paint5_linear_8_45" x1="69.9511" y1="38.986" x2="117.584" y2="38.986" gradientUnits="userSpaceOnUse">
<stop stop-color="#B0BACC"/>
<stop offset="1" stop-color="#969EAE"/>
</linearGradient>
<linearGradient id="paint6_linear_8_45" x1="93.603" y1="94.0614" x2="93.603" y2="83.0701" gradientUnits="userSpaceOnUse">
<stop stop-color="white"/>
<stop offset="1" stop-color="#E2E5EC"/>
</linearGradient>
<linearGradient id="paint7_linear_8_45" x1="74.5066" y1="124.876" x2="118.292" y2="124.876" gradientUnits="userSpaceOnUse">
<stop stop-color="#B0BACC"/>
<stop offset="1" stop-color="#969EAE"/>
</linearGradient>
</defs>
</svg>
