<svg width="171" height="149" viewBox="0 0 171 149" fill="none" xmlns="http://www.w3.org/2000/svg">
<path d="M84 140C122.66 140 154 108.66 154 70C154 31.3401 122.66 0 84 0C45.3401 0 14 31.3401 14 70C14 108.66 45.3401 140 84 140Z" fill="#EDF1F5"/>
<path d="M73.0844 33.0652L71.2847 28.026C70.9247 26.7663 69.665 26.0464 68.4052 26.0464H36.5506C33.851 26.0464 31.6914 28.0261 31.6914 30.9056V101.993V92.2955C31.6914 91.1909 32.5868 90.2955 33.6914 90.2955H138.033C139.138 90.2955 140.033 89.4001 140.033 88.2955V39.904C140.033 37.2045 138.053 35.0449 135.174 35.0449H75.7839C74.8841 35.0449 73.6243 34.325 73.0844 33.0652Z" fill="url(#paint0_linear_10_5)"/>
<g filter="url(#filter0_d_10_5)">
<path d="M148.797 55.2015L139.979 110.092C139.439 113.332 136.559 115.851 133.32 115.851H36.4962C33.0768 115.851 30.3773 113.512 29.8374 110.092L22.4586 65.0999C21.9187 61.6804 24.4383 58.441 28.0377 58.441H82.5684C84.1881 58.441 85.6279 57.3612 86.1678 55.7414L87.7875 50.8823C88.3274 49.2626 89.7672 48.1827 91.3869 48.1827H143.398C146.638 48.5427 149.337 51.6022 148.797 55.2015Z" fill="url(#paint1_linear_10_5)"/>
</g>
<path d="M94.6404 24.2881L96.1935 23.5979C96.7111 23.4253 96.7111 22.735 96.1935 22.5625L94.6404 21.8722C92.7422 21.0094 91.1891 19.4563 90.3263 17.5582L89.6361 16.0051C89.4635 15.4874 88.7732 15.4874 88.6007 16.0051L87.9104 17.5582C87.0476 19.4563 85.4946 21.0094 83.5964 21.8722L82.0433 22.5625C81.5256 22.735 81.5256 23.4253 82.0433 23.5979L83.5964 24.2881C85.4946 25.1509 87.0476 26.704 87.9104 28.6022L88.6007 30.1552C88.7732 30.6729 89.4635 30.6729 89.6361 30.1552L90.3263 28.6022C91.0166 26.704 92.5696 25.1509 94.6404 24.2881Z" fill="#8898AA"/>
<path d="M77.9011 14.452L78.9365 13.9343C79.2816 13.7617 79.2816 13.4166 78.9365 13.2441L77.9011 12.8989C76.5206 12.3812 75.4852 11.3459 74.9676 9.96536L74.4499 8.92999C74.2773 8.58486 73.9322 8.58486 73.7596 8.92999L73.4145 9.96536C72.7242 11.3459 71.6889 12.3812 70.4809 12.8989L69.273 13.4166C69.1004 13.4166 69.1004 13.9343 69.273 13.9343L70.3084 14.452C71.6889 14.9697 72.7242 16.0051 73.4145 17.3856L73.9322 18.4209C74.1047 18.7661 74.4499 18.7661 74.6224 18.4209L74.9676 17.3856C75.4852 16.0051 76.5206 14.9697 77.9011 14.452Z" fill="#8898AA"/>
<path d="M91.1886 4.44349L92.0515 4.09837C92.224 3.92581 92.224 3.75324 92.0515 3.58068L91.1886 3.23555C90.1533 2.89043 89.463 2.02761 88.9453 0.992237L88.6002 0.129422C88.4276 -0.0431407 88.2551 -0.0431407 88.0825 0.129422L87.7374 0.992237C87.3923 2.02761 86.5294 2.71787 85.4941 3.23555L84.9764 3.58068C84.6312 3.75324 84.6312 4.09837 84.9764 4.09837L85.8392 4.44349C86.8746 4.78862 87.5648 5.65143 88.0825 6.68681L88.4276 7.54963C88.6002 7.72219 88.7728 7.72219 88.9453 7.54963L89.2904 6.68681C89.463 5.65143 90.3258 4.78862 91.1886 4.44349Z" fill="#8898AA"/>
<defs>
<filter id="filter0_d_10_5" x="0.385742" y="37.1827" width="170.48" height="111.668" filterUnits="userSpaceOnUse" color-interpolation-filters="sRGB">
<feFlood flood-opacity="0" result="BackgroundImageFix"/>
<feColorMatrix in="SourceAlpha" type="matrix" values="0 0 0 0 0 0 0 0 0 0 0 0 0 0 0 0 0 0 127 0" result="hardAlpha"/>
<feOffset dy="11"/>
<feGaussianBlur stdDeviation="11"/>
<feColorMatrix type="matrix" values="0 0 0 0 0.397708 0 0 0 0 0.47749 0 0 0 0 0.575 0 0 0 0.27 0"/>
<feBlend mode="normal" in2="BackgroundImageFix" result="effect1_dropShadow_10_5"/>
<feBlend mode="normal" in="SourceGraphic" in2="effect1_dropShadow_10_5" result="shape"/>
</filter>
<linearGradient id="paint0_linear_10_5" x1="59.0465" y1="22.4142" x2="47.0948" y2="58.8542" gradientUnits="userSpaceOnUse">
<stop stop-color="#B0BACC"/>
<stop offset="1" stop-color="#969EAE"/>
</linearGradient>
<linearGradient id="paint1_linear_10_5" x1="85.5848" y1="46.6175" x2="85.5848" y2="116.581" gradientUnits="userSpaceOnUse">
<stop stop-color="#FDFEFF"/>
<stop offset="0.9964" stop-color="#ECF0F5"/>
</linearGradient>
</defs>
</svg>
