<svg width="108" height="117" viewBox="0 0 108 117" fill="none" xmlns="http://www.w3.org/2000/svg">
<path d="M54.1727 95C76.966 95 95.4507 76.6542 95.4507 54C95.4507 31.3458 76.966 13 54.1727 13C31.3795 13 12.8948 31.3458 12.8948 54C12.8948 76.6542 31.3795 95 54.1727 95Z" fill="#ECF3FA"/>
<path d="M85.7919 48.6489V73.7354C85.7919 78.9472 81.5529 83.1862 76.2716 83.1862H32.2139C27.0021 83.1862 22.7631 79.0167 22.6936 73.8049C22.6936 73.7354 22.6936 73.7354 22.6936 73.6659V48.6489C22.6936 48.5794 22.6936 48.5794 22.6936 48.51C22.6936 48.371 22.6936 48.232 22.7631 48.093C22.8326 47.8845 22.9021 47.7456 22.9716 47.5371L34.7851 24.9523C35.2021 24.0489 36.1055 23.5625 37.0783 23.5625H71.3377C72.3106 23.5625 73.1445 24.0489 73.6309 24.9523L85.4445 47.5371C85.5139 47.6761 85.5834 47.8845 85.6529 48.093C85.7919 48.232 85.7919 48.4405 85.7919 48.6489Z" fill="#8E9BA8"/>
<g filter="url(#filter0_d_13_21)">
<path d="M63.2767 48.8577H45.4174C44.653 48.8577 44.0276 48.3018 44.0276 47.4679V23.0764C44.0276 22.3119 44.5835 21.6865 45.4174 21.6865H63.2072C63.9717 21.6865 64.5971 22.2425 64.5971 23.0764V47.4679C64.5971 48.2323 64.0411 48.8577 63.2767 48.8577Z" fill="#F5F8FF"/>
</g>
<g filter="url(#filter1_d_13_21)">
<path d="M69.1839 54.6255H39.511C38.5381 54.6255 37.7737 53.7916 37.7737 52.8882V29.1916C37.7737 28.2188 38.6076 27.4543 39.511 27.4543H69.1839C70.1567 27.4543 70.9211 28.2882 70.9211 29.1916V52.8882C70.8516 53.8611 70.1567 54.6255 69.1839 54.6255Z" fill="#F5F8FF"/>
</g>
<g filter="url(#filter2_d_13_21)">
<path d="M72.5861 61.3663H36.1726C35.1302 61.3663 34.2268 60.463 34.2268 59.4901V36.1409C34.2268 35.0985 35.1302 34.2646 36.1726 34.2646H72.5861C73.6285 34.2646 74.5319 35.168 74.5319 36.1409V59.4206C74.4624 60.5324 73.6285 61.3663 72.5861 61.3663Z" fill="#F5F8FF"/>
</g>
<g filter="url(#filter3_d_13_21)">
<path d="M76.2709 67.8984H32.4912C31.3099 67.8984 30.4065 66.9255 30.4065 65.8832V42.8815C30.4065 41.7001 31.3794 40.8662 32.4912 40.8662H76.2709C77.4523 40.8662 78.3556 41.8391 78.3556 42.8815V65.8137C78.2862 66.995 77.4523 67.8984 76.2709 67.8984Z" fill="#F5F8FF"/>
</g>
<path d="M63.1379 49.9696H46.6684C46.2514 49.9696 45.8345 49.6221 45.8345 49.1357C45.8345 48.7187 46.1819 48.3018 46.6684 48.3018H63.1379C63.5548 48.3018 63.9718 48.6492 63.9718 49.1357C63.9718 49.6221 63.6243 49.9696 63.1379 49.9696Z" fill="#E6ECF5"/>
<path d="M58.342 54.8342H37.4945C37.2165 54.8342 37.0081 54.6257 37.0081 54.3478C37.0081 54.0698 37.2165 53.8613 37.4945 53.8613H58.2725C58.5504 53.8613 58.7589 54.0698 58.7589 54.3478C58.8979 54.4868 58.6894 54.8342 58.342 54.8342Z" fill="#E6ECF5"/>
<path d="M72.0329 54.834H61.5397C61.2617 54.834 61.0532 54.6255 61.0532 54.3475C61.0532 54.0696 61.2617 53.8611 61.5397 53.8611H71.9634C72.2414 53.8611 72.4498 54.0696 72.4498 54.3475C72.5888 54.4865 72.3803 54.834 72.0329 54.834Z" fill="#E6ECF5"/>
<g filter="url(#filter4_d_13_21)">
<path d="M82.1653 49.9071V73.6912C82.1653 77.074 79.4591 79.7803 76.0148 79.7803H32.4691C29.0863 79.7803 26.3186 77.074 26.3186 73.6912V49.7841C26.3186 49.6611 26.3186 49.538 26.3801 49.415H38.3185C40.4097 49.415 42.1319 51.0757 42.1319 53.2284C42.1319 54.274 42.5624 55.258 43.239 55.9346C43.977 56.6727 44.8381 57.0417 45.9452 57.0417H63.2952C65.3863 57.0417 67.1085 55.381 67.1085 53.2284C67.1085 52.1828 67.539 51.1987 68.2156 50.5221C68.9536 49.7841 69.8147 49.415 70.8603 49.415H82.0423C82.1653 49.538 82.1653 49.7226 82.1653 49.9071Z" fill="white"/>
</g>
<g filter="url(#filter5_d_13_21)">
<path d="M85.7919 48.6492V76.3068C85.7919 80.1289 82.7343 83.1865 78.8428 83.1865H29.6428C25.8207 83.1865 22.6936 80.1289 22.6936 76.3068V48.5102C22.6936 48.3712 22.6936 48.2322 22.7631 48.0933H38.6072C40.9699 48.0933 42.9156 49.9695 42.9156 52.4017C42.9156 53.5831 43.4021 54.695 44.1665 55.4594C45.0004 56.2933 45.9733 56.7102 47.2241 56.7102H61.3309C63.6936 56.7102 65.6394 54.8339 65.6394 52.4017C65.6394 51.2204 66.1258 50.1085 66.8902 49.3441C67.7241 48.5102 68.697 48.0933 69.8783 48.0933H85.6529C85.7919 48.2322 85.7919 48.4407 85.7919 48.6492Z" fill="url(#paint0_linear_13_21)"/>
</g>
<path d="M78.8439 73.1798H64.5286C64.0422 73.1798 63.6252 72.8324 63.6252 72.2764C63.6252 71.79 63.9727 71.373 64.5286 71.373H78.7049C79.1913 71.373 79.6083 71.7205 79.6083 72.2764C79.6778 72.6934 79.2608 73.1798 78.8439 73.1798Z" fill="#E6ECF5"/>
<path d="M72.4507 77.5578H64.5286C64.0422 77.5578 63.6252 77.2103 63.6252 76.6544C63.6252 76.1679 63.9727 75.751 64.5286 75.751H72.3812C72.8676 75.751 73.2846 76.0984 73.2846 76.6544C73.3541 77.0713 72.9371 77.5578 72.4507 77.5578Z" fill="#E6ECF5"/>
<path d="M67.5209 80.4765C67.243 81.6579 66.826 82.9087 66.3396 83.9511C65.0192 86.5223 62.9345 88.5375 60.3633 89.8579C57.7226 91.1782 54.5955 91.7341 51.4684 91.0392C44.0328 89.4409 39.3074 82.2833 40.8362 74.9172C42.365 67.5511 49.5226 62.7562 56.8887 64.3545C59.5294 64.9104 61.8226 66.2307 63.7684 68.0375C67.104 71.3036 68.4243 75.9596 67.5209 80.4765Z" fill="#16CC53"/>
<path d="M58.4821 76.4462H55.355V73.3191C55.355 72.6936 54.8686 72.1377 54.1737 72.1377C53.5482 72.1377 52.9923 72.6241 52.9923 73.3191V76.4462H49.8652C49.2398 76.4462 48.6838 76.9326 48.6838 77.6275C48.6838 78.3224 49.1703 78.8089 49.8652 78.8089H52.9923V81.936C52.9923 82.5614 53.4788 83.1174 54.1737 83.1174C54.7991 83.1174 55.355 82.6309 55.355 81.936V78.8089H58.4821C59.1076 78.8089 59.6635 78.3224 59.6635 77.6275C59.6635 76.9326 59.1076 76.4462 58.4821 76.4462Z" fill="white"/>
<path d="M94.396 34.4034C95.9696 34.4034 97.2452 33.1278 97.2452 31.5542C97.2452 29.9807 95.9696 28.7051 94.396 28.7051C92.8225 28.7051 91.5469 29.9807 91.5469 31.5542C91.5469 33.1278 92.8225 34.4034 94.396 34.4034Z" fill="#EAEEF9"/>
<path d="M91.5454 25.1611C92.62 25.1611 93.4911 24.2899 93.4911 23.2153C93.4911 22.1407 92.62 21.2695 91.5454 21.2695C90.4708 21.2695 89.5996 22.1407 89.5996 23.2153C89.5996 24.2899 90.4708 25.1611 91.5454 25.1611Z" fill="#EAEEF9"/>
<path d="M12.7424 31.5541C13.817 31.5541 14.6882 30.683 14.6882 29.6084C14.6882 28.5337 13.817 27.6626 12.7424 27.6626C11.6678 27.6626 10.7966 28.5337 10.7966 29.6084C10.7966 30.683 11.6678 31.5541 12.7424 31.5541Z" fill="#EAEEF9"/>
<path d="M8.36551 74.3612C10.3612 74.3612 11.9791 72.7433 11.9791 70.7476C11.9791 68.7519 10.3612 67.134 8.36551 67.134C6.3698 67.134 4.75195 68.7519 4.75195 70.7476C4.75195 72.7433 6.3698 74.3612 8.36551 74.3612Z" fill="#EAEEF9"/>
<defs>
<filter id="filter0_d_13_21" x="22.0276" y="0.686523" width="64.5696" height="71.1711" filterUnits="userSpaceOnUse" color-interpolation-filters="sRGB">
<feFlood flood-opacity="0" result="BackgroundImageFix"/>
<feColorMatrix in="SourceAlpha" type="matrix" values="0 0 0 0 0 0 0 0 0 0 0 0 0 0 0 0 0 0 127 0" result="hardAlpha"/>
<feOffset dy="1"/>
<feGaussianBlur stdDeviation="11"/>
<feColorMatrix type="matrix" values="0 0 0 0 0.397708 0 0 0 0 0.47749 0 0 0 0 0.575 0 0 0 0.18 0"/>
<feBlend mode="normal" in2="BackgroundImageFix" result="effect1_dropShadow_13_21"/>
<feBlend mode="normal" in="SourceGraphic" in2="effect1_dropShadow_13_21" result="shape"/>
</filter>
<filter id="filter1_d_13_21" x="15.7737" y="6.45435" width="77.1475" height="71.1711" filterUnits="userSpaceOnUse" color-interpolation-filters="sRGB">
<feFlood flood-opacity="0" result="BackgroundImageFix"/>
<feColorMatrix in="SourceAlpha" type="matrix" values="0 0 0 0 0 0 0 0 0 0 0 0 0 0 0 0 0 0 127 0" result="hardAlpha"/>
<feOffset dy="1"/>
<feGaussianBlur stdDeviation="11"/>
<feColorMatrix type="matrix" values="0 0 0 0 0.397708 0 0 0 0 0.47749 0 0 0 0 0.575 0 0 0 0.18 0"/>
<feBlend mode="normal" in2="BackgroundImageFix" result="effect1_dropShadow_13_21"/>
<feBlend mode="normal" in="SourceGraphic" in2="effect1_dropShadow_13_21" result="shape"/>
</filter>
<filter id="filter2_d_13_21" x="12.2268" y="13.2646" width="84.3052" height="71.1018" filterUnits="userSpaceOnUse" color-interpolation-filters="sRGB">
<feFlood flood-opacity="0" result="BackgroundImageFix"/>
<feColorMatrix in="SourceAlpha" type="matrix" values="0 0 0 0 0 0 0 0 0 0 0 0 0 0 0 0 0 0 127 0" result="hardAlpha"/>
<feOffset dy="1"/>
<feGaussianBlur stdDeviation="11"/>
<feColorMatrix type="matrix" values="0 0 0 0 0.397708 0 0 0 0 0.47749 0 0 0 0 0.575 0 0 0 0.18 0"/>
<feBlend mode="normal" in2="BackgroundImageFix" result="effect1_dropShadow_13_21"/>
<feBlend mode="normal" in="SourceGraphic" in2="effect1_dropShadow_13_21" result="shape"/>
</filter>
<filter id="filter3_d_13_21" x="8.40649" y="19.8662" width="91.9492" height="71.0322" filterUnits="userSpaceOnUse" color-interpolation-filters="sRGB">
<feFlood flood-opacity="0" result="BackgroundImageFix"/>
<feColorMatrix in="SourceAlpha" type="matrix" values="0 0 0 0 0 0 0 0 0 0 0 0 0 0 0 0 0 0 127 0" result="hardAlpha"/>
<feOffset dy="1"/>
<feGaussianBlur stdDeviation="11"/>
<feColorMatrix type="matrix" values="0 0 0 0 0.397708 0 0 0 0 0.47749 0 0 0 0 0.575 0 0 0 0.18 0"/>
<feBlend mode="normal" in2="BackgroundImageFix" result="effect1_dropShadow_13_21"/>
<feBlend mode="normal" in="SourceGraphic" in2="effect1_dropShadow_13_21" result="shape"/>
</filter>
<filter id="filter4_d_13_21" x="13.3186" y="33.415" width="81.8467" height="56.3652" filterUnits="userSpaceOnUse" color-interpolation-filters="sRGB">
<feFlood flood-opacity="0" result="BackgroundImageFix"/>
<feColorMatrix in="SourceAlpha" type="matrix" values="0 0 0 0 0 0 0 0 0 0 0 0 0 0 0 0 0 0 127 0" result="hardAlpha"/>
<feOffset dy="-3"/>
<feGaussianBlur stdDeviation="6.5"/>
<feColorMatrix type="matrix" values="0 0 0 0 0.397708 0 0 0 0 0.47749 0 0 0 0 0.575 0 0 0 0.27 0"/>
<feBlend mode="normal" in2="BackgroundImageFix" result="effect1_dropShadow_13_21"/>
<feBlend mode="normal" in="SourceGraphic" in2="effect1_dropShadow_13_21" result="shape"/>
</filter>
<filter id="filter5_d_13_21" x="0.693604" y="37.0933" width="107.098" height="79.0933" filterUnits="userSpaceOnUse" color-interpolation-filters="sRGB">
<feFlood flood-opacity="0" result="BackgroundImageFix"/>
<feColorMatrix in="SourceAlpha" type="matrix" values="0 0 0 0 0 0 0 0 0 0 0 0 0 0 0 0 0 0 127 0" result="hardAlpha"/>
<feOffset dy="11"/>
<feGaussianBlur stdDeviation="11"/>
<feColorMatrix type="matrix" values="0 0 0 0 0.397708 0 0 0 0 0.47749 0 0 0 0 0.575 0 0 0 0.27 0"/>
<feBlend mode="normal" in2="BackgroundImageFix" result="effect1_dropShadow_13_21"/>
<feBlend mode="normal" in="SourceGraphic" in2="effect1_dropShadow_13_21" result="shape"/>
</filter>
<linearGradient id="paint0_linear_13_21" x1="54.2222" y1="47.2815" x2="54.2222" y2="83.5648" gradientUnits="userSpaceOnUse">
<stop stop-color="#FDFEFF"/>
<stop offset="0.9964" stop-color="#ECF0F5"/>
</linearGradient>
</defs>
</svg>
