<svg width="164" height="164" viewBox="0 0 164 164" fill="none" xmlns="http://www.w3.org/2000/svg">
<path d="M137.03 62.8197C139.609 62.8197 141.7 60.7269 141.7 58.1452C141.7 55.5636 139.609 53.4708 137.03 53.4708C134.45 53.4708 132.359 55.5636 132.359 58.1452C132.359 60.7269 134.45 62.8197 137.03 62.8197Z" fill="#EAEEF9"/>
<path d="M12.971 88.0981C14.6679 88.0981 16.0435 86.7212 16.0435 85.0228C16.0435 83.3244 14.6679 81.9475 12.971 81.9475C11.2741 81.9475 9.89844 83.3244 9.89844 85.0228C9.89844 86.7212 11.2741 88.0981 12.971 88.0981Z" fill="#EAEEF9"/>
<path d="M27.096 143.386C28.7929 143.386 30.1685 142.009 30.1685 140.311C30.1685 138.612 28.7929 137.235 27.096 137.235C25.3991 137.235 24.0234 138.612 24.0234 140.311C24.0234 142.009 25.3991 143.386 27.096 143.386Z" fill="#EAEEF9"/>
<path d="M43.5195 143.386L86.6357 129.876V74.4839L43.5195 87.8901V143.386Z" fill="#B7BFCD"/>
<path opacity="0.4" d="M129.753 143.386L86.6367 129.876V74.484L129.753 87.8902V143.386Z" fill="#6D7C9A"/>
<g opacity="0.13">
<path d="M43.5195 143.386L86.6357 129.876V74.4839L43.5195 87.8901V143.386Z" fill="url(#paint0_linear_133_27884)"/>
<path d="M129.752 143.386L86.6357 129.876V74.4839L129.752 87.8901V143.386Z" fill="url(#paint1_linear_133_27884)"/>
</g>
<path d="M86.6357 157L43.5195 143.49V88.0981L86.6357 101.608V157Z" fill="#EDF1F9"/>
<path d="M86.6367 157L129.753 143.49V88.098L86.6367 101.608V157Z" fill="#DAE1ED"/>
<path opacity="0.09" d="M76.8668 147.231L43.5195 143.49V88.0981L86.6357 101.608L76.8668 147.231Z" fill="url(#paint2_linear_133_27884)"/>
<path opacity="0.2" d="M96.4056 137.462L129.753 143.49V88.098L86.6367 101.608L96.4056 137.462Z" fill="url(#paint3_linear_133_27884)"/>
<path d="M86.6356 74.484L66.3638 59.311L22.5273 74.0683L43.5195 87.8902L86.6356 74.484Z" fill="#DAE1ED"/>
<path d="M86.6367 74.484L106.909 59.311L150.745 74.0683L129.753 87.8902L86.6367 74.484Z" fill="#DAE1ED"/>
<path d="M43.5195 88.098L86.6356 101.608L65.129 115.326L22.5273 101.192L43.5195 88.098Z" fill="#EFF4FD"/>
<path d="M129.753 88.098L86.6367 101.608L108.143 115.326L150.745 101.192L129.753 88.098Z" fill="#EDF1F9"/>
<path d="M98.6635 21.306C104.704 37.6988 106.504 41.3411 107.095 57.4939C106.868 61.181 106.727 65.1904 104.989 68.4188C102.667 73.3576 96.9889 76.7778 91.6242 76.8332C86.0976 76.932 80.6794 73.5481 78.2406 68.3302C76.5248 65.1635 76.5794 60.8319 78.933 57.9567C81.4916 55.1993 85.9929 54.5117 89.2309 56.2347C92.7927 57.8709 94.9187 61.2731 95.7061 64.8612C96.4936 68.4492 96.1476 72.3408 95.1864 75.8792C93.1762 84.4849 91.5112 84.9012 86.5812 99.4712" stroke="#ABB5CC" stroke-width="2" stroke-miterlimit="10" stroke-dasharray="4 4"/>
<path d="M106.013 12.6297C105.999 15.0401 103.756 16.5161 100.911 15.7464C97.9163 15.2359 95.7965 14.7097 95.66 12.5583C95.7287 10.352 98.1359 9.48852 100.953 8.51511C104.332 7.17272 105.822 10.2742 106.013 12.6297Z" fill="#DAE2EB"/>
<path d="M86.662 20.0007C88.1799 21.5632 91.3801 22.0189 92.9396 19.6321C94.6495 16.9862 96.1132 15.0627 94.5406 13.2959C93.0228 11.7334 91.5456 12.7854 88.1673 14.1278C85.4591 15.5095 84.8843 18.2889 86.662 20.0007Z" fill="#DAE2EB"/>
<path d="M93.6655 10.03C95.047 9.44121 96.7018 9.87316 97.4401 10.9881C97.7546 11.3415 98.1238 11.899 98.2332 12.3073C99.409 15.0554 99.0393 17.7799 97.4527 18.4236C95.7157 19.3264 93.3225 17.7795 92.4066 15.1805C92.1879 14.364 92.0785 13.9557 91.9145 13.3432C91.7369 11.8593 92.2841 10.6188 93.6655 10.03C93.8707 9.97504 93.6655 10.03 93.6655 10.03Z" fill="#989FB0"/>
<path d="M30.1682 54.2682H27.4939V51.5939H25.2016V54.2682H22.5273V56.6368H25.2016V59.3111H27.4939V56.6368H30.1682V54.2682Z" fill="url(#paint4_linear_133_27884)"/>
<path d="M36.0432 121.365H33.3689V118.691H31.0766V121.365H28.4023V123.733H31.0766V126.408H33.3689V123.733H36.0432V121.365Z" fill="url(#paint5_linear_133_27884)"/>
<path d="M152.947 121.516L149.675 119.864L151.327 116.592L148.522 115.176L146.87 118.448L143.598 116.796L142.135 119.694L145.407 121.346L143.755 124.618L146.559 126.034L148.211 122.762L151.483 124.414L152.947 121.516Z" fill="url(#paint6_linear_133_27884)"/>
<defs>
<linearGradient id="paint0_linear_133_27884" x1="73.0249" y1="78.4956" x2="67.144" y2="102.979" gradientUnits="userSpaceOnUse">
<stop offset="0.00289017" stop-color="#606673" stop-opacity="0"/>
<stop offset="1" stop-color="#373C47"/>
</linearGradient>
<linearGradient id="paint1_linear_133_27884" x1="73.0249" y1="78.4956" x2="67.144" y2="102.979" gradientUnits="userSpaceOnUse">
<stop offset="0.00289017" stop-color="#606673" stop-opacity="0"/>
<stop offset="1" stop-color="#373C47"/>
</linearGradient>
<linearGradient id="paint2_linear_133_27884" x1="53.1859" y1="126.008" x2="63.5441" y2="96.7524" gradientUnits="userSpaceOnUse">
<stop offset="0.00289017" stop-color="#6C80AA" stop-opacity="0"/>
<stop offset="1" stop-color="#5D6A86"/>
</linearGradient>
<linearGradient id="paint3_linear_133_27884" x1="109.906" y1="133.999" x2="110.721" y2="96.8743" gradientUnits="userSpaceOnUse">
<stop offset="0.00289017" stop-color="#314F91" stop-opacity="0"/>
<stop offset="1" stop-color="#324264"/>
</linearGradient>
<linearGradient id="paint4_linear_133_27884" x1="26.3484" y1="51.862" x2="26.3484" y2="56.1936" gradientUnits="userSpaceOnUse">
<stop stop-color="#B0BACC"/>
<stop offset="1" stop-color="#969EAE"/>
</linearGradient>
<linearGradient id="paint5_linear_133_27884" x1="32.2234" y1="118.959" x2="32.2234" y2="123.29" gradientUnits="userSpaceOnUse">
<stop stop-color="#B0BACC"/>
<stop offset="1" stop-color="#969EAE"/>
</linearGradient>
<linearGradient id="paint6_linear_133_27884" x1="149.759" y1="116.212" x2="147.084" y2="121.512" gradientUnits="userSpaceOnUse">
<stop stop-color="#B0BACC"/>
<stop offset="1" stop-color="#969EAE"/>
</linearGradient>
</defs>
</svg>
