<svg width="188" height="148" viewBox="0 0 188 148" fill="none" xmlns="http://www.w3.org/2000/svg">
<g opacity="0.1">
<path d="M0.964844 -107.65C0.964844 -99.9934 7.18753 -93.7543 14.8245 -93.7543H234.881C242.518 -93.7543 248.741 -99.9934 248.741 -107.65H0.964844Z" fill="url(#paint0_linear_2302_25800)"/>
<path d="M21.6148 -79.5757C21.6148 -71.9187 27.8375 -65.6797 35.4744 -65.6797V117.805C35.4744 121.492 38.3029 124.327 41.98 124.327H65.1736C79.0333 124.327 92.3272 128.581 103.641 136.238L126.269 151.552L144.089 138.224C155.968 129.149 170.677 124.327 185.385 124.327H207.73C211.407 124.327 214.235 121.492 214.235 117.805V-65.6797H215.932C223.569 -65.6797 229.792 -71.9187 229.792 -79.5757H21.6148ZM135.603 127.163L125.703 134.537L111.278 124.611C97.7013 115.253 81.5789 110.431 64.8908 110.431H49.0512V66.7581H64.8908C78.7504 66.7581 92.0444 71.012 103.358 78.669L125.986 93.9831L143.806 80.6542C155.686 71.5793 170.394 66.7581 185.102 66.7581H200.093V110.431H185.102C167.565 110.431 150.029 116.387 135.603 127.163ZM118.067 13.1591V71.5792L111.561 67.0417C107.601 64.2058 103.358 61.9371 98.8327 59.9519V13.1591H118.067ZM149.746 13.1591V61.0261L151.443 60.2355C145.786 62.7879 140.694 65.9074 135.603 69.5941L131.643 72.43V13.1591H149.746ZM200.376 52.8621H185.385C178.031 52.8621 170.677 53.9965 163.605 55.9816V13.4427H175.202C182.839 13.4427 189.062 7.20367 189.062 -0.453331H59.5166C59.5166 7.20367 65.7393 13.4427 73.3763 13.4427H84.9731V55.698C78.4676 53.9965 71.962 53.1457 65.1736 53.1457H49.3341V-65.6797H200.376V52.8621Z" fill="url(#paint1_linear_2302_25800)"/>
</g>
<defs>
<linearGradient id="paint0_linear_2302_25800" x1="125.703" y1="-107.65" x2="125.703" y2="151.552" gradientUnits="userSpaceOnUse">
<stop stop-color="#144176"/>
<stop offset="1" stop-color="#144176" stop-opacity="0"/>
</linearGradient>
<linearGradient id="paint1_linear_2302_25800" x1="125.703" y1="-107.65" x2="125.703" y2="151.552" gradientUnits="userSpaceOnUse">
<stop stop-color="#144176"/>
<stop offset="1" stop-color="#144176" stop-opacity="0"/>
</linearGradient>
</defs>
</svg>
