<svg width="441" height="80" viewBox="0 0 441 80" fill="none" xmlns="http://www.w3.org/2000/svg">
<g filter="url(#filter0_d_15_5)">
<mask id="path-1-inside-1_15_5" fill="white">
<path fill-rule="evenodd" clip-rule="evenodd" d="M39.865 21.647C39.0797 26.3862 34.9619 30 30 30H411C406.159 30 402.121 26.5596 401.198 21.9903C401.133 21.9967 401.067 22 401 22H393C391.895 22 391 21.1046 391 20C391 18.8954 391.895 18 393 18H401C401.067 18 401.133 18.0033 401.198 18.0097C402.121 13.4404 406.159 10 411 10H30C34.9619 10 39.0797 13.6138 39.865 18.353C40.1875 18.1304 40.5785 18 41 18H49C50.1046 18 51 18.8954 51 20C51 21.1046 50.1046 22 49 22H41C40.5785 22 40.1875 21.8696 39.865 21.647ZM55 20C55 18.8954 55.8954 18 57 18H65C66.1046 18 67 18.8954 67 20C67 21.1046 66.1046 22 65 22H57C55.8954 22 55 21.1046 55 20ZM73 18C71.8954 18 71 18.8954 71 20C71 21.1046 71.8954 22 73 22H81C82.1046 22 83 21.1046 83 20C83 18.8954 82.1046 18 81 18H73ZM87 20C87 18.8954 87.8954 18 89 18H97C98.1046 18 99 18.8954 99 20C99 21.1046 98.1046 22 97 22H89C87.8954 22 87 21.1046 87 20ZM105 18C103.895 18 103 18.8954 103 20C103 21.1046 103.895 22 105 22H113C114.105 22 115 21.1046 115 20C115 18.8954 114.105 18 113 18H105ZM119 20C119 18.8954 119.895 18 121 18H129C130.105 18 131 18.8954 131 20C131 21.1046 130.105 22 129 22H121C119.895 22 119 21.1046 119 20ZM137 18C135.895 18 135 18.8954 135 20C135 21.1046 135.895 22 137 22H145C146.105 22 147 21.1046 147 20C147 18.8954 146.105 18 145 18H137ZM151 20C151 18.8954 151.895 18 153 18H161C162.105 18 163 18.8954 163 20C163 21.1046 162.105 22 161 22H153C151.895 22 151 21.1046 151 20ZM169 18C167.895 18 167 18.8954 167 20C167 21.1046 167.895 22 169 22H177C178.105 22 179 21.1046 179 20C179 18.8954 178.105 18 177 18H169ZM183 20C183 18.8954 183.895 18 185 18H193C194.105 18 195 18.8954 195 20C195 21.1046 194.105 22 193 22H185C183.895 22 183 21.1046 183 20ZM201 18C199.895 18 199 18.8954 199 20C199 21.1046 199.895 22 201 22H209C210.105 22 211 21.1046 211 20C211 18.8954 210.105 18 209 18H201ZM215 20C215 18.8954 215.895 18 217 18H225C226.105 18 227 18.8954 227 20C227 21.1046 226.105 22 225 22H217C215.895 22 215 21.1046 215 20ZM233 18C231.895 18 231 18.8954 231 20C231 21.1046 231.895 22 233 22H241C242.105 22 243 21.1046 243 20C243 18.8954 242.105 18 241 18H233ZM247 20C247 18.8954 247.895 18 249 18H257C258.105 18 259 18.8954 259 20C259 21.1046 258.105 22 257 22H249C247.895 22 247 21.1046 247 20ZM265 18C263.895 18 263 18.8954 263 20C263 21.1046 263.895 22 265 22H273C274.105 22 275 21.1046 275 20C275 18.8954 274.105 18 273 18H265ZM279 20C279 18.8954 279.895 18 281 18H289C290.105 18 291 18.8954 291 20C291 21.1046 290.105 22 289 22H281C279.895 22 279 21.1046 279 20ZM297 18C295.895 18 295 18.8954 295 20C295 21.1046 295.895 22 297 22H305C306.105 22 307 21.1046 307 20C307 18.8954 306.105 18 305 18H297ZM311 20C311 18.8954 311.895 18 313 18H321C322.105 18 323 18.8954 323 20C323 21.1046 322.105 22 321 22H313C311.895 22 311 21.1046 311 20ZM329 18C327.895 18 327 18.8954 327 20C327 21.1046 327.895 22 329 22H337C338.105 22 339 21.1046 339 20C339 18.8954 338.105 18 337 18H329ZM343 20C343 18.8954 343.895 18 345 18H353C354.105 18 355 18.8954 355 20C355 21.1046 354.105 22 353 22H345C343.895 22 343 21.1046 343 20ZM361 18C359.895 18 359 18.8954 359 20C359 21.1046 359.895 22 361 22H369C370.105 22 371 21.1046 371 20C371 18.8954 370.105 18 369 18H361ZM375 20C375 18.8954 375.895 18 377 18H385C386.105 18 387 18.8954 387 20C387 21.1046 386.105 22 385 22H377C375.895 22 375 21.1046 375 20Z"/>
</mask>
<path fill-rule="evenodd" clip-rule="evenodd" d="M39.865 21.647C39.0797 26.3862 34.9619 30 30 30H411C406.159 30 402.121 26.5596 401.198 21.9903C401.133 21.9967 401.067 22 401 22H393C391.895 22 391 21.1046 391 20C391 18.8954 391.895 18 393 18H401C401.067 18 401.133 18.0033 401.198 18.0097C402.121 13.4404 406.159 10 411 10H30C34.9619 10 39.0797 13.6138 39.865 18.353C40.1875 18.1304 40.5785 18 41 18H49C50.1046 18 51 18.8954 51 20C51 21.1046 50.1046 22 49 22H41C40.5785 22 40.1875 21.8696 39.865 21.647ZM55 20C55 18.8954 55.8954 18 57 18H65C66.1046 18 67 18.8954 67 20C67 21.1046 66.1046 22 65 22H57C55.8954 22 55 21.1046 55 20ZM73 18C71.8954 18 71 18.8954 71 20C71 21.1046 71.8954 22 73 22H81C82.1046 22 83 21.1046 83 20C83 18.8954 82.1046 18 81 18H73ZM87 20C87 18.8954 87.8954 18 89 18H97C98.1046 18 99 18.8954 99 20C99 21.1046 98.1046 22 97 22H89C87.8954 22 87 21.1046 87 20ZM105 18C103.895 18 103 18.8954 103 20C103 21.1046 103.895 22 105 22H113C114.105 22 115 21.1046 115 20C115 18.8954 114.105 18 113 18H105ZM119 20C119 18.8954 119.895 18 121 18H129C130.105 18 131 18.8954 131 20C131 21.1046 130.105 22 129 22H121C119.895 22 119 21.1046 119 20ZM137 18C135.895 18 135 18.8954 135 20C135 21.1046 135.895 22 137 22H145C146.105 22 147 21.1046 147 20C147 18.8954 146.105 18 145 18H137ZM151 20C151 18.8954 151.895 18 153 18H161C162.105 18 163 18.8954 163 20C163 21.1046 162.105 22 161 22H153C151.895 22 151 21.1046 151 20ZM169 18C167.895 18 167 18.8954 167 20C167 21.1046 167.895 22 169 22H177C178.105 22 179 21.1046 179 20C179 18.8954 178.105 18 177 18H169ZM183 20C183 18.8954 183.895 18 185 18H193C194.105 18 195 18.8954 195 20C195 21.1046 194.105 22 193 22H185C183.895 22 183 21.1046 183 20ZM201 18C199.895 18 199 18.8954 199 20C199 21.1046 199.895 22 201 22H209C210.105 22 211 21.1046 211 20C211 18.8954 210.105 18 209 18H201ZM215 20C215 18.8954 215.895 18 217 18H225C226.105 18 227 18.8954 227 20C227 21.1046 226.105 22 225 22H217C215.895 22 215 21.1046 215 20ZM233 18C231.895 18 231 18.8954 231 20C231 21.1046 231.895 22 233 22H241C242.105 22 243 21.1046 243 20C243 18.8954 242.105 18 241 18H233ZM247 20C247 18.8954 247.895 18 249 18H257C258.105 18 259 18.8954 259 20C259 21.1046 258.105 22 257 22H249C247.895 22 247 21.1046 247 20ZM265 18C263.895 18 263 18.8954 263 20C263 21.1046 263.895 22 265 22H273C274.105 22 275 21.1046 275 20C275 18.8954 274.105 18 273 18H265ZM279 20C279 18.8954 279.895 18 281 18H289C290.105 18 291 18.8954 291 20C291 21.1046 290.105 22 289 22H281C279.895 22 279 21.1046 279 20ZM297 18C295.895 18 295 18.8954 295 20C295 21.1046 295.895 22 297 22H305C306.105 22 307 21.1046 307 20C307 18.8954 306.105 18 305 18H297ZM311 20C311 18.8954 311.895 18 313 18H321C322.105 18 323 18.8954 323 20C323 21.1046 322.105 22 321 22H313C311.895 22 311 21.1046 311 20ZM329 18C327.895 18 327 18.8954 327 20C327 21.1046 327.895 22 329 22H337C338.105 22 339 21.1046 339 20C339 18.8954 338.105 18 337 18H329ZM343 20C343 18.8954 343.895 18 345 18H353C354.105 18 355 18.8954 355 20C355 21.1046 354.105 22 353 22H345C343.895 22 343 21.1046 343 20ZM361 18C359.895 18 359 18.8954 359 20C359 21.1046 359.895 22 361 22H369C370.105 22 371 21.1046 371 20C371 18.8954 370.105 18 369 18H361ZM375 20C375 18.8954 375.895 18 377 18H385C386.105 18 387 18.8954 387 20C387 21.1046 386.105 22 385 22H377C375.895 22 375 21.1046 375 20Z" fill="white"/>
<path d="M39.865 21.647L40.4332 20.8241L39.1361 19.9285L38.8785 21.4835L39.865 21.647ZM401.198 21.9903L402.178 21.7924L401.999 20.9067L401.1 20.9951L401.198 21.9903ZM401.198 18.0097L401.1 19.0049L401.999 19.0933L402.178 18.2076L401.198 18.0097ZM39.865 18.353L38.8785 18.5165L39.1361 20.0715L40.4332 19.1759L39.865 18.353ZM30 31C35.459 31 39.9876 27.0244 40.8516 21.8105L38.8785 21.4835C38.1718 25.748 34.4647 29 30 29V31ZM411 29H30V31H411V29ZM400.218 22.1883C401.233 27.2149 405.673 31 411 31V29C406.644 29 403.009 25.9043 402.178 21.7924L400.218 22.1883ZM401.1 20.9951C401.068 20.9983 401.034 21 401 21V23C401.1 23 401.198 22.9951 401.296 22.9855L401.1 20.9951ZM401 21H393V23H401V21ZM393 21C392.448 21 392 20.5523 392 20H390C390 21.6568 391.343 23 393 23V21ZM392 20C392 19.4477 392.448 19 393 19V17C391.343 17 390 18.3432 390 20H392ZM393 19H401V17H393V19ZM401 19C401.034 19 401.068 19.0017 401.1 19.0049L401.296 17.0145C401.198 17.0049 401.1 17 401 17V19ZM411 9C405.673 9 401.233 12.7851 400.218 17.8117L402.178 18.2076C403.009 14.0957 406.644 11 411 11V9ZM30 11H411V9H30V11ZM40.8516 18.1895C39.9876 12.9756 35.459 9 30 9V11C34.4647 11 38.1718 14.252 38.8785 18.5165L40.8516 18.1895ZM41 17C40.3691 17 39.781 17.1959 39.2968 17.5301L40.4332 19.1759C40.594 19.0649 40.7879 19 41 19V17ZM49 17H41V19H49V17ZM52 20C52 18.3431 50.6569 17 49 17V19C49.5523 19 50 19.4477 50 20H52ZM49 23C50.6569 23 52 21.6569 52 20H50C50 20.5523 49.5523 21 49 21V23ZM41 23H49V21H41V23ZM39.2968 22.4699C39.781 22.8041 40.3691 23 41 23V21C40.7879 21 40.594 20.9351 40.4332 20.8241L39.2968 22.4699ZM57 17C55.3431 17 54 18.3431 54 20H56C56 19.4477 56.4477 19 57 19V17ZM65 17H57V19H65V17ZM68 20C68 18.3431 66.6569 17 65 17V19C65.5523 19 66 19.4477 66 20H68ZM65 23C66.6569 23 68 21.6569 68 20H66C66 20.5523 65.5523 21 65 21V23ZM57 23H65V21H57V23ZM54 20C54 21.6569 55.3431 23 57 23V21C56.4477 21 56 20.5523 56 20H54ZM72 20C72 19.4477 72.4477 19 73 19V17C71.3431 17 70 18.3431 70 20H72ZM73 21C72.4477 21 72 20.5523 72 20H70C70 21.6569 71.3431 23 73 23V21ZM81 21H73V23H81V21ZM82 20C82 20.5523 81.5523 21 81 21V23C82.6569 23 84 21.6569 84 20H82ZM81 19C81.5523 19 82 19.4477 82 20H84C84 18.3431 82.6569 17 81 17V19ZM73 19H81V17H73V19ZM89 17C87.3431 17 86 18.3431 86 20H88C88 19.4477 88.4477 19 89 19V17ZM97 17H89V19H97V17ZM100 20C100 18.3431 98.6569 17 97 17V19C97.5523 19 98 19.4477 98 20H100ZM97 23C98.6569 23 100 21.6569 100 20H98C98 20.5523 97.5523 21 97 21V23ZM89 23H97V21H89V23ZM86 20C86 21.6569 87.3431 23 89 23V21C88.4477 21 88 20.5523 88 20H86ZM104 20C104 19.4477 104.448 19 105 19V17C103.343 17 102 18.3431 102 20H104ZM105 21C104.448 21 104 20.5523 104 20H102C102 21.6569 103.343 23 105 23V21ZM113 21H105V23H113V21ZM114 20C114 20.5523 113.552 21 113 21V23C114.657 23 116 21.6569 116 20H114ZM113 19C113.552 19 114 19.4477 114 20H116C116 18.3431 114.657 17 113 17V19ZM105 19H113V17H105V19ZM121 17C119.343 17 118 18.3431 118 20H120C120 19.4477 120.448 19 121 19V17ZM129 17H121V19H129V17ZM132 20C132 18.3431 130.657 17 129 17V19C129.552 19 130 19.4477 130 20H132ZM129 23C130.657 23 132 21.6569 132 20H130C130 20.5523 129.552 21 129 21V23ZM121 23H129V21H121V23ZM118 20C118 21.6569 119.343 23 121 23V21C120.448 21 120 20.5523 120 20H118ZM136 20C136 19.4477 136.448 19 137 19V17C135.343 17 134 18.3431 134 20H136ZM137 21C136.448 21 136 20.5523 136 20H134C134 21.6569 135.343 23 137 23V21ZM145 21H137V23H145V21ZM146 20C146 20.5523 145.552 21 145 21V23C146.657 23 148 21.6569 148 20H146ZM145 19C145.552 19 146 19.4477 146 20H148C148 18.3431 146.657 17 145 17V19ZM137 19H145V17H137V19ZM153 17C151.343 17 150 18.3431 150 20H152C152 19.4477 152.448 19 153 19V17ZM161 17H153V19H161V17ZM164 20C164 18.3431 162.657 17 161 17V19C161.552 19 162 19.4477 162 20H164ZM161 23C162.657 23 164 21.6569 164 20H162C162 20.5523 161.552 21 161 21V23ZM153 23H161V21H153V23ZM150 20C150 21.6569 151.343 23 153 23V21C152.448 21 152 20.5523 152 20H150ZM168 20C168 19.4477 168.448 19 169 19V17C167.343 17 166 18.3431 166 20H168ZM169 21C168.448 21 168 20.5523 168 20H166C166 21.6569 167.343 23 169 23V21ZM177 21H169V23H177V21ZM178 20C178 20.5523 177.552 21 177 21V23C178.657 23 180 21.6569 180 20H178ZM177 19C177.552 19 178 19.4477 178 20H180C180 18.3431 178.657 17 177 17V19ZM169 19H177V17H169V19ZM185 17C183.343 17 182 18.3431 182 20H184C184 19.4477 184.448 19 185 19V17ZM193 17H185V19H193V17ZM196 20C196 18.3431 194.657 17 193 17V19C193.552 19 194 19.4477 194 20H196ZM193 23C194.657 23 196 21.6569 196 20H194C194 20.5523 193.552 21 193 21V23ZM185 23H193V21H185V23ZM182 20C182 21.6569 183.343 23 185 23V21C184.448 21 184 20.5523 184 20H182ZM200 20C200 19.4477 200.448 19 201 19V17C199.343 17 198 18.3431 198 20H200ZM201 21C200.448 21 200 20.5523 200 20H198C198 21.6569 199.343 23 201 23V21ZM209 21H201V23H209V21ZM210 20C210 20.5523 209.552 21 209 21V23C210.657 23 212 21.6569 212 20H210ZM209 19C209.552 19 210 19.4477 210 20H212C212 18.3431 210.657 17 209 17V19ZM201 19H209V17H201V19ZM217 17C215.343 17 214 18.3431 214 20H216C216 19.4477 216.448 19 217 19V17ZM225 17H217V19H225V17ZM228 20C228 18.3431 226.657 17 225 17V19C225.552 19 226 19.4477 226 20H228ZM225 23C226.657 23 228 21.6569 228 20H226C226 20.5523 225.552 21 225 21V23ZM217 23H225V21H217V23ZM214 20C214 21.6569 215.343 23 217 23V21C216.448 21 216 20.5523 216 20H214ZM232 20C232 19.4477 232.448 19 233 19V17C231.343 17 230 18.3431 230 20H232ZM233 21C232.448 21 232 20.5523 232 20H230C230 21.6569 231.343 23 233 23V21ZM241 21H233V23H241V21ZM242 20C242 20.5523 241.552 21 241 21V23C242.657 23 244 21.6569 244 20H242ZM241 19C241.552 19 242 19.4477 242 20H244C244 18.3431 242.657 17 241 17V19ZM233 19H241V17H233V19ZM249 17C247.343 17 246 18.3431 246 20H248C248 19.4477 248.448 19 249 19V17ZM257 17H249V19H257V17ZM260 20C260 18.3431 258.657 17 257 17V19C257.552 19 258 19.4477 258 20H260ZM257 23C258.657 23 260 21.6569 260 20H258C258 20.5523 257.552 21 257 21V23ZM249 23H257V21H249V23ZM246 20C246 21.6569 247.343 23 249 23V21C248.448 21 248 20.5523 248 20H246ZM264 20C264 19.4477 264.448 19 265 19V17C263.343 17 262 18.3431 262 20H264ZM265 21C264.448 21 264 20.5523 264 20H262C262 21.6569 263.343 23 265 23V21ZM273 21H265V23H273V21ZM274 20C274 20.5523 273.552 21 273 21V23C274.657 23 276 21.6569 276 20H274ZM273 19C273.552 19 274 19.4477 274 20H276C276 18.3431 274.657 17 273 17V19ZM265 19H273V17H265V19ZM281 17C279.343 17 278 18.3431 278 20H280C280 19.4477 280.448 19 281 19V17ZM289 17H281V19H289V17ZM292 20C292 18.3432 290.657 17 289 17V19C289.552 19 290 19.4477 290 20H292ZM289 23C290.657 23 292 21.6568 292 20H290C290 20.5523 289.552 21 289 21V23ZM281 23H289V21H281V23ZM278 20C278 21.6569 279.343 23 281 23V21C280.448 21 280 20.5523 280 20H278ZM296 20C296 19.4477 296.448 19 297 19V17C295.343 17 294 18.3432 294 20H296ZM297 21C296.448 21 296 20.5523 296 20H294C294 21.6568 295.343 23 297 23V21ZM305 21H297V23H305V21ZM306 20C306 20.5523 305.552 21 305 21V23C306.657 23 308 21.6568 308 20H306ZM305 19C305.552 19 306 19.4477 306 20H308C308 18.3432 306.657 17 305 17V19ZM297 19H305V17H297V19ZM313 17C311.343 17 310 18.3432 310 20H312C312 19.4477 312.448 19 313 19V17ZM321 17H313V19H321V17ZM324 20C324 18.3432 322.657 17 321 17V19C321.552 19 322 19.4477 322 20H324ZM321 23C322.657 23 324 21.6568 324 20H322C322 20.5523 321.552 21 321 21V23ZM313 23H321V21H313V23ZM310 20C310 21.6568 311.343 23 313 23V21C312.448 21 312 20.5523 312 20H310ZM328 20C328 19.4477 328.448 19 329 19V17C327.343 17 326 18.3432 326 20H328ZM329 21C328.448 21 328 20.5523 328 20H326C326 21.6568 327.343 23 329 23V21ZM337 21H329V23H337V21ZM338 20C338 20.5523 337.552 21 337 21V23C338.657 23 340 21.6568 340 20H338ZM337 19C337.552 19 338 19.4477 338 20H340C340 18.3432 338.657 17 337 17V19ZM329 19H337V17H329V19ZM345 17C343.343 17 342 18.3432 342 20H344C344 19.4477 344.448 19 345 19V17ZM353 17H345V19H353V17ZM356 20C356 18.3432 354.657 17 353 17V19C353.552 19 354 19.4477 354 20H356ZM353 23C354.657 23 356 21.6568 356 20H354C354 20.5523 353.552 21 353 21V23ZM345 23H353V21H345V23ZM342 20C342 21.6568 343.343 23 345 23V21C344.448 21 344 20.5523 344 20H342ZM360 20C360 19.4477 360.448 19 361 19V17C359.343 17 358 18.3432 358 20H360ZM361 21C360.448 21 360 20.5523 360 20H358C358 21.6568 359.343 23 361 23V21ZM369 21H361V23H369V21ZM370 20C370 20.5523 369.552 21 369 21V23C370.657 23 372 21.6568 372 20H370ZM369 19C369.552 19 370 19.4477 370 20H372C372 18.3432 370.657 17 369 17V19ZM361 19H369V17H361V19ZM377 17C375.343 17 374 18.3432 374 20H376C376 19.4477 376.448 19 377 19V17ZM385 17H377V19H385V17ZM388 20C388 18.3432 386.657 17 385 17V19C385.552 19 386 19.4477 386 20H388ZM385 23C386.657 23 388 21.6568 388 20H386C386 20.5523 385.552 21 385 21V23ZM377 23H385V21H377V23ZM374 20C374 21.6568 375.343 23 377 23V21C376.448 21 376 20.5523 376 20H374Z" fill="#184053" fill-opacity="0.1" mask="url(#path-1-inside-1_15_5)"/>
</g>
<defs>
<filter id="filter0_d_15_5" x="0" y="0" width="441" height="80" filterUnits="userSpaceOnUse" color-interpolation-filters="sRGB">
<feFlood flood-opacity="0" result="BackgroundImageFix"/>
<feColorMatrix in="SourceAlpha" type="matrix" values="0 0 0 0 0 0 0 0 0 0 0 0 0 0 0 0 0 0 127 0" result="hardAlpha"/>
<feOffset dy="20"/>
<feGaussianBlur stdDeviation="15"/>
<feComposite in2="hardAlpha" operator="out"/>
<feColorMatrix type="matrix" values="0 0 0 0 0.0941176 0 0 0 0 0.25098 0 0 0 0 0.32549 0 0 0 0.06 0"/>
<feBlend mode="normal" in2="BackgroundImageFix" result="effect1_dropShadow_15_5"/>
<feBlend mode="normal" in="SourceGraphic" in2="effect1_dropShadow_15_5" result="shape"/>
</filter>
</defs>
</svg>
