<svg width="36" height="36" viewBox="0 0 36 36" fill="none" xmlns="http://www.w3.org/2000/svg">
<rect width="36" height="36" rx="18" fill="#EDF0F2"/>
<rect x="0.5" y="0.5" width="35" height="35" rx="17.5" stroke="#061018" stroke-opacity="0.1"/>
<path d="M12.2784 25.4259C12.2374 25.8381 12.5384 26.2054 12.9506 26.2463C13.3628 26.2873 13.7301 25.9863 13.771 25.5741L12.2784 25.4259ZM22.229 25.5741C22.2699 25.9863 22.6372 26.2873 23.0494 26.2463C23.4616 26.2054 23.7626 25.8381 23.7216 25.4259L22.229 25.5741ZM26.25 18C26.25 22.5563 22.5563 26.25 18 26.25V27.75C23.3848 27.75 27.75 23.3848 27.75 18H26.25ZM18 26.25C13.4437 26.25 9.75 22.5563 9.75 18H8.25C8.25 23.3848 12.6152 27.75 18 27.75V26.25ZM9.75 18C9.75 13.4437 13.4437 9.75 18 9.75V8.25C12.6152 8.25 8.25 12.6152 8.25 18H9.75ZM18 9.75C22.5563 9.75 26.25 13.4437 26.25 18H27.75C27.75 12.6152 23.3848 8.25 18 8.25V9.75ZM19.25 16C19.25 16.6904 18.6904 17.25 18 17.25V18.75C19.5188 18.75 20.75 17.5188 20.75 16H19.25ZM18 17.25C17.3096 17.25 16.75 16.6904 16.75 16H15.25C15.25 17.5188 16.4812 18.75 18 18.75V17.25ZM16.75 16C16.75 15.3096 17.3096 14.75 18 14.75V13.25C16.4812 13.25 15.25 14.4812 15.25 16H16.75ZM18 14.75C18.6904 14.75 19.25 15.3096 19.25 16H20.75C20.75 14.4812 19.5188 13.25 18 13.25V14.75ZM13.771 25.5741C13.9842 23.4272 15.7967 21.75 18 21.75V20.25C15.018 20.25 12.5669 22.5194 12.2784 25.4259L13.771 25.5741ZM18 21.75C20.2033 21.75 22.0158 23.4272 22.229 25.5741L23.7216 25.4259C23.4331 22.5194 20.982 20.25 18 20.25V21.75Z" fill="#94A8AA"/>
</svg>
