<svg width="90" height="65" viewBox="0 0 90 65" fill="none" xmlns="http://www.w3.org/2000/svg">
<path d="M46.2739 62.5539C45.5654 62.6735 44.8479 62.7288 44.1301 62.7195C42.7834 62.7195 41.3396 61.8143 41.3396 59.2868V57.8074C41.3396 55.1272 42.8533 54.3651 44.2255 54.3651C44.9114 54.3589 45.5965 54.4105 46.2739 54.5194C46.3696 54.5307 46.4576 54.5739 46.4576 54.6851V55.2364C46.4576 55.3137 46.4153 55.3476 46.3179 55.3476H46.2759C45.6402 55.2928 45.1442 55.2703 44.2274 55.2703C43.2261 55.2703 42.3206 55.8219 42.3206 57.8074V59.2868C42.3206 61.1086 43.1287 61.8256 44.1318 61.8256C44.7878 61.8256 45.2342 61.7824 45.4876 61.7596V58.6034C45.4853 58.5757 45.4887 58.5475 45.4974 58.521C45.5062 58.4947 45.52 58.4702 45.5383 58.4493C45.5564 58.4287 45.5787 58.4118 45.6035 58.4002C45.6284 58.3884 45.6552 58.3822 45.6825 58.3813H46.2646C46.3202 58.3844 46.3724 58.409 46.4102 58.4504C46.4483 58.4919 46.4692 58.5467 46.4686 58.6034V62.3112C46.4703 62.369 46.4514 62.4252 46.4158 62.4701C46.38 62.5146 46.3295 62.5445 46.2739 62.5539Z" fill="black" fill-opacity="0.6"/>
<path d="M50.4853 57.344C49.9839 57.3237 49.4817 57.3609 48.9882 57.4552V62.4217C48.9908 62.4756 48.9733 62.5284 48.9391 62.5693C48.905 62.6105 48.8567 62.6364 48.8045 62.6421H48.2442C48.1897 62.639 48.1389 62.6144 48.1025 62.5729C48.0658 62.5318 48.0469 62.4776 48.0495 62.4217V57.0579C48.0526 57.0026 48.0721 56.9493 48.1051 56.9053C48.1381 56.8615 48.1835 56.8288 48.2349 56.8113C48.8485 56.5348 49.5926 56.5026 50.4853 56.5026C50.6267 56.5026 50.713 56.5139 50.713 56.6683V57.1747C50.713 57.2896 50.691 57.344 50.4853 57.344Z" fill="black" fill-opacity="0.6"/>
<path d="M54.06 62.7192C52.4765 62.7192 51.6718 61.6484 51.6718 60.026V59.1866C51.6718 57.5642 52.4802 56.4954 54.06 56.4954C55.64 56.4954 56.4484 57.5642 56.4484 59.1866V60.026C56.4484 61.6484 55.6344 62.7192 54.06 62.7192ZM55.515 59.1866C55.515 58.0574 55.0723 57.3441 54.06 57.3441C53.0479 57.3441 52.6162 58.0518 52.6162 59.1866V60.026C52.6162 61.1552 53.0479 61.8705 54.06 61.8705C55.0723 61.8705 55.515 61.1628 55.515 60.026V59.1866Z" fill="black" fill-opacity="0.6"/>
<path d="M60.0419 62.7197H59.9389C59.2041 62.7197 57.7197 62.3001 57.7197 60.1264V56.7933C57.7174 56.7651 57.7208 56.7368 57.7299 56.71C57.7389 56.6835 57.753 56.659 57.7716 56.6384C57.7902 56.6178 57.8131 56.6011 57.8382 56.5898C57.8633 56.5786 57.8907 56.5729 57.9181 56.5729H58.4784C58.5058 56.5735 58.5326 56.5794 58.5571 56.591C58.582 56.6025 58.6043 56.6192 58.6226 56.6398C58.6407 56.6604 58.6548 56.6846 58.6635 56.7112C58.6723 56.7374 58.6754 56.7653 58.6731 56.7933V60.1264C58.6731 61.4438 59.2244 61.871 59.9445 61.871H60.0419C60.7619 61.871 61.3133 61.4514 61.3133 60.1264V56.7933C61.3107 56.7656 61.3141 56.7377 61.3228 56.7115C61.3313 56.6852 61.3451 56.6609 61.3632 56.6403C61.3813 56.6198 61.4033 56.6031 61.4278 56.5915C61.4524 56.58 61.4789 56.5738 61.506 56.5729H62.0663C62.0934 56.5735 62.1202 56.5794 62.145 56.591C62.1699 56.6025 62.1922 56.6192 62.2105 56.6398C62.2286 56.6604 62.2427 56.6846 62.2514 56.7112C62.2599 56.7374 62.2633 56.7653 62.261 56.7933V60.1264C62.261 62.3001 60.7729 62.7197 60.0419 62.7197Z" fill="black" fill-opacity="0.6"/>
<path d="M65.9332 62.7194C65.5105 62.7137 65.089 62.6734 64.6728 62.5989V64.596C64.6728 64.6234 64.6675 64.6505 64.6573 64.6759C64.6471 64.7012 64.6319 64.7241 64.613 64.7436C64.5941 64.763 64.5718 64.7783 64.547 64.789C64.5221 64.7994 64.4956 64.8048 64.4688 64.8048H63.9178C63.8915 64.8045 63.8656 64.7989 63.8413 64.7881C63.8173 64.7774 63.7956 64.7619 63.7772 64.7424C63.7592 64.723 63.7451 64.7001 63.7358 64.6747C63.7265 64.6496 63.7219 64.6228 63.7231 64.596V56.9998C63.7231 56.8567 63.7561 56.791 63.9491 56.7478C64.5983 56.5864 65.2634 56.5012 65.9312 56.4936C67.537 56.4936 68.2807 57.5627 68.2807 59.2189V60.0112C68.2827 61.7482 67.5057 62.7194 65.9332 62.7194ZM67.333 59.2206C67.333 58.0613 67.0003 57.3124 65.9332 57.3124C65.5108 57.3149 65.0896 57.3513 64.6728 57.4216V61.7916C65.0896 61.8616 65.5108 61.8989 65.9332 61.9025C66.9893 61.9025 67.333 61.1969 67.333 60.0205V59.2206Z" fill="black" fill-opacity="0.6"/>
<path d="M27.5231 62.6294C27.0381 62.7067 25.686 62.8046 25.2175 62.8046C23.1379 62.8046 21.727 62.2699 21.727 59.5937V54.7155C21.7275 54.6873 21.7335 54.6593 21.7446 54.6334C21.7557 54.6074 21.7717 54.5843 21.7917 54.5648C21.8117 54.5453 21.8353 54.5301 21.8611 54.5202C21.8869 54.5101 21.9144 54.5055 21.942 54.5064H23.6982C23.7258 54.5053 23.7534 54.5098 23.7794 54.5197C23.8053 54.5295 23.829 54.5448 23.849 54.5642C23.8691 54.5837 23.8851 54.6071 23.8961 54.6331C23.9072 54.659 23.9129 54.687 23.9132 54.7155V59.5937C23.9132 60.5874 24.2365 60.9111 25.0026 60.9111C25.3484 60.9099 25.6939 60.8874 26.037 60.8433V54.7155C26.037 54.687 26.0429 54.659 26.0539 54.6331C26.0649 54.6071 26.081 54.5837 26.101 54.5642C26.121 54.5448 26.1447 54.5295 26.1707 54.5197C26.1967 54.5098 26.224 54.5053 26.2517 54.5064H27.9971C28.0538 54.5039 28.1097 54.5244 28.1517 54.5634C28.1941 54.6026 28.2197 54.6571 28.2231 54.7155V61.7787C28.2231 62.3961 28.0394 62.5524 27.5231 62.6294Z" fill="black"/>
<path d="M31.605 62.7066H29.8378C29.7811 62.7049 29.7275 62.6809 29.688 62.6394C29.6485 62.598 29.6265 62.5424 29.6265 62.4845V54.7153C29.6271 54.6874 29.6327 54.6598 29.6437 54.6341C29.6547 54.6084 29.6702 54.5853 29.69 54.5661C29.7094 54.5466 29.7326 54.5314 29.758 54.5209C29.7834 54.5108 29.8105 54.5057 29.8378 54.5063H31.605C31.6326 54.5051 31.6603 54.5097 31.6862 54.5195C31.7122 54.5294 31.7359 54.5444 31.7559 54.5641C31.776 54.5836 31.792 54.607 31.8031 54.633C31.8141 54.6589 31.8197 54.6868 31.82 54.7153V62.4845C31.8203 62.5136 31.8149 62.5424 31.8042 62.5692C31.7935 62.5963 31.7777 62.6208 31.7576 62.6414C31.7376 62.662 31.7139 62.6784 31.6876 62.6897C31.6614 62.7007 31.6335 62.7066 31.605 62.7066Z" fill="black"/>
<path d="M37.8533 62.6064C37.3632 62.7497 36.8547 62.8163 36.3449 62.8042C34.3627 62.8042 33.0273 61.7012 33.0273 59.1737V58.0442C33.0273 55.5093 34.3627 54.4064 36.3449 54.4064C36.8544 54.3951 37.3629 54.4617 37.8533 54.6039C38.0259 54.6603 38.0903 54.6925 38.0903 54.8468V56.2601C38.0903 56.4032 38.0259 56.4689 37.9066 56.4689H37.8736C37.3727 56.4091 36.8694 56.3764 36.3652 56.3713C35.7828 56.3713 35.2631 56.6346 35.2631 58.0369V59.1661C35.2631 60.5568 35.7811 60.8336 36.3652 60.8336C36.8694 60.8277 37.3727 60.7944 37.8736 60.7337H37.8936C38.0223 60.7337 38.0773 60.7998 38.0773 60.9428V62.3638C38.0903 62.5068 38.0259 62.552 37.8533 62.6064Z" fill="black"/>
<path d="M29.8569 11.7504C17.6088 8.80893 9.0494 15.7988 3.78449 7.93915C3.76872 7.90755 3.75295 7.89172 3.7372 7.86009C3.59531 7.63868 3.78449 7.32241 4.03669 7.38567C14.8818 9.97917 16.6473 8.36614 21.2028 8.91964C25.4116 9.42569 29.8569 11.7504 29.8569 11.7504Z" fill="black"/>
<path d="M32.0167 13.7277C21.2345 12.1305 13.5894 20.2115 7.82003 13.9966C7.80426 13.9807 7.78851 13.9491 7.75697 13.9333C7.59935 13.7594 7.70968 13.4431 7.94612 13.4589C17.7981 14.1863 20.1153 12.4468 24.1665 12.2728C27.9496 12.1147 32.0167 13.7277 32.0167 13.7277Z" fill="black"/>
<path d="M34.0182 16.2736C24.6074 14.9927 20.5721 23.4689 12.9427 18.282C12.9269 18.2662 12.9111 18.2504 12.8796 18.2188C12.722 18.0765 12.7693 17.6653 12.99 17.6653C21.3287 17.6811 23.504 15.736 27.0193 15.309C31.7798 14.7397 34.0182 16.2736 34.0182 16.2736Z" fill="black"/>
<path d="M38.2587 19.0723C33.3407 19.5942 34.113 23.5478 28.7221 22.6621C28.0124 22.5514 28.1702 22.0453 28.4856 21.9504C33.0094 20.6537 33.0094 19.7839 34.6333 19.1355C36.1781 18.5504 38.2587 19.0723 38.2587 19.0723Z" fill="black"/>
<path d="M36.0364 17.8546C28.943 17.9969 27.1301 23.1048 21.1558 21.4444C20.2416 21.1914 20.5568 20.4956 21.0455 20.4323C27.8869 19.3412 28.2178 18.329 30.7555 17.7281C33.1358 17.1588 36.0364 17.8546 36.0364 17.8546Z" fill="black"/>
<path d="M31.9847 11.7351C31.9373 11.8141 31.827 11.83 31.7483 11.7983C30.2822 10.9602 28.9109 9.97973 27.3345 8.90438C25.8529 7.90808 22.6686 6.54806 16.048 6.86435C12.8954 7.02247 8.10339 7.67087 3.15374 4.27083C1.95574 3.46431 0.741954 2.08849 0.111436 0.807551C0.0483823 0.696861 0.0168571 0.554513 0.00109298 0.412194C-0.0146683 0.269874 0.142961 0.159183 0.284832 0.206614C12.5329 5.1406 16.0323 3.2113 23.7405 4.99828C26.909 5.74154 30.8341 10.3593 31.9689 11.5137C32.0318 11.5611 32.0318 11.656 31.9847 11.7351Z" fill="black"/>
<path d="M42.6412 38.777C42.4992 39.2197 42.5308 39.7417 42.247 40.1212C41.9002 40.6274 41.0489 40.6748 40.6393 40.216C40.3712 39.979 40.3712 39.5995 40.2767 39.299C39.6619 36.5948 39.0629 33.8906 38.4638 31.1703C38.4009 30.9807 38.4638 30.854 38.6532 30.775C38.9525 30.696 38.9841 31.0281 39.0787 31.218C39.7564 33.0681 40.387 34.9343 41.0806 36.7844C41.3012 37.417 42.0421 37.2113 42.5308 37.3696C43.0511 37.7017 42.7357 38.3185 42.6412 38.777Z" fill="black"/>
<path d="M43.4446 31.313C43.5078 31.4868 43.413 31.6925 43.224 31.7241C43.1136 31.7399 43.0191 31.7241 42.9875 31.566C42.5304 30.6488 42.1363 29.6841 41.6634 28.7668C41.0485 28.2451 40.4024 27.7073 40.024 26.9641C39.3463 25.7621 39.4092 24.1967 40.166 23.0421C40.2289 22.9631 40.2763 22.8683 40.3392 22.789C40.4495 22.631 40.686 22.6626 40.7492 22.8525C40.7966 22.9947 40.8279 23.1369 40.8911 23.2636C41.7424 25.9362 42.562 28.6404 43.4446 31.313Z" fill="black"/>
<path d="M43.5711 18.582C43.5395 19.2937 43.2717 19.9579 43.0982 20.6379C43.0824 20.6853 43.0666 20.7169 43.0194 20.7327C42.9091 20.7802 42.7988 20.7011 42.7988 20.5904C42.8146 19.6574 43.1456 18.7402 42.9091 17.8229C42.5623 16.5736 41.7111 15.4825 41.6479 14.1541C41.6166 13.4583 41.7898 12.7783 41.9317 12.0982C41.4272 11.0387 41.1908 9.82102 41.4588 8.6666C41.5062 8.52428 41.5218 8.52428 41.6008 8.63497C42.0895 9.3466 42.7356 10.0582 42.7356 10.9913C42.6727 12.3197 41.9475 13.648 42.4362 14.9764C42.8301 16.1625 43.6814 17.2695 43.5711 18.582Z" fill="black"/>
<path d="M47.7322 13.9964C47.7006 15.7359 46.1874 17.1276 46.3609 18.8988C46.3609 19.5788 46.5341 20.2746 46.4554 20.9546C46.3451 21.5555 45.6671 21.6504 45.1786 21.7927C44.8948 21.9193 44.5796 21.5872 44.6584 21.3025C44.6584 19.2467 44.6584 17.175 44.6584 15.1192C44.69 14.2652 44.8948 13.3638 45.478 12.7154C45.8406 12.2885 46.219 11.8615 46.6129 11.4345C46.6919 11.3396 46.739 11.2289 46.7232 11.1182C46.6919 10.7387 46.6129 10.4066 46.7864 9.96379C47.0544 9.41029 47.4012 9.07819 47.7638 8.71446C47.8267 8.65123 47.9212 8.68283 47.937 8.76192C48.1893 9.8847 47.937 11.1024 47.417 12.1145C47.5431 12.7154 47.7322 13.348 47.7322 13.9964Z" fill="black"/>
<path d="M67.6416 7.63921C65.4977 8.24015 64.5045 8.9676 63.6536 9.6476C63.6536 9.6476 65.5923 8.9676 68.3825 8.66714C76.2956 7.79736 76.7527 10.7546 85.6116 7.32294C85.9112 7.27551 85.9899 7.51272 85.9112 7.63921C84.729 9.69506 83.4206 11.9723 78.4707 12.1779C73.0799 12.3993 70.2741 10.2327 65.2139 10.8811C61.9826 11.2923 60.3117 12.3044 59.3817 12.9211C70.4157 10.802 69.5015 15.6728 80.3152 13.0793C80.4413 13.0476 80.5832 13.016 80.7094 13.0318C80.9929 13.0634 81.1033 13.4114 80.93 13.6011C80.851 13.696 80.7407 13.7909 80.662 13.8858C79.2433 15.4198 77.7459 17.0961 72.7015 16.7165C66.7745 16.2737 66.3961 12.589 55.0783 15.4039C66.0494 15.3565 65.8603 18.9621 74.1202 17.8867C74.404 17.8551 74.5773 18.203 74.3566 18.3928C74.2305 18.5035 74.0886 18.5984 73.9782 18.6933C72.7331 19.6738 70.9202 20.8756 67.5154 20.1798C60.422 18.6933 61.3204 15.7519 52.1935 17.3649C59.3027 17.5546 58.814 20.3221 66.1126 21.0021C66.1126 21.0021 66.1126 21.0021 66.1284 21.0021C66.5222 21.0496 66.6326 21.5714 66.3016 21.7928C66.0494 21.9668 65.7658 22.0933 65.4977 22.204C60.1698 24.2757 57.695 17.5705 51.1532 19.0728C55.835 19.484 55.4566 21.0654 59.6811 22.2198C60.1382 22.3463 60.0911 22.9631 59.5866 23.0105C54.5738 23.5167 55.0151 20.1323 51.9412 20.0059C51.1216 19.9742 50.3651 20.417 49.9551 21.1445C48.7413 23.2636 49.23 25.272 49.1513 26.3631C49.4351 27.5019 49.8606 28.6088 49.8764 29.8105C49.8922 30.6487 49.8132 31.5186 49.5454 32.325C49.041 34.0013 48.5365 35.6776 48.0164 37.3697C47.9061 37.7176 47.9216 38.0971 48.0478 38.4292C48.2371 38.9354 48.4261 39.4255 48.5049 39.9633C48.6942 40.8645 48.5681 41.7976 48.2529 42.6675C47.5907 44.2964 46.9287 45.9253 46.2665 47.5697C46.1404 47.8702 46.0459 48.1865 45.8252 48.4396C45.4942 48.5028 45.5258 48.0759 45.5572 47.8702C46.2036 41.7818 46.8184 35.6934 47.4487 29.6051L47.9532 28.15C46.9603 29.0041 46.5188 30.1902 45.8726 31.2497C45.7936 31.5026 45.4155 31.5502 45.3365 31.2655C45.3997 30.206 45.5414 29.1463 45.573 28.0868C45.6675 27.0115 45.652 25.9204 46.0143 24.8925C46.4242 23.8488 47.2123 23.0105 47.8271 22.1091C48.8361 20.8124 49.5926 19.3417 50.1129 17.7919C50.428 16.843 51.0903 16.0049 51.9412 15.483C54.8892 13.617 56.6073 12.0039 59.3972 9.88481C61.9668 7.93968 63.9529 6.42154 65.0878 5.96292C70.2741 3.82804 80.6936 6.12107 89.6154 0.301472C89.836 0.174981 90.1199 0.427991 89.9463 0.791719C89.1111 2.9108 88.118 4.27082 85.7535 5.44107C78.9436 8.80945 71.1251 6.65874 67.6416 7.63921Z" fill="black"/>
<path d="M46.9599 11.2923C46.9599 11.2923 46.3767 10.2644 44.958 10.1379C43.8861 10.043 43.3977 10.4067 43.3977 10.4067C43.3977 10.4067 44.6902 10.0272 45.6989 10.9286C46.7079 11.83 46.156 12.6049 46.156 12.6049C46.156 12.6049 47.2596 11.9565 46.9599 11.2923Z" fill="black"/>
<path d="M46.8967 11.15C46.8967 11.15 46.1557 10.3593 44.6425 10.2961C44.6425 10.2961 45.5409 10.5175 45.6515 11.0077C45.8406 11.9407 45.0209 13.19 44.8632 13.791C44.737 14.3287 46.8967 11.15 46.8967 11.15Z" fill="black"/>
</svg>
