<svg width="91" height="18" viewBox="0 0 91 18" fill="none" xmlns="http://www.w3.org/2000/svg">
<path d="M11.1465 4.31102C6.57386 3.21371 3.37834 5.8213 1.41277 2.88924C1.40689 2.87743 1.401 2.87153 1.39512 2.85974C1.34216 2.77715 1.41277 2.65916 1.50692 2.68275C5.55577 3.65028 6.21489 3.04852 7.91564 3.255C9.48689 3.44379 11.1465 4.31102 11.1465 4.31102Z" fill="white"/>
<path d="M11.9536 5.04877C7.92827 4.45293 5.07407 7.46757 2.92018 5.14907C2.91429 5.14317 2.90841 5.13138 2.89664 5.12548C2.83779 5.06058 2.87898 4.94259 2.96725 4.94849C6.64535 5.21986 7.51043 4.57092 9.02294 4.50602C10.4352 4.44703 11.9536 5.04877 11.9536 5.04877Z" fill="white"/>
<path d="M12.6998 5.99697C9.18642 5.51912 7.67994 8.68125 4.83163 6.74621C4.82574 6.74031 4.81986 6.73442 4.80809 6.72262C4.74924 6.66952 4.7669 6.51614 4.84928 6.51614C7.96242 6.52204 8.77453 5.79639 10.087 5.63711C11.8642 5.42472 12.6998 5.99697 12.6998 5.99697Z" fill="white"/>
<path d="M14.2833 7.04283C12.4471 7.23751 12.7356 8.71239 10.7229 8.38202C10.4581 8.34072 10.517 8.15193 10.6347 8.11654C12.3237 7.63278 12.3237 7.3083 12.9298 7.06642C13.5065 6.84814 14.2833 7.04283 14.2833 7.04283Z" fill="white"/>
<path d="M13.4531 6.58777C10.8049 6.64087 10.1282 8.54641 7.89773 7.92696C7.55639 7.83256 7.6741 7.57298 7.85654 7.54939C10.4106 7.14233 10.5341 6.76476 11.4816 6.54057C12.3702 6.32819 13.4531 6.58777 13.4531 6.58777Z" fill="white"/>
<path d="M11.9409 4.30491C11.9232 4.3344 11.8821 4.3403 11.8527 4.3285C11.3054 4.01583 10.7934 3.65005 10.205 3.24889C9.65173 2.87722 8.46296 2.36986 5.99129 2.48785C4.81429 2.54685 3.02528 2.78873 1.1774 1.52033C0.730141 1.21946 0.276998 0.706199 0.0415998 0.228346C0.0180616 0.187044 0.00629267 0.133945 0.000408112 0.080847C-0.00547644 0.0277487 0.0533687 -0.0135374 0.106346 0.00415669C4.67895 1.84481 5.9854 1.12507 8.86314 1.79171C10.046 2.069 11.5113 3.79165 11.9351 4.22231C11.9586 4.24002 11.9586 4.2754 11.9409 4.30491Z" fill="white"/>
<path d="M15.9199 14.3939C15.8669 14.559 15.8786 14.7538 15.7728 14.8954C15.6432 15.0842 15.3255 15.1019 15.1725 14.9307C15.0725 14.8423 15.0725 14.7007 15.0371 14.5886C14.8077 13.5798 14.584 12.5709 14.3604 11.5561C14.3369 11.4854 14.3604 11.4382 14.4309 11.4088C14.5428 11.3792 14.5546 11.5031 14.5898 11.574C14.8429 12.2642 15.0782 12.9603 15.3373 13.6505C15.4196 13.8866 15.6963 13.8098 15.8786 13.8689C16.0728 13.9927 15.9551 14.2228 15.9199 14.3939Z" fill="white"/>
<path d="M16.2199 11.6083C16.2435 11.6732 16.2082 11.7498 16.1376 11.7616C16.0964 11.7675 16.061 11.7616 16.0493 11.7026C15.8786 11.3604 15.7315 11.0006 15.5549 10.6585C15.3255 10.4637 15.0841 10.2631 14.943 9.98587C14.6899 9.53751 14.7134 8.95346 14.9959 8.52279C15.0194 8.49328 15.037 8.45789 15.0607 8.42839C15.1018 8.36941 15.1901 8.3812 15.2136 8.452C15.2313 8.50509 15.243 8.55818 15.2666 8.60538C15.5843 9.6024 15.8905 10.6112 16.2199 11.6083Z" fill="white"/>
<path d="M16.2658 6.85957C16.2541 7.12505 16.1541 7.37283 16.0893 7.62651C16.0834 7.6442 16.0776 7.656 16.0599 7.6619C16.0187 7.67961 15.9776 7.6501 15.9776 7.60882C15.9833 7.26074 16.107 6.91857 16.0187 6.57639C15.8893 6.11033 15.5714 5.70327 15.548 5.20771C15.5361 4.94813 15.6009 4.69445 15.6539 4.44077C15.4655 4.04551 15.3772 3.59123 15.4772 3.16058C15.4949 3.10748 15.5008 3.10748 15.5303 3.14877C15.7128 3.41426 15.9539 3.67973 15.9539 4.0278C15.9305 4.52336 15.6597 5.01892 15.8422 5.51449C15.9893 5.95695 16.307 6.36991 16.2658 6.85957Z" fill="white"/>
<path d="M17.82 5.14901C17.8083 5.79795 17.2433 6.3171 17.3081 6.97786C17.3081 7.23154 17.3728 7.49112 17.3433 7.7448C17.3022 7.96897 17.0491 8.00437 16.8668 8.05747C16.7608 8.10467 16.6431 7.98078 16.6726 7.87458C16.6726 7.10765 16.6726 6.33481 16.6726 5.56788C16.6843 5.2493 16.7608 4.91302 16.9785 4.67115C17.1139 4.51186 17.2551 4.35258 17.4022 4.19328C17.4316 4.15788 17.4493 4.11659 17.4435 4.07529C17.4316 3.93371 17.4022 3.80982 17.467 3.64462C17.567 3.43814 17.6966 3.31425 17.8318 3.17857C17.8554 3.15497 17.8906 3.16677 17.8966 3.19626C17.9908 3.61513 17.8966 4.06939 17.7024 4.44696C17.7495 4.67115 17.82 4.90712 17.82 5.14901Z" fill="white"/>
<path d="M25.2529 2.77703C24.4525 3.0012 24.0818 3.27258 23.7641 3.52626C23.7641 3.52626 24.4879 3.27258 25.5294 3.1605C28.4838 2.83603 28.6544 3.93923 31.9618 2.65904C32.0735 2.64134 32.1029 2.72983 32.0735 2.77703C31.6322 3.54397 31.1437 4.39349 29.2959 4.47018C27.2832 4.55279 26.2358 3.74455 24.3466 3.98643C23.1403 4.13981 22.5164 4.51738 22.1691 4.74747C26.2887 3.95693 25.9473 5.77398 29.9843 4.80647C30.0315 4.79465 30.0845 4.78286 30.1316 4.78876C30.2374 4.80055 30.2787 4.93036 30.2139 5.00115C30.1845 5.03654 30.1434 5.07194 30.1139 5.10733C29.5843 5.67958 29.0251 6.30493 27.1419 6.16335C24.9293 5.99816 24.7881 4.62358 20.5626 5.67368C24.6585 5.65599 24.5879 7.00108 27.6717 6.59992C27.7776 6.58812 27.8423 6.71791 27.76 6.7887C27.7128 6.82999 27.6598 6.86539 27.6186 6.90079C27.1538 7.26655 26.4769 7.71492 25.2058 7.45534C22.5576 6.90079 22.8931 5.80347 19.4857 6.40523C22.1397 6.47603 21.9574 7.50844 24.6821 7.76212C24.6821 7.76212 24.6821 7.76212 24.6879 7.76212C24.835 7.77981 24.8764 7.97449 24.7527 8.0571C24.6585 8.12199 24.5525 8.16918 24.4525 8.21048C22.4635 8.98331 21.5395 6.48192 19.0973 7.04238C20.8451 7.19576 20.7038 7.78571 22.281 8.21638C22.4516 8.26358 22.4341 8.49366 22.2457 8.51136C20.3744 8.70014 20.5392 7.43764 19.3915 7.39044C19.0855 7.37865 18.8031 7.54384 18.65 7.81521C18.1969 8.60574 18.3792 9.35498 18.3498 9.76206C18.4558 10.1868 18.6148 10.5999 18.6206 11.0481C18.6265 11.3608 18.5971 11.6853 18.4969 11.9861C18.3087 12.6114 18.1204 13.2369 17.9262 13.8682C17.885 13.9979 17.8908 14.1395 17.9379 14.2634C18.0085 14.4522 18.0792 14.6351 18.1086 14.8357C18.1792 15.1719 18.1321 15.52 18.0144 15.8444C17.7673 16.4521 17.52 17.0597 17.2729 17.6733C17.2258 17.7853 17.1906 17.9034 17.1081 17.9978C16.9846 18.0214 16.9964 17.8621 17.0081 17.7853C17.2494 15.514 17.4789 13.2427 17.7142 10.9714L17.9027 10.4287C17.5319 10.7472 17.3671 11.1897 17.1258 11.585C17.0964 11.6793 16.9552 11.697 16.9258 11.5909C16.9493 11.1956 17.0022 10.8004 17.014 10.4051C17.0493 10.0039 17.0435 9.59687 17.1789 9.2134C17.3318 8.82403 17.626 8.51136 17.8556 8.17509C18.2321 7.69132 18.5146 7.14266 18.7088 6.56451C18.8265 6.21055 19.0738 5.89787 19.3915 5.70319C20.492 5.00705 21.1334 4.40529 22.1751 3.61476C23.1343 2.88911 23.8758 2.32275 24.2996 2.15168C26.2358 1.35524 30.1257 2.21068 33.4566 0.0396563C33.5389 -0.00754394 33.6448 0.0868408 33.5802 0.222527C33.2683 1.01307 32.8975 1.52043 32.0147 1.957C29.4724 3.2136 26.5535 2.41126 25.2529 2.77703Z" fill="white"/>
<path d="M17.5311 4.13968C17.5311 4.13968 17.3133 3.75621 16.7837 3.70901C16.3835 3.67362 16.2012 3.80931 16.2012 3.80931C16.2012 3.80931 16.6837 3.66773 17.0604 4.00399C17.4369 4.34026 17.231 4.62935 17.231 4.62935C17.231 4.62935 17.6429 4.38746 17.5311 4.13968Z" fill="white"/>
<path d="M17.5075 4.08615C17.5075 4.08615 17.231 3.79119 16.666 3.76758C16.666 3.76758 17.0014 3.85017 17.0427 4.03305C17.1133 4.38113 16.8073 4.84719 16.7485 5.07138C16.7014 5.27196 17.5075 4.08615 17.5075 4.08615Z" fill="white"/>
<path d="M67.2128 11.9115C66.4468 12.0383 65.6714 12.0971 64.8953 12.0873C63.4398 12.0873 61.8789 11.1258 61.8789 8.44104V6.86975C61.8789 4.02306 63.5152 3.21343 64.9985 3.21343C65.7399 3.20679 66.4804 3.26162 67.2128 3.37735C67.316 3.38936 67.4114 3.43534 67.4114 3.55328V4.139C67.4114 4.22096 67.3657 4.25696 67.2604 4.25696H67.2147C66.5275 4.19898 65.9915 4.17498 65.0005 4.17498C63.9182 4.17498 62.9393 4.76072 62.9393 6.86975V8.44104C62.9393 10.3762 63.8131 11.1378 64.8972 11.1378C65.6063 11.1378 66.0888 11.0919 66.3627 11.0678V7.71537C66.3603 7.68579 66.3639 7.65599 66.3734 7.62785C66.3827 7.59971 66.3978 7.57379 66.4174 7.55171C66.4372 7.52961 66.4611 7.5118 66.488 7.4994C66.5148 7.48697 66.5438 7.48019 66.5732 7.47948H67.2028C67.2626 7.48257 67.3191 7.50885 67.3601 7.55282C67.4012 7.59677 67.4237 7.65503 67.4233 7.71537V11.6535C67.425 11.7149 67.4046 11.7749 67.366 11.8223C67.3273 11.8697 67.2728 11.9014 67.2128 11.9115Z" fill="#B8BABE"/>
<path d="M71.7642 6.37797C71.222 6.35632 70.6793 6.39589 70.1458 6.49591V11.7715C70.1487 11.8287 70.1297 11.8848 70.0927 11.9282C70.0557 11.9717 70.0038 11.9994 69.9472 12.0053H69.3416C69.2829 12.0023 69.2279 11.9759 69.1883 11.9322C69.1489 11.8883 69.1284 11.8306 69.1311 11.7715V6.0741C69.1345 6.01523 69.1555 5.95877 69.1912 5.91207C69.2271 5.86537 69.276 5.83057 69.3316 5.81222C69.9948 5.51837 70.7992 5.48438 71.7642 5.48438C71.9171 5.48438 72.0105 5.49636 72.0105 5.66029V6.19805C72.0105 6.32 71.9867 6.37797 71.7642 6.37797Z" fill="#B8BABE"/>
<path d="M75.6284 12.0875C73.9167 12.0875 73.0469 10.9501 73.0469 9.22685V8.33526C73.0469 6.61205 73.9206 5.47656 75.6284 5.47656C77.3362 5.47656 78.21 6.61205 78.21 8.33526V9.22685C78.21 10.9501 77.3302 12.0875 75.6284 12.0875ZM77.2011 8.33526C77.2011 7.1358 76.7226 6.37816 75.6284 6.37816C74.5343 6.37816 74.0675 7.12981 74.0675 8.33526V9.22685C74.0675 10.4262 74.5343 11.1859 75.6284 11.1859C76.7226 11.1859 77.2011 10.4343 77.2011 9.22685V8.33526Z" fill="#B8BABE"/>
<path d="M82.0928 12.0875H81.9817C81.1872 12.0875 79.5828 11.6417 79.5828 9.33288V5.79249C79.5803 5.76266 79.584 5.73264 79.5936 5.70434C79.6032 5.67602 79.6187 5.65005 79.6389 5.62805C79.659 5.60607 79.6835 5.58854 79.7108 5.57658C79.7381 5.56462 79.7676 5.5585 79.7971 5.55859H80.403C80.4322 5.55904 80.4613 5.56557 80.488 5.57777C80.5149 5.58997 80.5388 5.60758 80.5586 5.62952C80.5784 5.65145 80.5933 5.67725 80.6028 5.70527C80.6123 5.73332 80.6158 5.763 80.6134 5.79249V9.33288C80.6134 10.7323 81.2091 11.186 81.9876 11.186H82.0928C82.8713 11.186 83.467 10.7402 83.467 9.33288V5.79249C83.4645 5.76316 83.4681 5.73364 83.4774 5.70574C83.4867 5.67784 83.5015 5.65214 83.5211 5.63024C83.5406 5.60833 83.5644 5.59067 83.5909 5.57836C83.6174 5.56604 83.6462 5.55932 83.6755 5.55859H84.2811C84.3106 5.55904 84.3395 5.56557 84.3664 5.57777C84.393 5.58997 84.4172 5.60758 84.4369 5.62952C84.4565 5.65145 84.4717 5.67725 84.4812 5.70527C84.4905 5.73332 84.4942 5.763 84.4916 5.79249V9.33288C84.4916 11.6417 82.8832 12.0875 82.0928 12.0875Z" fill="#B8BABE"/>
<path d="M88.4613 12.0875C88.0045 12.0814 87.549 12.0387 87.099 11.9596V14.0806C87.099 14.1099 87.0934 14.1386 87.0823 14.1656C87.0712 14.1925 87.055 14.2169 87.0345 14.2376C87.014 14.2582 86.9897 14.2746 86.963 14.2857C86.9361 14.2968 86.9075 14.3026 86.8786 14.3026H86.2829C86.2544 14.3022 86.2263 14.2963 86.2003 14.2851C86.1742 14.2736 86.1507 14.2571 86.1311 14.2364C86.1113 14.2158 86.0961 14.1912 86.0861 14.1645C86.076 14.1378 86.0713 14.1092 86.0724 14.0806V6.01236C86.0724 5.86044 86.1081 5.79047 86.3167 5.74449C87.0185 5.57319 87.7373 5.48266 88.4594 5.47461C90.1948 5.47461 90.9992 6.61008 90.9992 8.36929V9.2109C91.0011 11.0561 90.1611 12.0875 88.4613 12.0875ZM89.9744 8.37128C89.9744 7.13985 89.6151 6.34421 88.4613 6.34421C88.0049 6.34687 87.5494 6.38564 87.099 6.46016V11.102C87.5495 11.1765 88.0049 11.216 88.4613 11.22C89.6032 11.22 89.9744 10.4703 89.9744 9.2209V8.37128Z" fill="#B8BABE"/>
<path d="M46.943 11.9915C46.4187 12.0735 44.9571 12.1775 44.4508 12.1775C42.2029 12.1775 40.6777 11.6097 40.6777 8.76705V3.58542C40.6782 3.5554 40.6846 3.5258 40.6967 3.49831C40.7088 3.47085 40.726 3.44605 40.7477 3.4254C40.7692 3.40473 40.7948 3.38861 40.8226 3.37799C40.8506 3.36737 40.8803 3.36245 40.9101 3.36351H42.8086C42.8383 3.36218 42.8682 3.3669 42.8962 3.37743C42.9242 3.38795 42.9499 3.40404 42.9716 3.42476C42.9931 3.44547 43.0105 3.47038 43.0224 3.49798C43.0343 3.52559 43.0406 3.55532 43.0409 3.58542V8.76705C43.0409 9.82257 43.3904 10.1664 44.2184 10.1664C44.5922 10.1652 44.9656 10.1412 45.3365 10.0944V3.58542C45.3367 3.55532 45.3429 3.52559 45.3548 3.49798C45.3667 3.47038 45.3841 3.44547 45.4058 3.42476C45.4275 3.40404 45.4531 3.38795 45.481 3.37743C45.509 3.3669 45.5389 3.36218 45.5688 3.36351H47.4553C47.5168 3.36078 47.5768 3.38254 47.6226 3.42405C47.6683 3.46558 47.6959 3.52355 47.6995 3.58542V11.088C47.6995 11.7437 47.5009 11.9096 46.943 11.9915Z" fill="white"/>
<path d="M51.3557 12.0735H49.4453C49.3842 12.072 49.3261 12.0465 49.2834 12.0023C49.2408 11.9582 49.2168 11.8991 49.2168 11.8377V3.5854C49.2174 3.55573 49.2237 3.52647 49.2354 3.49926C49.2472 3.47205 49.2642 3.44743 49.2855 3.42683C49.3067 3.40622 49.3316 3.39002 49.3591 3.37916C49.3864 3.3683 49.4158 3.36298 49.4453 3.36351H51.3557C51.3854 3.36216 51.4153 3.36688 51.4433 3.37741C51.4713 3.38793 51.497 3.40404 51.5185 3.42475C51.5402 3.44545 51.5576 3.47036 51.5695 3.49797C51.5814 3.52557 51.5877 3.55531 51.588 3.5854V11.8377C51.5881 11.8686 51.5824 11.8991 51.5708 11.9277C51.5592 11.9563 51.5422 11.9823 51.5206 12.0044C51.4989 12.0262 51.4733 12.0436 51.4449 12.0555C51.4166 12.0674 51.3862 12.0735 51.3557 12.0735Z" fill="white"/>
<path d="M58.1092 11.9671C57.5795 12.1192 57.0298 12.1901 56.4789 12.177C54.3362 12.177 52.8926 11.0056 52.8926 8.32083V7.12138C52.8926 4.4286 54.3362 3.25715 56.4789 3.25715C57.0298 3.24524 57.5792 3.31598 58.1092 3.46705C58.2959 3.52703 58.3655 3.561 58.3655 3.72494V5.22625C58.3655 5.37817 58.2959 5.44814 58.167 5.44814H58.1311C57.5899 5.38449 57.0457 5.34979 56.5008 5.3442C55.8713 5.3442 55.3093 5.62407 55.3093 7.11338V8.31283C55.3093 9.79015 55.8693 10.084 56.5008 10.084C57.0457 10.0779 57.5899 10.0425 58.1311 9.97807H58.153C58.2921 9.97807 58.3515 10.048 58.3515 10.2V11.7092C58.3655 11.8612 58.2959 11.9091 58.1092 11.9671Z" fill="white"/>
</svg>
