<svg xmlns="http://www.w3.org/2000/svg" width="8" height="8" viewBox="0 0 8 8" fill="none">
    <g clip-path="url(#clip0_7_8647)">
        <path d="M0 4.78166V5.8689C0 6.31971 0.348387 6.63792 0.774194 6.63792H7.22581C7.65161 6.63792 8 6.31971 8 5.8689V4.78166H0Z" fill="#1EB53A"/>
        <path d="M7.22581 1.06906H0.774194C0.348387 1.06906 0 1.38728 0 1.83808V2.92532H8V1.83808C8 1.38728 7.65161 1.06906 7.22581 1.06906Z" fill="#0099B5"/>
        <path d="M8 2.92536H0V4.78162H8V2.92536Z" fill="#F7F8FC"/>
        <path d="M8 2.79282H0V2.92526H8V2.79282Z" fill="#CE1126"/>
        <path d="M8 4.78166H0V4.9141H8V4.78166Z" fill="#CE1126"/>
        <path d="M1.21346 1.44034C1.18765 1.44034 1.16184 1.42709 1.13604 1.42709C0.86507 1.42709 0.632812 1.65249 0.632812 1.94419C0.632812 2.23589 0.852167 2.46129 1.13604 2.46129C1.16184 2.46129 1.18765 2.46129 1.21346 2.44803C0.981199 2.40825 0.800554 2.19611 0.800554 1.94419C0.800554 1.67901 0.981199 1.48012 1.21346 1.44034Z" fill="white"/>
        <path d="M1.4589 2.31543L1.4331 2.24921L1.40729 2.31543H1.34277L1.39439 2.36841L1.38148 2.43462L1.4331 2.39489L1.49761 2.43462L1.47181 2.36841L1.53632 2.31543H1.4589Z" fill="white"/>
        <path d="M1.85832 2.31543L1.83251 2.24921L1.8067 2.31543H1.74219L1.7938 2.36841L1.7809 2.43462L1.83251 2.39489L1.89703 2.43462L1.87122 2.36841L1.92283 2.31543H1.85832Z" fill="white"/>
        <path d="M2.25822 2.31543L2.23241 2.24921L2.20661 2.31543H2.14209L2.1937 2.36841L2.1679 2.43462L2.23241 2.39489L2.29693 2.43462L2.27112 2.36841L2.32274 2.31543H2.25822Z" fill="white"/>
        <path d="M2.6591 2.31543L2.63329 2.24921L2.60748 2.31543H2.54297L2.59458 2.36841L2.56878 2.43462L2.63329 2.39489L2.69781 2.43462L2.672 2.36841L2.72361 2.31543H2.6591Z" fill="white"/>
        <path d="M3.059 2.31543L3.03319 2.24921L3.00739 2.31543H2.94287L2.99448 2.36841L2.96868 2.43462L3.03319 2.39489L3.08481 2.43462L3.0719 2.36841L3.12352 2.31543H3.059Z" fill="white"/>
        <path d="M1.83251 1.83839L1.81961 1.90461H1.74219L1.8067 1.95759L1.7809 2.0238L1.83251 1.98407L1.89703 2.0238L1.87122 1.95759L1.93574 1.90461H1.85832L1.83251 1.83839Z" fill="white"/>
        <path d="M2.23241 1.83839L2.21951 1.90461H2.14209L2.20661 1.95759L2.1808 2.0238L2.23241 1.98407L2.29693 2.0238L2.27112 1.95759L2.33564 1.90461H2.25822L2.23241 1.83839Z" fill="white"/>
        <path d="M2.63329 1.83839L2.62039 1.90461H2.54297L2.60748 1.95759L2.58168 2.0238L2.63329 1.98407L2.69781 2.0238L2.672 1.95759L2.73652 1.90461H2.6591L2.63329 1.83839Z" fill="white"/>
        <path d="M3.059 1.90461L3.03319 1.83839L3.02029 1.90461H2.94287L2.99448 1.95759L2.98158 2.0238L3.03319 1.98407L3.09771 2.0238L3.0719 1.95759L3.13642 1.90461H3.059Z" fill="white"/>
        <path d="M2.19489 1.5464L2.16908 1.61262L2.2336 1.57289L2.28521 1.61262L2.27231 1.5464L2.32392 1.49343H2.2594L2.2336 1.42721L2.20779 1.49343H2.13037L2.19489 1.5464Z" fill="white"/>
        <path d="M2.59479 1.5464L2.56898 1.61262L2.6335 1.57289L2.68511 1.61262L2.67221 1.5464L2.72382 1.49343H2.65931L2.6335 1.42721L2.60769 1.49343H2.53027L2.59479 1.5464Z" fill="white"/>
        <path d="M2.9942 1.5464L2.9684 1.61262L3.03291 1.57289L3.08453 1.61262L3.07162 1.5464L3.12324 1.49343H3.04582L3.03291 1.42721L3.00711 1.49343H2.92969L2.9942 1.5464Z" fill="white"/>
    </g>
    <defs>
        <clipPath id="clip0_7_8647">
            <rect width="8" height="7.70679" fill="white"/>
        </clipPath>
    </defs>
</svg>