<svg xmlns="http://www.w3.org/2000/svg" width="8" height="4" viewBox="0 0 8 4" fill="none">
    <path d="M3.11973 0.112061H3.87168V2.65929C3.87168 2.95256 3.80605 3.19929 3.6748 3.39949C3.54355 3.59793 3.36491 3.74807 3.13887 3.84993C2.91283 3.95003 2.65579 4.00008 2.36777 4.00008C2.07611 4.00008 1.81634 3.95003 1.58848 3.84993C1.36061 3.74807 1.18197 3.59793 1.05254 3.39949C0.923112 3.19929 0.858398 2.95256 0.858398 2.65929V0.112061H1.61035V2.65929C1.61035 2.83841 1.64134 2.98505 1.70332 3.09919C1.7653 3.21158 1.8528 3.295 1.96582 3.34944C2.07884 3.40388 2.21283 3.4311 2.36777 3.4311C2.52454 3.4311 2.65853 3.40388 2.76973 3.34944C2.88275 3.295 2.96934 3.21158 3.02949 3.09919C3.08965 2.98505 3.11973 2.83841 3.11973 2.65929V0.112061Z" fill="#273140"/>
    <path d="M7.29816 3.37841V3.94739H4.50363V3.37841H7.29816ZM7.24621 0.53616L4.81262 3.94739H4.29582V3.51276L6.74035 0.112061H7.24621V0.53616ZM6.97824 0.112061V0.683673H4.30402V0.112061H6.97824Z" fill="#273140"/>
</svg>