<svg width="549" height="201" viewBox="0 0 549 201" fill="none" xmlns="http://www.w3.org/2000/svg">
<mask id="mask0_5119_26377" style="mask-type:alpha" maskUnits="userSpaceOnUse" x="0" y="0" width="549" height="201">
<path d="M94.8833 195.72V165.552V153.107L96.0159 135.383V124.824V2.63978H145.093V124.824V165.552V195.72H94.8833Z" fill="white"/>
<path d="M273.568 201C256.014 200.937 240.85 196.883 228.077 188.838C215.304 180.793 205.457 169.197 198.536 154.05C191.615 138.902 188.186 120.738 188.249 99.5572C188.312 78.3133 191.772 60.2749 198.63 45.4418C205.552 30.6088 215.367 19.3269 228.077 11.5962C240.85 3.86539 256.014 0 273.568 0C291.123 0 306.287 3.89681 319.059 11.6904C331.832 19.4212 341.679 30.7031 348.6 45.5361C355.522 60.3691 358.951 78.3762 358.888 99.5572C358.888 120.864 355.427 139.091 348.506 154.238C341.585 169.386 331.738 180.982 318.965 189.027C306.255 197.009 291.123 201 273.568 201ZM273.568 158.386C282.629 158.386 290.053 153.673 295.842 144.245C301.693 134.754 304.588 119.858 304.525 99.5572C304.525 86.2955 303.204 75.4536 300.561 67.0314C297.918 58.6093 294.269 52.387 289.613 48.3644C284.957 44.2791 279.609 42.2364 273.568 42.2364C264.508 42.2364 257.115 46.8246 251.389 56.0009C245.663 65.1773 242.737 79.6961 242.612 99.5572C242.549 113.07 243.839 124.195 246.481 132.932C249.124 141.605 252.773 148.016 257.429 152.164C262.148 156.312 267.528 158.386 273.568 158.386Z" fill="white"/>
<path d="M381.633 165.552V124.824L459.402 2.63978H496.399V56.9437H475.258L433.354 123.315V124.824H548.12V165.552H381.633ZM475.636 195.72V153.107L476.768 135.383V2.63978H525.846V195.72H475.636Z" fill="white"/>
<path d="M0.880859 124.824V165.552H94.8833V153.107L96.0159 135.383V124.824H52.6011V123.315L94.5058 56.9437H96.0159V2.63978H78.65L0.880859 124.824Z" fill="white"/>
<path d="M167.367 165.552V124.824H145.093V165.552H167.367Z" fill="white"/>
</mask>
<g mask="url(#mask0_5119_26377)">
<g filter="url(#filter0_f_5119_26377)">
<path d="M-127 14.7714C-127 -32.753 -127 -56.5153 -117.941 -74.6672C-109.972 -90.6341 -97.257 -103.616 -81.6177 -111.751C-63.8381 -121 -40.5633 -121 5.98622 -121H110.26C156.809 -121 180.084 -121 197.863 -111.751C213.503 -103.616 226.218 -90.6341 234.187 -74.6672C243.246 -56.5153 243.246 -32.753 243.246 14.7714V121.229C243.246 168.753 243.246 192.515 234.187 210.667C226.218 226.634 213.503 239.616 197.863 247.751C180.084 257 156.809 257 110.26 257H5.98622C-40.5633 257 -63.8381 257 -81.6177 247.751C-97.257 239.616 -109.972 226.634 -117.941 210.667C-127 192.515 -127 168.753 -127 121.229V14.7714Z" fill="#16CC53"/>
<path opacity="0.4" d="M7.44566 57.6985C11.6246 50.3088 13.714 46.6139 16.6372 43.9267C19.2237 41.5491 22.2707 39.7531 25.5808 38.655C29.3218 37.4141 33.5007 37.4141 41.8585 37.4141L102.385 37.4142C112.065 37.4142 116.905 37.4142 119.702 39.4895C122.143 41.2997 123.716 44.0821 124.032 47.1449C124.393 50.6564 121.973 54.9356 117.133 63.4941L108.759 78.303C108.772 78.303 108.78 78.3176 108.774 78.3291C104.605 85.7014 102.517 89.3907 99.5968 92.0747C97.0104 94.4523 93.9634 96.2484 90.6533 97.3464C86.9123 98.5874 82.7334 98.5874 74.3755 98.5874L13.849 98.5873C4.16926 98.5873 -0.670614 98.5873 -3.46848 96.5119C-5.9089 94.7017 -7.48236 91.9193 -7.79767 88.8565C-8.15917 85.3451 -5.73923 81.0658 -0.899351 72.5073L-4.20633 78.303L7.44566 57.6985Z" fill="white"/>
<path d="M-123.584 193.867C-127 177.493 -127 155.561 -127 121.228V116.697L98.8037 116.697C108.483 116.697 113.323 116.697 116.121 118.773C118.562 120.583 120.135 123.365 120.45 126.428C120.812 129.939 118.392 134.219 113.552 142.777L96.1315 173.582C91.9526 180.972 89.8631 184.667 86.9399 187.354C84.3535 189.732 81.3064 191.528 77.9964 192.626C74.2554 193.867 70.0765 193.867 61.7186 193.867L-123.584 193.867Z" fill="white"/>
<path d="M239.83 -57.8676C243.246 -41.4938 243.246 -19.5624 243.246 14.7706V19.3019L17.4417 19.3018C7.76192 19.3018 2.92203 19.3018 0.124161 17.2265C-2.31625 15.4163 -3.88974 12.6339 -4.20504 9.57105C-4.56654 6.05961 -2.1466 1.78037 2.69328 -6.77811L20.1138 -37.5833C24.2927 -44.973 26.3822 -48.6678 29.3054 -51.355C31.8918 -53.7326 34.9389 -55.5287 38.2489 -56.6267C41.9899 -57.8677 46.1688 -57.8677 54.5267 -57.8677L239.83 -57.8676Z" fill="white"/>
</g>
<g filter="url(#filter1_f_5119_26377)">
<path d="M52.6416 14.352C52.6416 -33.1725 52.6416 -56.9347 61.7007 -75.0866C69.6694 -91.0535 82.3846 -104.035 98.0239 -112.171C115.804 -121.419 139.078 -121.419 185.628 -121.419H289.901C336.451 -121.419 359.725 -121.419 377.505 -112.171C393.144 -104.035 405.86 -91.0535 413.828 -75.0866C422.887 -56.9347 422.887 -33.1725 422.887 14.352V120.809C422.887 168.334 422.887 192.096 413.828 210.248C405.86 226.215 393.144 239.196 377.505 247.332C359.725 256.581 336.451 256.581 289.901 256.581H185.628C139.078 256.581 115.804 256.581 98.0239 247.332C82.3846 239.196 69.6694 226.215 61.7007 210.248C52.6416 192.096 52.6416 168.334 52.6416 120.809V14.352Z" fill="#16CC53"/>
<path opacity="0.4" d="M187.087 57.279C191.266 49.8893 193.356 46.1945 196.279 43.5073C198.865 41.1297 201.912 39.3336 205.222 38.2356C208.963 36.9946 213.142 36.9946 221.5 36.9946L282.027 36.9947C291.706 36.9947 296.546 36.9947 299.344 39.0701C301.785 40.8803 303.358 43.6627 303.673 46.7255C304.035 50.2369 301.615 54.5162 296.775 63.0747L288.4 77.8835C288.414 77.8835 288.422 77.8982 288.415 77.9097C284.246 85.2819 282.158 88.9712 279.238 91.6552C276.652 94.0329 273.605 95.8289 270.295 96.9269C266.554 98.1679 262.375 98.1679 254.017 98.1679L193.491 98.1678C183.811 98.1678 178.971 98.1678 176.173 96.0925C173.733 94.2823 172.159 91.4999 171.844 88.4371C171.482 84.9256 173.902 80.6464 178.742 72.0879L175.435 77.8835L187.087 57.279Z" fill="white"/>
<path d="M56.0574 193.447C52.6416 177.073 52.6416 155.142 52.6416 120.808V116.278L278.445 116.278C288.125 116.278 292.965 116.278 295.763 118.353C298.203 120.163 299.777 122.946 300.092 126.009C300.453 129.52 298.034 133.799 293.194 142.358L275.773 173.163C271.594 180.553 269.505 184.247 266.582 186.935C263.995 189.312 260.948 191.108 257.638 192.206C253.897 193.447 249.718 193.447 241.36 193.447L56.0574 193.447Z" fill="white"/>
<path d="M419.472 -58.2871C422.887 -41.9132 422.887 -19.9818 422.887 14.3512V18.8824L197.083 18.8824C187.404 18.8824 182.564 18.8824 179.766 16.807C177.325 14.9968 175.752 12.2144 175.437 9.15162C175.075 5.64017 177.495 1.36094 182.335 -7.19754L199.755 -38.0027C203.934 -45.3924 206.024 -49.0873 208.947 -51.7744C211.533 -54.152 214.58 -55.9481 217.891 -57.0461C221.632 -58.2871 225.81 -58.2871 234.168 -58.2871L419.472 -58.2871Z" fill="white"/>
</g>
<g filter="url(#filter2_f_5119_26377)">
<path d="M291 -33.2286C291 -80.753 291 -104.515 300.059 -122.667C308.028 -138.634 320.743 -151.616 336.382 -159.751C354.162 -169 377.437 -169 423.986 -169H528.26C574.809 -169 598.084 -169 615.863 -159.751C631.503 -151.616 644.218 -138.634 652.187 -122.667C661.246 -104.515 661.246 -80.753 661.246 -33.2286V73.2286C661.246 120.753 661.246 144.515 652.187 162.667C644.218 178.634 631.503 191.616 615.863 199.751C598.084 209 574.809 209 528.26 209H423.986C377.437 209 354.162 209 336.382 199.751C320.743 191.616 308.028 178.634 300.059 162.667C291 144.515 291 120.753 291 73.2286V-33.2286Z" fill="#16CC53"/>
<path opacity="0.4" d="M425.446 9.69845C429.625 2.30876 431.714 -1.38608 434.637 -4.07325C437.224 -6.45087 440.271 -8.24693 443.581 -9.34496C447.322 -10.5859 451.501 -10.5859 459.859 -10.5859L520.385 -10.5858C530.065 -10.5858 534.905 -10.5858 537.702 -8.5105C540.143 -6.7003 541.716 -3.91791 542.032 -0.855081C542.393 2.65636 539.973 6.9356 535.133 15.4941L526.759 30.303C526.772 30.303 526.78 30.3176 526.774 30.3291C522.605 37.7014 520.517 41.3907 517.597 44.0747C515.01 46.4523 511.963 48.2484 508.653 49.3464C504.912 50.5874 500.733 50.5874 492.376 50.5874L431.849 50.5873C422.169 50.5873 417.329 50.5873 414.532 48.5119C412.091 46.7017 410.518 43.9193 410.202 40.8565C409.841 37.3451 412.261 33.0658 417.101 24.5073L413.794 30.303L425.446 9.69845Z" fill="white"/>
<path d="M294.416 145.867C291 129.493 291 107.561 291 73.2277V68.6972L516.804 68.6972C526.483 68.6972 531.323 68.6972 534.121 70.7726C536.562 72.5828 538.135 75.3651 538.45 78.428C538.812 81.9394 536.392 86.2187 531.552 94.7771L514.132 125.582C509.953 132.972 507.863 136.667 504.94 139.354C502.354 141.732 499.306 143.528 495.996 144.626C492.255 145.867 488.076 145.867 479.719 145.867L294.416 145.867Z" fill="white"/>
<path d="M657.83 -105.868C661.246 -89.4938 661.246 -67.5624 661.246 -33.2294V-28.6981L435.442 -28.6982C425.762 -28.6982 420.922 -28.6982 418.124 -30.7735C415.684 -32.5837 414.11 -35.3661 413.795 -38.4289C413.433 -41.9404 415.853 -46.2196 420.693 -54.7781L438.114 -85.5833C442.293 -92.973 444.382 -96.6678 447.305 -99.355C449.892 -101.733 452.939 -103.529 456.249 -104.627C459.99 -105.868 464.169 -105.868 472.527 -105.868L657.83 -105.868Z" fill="white"/>
</g>
</g>
<defs>
<filter id="filter0_f_5119_26377" x="-295.581" y="-289.581" width="781.017" height="781.078" filterUnits="userSpaceOnUse" color-interpolation-filters="sRGB">
<feFlood flood-opacity="0" result="BackgroundImageFix"/>
<feBlend mode="normal" in="SourceGraphic" in2="BackgroundImageFix" result="shape"/>
<feGaussianBlur stdDeviation="84.2903" result="effect1_foregroundBlur_5119_26377"/>
</filter>
<filter id="filter1_f_5119_26377" x="-115.939" y="-290" width="781.017" height="781.078" filterUnits="userSpaceOnUse" color-interpolation-filters="sRGB">
<feFlood flood-opacity="0" result="BackgroundImageFix"/>
<feBlend mode="normal" in="SourceGraphic" in2="BackgroundImageFix" result="shape"/>
<feGaussianBlur stdDeviation="84.2903" result="effect1_foregroundBlur_5119_26377"/>
</filter>
<filter id="filter2_f_5119_26377" x="122.419" y="-337.581" width="781.017" height="781.078" filterUnits="userSpaceOnUse" color-interpolation-filters="sRGB">
<feFlood flood-opacity="0" result="BackgroundImageFix"/>
<feBlend mode="normal" in="SourceGraphic" in2="BackgroundImageFix" result="shape"/>
<feGaussianBlur stdDeviation="84.2903" result="effect1_foregroundBlur_5119_26377"/>
</filter>
</defs>
</svg>
