<svg width="154" height="129" viewBox="0 0 154 129" fill="none" xmlns="http://www.w3.org/2000/svg">
    <path d="M77.5 115C112.042 115 140 89.2385 140 57.4537C140 25.6688 112.042 0 77.5 0C43.0592 0 15 25.7615 15 57.5463C15 89.3312 43.0592 115 77.5 115Z" fill="#EDF0F2"/>
    <g filter="url(#filter0_d_28_30506)">
        <path d="M96.3809 94.6943L103.157 107.502L76.7728 111.308L50.3787 107.522L57.2271 94.6943H96.3809Z" fill="#4D696E"/>
    </g>
    <path d="M136.648 14.6265V86.4447C136.648 91.761 132.333 96.0712 127.011 96.0712H26.5354C21.2128 96.0712 16.8975 91.761 16.8975 86.4447V14.8671C16.8975 9.41855 21.3213 5 26.7763 5H127.011C132.333 5 136.648 9.31025 136.648 14.6265Z" fill="#94A8AA"/>
    <path d="M30.1496 96.0712H26.5354C21.2128 96.0712 16.8975 91.761 16.8975 86.4447V14.8671C16.8975 9.41855 21.3213 5 26.7763 5H30.3905C24.9355 5 20.5117 9.41855 20.5117 14.8671V86.4447C20.5117 91.761 24.827 96.0712 30.1496 96.0712Z" fill="#4D696E"/>
    <path d="M124.48 88.8507H29.065C26.4035 88.8507 24.2461 86.6959 24.2461 84.0375V17.1335C24.2461 14.4752 26.4035 12.3203 29.065 12.3203H124.48C127.142 12.3203 129.299 14.4752 129.299 17.1335V84.0375C129.299 86.6959 127.142 88.8507 124.48 88.8507Z" fill="#F5F5F5"/>
    <path d="M129.299 17.1335V84.0375C129.299 86.6968 127.143 88.8507 124.48 88.8507H29.065C26.4026 88.8507 24.2461 86.6968 24.2461 84.0375V17.1335C24.2461 14.4742 26.4026 12.3203 29.065 12.3203H124.48C127.143 12.3203 129.299 14.4742 129.299 17.1335Z" fill="#F5F5F5"/>
    <path d="M111.349 117.63H45.3292C42.5347 117.63 40.2693 115.368 40.2693 112.576C40.2693 109.785 42.5347 107.522 45.3292 107.522H111.349V117.63Z" fill="#94A8AA"/>
    <path d="M92.3159 90.1299H100.296V117.629H92.3159V90.1299ZM51.1119 117.629H45.3292C42.5342 117.629 40.2693 115.367 40.2693 112.575C40.2693 111.18 40.8355 109.916 41.7511 109.002C42.6667 108.087 43.9317 107.522 45.3292 107.522H51.1119C49.7144 107.522 48.4495 108.087 47.5339 109.002C46.6183 109.916 46.052 111.18 46.052 112.575C46.052 115.367 48.3169 117.629 51.1119 117.629Z" fill="#4D696E"/>
    <path d="M111.228 54.4601H42.3172C39.6557 54.4601 37.4983 52.3052 37.4983 49.6469V36.6511C37.4983 33.9928 39.6557 31.8379 42.3172 31.8379H111.228C113.89 31.8379 116.047 33.9928 116.047 36.6511V49.6469C116.047 52.3052 113.89 54.4601 111.228 54.4601Z" fill="#2EDFFC"/>
    <path d="M45.9315 54.4601H42.3172C39.6548 54.4601 37.4983 52.3038 37.4983 49.6469V36.6511C37.4983 33.9918 39.6548 31.8379 42.3172 31.8379H45.9315C43.269 31.8379 41.1125 33.9918 41.1125 36.6511V49.6469C41.1125 52.3038 43.269 54.4601 45.9315 54.4601Z" fill="#27BDF3"/>
    <path d="M55.3692 43.8793L53.969 43.057L55.5916 42.1384C55.8005 42.0228 55.9845 41.8671 56.1328 41.6801C56.2811 41.4931 56.3909 41.2786 56.4557 41.049C56.5205 40.8194 56.5391 40.5792 56.5104 40.3424C56.4817 40.1056 56.4063 39.8768 56.2885 39.6692C56.1707 39.4617 56.0129 39.2795 55.8243 39.1333C55.6356 38.987 55.4197 38.8796 55.1892 38.8171C54.9587 38.7547 54.718 38.7386 54.4812 38.7696C54.2444 38.8007 54.0161 38.8783 53.8095 38.998L52.1643 39.9294V38.2151C52.1643 37.2181 51.3552 36.4102 50.3572 36.4102C49.3592 36.4102 48.5501 37.2181 48.5501 38.2151V39.8745L46.9683 38.9455C46.7637 38.8235 46.5369 38.7432 46.3011 38.7091C46.0652 38.675 45.825 38.6879 45.5941 38.7469C45.3632 38.8059 45.1463 38.9099 44.9559 39.053C44.7655 39.1961 44.6052 39.3754 44.4845 39.5806C44.3637 39.7857 44.2847 40.0128 44.2521 40.2485C44.2195 40.4843 44.2339 40.7242 44.2945 40.9544C44.3551 41.1846 44.4607 41.4005 44.6051 41.5898C44.7496 41.7791 44.9302 41.938 45.1364 42.0573L46.7413 42.9997L45.3313 43.798C45.1223 43.9135 44.9384 44.0693 44.7901 44.2563C44.6417 44.4433 44.532 44.6578 44.4672 44.8874C44.4024 45.117 44.3838 45.3571 44.4125 45.594C44.4412 45.8308 44.5166 46.0596 44.6344 46.2672C44.7521 46.4747 44.9099 46.6569 45.0986 46.8031C45.2873 46.9494 45.5032 47.0568 45.7337 47.1192C45.9642 47.1816 46.2048 47.1978 46.4416 47.1668C46.6785 47.1357 46.9068 47.0581 47.1133 46.9384L48.5499 46.1249V48.0822C48.5499 49.0793 49.359 49.8872 50.357 49.8872C51.355 49.8872 52.1641 49.0793 52.1641 48.0822V46.1844L53.5373 46.9908C53.7418 47.1111 53.968 47.1899 54.203 47.2228C54.4381 47.2557 54.6773 47.2419 54.907 47.1824C55.1367 47.1229 55.3525 47.0187 55.5419 46.8759C55.7313 46.7331 55.8906 46.5543 56.0108 46.35C56.1312 46.1457 56.2101 45.9197 56.243 45.685C56.2759 45.4502 56.2621 45.2113 56.2025 44.9819C56.1429 44.7524 56.0387 44.537 55.8957 44.3478C55.7527 44.1586 55.5738 43.9994 55.3692 43.8793ZM72.7174 43.8793L71.3173 43.057L72.9398 42.1384C73.1488 42.0228 73.3327 41.8671 73.481 41.6801C73.6294 41.4931 73.7391 41.2786 73.8039 41.049C73.8687 40.8194 73.8873 40.5792 73.8586 40.3424C73.8299 40.1056 73.7545 39.8768 73.6367 39.6692C73.519 39.4617 73.3612 39.2795 73.1725 39.1333C72.9838 38.987 72.7679 38.8796 72.5374 38.8171C72.3069 38.7547 72.0663 38.7386 71.8295 38.7696C71.5926 38.8007 71.3643 38.8783 71.1578 38.998L69.5126 39.9294V38.2151C69.5126 37.2181 68.7035 36.4102 67.7055 36.4102C66.7074 36.4102 65.8983 37.2181 65.8983 38.2151V39.8745L64.3165 38.9455C64.1119 38.8235 63.8851 38.7432 63.6493 38.7091C63.4134 38.675 63.1732 38.6879 62.9423 38.7469C62.7115 38.8059 62.4946 38.9099 62.3041 39.053C62.1137 39.1961 61.9535 39.3754 61.8327 39.5806C61.7119 39.7857 61.6329 40.0128 61.6003 40.2485C61.5677 40.4843 61.5821 40.7242 61.6427 40.9544C61.7033 41.1846 61.8089 41.4005 61.9534 41.5898C62.0979 41.7791 62.2784 41.938 62.4846 42.0573L64.0896 42.9997L62.6795 43.798C62.4706 43.9135 62.2866 44.0693 62.1383 44.2563C61.99 44.4433 61.8802 44.6578 61.8154 44.8874C61.7506 45.117 61.732 45.3571 61.7607 45.594C61.7894 45.8308 61.8648 46.0596 61.9826 46.2672C62.1004 46.4747 62.2582 46.6569 62.4468 46.8031C62.6355 46.9494 62.8514 47.0568 63.0819 47.1192C63.3124 47.1816 63.5531 47.1978 63.7899 47.1668C64.0267 47.1357 64.255 47.0581 64.4616 46.9384L65.8981 46.1249V48.0822C65.8981 49.0793 66.7072 49.8872 67.7052 49.8872C68.7032 49.8872 69.5123 49.0793 69.5123 48.0822V46.1844L70.8855 46.9908C71.09 47.1111 71.3162 47.1899 71.5513 47.2228C71.7863 47.2557 72.0255 47.2419 72.2552 47.1824C72.485 47.1229 72.7007 47.0187 72.8901 46.8759C73.0795 46.7331 73.2388 46.5543 73.3591 46.35C73.4794 46.1457 73.5583 45.9197 73.5912 45.685C73.6241 45.4502 73.6103 45.2113 73.5508 44.9819C73.4912 44.7524 73.3869 44.537 73.2439 44.3478C73.1009 44.1586 72.922 43.9994 72.7174 43.8793ZM90.0656 43.8793L88.6655 43.057L90.288 42.1384C90.497 42.0228 90.681 41.8671 90.8293 41.6801C90.9776 41.4931 91.0873 41.2786 91.1521 41.049C91.2169 40.8194 91.2355 40.5792 91.2069 40.3424C91.1782 40.1056 91.1027 39.8768 90.985 39.6692C90.8672 39.4617 90.7094 39.2795 90.5207 39.1333C90.332 38.987 90.1162 38.8796 89.8857 38.8171C89.6551 38.7547 89.4145 38.7386 89.1777 38.7696C88.9409 38.8007 88.7126 38.8783 88.506 38.998L86.8608 39.9294V38.2151C86.8608 37.2181 86.0517 36.4102 85.0537 36.4102C84.0557 36.4102 83.2466 37.2181 83.2466 38.2151V39.8745L81.6648 38.9455C81.4601 38.8235 81.2334 38.7432 80.9975 38.7091C80.7617 38.675 80.5214 38.6879 80.2906 38.7469C80.0597 38.8059 79.8428 38.9099 79.6524 39.053C79.4619 39.1961 79.3017 39.3754 79.1809 39.5806C79.0601 39.7857 78.9812 40.0128 78.9486 40.2485C78.916 40.4843 78.9304 40.7242 78.991 40.9544C79.0516 41.1846 79.1571 41.4005 79.3016 41.5898C79.4461 41.7791 79.6266 41.938 79.8328 42.0573L81.4378 42.9997L80.0278 43.798C79.8188 43.9135 79.6348 44.0693 79.4865 44.2563C79.3382 44.4433 79.2285 44.6578 79.1637 44.8874C79.0988 45.117 79.0803 45.3571 79.1089 45.594C79.1376 45.8308 79.2131 46.0596 79.3308 46.2672C79.4486 46.4747 79.6064 46.6569 79.7951 46.8031C79.9838 46.9494 80.1996 47.0568 80.4301 47.1192C80.6607 47.1816 80.9013 47.1978 81.1381 47.1668C81.3749 47.1357 81.6032 47.0581 81.8098 46.9384L83.2463 46.1249V48.0822C83.2463 49.0793 84.0554 49.8872 85.0534 49.8872C86.0514 49.8872 86.8606 49.0793 86.8606 48.0822V46.1844L88.2337 46.9908C88.4382 47.1111 88.6645 47.1899 88.8995 47.2228C89.1345 47.2557 89.3738 47.2419 89.6035 47.1824C89.8332 47.1229 90.0489 47.0187 90.2383 46.8759C90.4277 46.7331 90.5871 46.5543 90.7073 46.35C90.8276 46.1457 90.9065 45.9197 90.9394 45.685C90.9723 45.4502 90.9586 45.2113 90.899 44.9819C90.8394 44.7524 90.7351 44.537 90.5921 44.3478C90.4492 44.1586 90.2702 43.9994 90.0656 43.8793ZM106.771 49.7671H97.3743C96.3763 49.7671 95.5672 48.9592 95.5672 47.9622C95.5672 46.9651 96.3763 46.1572 97.3743 46.1572H106.771C107.769 46.1572 108.578 46.9651 108.578 47.9622C108.578 48.9592 107.769 49.7671 106.771 49.7671Z" fill="#4D696E"/>
    <path d="M127.555 79.9203H125.444V75.0324C125.444 71.5091 124.015 68.3228 121.705 66.0124C120.257 64.5658 118.482 63.4881 116.529 62.8701V62.2773H112.674C105.621 62.2773 99.9038 67.988 99.9038 75.0324V79.9203H99.5424C95.5501 79.9203 92.314 83.1526 92.314 87.1401V88.8512H124.48C127.142 88.8512 129.299 86.6963 129.299 84.038V80.2331C128.755 80.031 128.167 79.9203 127.555 79.9203ZM107.132 75.0324C107.132 71.9093 109.736 69.3814 112.889 69.5013C115.888 69.6154 118.216 72.1717 118.216 75.1686V79.9203H107.132V75.0324Z" fill="#E6E6E6"/>
    <path d="M129.3 75.0324V84.0115L125.5 86.4181L122.071 84.0115V75.0324C122.071 71.9808 119.585 69.4972 116.53 69.4972C113.474 69.4972 110.988 71.9808 110.988 75.0324V84.0115L107.21 86.4181L103.759 84.0115V75.0324C103.759 67.9882 109.477 62.2773 116.53 62.2773C120.057 62.2773 123.247 63.7045 125.56 66.0124C127.871 68.3228 129.3 71.5091 129.3 75.0324Z" fill="#FAD207"/>
    <path d="M107.133 75.0324V84.0115L108.973 85.2942L107.21 86.4181L103.759 84.0115V75.0324C103.759 67.9882 109.477 62.2773 116.53 62.2773C117.101 62.2773 117.664 62.3159 118.216 62.388C111.961 63.2111 107.133 68.5586 107.133 75.0324ZM127.273 85.2942L125.5 86.4181L122.071 84.0115V75.0324C122.071 72.568 120.45 70.4743 118.216 69.7619C118.749 69.5886 119.315 69.4972 119.903 69.4972C122.958 69.4972 125.445 71.9808 125.445 75.0324V84.0115L127.273 85.2942Z" fill="#FAA515"/>
    <path d="M136.648 81.4192V86.4443C136.648 91.7605 132.333 96.0707 127.01 96.0707L95.1926 96.7927L92.314 96.0707L92.3164 88.8509H124.48C127.143 88.8509 129.299 86.697 129.299 84.0376V79.9199H131.651C133.494 79.9199 135.212 80.471 136.648 81.4192Z" fill="#4D696E"/>
    <path d="M92.3157 96.0713H100.296V107.522H92.3157V96.0713Z" fill="#395054"/>
    <path fill-rule="evenodd" clip-rule="evenodd" d="M136.648 89.003V116.008C136.648 118.763 134.41 120.999 131.651 120.999H101.407C98.6486 120.999 96.4102 118.763 96.4102 116.008V89.003C96.4102 86.2475 98.6486 84.0117 101.407 84.0117H131.651C134.41 84.0117 136.648 86.2475 136.648 89.003Z" fill="#FAF063"/>
    <path d="M105.022 120.999H101.407C98.6486 120.999 96.4102 118.763 96.4102 116.008V89.003C96.4102 86.2475 98.6486 84.0117 101.407 84.0117H105.022C102.263 84.0117 100.024 86.2475 100.024 89.003V116.008C100.024 118.763 102.263 120.999 105.022 120.999Z" fill="#FAD207"/>
    <path d="M121.107 100.062C121.107 97.5366 119.058 95.4893 116.529 95.4893C114.001 95.4893 111.951 97.5366 111.951 100.062C111.951 101.946 113.093 103.563 114.722 104.263V109.365C114.722 110.362 115.531 111.17 116.529 111.17C117.527 111.17 118.337 110.362 118.337 109.365V104.263C119.966 103.563 121.107 101.946 121.107 100.062Z" fill="#FAA515"/>
    <path d="M6.5 52C7.90244 52 9 50.9024 9 49.5C9 48.0976 7.90244 47 6.5 47C5.09756 47 4 48.0976 4 49.5C4 50.9024 5.15854 52 6.5 52Z" fill="#EDF0F2"/>
    <path d="M3 34C4.07143 34 5 33.0714 5 32C5 30.9286 4.07143 30 3 30C1.92857 30 1 30.9286 1 32C1 33.1429 1.92857 34 3 34Z" fill="#EDF0F2"/>
    <path d="M150.5 66C152.452 66 154 64.4519 154 62.5C154 60.5481 152.452 59 150.5 59C148.548 59 147 60.5481 147 62.5C147 64.4519 148.548 66 150.5 66Z" fill="#EDF0F2"/>
    <g style="mix-blend-mode:color">
        <path d="M96.4849 94.6954L103.297 107.504L76.7727 111.309L50.2385 107.523L57.1233 94.6954H96.4849Z" fill="#BCF6FF"/>
        <path d="M136.966 14.6266V86.4455C136.966 91.7618 132.628 96.072 127.277 96.072H26.2684C20.9176 96.072 16.5793 91.7618 16.5793 86.4455V14.8672C16.5793 9.41859 21.0266 5 26.5106 5H127.277C132.628 5 136.966 9.31029 136.966 14.6266Z" fill="#BCF6FF"/>
        <path d="M29.9018 96.072H26.2684C20.9176 96.072 16.5793 91.7618 16.5793 86.4455V14.8672C16.5793 9.41859 21.0266 5 26.5106 5H30.1441C24.66 5 20.2127 9.41859 20.2127 14.8672V86.4455C20.2127 91.7618 24.551 96.072 29.9018 96.072Z" fill="#BCF6FF"/>
        <path d="M124.734 88.8521H28.8118C26.1362 88.8521 23.9673 86.6972 23.9673 84.0388V17.1343C23.9673 14.4759 26.1362 12.321 28.8118 12.321H124.734C127.409 12.321 129.578 14.4759 129.578 17.1343V84.0388C129.578 86.6972 127.409 88.8521 124.734 88.8521Z" fill="#BCF6FF"/>
        <path d="M129.578 17.1343V84.0388C129.578 86.6982 127.41 88.8521 124.734 88.8521H28.8118C26.1352 88.8521 23.9673 86.6982 23.9673 84.0388V17.1343C23.9673 14.4749 26.1352 12.321 28.8118 12.321H124.734C127.41 12.321 129.578 14.4749 129.578 17.1343Z" fill="#BCF6FF"/>
        <path d="M111.532 117.631H45.1621C42.3528 117.631 40.0754 115.368 40.0754 112.577C40.0754 109.786 42.3528 107.523 45.1621 107.523H111.532V117.631Z" fill="#BCF6FF"/>
        <path d="M92.3983 90.131H100.421V117.631H92.3983V90.131ZM50.9756 117.631L45.1621 117.631C42.3523 117.631 40.0754 115.368 40.0754 112.577C40.0754 111.181 40.6446 109.917 41.5651 109.003C42.4855 108.088 43.7572 107.523 45.1621 107.523H50.9756C49.5706 107.523 48.299 108.088 47.3785 109.003C46.458 109.917 45.8888 111.181 45.8888 112.577C45.8888 115.368 48.1657 117.631 50.9756 117.631Z" fill="#BCF6FF"/>
        <path d="M111.411 54.4603H42.1343C39.4586 54.4603 37.2897 52.3054 37.2897 49.647V36.6512C37.2897 33.9928 39.4586 31.8379 42.1343 31.8379H111.411C114.087 31.8379 116.256 33.9928 116.256 36.6512V49.647C116.256 52.3054 114.087 54.4603 111.411 54.4603Z" fill="#BCF6FF"/>
        <path d="M45.7677 54.4613H42.1343C39.4577 54.4613 37.2897 52.3049 37.2897 49.648V36.6521C37.2897 33.9928 39.4577 31.8388 42.1343 31.8388H45.7677C43.0911 31.8388 40.9231 33.9928 40.9231 36.6521V49.648C40.9231 52.3049 43.0911 54.4613 45.7677 54.4613Z" fill="#BCF6FF"/>
        <path d="M55.255 43.8797L53.8474 43.0574L55.4786 42.1388C55.6886 42.0232 55.8736 41.8675 56.0227 41.6805C56.1718 41.4935 56.2821 41.279 56.3473 41.0494C56.4124 40.8198 56.4311 40.5796 56.4023 40.3428C56.3734 40.1059 56.2976 39.8771 56.1792 39.6696C56.0608 39.462 55.9022 39.2799 55.7125 39.1336C55.5228 38.9874 55.3058 38.8799 55.074 38.8175C54.8423 38.7551 54.6004 38.7389 54.3623 38.77C54.1243 38.801 53.8947 38.8786 53.6871 38.9984L52.0331 39.9297V38.2155C52.0331 37.2184 51.2197 36.4105 50.2164 36.4105C49.2131 36.4105 48.3997 37.2184 48.3997 38.2155V39.8749L46.8095 38.9459C46.6038 38.8239 46.3758 38.7436 46.1387 38.7095C45.9016 38.6754 45.6601 38.6882 45.428 38.7472C45.1959 38.8063 44.9779 38.9103 44.7864 39.0534C44.595 39.1965 44.4339 39.3758 44.3125 39.5809C44.191 39.7861 44.1117 40.0131 44.0789 40.2489C44.0461 40.4847 44.0606 40.7246 44.1215 40.9548C44.1824 41.185 44.2886 41.4009 44.4338 41.5902C44.5791 41.7795 44.7606 41.9384 44.9679 42.0577L46.5813 43.0001L45.1638 43.7984C44.9537 43.9139 44.7688 44.0697 44.6197 44.2567C44.4706 44.4437 44.3603 44.6582 44.2951 44.8878C44.23 45.1174 44.2113 45.3576 44.2401 45.5944C44.269 45.8312 44.3448 46.06 44.4632 46.2676C44.5816 46.4751 44.7402 46.6573 44.9299 46.8036C45.1196 46.9498 45.3366 47.0572 45.5683 47.1197C45.8001 47.1821 46.042 47.1982 46.2801 47.1672C46.5181 47.1362 46.7476 47.0585 46.9553 46.9388L48.3995 46.1254V48.0827C48.3995 49.0798 49.2129 49.8877 50.2162 49.8877C51.2195 49.8877 52.0329 49.0798 52.0329 48.0827V46.1848L53.4133 46.9913C53.6189 47.1115 53.8464 47.1904 54.0827 47.2232C54.3189 47.2561 54.5594 47.2424 54.7904 47.1829C55.0213 47.1233 55.2382 47.0192 55.4286 46.8763C55.619 46.7335 55.7792 46.5548 55.9 46.3504C56.021 46.1461 56.1003 45.9201 56.1334 45.6854C56.1665 45.4506 56.1527 45.2117 56.0928 44.9823C56.0329 44.7528 55.928 44.5374 55.7843 44.3482C55.6405 44.159 55.4607 43.9998 55.255 43.8797ZM72.6953 43.8797L71.2877 43.0574L72.9189 42.1388C73.129 42.0232 73.3139 41.8675 73.463 41.6805C73.6121 41.4935 73.7224 41.279 73.7876 41.0494C73.8527 40.8198 73.8714 40.5796 73.8426 40.3428C73.8137 40.1059 73.7379 39.8771 73.6195 39.6696C73.5011 39.462 73.3425 39.2799 73.1528 39.1336C72.9631 38.9874 72.7461 38.8799 72.5144 38.8175C72.2826 38.7551 72.0407 38.7389 71.8027 38.77C71.5646 38.801 71.3351 38.8786 71.1274 38.9984L69.4735 39.9297V38.2155C69.4735 37.2184 68.6601 36.4105 67.6568 36.4105C66.6535 36.4105 65.8401 37.2184 65.8401 38.2155V39.8749L64.2498 38.9459C64.0441 38.8239 63.8162 38.7436 63.5791 38.7095C63.342 38.6754 63.1004 38.6882 62.8683 38.7472C62.6363 38.8063 62.4182 38.9103 62.2268 39.0534C62.0353 39.1965 61.8742 39.3758 61.7528 39.5809C61.6314 39.7861 61.552 40.0131 61.5192 40.2489C61.4865 40.4847 61.5009 40.7246 61.5618 40.9548C61.6228 41.185 61.7289 41.4009 61.8741 41.5902C62.0194 41.7795 62.2009 41.9384 62.4082 42.0577L64.0217 43.0001L62.6042 43.7984C62.3941 43.9139 62.2091 44.0697 62.06 44.2567C61.9109 44.4437 61.8006 44.6582 61.7355 44.8878C61.6703 45.1174 61.6516 45.3576 61.6805 45.5944C61.7093 45.8312 61.7851 46.06 61.9035 46.2676C62.0219 46.4751 62.1805 46.6573 62.3702 46.8036C62.5599 46.9498 62.7769 47.0572 63.0087 47.1197C63.2404 47.1821 63.4823 47.1982 63.7204 47.1672C63.9585 47.1362 64.188 47.0585 64.3957 46.9388L65.8398 46.1254V48.0827C65.8398 49.0798 66.6532 49.8877 67.6565 49.8877C68.6598 49.8877 69.4732 49.0798 69.4732 48.0827V46.1848L70.8537 46.9913C71.0593 47.1115 71.2867 47.1904 71.523 47.2232C71.7593 47.2561 71.9998 47.2424 72.2307 47.1829C72.4616 47.1233 72.6785 47.0192 72.8689 46.8763C73.0593 46.7335 73.2195 46.5548 73.3404 46.3504C73.4614 46.1461 73.5407 45.9201 73.5737 45.6854C73.6068 45.4506 73.593 45.2117 73.5331 44.9823C73.4732 44.7528 73.3684 44.5374 73.2246 44.3482C73.0809 44.159 72.901 43.9998 72.6953 43.8797ZM90.1357 43.8797L88.7281 43.0574L90.3592 42.1388C90.5693 42.0232 90.7542 41.8675 90.9034 41.6805C91.0525 41.4935 91.1628 41.279 91.2279 41.0494C91.2931 40.8198 91.3118 40.5796 91.2829 40.3428C91.2541 40.1059 91.1783 39.8771 91.0599 39.6696C90.9415 39.462 90.7828 39.2799 90.5932 39.1336C90.4035 38.9874 90.1865 38.8799 89.9547 38.8175C89.723 38.7551 89.4811 38.7389 89.243 38.77C89.0049 38.801 88.7754 38.8786 88.5677 38.9984L86.9138 39.9297V38.2155C86.9138 37.2184 86.1004 36.4105 85.0971 36.4105C84.0938 36.4105 83.2804 37.2184 83.2804 38.2155V39.8749L81.6902 38.9459C81.4845 38.8239 81.2565 38.7436 81.0194 38.7095C80.7823 38.6754 80.5408 38.6882 80.3087 38.7472C80.0766 38.8063 79.8586 38.9103 79.6671 39.0534C79.4757 39.1965 79.3146 39.3758 79.1932 39.5809C79.0717 39.7861 78.9923 40.0131 78.9596 40.2489C78.9268 40.4847 78.9413 40.7246 79.0022 40.9548C79.0631 41.185 79.1692 41.4009 79.3145 41.5902C79.4597 41.7795 79.6412 41.9384 79.8485 42.0577L81.462 43.0001L80.0445 43.7984C79.8344 43.9139 79.6495 44.0697 79.5004 44.2567C79.3513 44.4437 79.2409 44.6582 79.1758 44.8878C79.1106 45.1174 79.0919 45.3576 79.1208 45.5944C79.1496 45.8312 79.2254 46.06 79.3438 46.2676C79.4622 46.4751 79.6209 46.6573 79.8106 46.8036C80.0003 46.9498 80.2173 47.0572 80.449 47.1197C80.6808 47.1821 80.9227 47.1982 81.1607 47.1672C81.3988 47.1362 81.6283 47.0585 81.836 46.9388L83.2802 46.1254V48.0827C83.2802 49.0798 84.0936 49.8877 85.0969 49.8877C86.1002 49.8877 86.9136 49.0798 86.9136 48.0827V46.1848L88.294 46.9913C88.4996 47.1115 88.7271 47.1904 88.9633 47.2232C89.1996 47.2561 89.4401 47.2424 89.671 47.1829C89.902 47.1233 90.1189 47.0192 90.3093 46.8763C90.4997 46.7335 90.6599 46.5548 90.7807 46.3504C90.9017 46.1461 90.981 45.9201 91.0141 45.6854C91.0471 45.4506 91.0333 45.2117 90.9734 44.9823C90.9135 44.7528 90.8087 44.5374 90.665 44.3482C90.5212 44.159 90.3414 43.9998 90.1357 43.8797ZM106.93 49.7676H97.4831C96.4798 49.7676 95.6664 48.9597 95.6664 47.9626C95.6664 46.9655 96.4798 46.1576 97.4831 46.1576H106.93C107.933 46.1576 108.747 46.9655 108.747 47.9626C108.747 48.9597 107.933 49.7676 106.93 49.7676Z" fill="#BCF6FF"/>
        <path d="M127.824 79.9211H125.703V75.0332C125.703 71.5099 124.266 68.3235 121.943 66.0131C120.487 64.5665 118.703 63.4887 116.74 62.8708V62.278H112.865C105.774 62.278 100.027 67.9887 100.027 75.0332V79.9211H99.6632C95.6497 79.9211 92.3964 83.1534 92.3964 87.141V88.8521H124.734C127.409 88.8521 129.578 86.6972 129.578 84.0388L129.578 80.2339C129.031 80.0318 128.44 79.9211 127.824 79.9211ZM107.293 75.0332C107.293 71.9101 109.911 69.3822 113.081 69.502C116.095 69.6161 118.436 72.1724 118.436 75.1694V79.9211H107.293V75.0332Z" fill="#BCF6FF"/>
        <path d="M129.578 75.0332V84.0124L125.758 86.419L122.311 84.0124V75.0332C122.311 71.9816 119.812 69.4979 116.74 69.4979C113.669 69.4979 111.169 71.9816 111.169 75.0332V84.0124L107.371 86.419L103.902 84.0124V75.0332C103.902 67.989 109.65 62.278 116.74 62.278C120.286 62.278 123.493 63.7051 125.819 66.0131C128.142 68.3235 129.578 71.5099 129.578 75.0332Z" fill="#BCF6FF"/>
        <path d="M107.293 75.0332L107.293 84.0124L109.144 85.2951L107.371 86.419L103.902 84.0124V75.0332C103.902 67.989 109.65 62.278 116.74 62.278C117.314 62.278 117.881 62.3165 118.436 62.3887C112.148 63.2118 107.293 68.5593 107.293 75.0332ZM127.541 85.2951L125.758 86.419L122.311 84.0124V75.0332C122.311 72.5688 120.681 70.475 118.436 69.7627C118.971 69.5894 119.54 69.4979 120.131 69.4979C123.203 69.4979 125.703 71.9816 125.703 75.0332L125.703 84.0124L127.541 85.2951Z" fill="#BCF6FF"/>
        <path d="M136.966 81.4204L136.966 86.4455C136.966 91.7618 132.628 96.072 127.277 96.072L95.2902 96.794L92.3964 96.072L92.3988 88.8521H124.734C127.41 88.8521 129.578 86.6982 129.578 84.0388L129.578 79.9211H131.942C133.795 79.9211 135.522 80.4722 136.966 81.4204Z" fill="#BCF6FF"/>
        <path d="M92.3983 96.072H100.421V107.523H92.3983V96.072Z" fill="#BCF6FF"/>
        <path fill-rule="evenodd" clip-rule="evenodd" d="M136.966 89.0037V116.009C136.966 118.764 134.716 121 131.942 121H101.538C98.7645 121 96.5142 118.764 96.5142 116.009V89.0037C96.5142 86.2481 98.7645 84.0124 101.538 84.0124H131.942C134.716 84.0124 136.966 86.2481 136.966 89.0037Z" fill="#BCF6FF"/>
        <path d="M105.171 121H101.538C98.7645 121 96.5142 118.764 96.5142 116.009V89.0037C96.5142 86.2481 98.7645 84.0124 101.538 84.0124H105.171C102.398 84.0124 100.148 86.2481 100.148 89.0037V116.009C100.148 118.764 102.398 121 105.171 121Z" fill="#BCF6FF"/>
        <path d="M121.342 100.062C121.342 97.537 119.282 95.4896 116.74 95.4896C114.198 95.4896 112.138 97.537 112.138 100.062C112.138 101.946 113.286 103.563 114.923 104.264V109.365C114.923 110.362 115.737 111.17 116.74 111.17C117.743 111.17 118.557 110.362 118.557 109.365V104.264C120.195 103.563 121.342 101.946 121.342 100.062Z" fill="#BCF6FF"/>
    </g>
    <defs>
        <filter id="filter0_d_28_30506" x="26.1787" y="69.4943" width="95.1778" height="59.0143" filterUnits="userSpaceOnUse" color-interpolation-filters="sRGB">
            <feFlood flood-opacity="0" result="BackgroundImageFix"/>
            <feColorMatrix in="SourceAlpha" type="matrix" values="0 0 0 0 0 0 0 0 0 0 0 0 0 0 0 0 0 0 127 0" result="hardAlpha"/>
            <feOffset dx="-3" dy="-4"/>
            <feGaussianBlur stdDeviation="10.6"/>
            <feComposite in2="hardAlpha" operator="out"/>
            <feColorMatrix type="matrix" values="0 0 0 0 0.219608 0 0 0 0 0.447059 0 0 0 0 0.482353 0 0 0 1 0"/>
            <feBlend mode="normal" in2="BackgroundImageFix" result="effect1_dropShadow_28_30506"/>
            <feBlend mode="normal" in="SourceGraphic" in2="effect1_dropShadow_28_30506" result="shape"/>
        </filter>
    </defs>
</svg>
