<svg width="28" height="28" viewBox="0 0 28 28" fill="none" xmlns="http://www.w3.org/2000/svg">
<rect x="0.5" y="0.5" width="27" height="27" rx="7.5" stroke="#0EDCFE"/>
<path d="M10.668 18.1665H17.3346M10.668 18.1665C10.668 19.087 9.92178 19.8332 9.0013 19.8332C8.08083 19.8332 7.33464 19.087 7.33464 18.1665M10.668 18.1665C10.668 17.246 9.92178 16.4998 9.0013 16.4998C8.08083 16.4998 7.33464 17.246 7.33464 18.1665M17.3346 18.1665C17.3346 19.087 18.0808 19.8332 19.0013 19.8332C19.9218 19.8332 20.668 19.087 20.668 18.1665M17.3346 18.1665C17.3346 17.246 18.0808 16.4998 19.0013 16.4998C19.9218 16.4998 20.668 17.246 20.668 18.1665M12.3346 8.1665V13.1665M7.33464 13.1665L7.6109 11.5089C7.80881 10.3214 7.90777 9.72772 8.20405 9.28217C8.46523 8.88942 8.83218 8.57857 9.26252 8.38551C9.75072 8.1665 10.3526 8.1665 11.5565 8.1665H14.3606C15.1432 8.1665 15.5346 8.1665 15.8898 8.27438C16.2043 8.36988 16.4968 8.52646 16.7507 8.73514C17.0375 8.97086 17.2546 9.29648 17.6888 9.9477L19.8346 13.1665M7.33464 18.1665H7.0013C6.53459 18.1665 6.30124 18.1665 6.12298 18.0757C5.96617 17.9958 5.83869 17.8683 5.7588 17.7115C5.66797 17.5332 5.66797 17.2999 5.66797 16.8332V15.8332C5.66797 14.8997 5.66797 14.433 5.84962 14.0765C6.00941 13.7629 6.26438 13.5079 6.57798 13.3482C6.9345 13.1665 7.40121 13.1665 8.33464 13.1665H18.3346C18.954 13.1665 19.2636 13.1665 19.5228 13.2075C20.9491 13.4334 22.0677 14.5521 22.2936 15.9784C22.3346 16.2375 22.3346 16.5472 22.3346 17.1665C22.3346 17.3213 22.3346 17.3988 22.3244 17.4635C22.2679 17.8201 21.9882 18.0998 21.6317 18.1562C21.5669 18.1665 21.4895 18.1665 21.3346 18.1665H20.668" stroke="#0EDCFE" stroke-width="1.5" stroke-linecap="round" stroke-linejoin="round"/>
</svg>
