<svg width="32" height="32" viewBox="0 0 32 32" fill="none" xmlns="http://www.w3.org/2000/svg">
<path d="M16 2.66669C8.65329 2.66669 2.66663 8.65335 2.66663 16C2.66663 23.3467 8.65329 29.3334 16 29.3334C23.3466 29.3334 29.3333 23.3467 29.3333 16C29.3333 8.65335 23.3466 2.66669 16 2.66669ZM20.48 19.0667C20.8666 19.4534 20.8666 20.0934 20.48 20.48C20.28 20.68 20.0266 20.7734 19.7733 20.7734C19.52 20.7734 19.2666 20.68 19.0666 20.48L16 17.4134L12.9333 20.48C12.7333 20.68 12.48 20.7734 12.2266 20.7734C11.9733 20.7734 11.72 20.68 11.52 20.48C11.1333 20.0934 11.1333 19.4534 11.52 19.0667L14.5866 16L11.52 12.9334C11.1333 12.5467 11.1333 11.9067 11.52 11.52C11.9066 11.1334 12.5466 11.1334 12.9333 11.52L16 14.5867L19.0666 11.52C19.4533 11.1334 20.0933 11.1334 20.48 11.52C20.8666 11.9067 20.8666 12.5467 20.48 12.9334L17.4133 16L20.48 19.0667Z" fill="#E62E30"/>
</svg>
