<svg width="7" height="16" viewBox="0 0 7 16" fill="none" xmlns="http://www.w3.org/2000/svg">
<path d="M3.49996 5.76328C4.99822 5.76328 6.2128 4.47313 6.2128 2.88164C6.2128 1.29015 4.99822 0 3.49996 0C2.00169 0 0.787109 1.29015 0.787109 2.88164C0.787109 4.47313 2.00169 5.76328 3.49996 5.76328Z" fill="#FD5994"/>
<path d="M6.3002 2.90918C6.3002 4.51584 5.0466 5.81827 3.5002 5.81827C1.95379 5.81827 0.700195 4.51584 0.700195 2.90918H6.3002Z" fill="#FD5994"/>
<path d="M6.91253 11.8902L5.16021 7.26655C4.66442 5.95835 2.33556 5.95835 1.83977 7.26655L0.0874561 11.8902C-0.209366 12.4278 0.285744 13.0309 1.024 13.0309H1.61857V14.5034C1.61857 15.3299 2.46085 15.9999 3.49998 15.9999C4.01954 15.9999 4.48998 15.8324 4.83026 15.5615C5.1709 15.2908 5.38138 14.9166 5.38138 14.5034V13.0309H5.97599C6.71424 13.0309 7.20935 12.4278 6.91253 11.8902Z" fill="#FD5994"/>
<path d="M5.3814 14.5034V13.0309H5.97601C6.71427 13.0309 7.20941 12.4278 6.91255 11.8902L5.16024 7.26656C4.91232 6.61244 4.20616 6.2854 3.5 6.2854V15.9999C4.01956 15.9999 4.49 15.8324 4.83028 15.5615C5.17092 15.2908 5.3814 14.9167 5.3814 14.5034Z" fill="#FD5994"/>
<path d="M5.97585 13.0308H5.38135V7.85034L6.91243 11.89C7.20932 12.4279 6.71414 13.0308 5.97585 13.0308Z" fill="#FD5994"/>
<path d="M1.61856 7.85034V13.0308H1.02406C0.285771 13.0308 -0.20941 12.4279 0.0874834 11.89L1.61856 7.85034Z" fill="#FD5994"/>
</svg>
