<svg xmlns="http://www.w3.org/2000/svg" width="20" height="20" viewBox="0 0 20 20" fill="none">
    <path d="M6.66797 14.1667H13.3346M6.66797 14.1667C6.66797 15.0872 5.92178 15.8334 5.0013 15.8334C4.08083 15.8334 3.33464 15.0872 3.33464 14.1667M6.66797 14.1667C6.66797 13.2463 5.92178 12.5001 5.0013 12.5001C4.08083 12.5001 3.33464 13.2463 3.33464 14.1667M13.3346 14.1667C13.3346 15.0872 14.0808 15.8334 15.0013 15.8334C15.9218 15.8334 16.668 15.0872 16.668 14.1667M13.3346 14.1667C13.3346 13.2463 14.0808 12.5001 15.0013 12.5001C15.9218 12.5001 16.668 13.2463 16.668 14.1667M8.33464 4.16675V9.16675M3.33464 9.16675L3.6109 7.50915C3.80881 6.32169 3.90777 5.72796 4.20405 5.28241C4.46523 4.88966 4.83218 4.57881 5.26252 4.38576C5.75072 4.16675 6.35264 4.16675 7.55648 4.16675H10.3606C11.1432 4.16675 11.5346 4.16675 11.8898 4.27463C12.2043 4.37013 12.4968 4.5267 12.7507 4.73538C13.0375 4.97111 13.2546 5.29672 13.6888 5.94795L15.8346 9.16675M3.33464 14.1667H3.0013C2.53459 14.1667 2.30124 14.1667 2.12298 14.0759C1.96617 13.996 1.83869 13.8685 1.7588 13.7117C1.66797 13.5335 1.66797 13.3001 1.66797 12.8334V11.8334C1.66797 10.9 1.66797 10.4333 1.84962 10.0768C2.00941 9.76316 2.26438 9.50819 2.57798 9.3484C2.9345 9.16675 3.40121 9.16675 4.33464 9.16675H14.3346C14.954 9.16675 15.2636 9.16675 15.5228 9.20779C16.9491 9.43369 18.0677 10.5523 18.2936 11.9786C18.3346 12.2377 18.3346 12.5474 18.3346 13.1667C18.3346 13.3216 18.3346 13.399 18.3244 13.4638C18.2679 13.8204 17.9882 14.1 17.6317 14.1565C17.5669 14.1667 17.4895 14.1667 17.3346 14.1667H16.668" stroke="#0EDCFE" stroke-width="1.5" stroke-linecap="round" stroke-linejoin="round"/>
</svg>