<svg width="80" height="80" viewBox="0 0 80 80" fill="none" xmlns="http://www.w3.org/2000/svg">
<g filter="url(#filter0_d_4319_23687)">
<rect x="20" y="16" width="40" height="40" rx="8" fill="#FD7659" shape-rendering="crispEdges"/>
<path d="M40 36C42.7614 36 45 33.7614 45 31C45 28.2386 42.7614 26 40 26C37.2386 26 35 28.2386 35 31C35 33.7614 37.2386 36 40 36Z" fill="white"/>
<path opacity="0.4" d="M40.0002 38.5C34.9902 38.5 30.9102 41.86 30.9102 46C30.9102 46.28 31.1302 46.5 31.4102 46.5H48.5902C48.8702 46.5 49.0902 46.28 49.0902 46C49.0902 41.86 45.0102 38.5 40.0002 38.5Z" fill="white"/>
<path d="M50.77 44.68L50.01 43.92C50.41 43.32 50.64 42.6 50.64 41.83C50.64 39.72 48.93 38.01 46.82 38.01C44.71 38.01 43 39.72 43 41.83C43 43.94 44.71 45.65 46.82 45.65C47.59 45.65 48.31 45.42 48.91 45.02L49.67 45.78C49.82 45.93 50.02 46.01 50.22 46.01C50.42 46.01 50.62 45.93 50.77 45.78C51.08 45.47 51.08 44.98 50.77 44.68Z" fill="white"/>
</g>
<defs>
<filter id="filter0_d_4319_23687" x="0" y="0" width="80" height="80" filterUnits="userSpaceOnUse" color-interpolation-filters="sRGB">
<feFlood flood-opacity="0" result="BackgroundImageFix"/>
<feColorMatrix in="SourceAlpha" type="matrix" values="0 0 0 0 0 0 0 0 0 0 0 0 0 0 0 0 0 0 127 0" result="hardAlpha"/>
<feOffset dy="4"/>
<feGaussianBlur stdDeviation="10"/>
<feComposite in2="hardAlpha" operator="out"/>
<feColorMatrix type="matrix" values="0 0 0 0 0.992157 0 0 0 0 0.462745 0 0 0 0 0.34902 0 0 0 0.2 0"/>
<feBlend mode="normal" in2="BackgroundImageFix" result="effect1_dropShadow_4319_23687"/>
<feBlend mode="normal" in="SourceGraphic" in2="effect1_dropShadow_4319_23687" result="shape"/>
</filter>
</defs>
</svg>
