<svg width="125" height="19" viewBox="0 0 125 19" fill="none" xmlns="http://www.w3.org/2000/svg">
    <path d="M0.681959 11.3267H17.3646C17.7391 11.3267 18.0449 11.0258 18.0449 10.6513V8.34378C18.0449 7.96927 17.7391 7.66182 17.3646 7.66182H0.681959C0.305819 7.66182 0 7.96927 0 8.34378V10.6513C0 11.0258 0.305819 11.3267 0.681959 11.3267ZM19.2633 3.66492C19.6378 3.66492 19.9453 3.3591 19.9453 2.98296V0.681959C19.9453 0.307454 19.6394 0 19.2633 0H0.681959C0.305819 0 0 0.305819 0 0.681959V2.98459C0 3.3591 0.305819 3.66655 0.681959 3.66655H19.2633V3.66492ZM0 18.3131C0 18.6876 0.305819 18.9951 0.681959 18.9951H19.2633C19.6378 18.9951 19.9453 18.6893 19.9453 18.3131V16.0105C19.9453 15.636 19.6394 15.3285 19.2633 15.3285H0.681959C0.305819 15.3302 0 15.636 0 16.0105V18.3131Z" fill="white"/>
    <path d="M40.7442 18.9951C43.405 18.9951 45.5866 16.8135 45.5866 14.1478V13.039C45.5866 11.783 45.1009 10.5892 44.2341 9.68643L44.0493 9.49673L44.2341 9.31193C45.1009 8.40919 45.5866 7.21536 45.5866 5.95937V4.84567C45.5866 2.18161 43.4066 0 40.7442 0H24.4246C24.0501 0 23.7443 0.305819 23.7443 0.681959V2.98459C23.7443 3.3591 24.0501 3.66655 24.4246 3.66655H40.0115C41.0631 3.66655 41.9233 4.52677 41.9233 5.57833V5.75331C41.9233 6.80324 41.0631 7.66509 40.0115 7.66509H24.4246C24.0501 7.66509 23.7443 7.97091 23.7443 8.34705V10.6546C23.7443 11.0291 24.0501 11.33 24.4246 11.33H40.0115C41.0631 11.33 41.9233 12.1902 41.9233 13.2467V13.4217C41.9233 14.4716 41.0631 15.3334 40.0115 15.3334H24.4246C24.0501 15.3334 23.7443 15.6393 23.7443 16.0154V18.318C23.7443 18.6925 24.0501 19 24.4246 19H40.7442V18.9951Z" fill="white"/>
    <path d="M66.3871 18.9951C69.0479 18.9951 71.2295 16.8135 71.2295 14.1478V13.039C71.2295 11.783 70.7438 10.5892 69.8771 9.68643L69.6923 9.49673L69.8771 9.31193C70.7438 8.40919 71.2295 7.21536 71.2295 5.95937V4.84567C71.2295 2.18161 69.0496 0 66.3871 0H50.0675C49.693 0 49.3856 0.305819 49.3856 0.681959V2.98459C49.3856 3.3591 49.6914 3.66655 50.0675 3.66655H65.6545C66.706 3.66655 67.5663 4.52677 67.5663 5.57833V5.75331C67.5663 6.80324 66.706 7.66509 65.6545 7.66509H50.0675C49.693 7.66509 49.3856 7.97091 49.3856 8.34705V10.6546C49.3856 11.0291 49.6914 11.33 50.0675 11.33H65.6545C66.706 11.33 67.5663 12.1902 67.5663 13.2467V13.4217C67.5663 14.4716 66.706 15.3334 65.6545 15.3334H50.0675C49.693 15.3334 49.3856 15.6393 49.3856 16.0154V18.318C49.3856 18.6925 49.6914 19 50.0675 19H66.3871V18.9951Z" fill="white"/>
    <path d="M76.9289 4.25693V0.217507H80.8816V0.763729H77.5601V1.92159H80.548V2.4629H77.5601V3.71561H80.929V4.25693H76.9289ZM81.8301 4.25693V0H82.4025V4.25693H81.8301ZM84.9701 4.32725C84.5923 4.32725 84.2701 4.27001 84.0052 4.1539C83.7403 4.03779 83.5358 3.85953 83.3936 3.61913C83.2513 3.37872 83.181 3.07454 83.181 2.71148C83.181 2.3517 83.2497 2.05078 83.3887 1.81202C83.5277 1.57325 83.7288 1.39335 83.9938 1.2707C84.2587 1.14968 84.5792 1.08917 84.9521 1.08917C85.3462 1.08917 85.6717 1.15132 85.9284 1.27724C86.1852 1.40317 86.3765 1.57652 86.5008 1.7973C86.6251 2.01808 86.6873 2.2781 86.6873 2.57574V2.86357H83.7861C83.7893 3.10725 83.8449 3.30186 83.9496 3.44904C84.0543 3.59623 84.1965 3.70253 84.3764 3.76631C84.5563 3.83173 84.7624 3.8628 84.9963 3.8628C85.1483 3.8628 85.2874 3.84481 85.4149 3.8072C85.5408 3.76958 85.6537 3.72052 85.7518 3.66001C85.8499 3.5995 85.9268 3.52918 85.9857 3.45068C86.0445 3.37218 86.0773 3.29205 86.0854 3.21028H86.6578C86.6545 3.34438 86.6186 3.47685 86.5532 3.60931C86.4861 3.74178 86.3847 3.8628 86.2457 3.97073C86.1067 4.07867 85.9317 4.16535 85.7191 4.22913C85.5081 4.29454 85.2579 4.32725 84.9701 4.32725ZM83.7893 2.44655H86.0871C86.0871 2.2781 86.056 2.13746 85.9938 2.02298C85.9317 1.9085 85.8467 1.81856 85.7387 1.74987C85.6324 1.68118 85.5081 1.63212 85.3708 1.59941C85.2318 1.56834 85.0895 1.55199 84.9407 1.55199C84.7297 1.55199 84.54 1.58306 84.3699 1.64684C84.1998 1.70899 84.0641 1.80711 83.9627 1.94121C83.8629 2.07368 83.8041 2.24212 83.7893 2.44655ZM89.1224 4.32725C88.7364 4.32725 88.4126 4.26674 88.1493 4.14572C87.886 4.0247 87.6881 3.84317 87.5556 3.60114C87.4232 3.36073 87.3561 3.06146 87.3561 2.70494C87.3561 2.34842 87.4232 2.05078 87.5556 1.81202C87.6881 1.57325 87.886 1.39335 88.1493 1.2707C88.4126 1.14968 88.7364 1.08917 89.1224 1.08917C89.348 1.08917 89.5606 1.11534 89.7569 1.16767C89.9531 1.22 90.1249 1.30014 90.2688 1.40644C90.4127 1.51274 90.5255 1.64193 90.6089 1.79403C90.6907 1.94612 90.7316 2.12765 90.7316 2.33534H90.1527C90.1527 2.15545 90.1036 2.00826 90.0071 1.89379C89.909 1.77931 89.7814 1.69427 89.6244 1.63866C89.4658 1.58143 89.299 1.55362 89.124 1.55362C88.8934 1.55362 88.6906 1.59124 88.5124 1.6681C88.3357 1.74496 88.1984 1.86271 88.1002 2.02462C88.0021 2.18489 87.9547 2.39258 87.9547 2.6477V2.76545C87.9547 3.02057 88.0037 3.22827 88.1035 3.39181C88.2033 3.55371 88.3406 3.67473 88.5189 3.74996C88.6955 3.82682 88.9016 3.86443 89.1354 3.86443C89.3104 3.86443 89.4772 3.83663 89.6359 3.77939C89.7945 3.72215 89.9221 3.63711 90.0218 3.521C90.1216 3.40489 90.1706 3.25934 90.1706 3.08272H90.7316C90.7316 3.29041 90.6891 3.47194 90.6057 3.6273C90.5222 3.78266 90.4078 3.91186 90.2639 4.01489C90.1199 4.11956 89.9499 4.19642 89.7552 4.25039C89.559 4.30108 89.348 4.32725 89.1224 4.32725ZM92.5371 4.32725C92.3621 4.32725 92.2182 4.30108 92.1037 4.24712C91.9908 4.19478 91.9074 4.10811 91.8518 3.98872C91.7979 3.86934 91.7701 3.71071 91.7701 3.5161V1.62231H91.1911V1.15786H91.7766L91.8993 0.276381H92.3441V1.15786H93.1634V1.62231H92.3441V3.41634C92.3441 3.56516 92.367 3.67636 92.4111 3.75159C92.4553 3.82682 92.5649 3.8628 92.7349 3.8628H93.1618V4.23403C93.1078 4.25366 93.0424 4.27001 92.9688 4.28473C92.8952 4.29781 92.82 4.30926 92.7431 4.31744C92.6695 4.32398 92.5992 4.32725 92.5371 4.32725ZM93.883 4.25693V1.15786H94.3393L94.3867 1.74006H94.4276C94.4554 1.64521 94.5044 1.54872 94.5764 1.44896C94.6484 1.3492 94.7465 1.26416 94.8691 1.19384C94.9918 1.12352 95.139 1.08754 95.3107 1.08754C95.3777 1.08754 95.4415 1.09244 95.5069 1.10225C95.5707 1.11207 95.6296 1.12515 95.6803 1.13987V1.6403H95.3696C95.1946 1.6403 95.0474 1.67301 94.928 1.74006C94.8086 1.80711 94.7154 1.89379 94.6467 1.99845C94.578 2.10475 94.5306 2.21923 94.5012 2.34188C94.4717 2.46617 94.457 2.58392 94.457 2.6984V4.25693H93.883ZM97.7998 4.32725C97.4171 4.32725 97.0965 4.26674 96.8349 4.14572C96.5732 4.0247 96.3753 3.84317 96.238 3.60114C96.1022 3.36073 96.0335 3.06146 96.0335 2.70494C96.0335 2.34842 96.1022 2.05078 96.238 1.81202C96.3753 1.57325 96.5732 1.39335 96.8349 1.2707C97.0965 1.14968 97.4171 1.08917 97.7998 1.08917C98.1775 1.08917 98.4981 1.14968 98.7614 1.2707C99.0247 1.39172 99.2242 1.57325 99.3599 1.81202C99.4973 2.05078 99.5643 2.34842 99.5643 2.70494C99.5643 3.06146 99.4957 3.36073 99.3599 3.60114C99.2242 3.84154 99.023 4.02307 98.7614 4.14572C98.4997 4.26674 98.1792 4.32725 97.7998 4.32725ZM97.7998 3.8628C98.0303 3.8628 98.2331 3.82518 98.4081 3.74832C98.5831 3.67146 98.7205 3.55207 98.817 3.39017C98.9151 3.22827 98.9625 3.01894 98.9625 2.76381V2.64607C98.9625 2.39094 98.9135 2.18325 98.817 2.02298C98.7188 1.86271 98.5831 1.74333 98.4081 1.66647C98.2331 1.5896 98.0303 1.55199 97.7998 1.55199C97.5692 1.55199 97.3664 1.5896 97.1881 1.66647C97.0115 1.74333 96.8741 1.86108 96.776 2.02298C96.6779 2.18325 96.6304 2.39094 96.6304 2.64607V2.76381C96.6304 3.01894 96.6795 3.22663 96.776 3.39017C96.8741 3.55207 97.0115 3.67309 97.1881 3.74832C97.3664 3.82518 97.5708 3.8628 97.7998 3.8628ZM101.999 4.32725C101.613 4.32725 101.288 4.26674 101.026 4.14572C100.763 4.0247 100.565 3.84317 100.433 3.60114C100.3 3.36073 100.233 3.06146 100.233 2.70494C100.233 2.34842 100.3 2.05078 100.433 1.81202C100.565 1.57325 100.763 1.39335 101.026 1.2707C101.29 1.14968 101.613 1.08917 101.999 1.08917C102.225 1.08917 102.438 1.11534 102.634 1.16767C102.83 1.22 103.002 1.30014 103.146 1.40644C103.29 1.51274 103.403 1.64193 103.484 1.79403C103.566 1.94612 103.607 2.12765 103.607 2.33534H103.028C103.028 2.15545 102.979 2.00826 102.883 1.89379C102.784 1.77931 102.657 1.69427 102.5 1.63866C102.341 1.58143 102.174 1.55362 101.999 1.55362C101.769 1.55362 101.566 1.59124 101.388 1.6681C101.211 1.74496 101.072 1.86271 100.976 2.02462C100.878 2.18489 100.83 2.39258 100.83 2.6477V2.76545C100.83 3.02057 100.879 3.22827 100.979 3.39181C101.079 3.55371 101.216 3.67473 101.394 3.74996C101.571 3.82682 101.777 3.86443 102.011 3.86443C102.186 3.86443 102.353 3.83663 102.511 3.77939C102.67 3.72215 102.798 3.63711 102.897 3.521C102.997 3.40489 103.046 3.25934 103.046 3.08272H103.607C103.607 3.29041 103.565 3.47194 103.481 3.6273C103.398 3.78266 103.283 3.91186 103.139 4.01489C102.995 4.11956 102.825 4.19642 102.631 4.25039C102.436 4.30108 102.225 4.32725 101.999 4.32725ZM105.52 4.32725C105.349 4.32725 105.187 4.31253 105.035 4.28309C104.883 4.25366 104.749 4.2046 104.631 4.13591C104.513 4.06722 104.423 3.97728 104.359 3.86607C104.296 3.75486 104.263 3.61585 104.263 3.45232C104.263 3.19719 104.333 3.00095 104.474 2.86194C104.614 2.72293 104.811 2.62154 105.061 2.55939C105.313 2.49725 105.605 2.458 105.937 2.44491C106.271 2.43183 106.631 2.42365 107.017 2.42365V2.24049C107.017 2.06387 106.984 1.92649 106.917 1.82673C106.852 1.72698 106.742 1.65665 106.59 1.61577C106.438 1.57488 106.232 1.55362 105.97 1.55362C105.748 1.55362 105.563 1.57161 105.417 1.60923C105.272 1.64684 105.161 1.69754 105.087 1.76295C105.013 1.82837 104.976 1.9036 104.976 1.98864V2.09494H104.408C104.405 2.07858 104.402 2.06223 104.4 2.04424C104.399 2.02625 104.397 2.00663 104.397 1.9821C104.397 1.79403 104.457 1.63376 104.582 1.50293C104.704 1.37209 104.888 1.26907 105.128 1.19711C105.37 1.12515 105.673 1.08754 106.034 1.08754C106.377 1.08754 106.664 1.12024 106.894 1.1873C107.125 1.25435 107.298 1.36392 107.414 1.51928C107.532 1.67464 107.589 1.88397 107.589 2.15054V3.63221C107.589 3.71071 107.602 3.76795 107.63 3.80556C107.658 3.84317 107.71 3.86116 107.789 3.86116H108.081V4.2373C108.023 4.25693 107.951 4.27492 107.862 4.29291C107.774 4.3109 107.687 4.31907 107.602 4.31907C107.45 4.31907 107.336 4.29618 107.257 4.24875C107.179 4.20132 107.126 4.13754 107.097 4.05414C107.068 3.97237 107.05 3.87915 107.041 3.77776H107C106.891 3.89551 106.758 3.99527 106.6 4.07703C106.443 4.1588 106.271 4.22095 106.085 4.26183C105.898 4.30763 105.71 4.32725 105.52 4.32725ZM105.632 3.8628C105.787 3.8628 105.947 3.84481 106.108 3.8072C106.269 3.76958 106.42 3.71561 106.557 3.64529C106.696 3.57497 106.808 3.48993 106.891 3.39181C106.974 3.29368 107.017 3.18411 107.017 3.06309V2.82269C106.533 2.82269 106.13 2.83741 105.81 2.86684C105.488 2.89628 105.247 2.95352 105.087 3.0402C104.927 3.12687 104.847 3.2577 104.847 3.43433C104.847 3.54717 104.884 3.63548 104.961 3.69599C105.036 3.7565 105.136 3.79902 105.259 3.82518C105.383 3.84972 105.506 3.8628 105.632 3.8628ZM108.543 4.25693V1.15786H108.999L109.046 1.74006H109.087C109.115 1.64521 109.164 1.54872 109.236 1.44896C109.308 1.3492 109.406 1.26416 109.529 1.19384C109.651 1.12352 109.799 1.08754 109.97 1.08754C110.037 1.08754 110.101 1.09244 110.167 1.10225C110.23 1.11207 110.288 1.12515 110.338 1.13987V1.6403H110.029C109.854 1.6403 109.707 1.67301 109.588 1.74006C109.468 1.80711 109.375 1.89379 109.306 1.99845C109.238 2.10475 109.19 2.21923 109.161 2.34188C109.131 2.46617 109.117 2.58392 109.117 2.6984V4.25693H108.543ZM112.28 4.32725C112.054 4.32725 111.845 4.30926 111.652 4.27165C111.459 4.23403 111.29 4.17843 111.146 4.1032C111.002 4.02797 110.891 3.93312 110.813 3.81864C110.734 3.70253 110.695 3.56516 110.695 3.40489C110.695 3.38526 110.696 3.36564 110.698 3.34601C110.7 3.32639 110.703 3.3084 110.706 3.29368H111.292C111.292 3.30186 111.29 3.31331 111.288 3.32966C111.287 3.34601 111.285 3.35746 111.285 3.36564C111.285 3.50301 111.334 3.60931 111.431 3.68618C111.527 3.76304 111.653 3.81537 111.809 3.84481C111.962 3.87425 112.121 3.88896 112.284 3.88896C112.459 3.88896 112.623 3.87588 112.773 3.84808C112.924 3.82028 113.045 3.77285 113.14 3.70744C113.233 3.64039 113.28 3.54717 113.28 3.42451C113.28 3.29205 113.236 3.19229 113.146 3.12687C113.056 3.06146 112.926 3.01403 112.754 2.98296C112.582 2.95188 112.376 2.91754 112.134 2.8832C111.934 2.85213 111.755 2.81451 111.593 2.77199C111.431 2.72947 111.292 2.67387 111.177 2.60682C111.063 2.53977 110.974 2.45636 110.914 2.35333C110.853 2.25194 110.824 2.12601 110.824 1.97719C110.824 1.83164 110.855 1.70408 110.917 1.59451C110.979 1.48494 111.073 1.39335 111.199 1.31813C111.323 1.2429 111.48 1.1873 111.67 1.14805C111.859 1.1088 112.08 1.08917 112.333 1.08917C112.564 1.08917 112.767 1.11043 112.942 1.15132C113.117 1.1922 113.266 1.25108 113.388 1.32794C113.511 1.4048 113.606 1.49638 113.671 1.60432C113.738 1.71226 113.771 1.83 113.771 1.96084C113.771 1.97719 113.771 1.99027 113.771 2.00172C113.771 2.01317 113.769 2.02952 113.764 2.04915H113.179V2.02625C113.179 1.89706 113.138 1.7973 113.056 1.72698C112.975 1.65665 112.87 1.60759 112.744 1.57979C112.618 1.55199 112.479 1.5389 112.332 1.5389C112.247 1.5389 112.15 1.54218 112.046 1.55035C111.941 1.55853 111.838 1.57652 111.738 1.60269C111.638 1.63049 111.558 1.6681 111.496 1.71716C111.434 1.76622 111.403 1.83655 111.403 1.92649C111.403 2.03606 111.452 2.1211 111.549 2.17998C111.647 2.23885 111.774 2.28301 111.931 2.31245C112.088 2.34188 112.26 2.36968 112.443 2.39749C112.63 2.42529 112.809 2.45473 112.981 2.48907C113.153 2.52178 113.303 2.57084 113.434 2.63625C113.565 2.70003 113.668 2.78998 113.745 2.90446C113.82 3.01894 113.859 3.16776 113.859 3.35092C113.859 3.52754 113.825 3.678 113.755 3.80392C113.684 3.92985 113.581 4.03124 113.447 4.10974C113.313 4.18824 113.148 4.24548 112.953 4.27982C112.757 4.30926 112.533 4.32725 112.28 4.32725Z" fill="white"/>
    <path d="M76.9289 11.59V7.55061H79.8235C80.0541 7.55061 80.2536 7.58986 80.4221 7.66836C80.5921 7.74686 80.723 7.85807 80.8146 8.00035C80.9061 8.14263 80.9519 8.31761 80.9519 8.5204C80.9519 8.67413 80.9225 8.81477 80.8636 8.94397C80.8047 9.07317 80.7246 9.18274 80.6216 9.27268C80.5185 9.36263 80.3959 9.42968 80.2569 9.4722V9.4951C80.4172 9.52617 80.5578 9.58504 80.6805 9.67172C80.8031 9.7584 80.8996 9.87124 80.9699 10.0135C81.0402 10.1542 81.0746 10.321 81.0746 10.5139C81.0746 10.7642 81.0173 10.9702 80.9045 11.1289C80.7917 11.2875 80.6412 11.4036 80.4548 11.4788C80.2683 11.5541 80.059 11.59 79.8284 11.59H76.9289ZM77.5601 11.0487H79.7352C79.938 11.0487 80.1032 10.9997 80.2291 10.9015C80.355 10.8034 80.4188 10.648 80.4188 10.4371C80.4188 10.2964 80.391 10.1771 80.3338 10.0822C80.2765 9.98571 80.1947 9.91376 80.0884 9.86797C79.9805 9.82054 79.8579 9.79764 79.7172 9.79764H77.5601V11.0487ZM77.5601 9.26778H79.5897C79.7188 9.26778 79.8366 9.24325 79.9429 9.19418C80.0508 9.14512 80.1375 9.0748 80.2029 8.98322C80.2683 8.89164 80.3027 8.77879 80.3027 8.64469C80.3027 8.45335 80.2454 8.31434 80.1326 8.22767C80.0198 8.14099 79.8693 8.09847 79.6829 8.09847H77.5601V9.26778ZM83.0174 11.6604C82.8457 11.6604 82.6838 11.6456 82.5317 11.6162C82.3796 11.5868 82.2455 11.5377 82.1278 11.469C82.01 11.4003 81.9201 11.3104 81.8563 11.1992C81.7925 11.088 81.7598 10.949 81.7598 10.7854C81.7598 10.5303 81.8301 10.3341 81.9708 10.195C82.1114 10.056 82.3077 9.95464 82.5579 9.8925C82.8097 9.83035 83.1025 9.7911 83.4345 9.77802C83.7681 9.76494 84.1279 9.75676 84.5138 9.75676V9.57523C84.5138 9.39861 84.4811 9.26124 84.4141 9.16148C84.3486 9.06172 84.2391 8.9914 84.087 8.95051C83.9349 8.90963 83.7288 8.88837 83.4672 8.88837C83.2447 8.88837 83.06 8.90636 82.9144 8.94397C82.7689 8.98158 82.6576 9.03228 82.584 9.0977C82.5105 9.16311 82.4728 9.23834 82.4728 9.32338V9.42968H81.9054C81.9021 9.41333 81.8988 9.39697 81.8972 9.38062C81.8955 9.36263 81.8939 9.343 81.8939 9.31847C81.8939 9.1304 81.9561 8.97014 82.0787 8.8393C82.2014 8.70847 82.3829 8.60544 82.6249 8.53349C82.867 8.46153 83.1695 8.42391 83.5309 8.42391C83.8744 8.42391 84.1606 8.45662 84.3912 8.52367C84.6217 8.59072 84.7951 8.7003 84.9112 8.85566C85.029 9.01102 85.0862 9.22035 85.0862 9.48692V10.9686C85.0862 11.0471 85.0993 11.1043 85.1271 11.1419C85.1549 11.1796 85.2072 11.1975 85.2857 11.1975H85.5785V11.5737C85.5196 11.5933 85.4476 11.6113 85.3593 11.6293C85.271 11.6473 85.1843 11.6555 85.0993 11.6555C84.9472 11.6555 84.8327 11.6326 84.7542 11.5851C84.6757 11.5377 84.6234 11.4739 84.594 11.3905C84.5645 11.3087 84.5465 11.2155 84.5383 11.1141H84.4975C84.3879 11.2319 84.2554 11.3316 84.0968 11.4134C83.9382 11.4952 83.7681 11.5573 83.5816 11.5982C83.3952 11.6407 83.2071 11.6604 83.0174 11.6604ZM83.1286 11.1959C83.284 11.1959 83.4426 11.1779 83.6045 11.1403C83.7664 11.1027 83.9169 11.0487 84.0543 10.9784C84.1933 10.9081 84.3045 10.823 84.3879 10.7249C84.4713 10.6268 84.5138 10.5172 84.5138 10.3962V10.1558C84.0297 10.1558 83.6274 10.1705 83.3069 10.2C82.9847 10.2294 82.7443 10.2866 82.584 10.3733C82.4238 10.46 82.3437 10.5908 82.3437 10.7674C82.3437 10.8819 82.3813 10.9686 82.4581 11.0291C82.5334 11.0896 82.6331 11.1321 82.7558 11.1583C82.8784 11.1845 83.0027 11.1959 83.1286 11.1959ZM87.0634 11.6604C86.8884 11.6604 86.7429 11.6342 86.63 11.5802C86.5172 11.5279 86.4338 11.4412 86.3782 11.3218C86.3242 11.2024 86.2964 11.0438 86.2964 10.8492V8.95705H85.7175V8.4926H86.3029L86.4256 7.61112H86.8704V8.4926H87.6898V8.95705H86.8704V10.7511C86.8704 10.8999 86.8933 11.0111 86.9375 11.0863C86.9816 11.1616 87.0912 11.1975 87.2613 11.1975H87.6881V11.5671C87.6341 11.5868 87.5687 11.6031 87.4951 11.6178C87.4215 11.6309 87.3463 11.6424 87.2695 11.6505C87.1959 11.6571 87.1255 11.6604 87.0634 11.6604ZM89.4314 11.6604C89.2565 11.6604 89.1109 11.6342 88.9981 11.5802C88.8852 11.5279 88.8018 11.4412 88.7462 11.3218C88.6922 11.2024 88.6644 11.0438 88.6644 10.8492V8.95705H88.0855V8.4926H88.671L88.7936 7.61112H89.2385V8.4926H90.0578V8.95705H89.2385V10.7511C89.2385 10.8999 89.2614 11.0111 89.3055 11.0863C89.3497 11.1616 89.4592 11.1975 89.6293 11.1975H90.0562V11.5671C90.0022 11.5868 89.9368 11.6031 89.8632 11.6178C89.7896 11.6309 89.7144 11.6424 89.6375 11.6505C89.5639 11.6571 89.4952 11.6604 89.4314 11.6604ZM92.4504 11.6604C92.0726 11.6604 91.7504 11.6031 91.4855 11.487C91.2206 11.3709 91.0161 11.1926 90.8739 10.9522C90.7316 10.7118 90.6613 10.4076 90.6613 10.0446C90.6613 9.68317 90.7299 9.38389 90.869 9.14512C91.008 8.90636 91.2091 8.72646 91.474 8.60381C91.739 8.48279 92.0595 8.42228 92.4324 8.42228C92.8265 8.42228 93.152 8.48442 93.4087 8.61035C93.6655 8.73627 93.8568 8.90963 93.9811 9.1304C94.1054 9.35118 94.1675 9.61121 94.1675 9.90885V10.1967H91.2664C91.2696 10.4404 91.3252 10.635 91.4299 10.7822C91.5346 10.9293 91.6768 11.0356 91.8567 11.0994C92.0366 11.1648 92.2427 11.1959 92.4765 11.1959C92.6286 11.1959 92.7676 11.1779 92.8952 11.1403C93.0211 11.1027 93.134 11.0536 93.2321 10.9931C93.3302 10.9326 93.4071 10.8623 93.466 10.7838C93.5248 10.7053 93.5575 10.6252 93.5657 10.5434H94.1397C94.1365 10.6775 94.1005 10.81 94.0351 10.9424C93.968 11.0749 93.8666 11.1959 93.7276 11.3038C93.5886 11.4118 93.4136 11.4985 93.201 11.5622C92.9884 11.6293 92.7382 11.6604 92.4504 11.6604ZM91.268 9.77966H93.5657C93.5657 9.61121 93.5346 9.47057 93.4725 9.35609C93.4104 9.24161 93.3253 9.15166 93.2174 9.08298C93.1094 9.01429 92.9868 8.96359 92.8494 8.93252C92.7104 8.90145 92.5681 8.8851 92.4193 8.8851C92.2083 8.8851 92.0186 8.91617 91.8486 8.97995C91.6785 9.04209 91.5427 9.14022 91.4413 9.27432C91.3432 9.40679 91.2843 9.57523 91.268 9.77966ZM94.9525 11.59V8.4926H95.4088L95.4562 9.0748H95.4971C95.5249 8.98158 95.574 8.88346 95.6459 8.7837C95.7179 8.68394 95.816 8.5989 95.9387 8.52858C96.0613 8.45826 96.2085 8.42228 96.3802 8.42228C96.4473 8.42228 96.5127 8.42719 96.5765 8.437C96.6403 8.44681 96.6975 8.45989 96.7498 8.47461V8.97504H96.4407C96.2658 8.97504 96.1186 9.00775 95.9992 9.0748C95.8798 9.14185 95.7866 9.22853 95.7179 9.33319C95.6492 9.43949 95.6018 9.55397 95.5723 9.67663C95.5429 9.80092 95.5282 9.91866 95.5282 10.0331V11.5917H94.9525V11.59ZM97.6084 12.7136C97.5185 12.7136 97.4351 12.707 97.3566 12.6923C97.2781 12.6792 97.2028 12.6612 97.1292 12.6416V12.2491H97.4678C97.6624 12.2491 97.8161 12.2262 97.9289 12.182C98.0418 12.1363 98.135 12.0659 98.207 11.9711C98.2789 11.8746 98.3509 11.7487 98.4196 11.5917L96.8987 8.4926H97.5365L98.2855 10.1035C98.3247 10.1738 98.3689 10.2654 98.4163 10.3766C98.4654 10.4878 98.5161 10.6023 98.5684 10.72C98.6207 10.8378 98.6681 10.9408 98.7123 11.0324H98.7532C98.7646 10.9964 98.7843 10.9424 98.8121 10.8672C98.8399 10.792 98.8726 10.7069 98.9118 10.6088C98.9511 10.5107 98.9903 10.4142 99.0296 10.3177C99.0688 10.2212 99.1032 10.1345 99.1342 10.056L99.772 8.4926H100.374L99.0868 11.4788C98.9936 11.6865 98.902 11.8664 98.8153 12.0201C98.727 12.1739 98.6305 12.3014 98.5226 12.4045C98.4147 12.5091 98.2871 12.586 98.1399 12.6367C97.9911 12.6874 97.8145 12.7136 97.6084 12.7136ZM103.275 11.6604C102.753 11.6604 102.312 11.5802 101.954 11.4216C101.596 11.263 101.326 11.0275 101.144 10.7167C100.963 10.4044 100.873 10.0217 100.873 9.56705C100.873 8.89981 101.079 8.3863 101.492 8.02324C101.906 7.66019 102.497 7.47866 103.265 7.47866C103.713 7.47866 104.107 7.53753 104.446 7.65528C104.785 7.77303 105.049 7.94801 105.239 8.18188C105.429 8.41574 105.522 8.70357 105.522 9.04863H104.894C104.894 8.80496 104.825 8.60871 104.69 8.45826C104.554 8.3078 104.361 8.19823 104.114 8.12954C103.867 8.06086 103.579 8.02651 103.252 8.02651C102.914 8.02651 102.613 8.08048 102.351 8.18842C102.089 8.29635 101.887 8.45826 101.739 8.67576C101.594 8.89327 101.52 9.16475 101.52 9.49019V9.63738C101.52 9.97917 101.594 10.2572 101.743 10.4747C101.892 10.6922 102.096 10.8541 102.359 10.9604C102.623 11.0667 102.927 11.119 103.275 11.119C103.607 11.119 103.895 11.0831 104.14 11.0095C104.385 10.9375 104.575 10.8247 104.711 10.6742C104.845 10.5238 104.912 10.3324 104.912 10.1002H105.525C105.525 10.442 105.43 10.7265 105.239 10.9588C105.048 11.1894 104.785 11.3644 104.448 11.4821C104.109 11.6015 103.718 11.6604 103.275 11.6604ZM106.426 11.59V7.33311H107V8.96686H107.035C107.148 8.82131 107.275 8.71011 107.417 8.63161C107.56 8.55311 107.705 8.49914 107.856 8.46643C108.006 8.43536 108.152 8.41901 108.291 8.41901C108.567 8.41901 108.799 8.45989 108.987 8.5433C109.174 8.62507 109.316 8.75426 109.411 8.92925C109.506 9.10424 109.555 9.33156 109.555 9.61448V11.59H108.983V9.72078C108.983 9.55234 108.961 9.41496 108.919 9.30866C108.876 9.20236 108.816 9.12223 108.737 9.06499C108.659 9.00775 108.567 8.9685 108.463 8.94724C108.358 8.92598 108.242 8.91453 108.117 8.91453C107.931 8.91453 107.751 8.95542 107.579 9.03555C107.408 9.11569 107.269 9.22689 107.161 9.37081C107.053 9.51309 107 9.68317 107 9.87941V11.59H106.426ZM111.55 11.6604C111.378 11.6604 111.217 11.6456 111.064 11.6162C110.912 11.5868 110.778 11.5377 110.66 11.469C110.543 11.4003 110.453 11.3104 110.389 11.1992C110.325 11.088 110.293 10.949 110.293 10.7854C110.293 10.5303 110.363 10.3341 110.503 10.195C110.644 10.056 110.84 9.95464 111.091 9.8925C111.342 9.83035 111.635 9.7911 111.967 9.77802C112.301 9.76494 112.661 9.75676 113.047 9.75676V9.57523C113.047 9.39861 113.014 9.26124 112.947 9.16148C112.881 9.06172 112.772 8.9914 112.62 8.95051C112.468 8.90963 112.262 8.88837 112 8.88837C111.777 8.88837 111.593 8.90636 111.447 8.94397C111.302 8.98158 111.19 9.03228 111.117 9.0977C111.043 9.16311 111.006 9.23834 111.006 9.32338V9.42968H110.438C110.435 9.41333 110.432 9.39697 110.43 9.38062C110.428 9.36263 110.427 9.343 110.427 9.31847C110.427 9.1304 110.489 8.97014 110.611 8.8393C110.734 8.70847 110.917 8.60544 111.158 8.53349C111.4 8.46153 111.702 8.42391 112.064 8.42391C112.407 8.42391 112.693 8.45662 112.924 8.52367C113.154 8.59072 113.328 8.7003 113.444 8.85566C113.562 9.01102 113.619 9.22035 113.619 9.48692V10.9686C113.619 11.0471 113.632 11.1043 113.66 11.1419C113.688 11.1796 113.74 11.1975 113.817 11.1975H114.11V11.5737C114.051 11.5933 113.979 11.6113 113.89 11.6293C113.802 11.6473 113.715 11.6555 113.63 11.6555C113.478 11.6555 113.364 11.6326 113.285 11.5851C113.207 11.5377 113.154 11.4739 113.125 11.3905C113.096 11.3087 113.078 11.2155 113.069 11.1141H113.029C112.919 11.2319 112.786 11.3316 112.628 11.4134C112.471 11.4952 112.299 11.5573 112.113 11.5982C111.928 11.6407 111.74 11.6604 111.55 11.6604ZM111.66 11.1959C111.815 11.1959 111.974 11.1779 112.136 11.1403C112.298 11.1027 112.448 11.0487 112.585 10.9784C112.724 10.9081 112.836 10.823 112.919 10.7249C113.002 10.6268 113.045 10.5172 113.045 10.3962V10.1558C112.561 10.1558 112.159 10.1705 111.838 10.2C111.516 10.2294 111.275 10.2866 111.115 10.3733C110.955 10.46 110.875 10.5908 110.875 10.7674C110.875 10.8819 110.912 10.9686 110.989 11.0291C111.064 11.0896 111.164 11.1321 111.287 11.1583C111.413 11.1845 111.535 11.1959 111.66 11.1959ZM114.572 11.59V8.4926H115.029L115.076 9.0748H115.117C115.145 8.98158 115.194 8.88346 115.266 8.7837C115.338 8.68394 115.436 8.5989 115.558 8.52858C115.681 8.45826 115.828 8.42228 116 8.42228C116.067 8.42228 116.131 8.42719 116.196 8.437C116.26 8.44681 116.317 8.45989 116.37 8.47461V8.97504H116.061C115.886 8.97504 115.738 9.00775 115.619 9.0748C115.5 9.14185 115.406 9.22853 115.338 9.33319C115.269 9.43949 115.22 9.55397 115.192 9.67663C115.163 9.80092 115.148 9.91866 115.148 10.0331V11.5917H114.572V11.59ZM117.573 12.7136C117.398 12.7136 117.238 12.6857 117.094 12.6285C116.95 12.5713 116.836 12.4846 116.752 12.3701C116.669 12.254 116.626 12.1101 116.626 11.9384C116.626 11.7814 116.679 11.6407 116.782 11.5148C116.885 11.3889 117.019 11.2989 117.182 11.245C117.065 11.191 116.98 11.1141 116.926 11.016C116.872 10.9179 116.844 10.8149 116.844 10.7037C116.844 10.5663 116.893 10.4404 116.993 10.3275C117.092 10.2147 117.23 10.1427 117.405 10.1165C117.249 10.0266 117.132 9.9203 117.055 9.79601C116.976 9.67172 116.937 9.53762 116.937 9.3937C116.937 9.18601 116.993 9.00938 117.104 8.86384C117.215 8.71829 117.39 8.60871 117.627 8.53512C117.866 8.45989 118.169 8.42391 118.54 8.42391C118.7 8.42391 118.847 8.43209 118.981 8.45008C119.115 8.46807 119.238 8.4926 119.348 8.52367C119.531 8.4648 119.676 8.38794 119.786 8.29145C119.896 8.19496 119.963 8.09193 119.99 7.98236H120.546C120.538 8.10338 120.504 8.21622 120.443 8.31761C120.383 8.41901 120.299 8.50568 120.192 8.57601C120.084 8.64633 119.951 8.69539 119.791 8.72319C119.912 8.80496 120 8.90308 120.057 9.01429C120.115 9.1255 120.142 9.25306 120.142 9.3937C120.142 9.58995 120.09 9.76003 119.984 9.90558C119.879 10.0511 119.716 10.1607 119.495 10.2376C119.274 10.3144 118.986 10.352 118.633 10.352H117.832C117.714 10.352 117.619 10.3766 117.545 10.4256C117.472 10.4747 117.434 10.545 117.434 10.635C117.434 10.7249 117.474 10.7952 117.552 10.8459C117.631 10.8966 117.737 10.9228 117.874 10.9228H119.629C119.894 10.9228 120.103 11.0046 120.257 11.1697C120.411 11.3349 120.488 11.5393 120.488 11.7863C120.488 11.9662 120.442 12.1264 120.35 12.2655C120.259 12.4045 120.134 12.514 119.979 12.5942C119.824 12.6743 119.647 12.7152 119.452 12.7152H117.573V12.7136ZM117.667 12.2785H119.426C119.519 12.2785 119.601 12.2605 119.672 12.2229C119.742 12.1853 119.797 12.133 119.838 12.0676C119.879 12.0005 119.9 11.9286 119.9 11.8501C119.9 11.716 119.861 11.6113 119.783 11.5361C119.704 11.4592 119.606 11.4216 119.485 11.4216H117.671C117.542 11.4216 117.434 11.4608 117.348 11.5393C117.259 11.6178 117.217 11.7192 117.217 11.8452C117.217 11.9744 117.259 12.079 117.346 12.1592C117.431 12.2377 117.537 12.2785 117.667 12.2785ZM118.538 9.92684C118.882 9.92684 119.135 9.88269 119.302 9.79437C119.467 9.70606 119.55 9.57196 119.55 9.39207C119.55 9.21217 119.467 9.07644 119.302 8.98649C119.137 8.89654 118.882 8.85075 118.538 8.85075C118.195 8.85075 117.94 8.89654 117.773 8.98649C117.604 9.07644 117.521 9.21217 117.521 9.39207C117.521 9.51309 117.557 9.61448 117.629 9.69461C117.701 9.77475 117.81 9.83362 117.959 9.87124C118.106 9.90722 118.299 9.92684 118.538 9.92684ZM122.695 11.6604C122.318 11.6604 121.995 11.6031 121.73 11.487C121.466 11.3709 121.261 11.1926 121.119 10.9522C120.977 10.7118 120.905 10.4076 120.905 10.0446C120.905 9.68317 120.973 9.38389 121.112 9.14512C121.251 8.90636 121.452 8.72646 121.717 8.60381C121.982 8.48279 122.303 8.42228 122.676 8.42228C123.07 8.42228 123.395 8.48442 123.652 8.61035C123.909 8.73627 124.1 8.90963 124.224 9.1304C124.349 9.35118 124.411 9.61121 124.411 9.90885V10.1967H121.51C121.513 10.4404 121.569 10.635 121.673 10.7822C121.778 10.9293 121.92 11.0356 122.1 11.0994C122.28 11.1648 122.486 11.1959 122.72 11.1959C122.872 11.1959 123.011 11.1779 123.139 11.1403C123.264 11.1027 123.377 11.0536 123.475 10.9931C123.574 10.9326 123.65 10.8623 123.709 10.7838C123.768 10.7053 123.801 10.6252 123.809 10.5434H124.381C124.378 10.6775 124.342 10.81 124.277 10.9424C124.21 11.0749 124.108 11.1959 123.969 11.3038C123.83 11.4118 123.655 11.4985 123.443 11.5622C123.235 11.6293 122.985 11.6604 122.695 11.6604ZM121.515 9.77966H123.812C123.812 9.61121 123.781 9.47057 123.719 9.35609C123.657 9.24161 123.572 9.15166 123.464 9.08298C123.356 9.01429 123.233 8.96359 123.096 8.93252C122.957 8.90145 122.815 8.8851 122.666 8.8851C122.455 8.8851 122.265 8.91617 122.095 8.97995C121.925 9.04209 121.789 9.14022 121.688 9.27432C121.588 9.40679 121.529 9.57523 121.515 9.77966Z" fill="white"/>
    <path d="M76.9289 18.9248V14.8853H79.8235C80.0541 14.8853 80.2536 14.9246 80.4221 15.0031C80.5921 15.0816 80.723 15.1928 80.8146 15.3351C80.9061 15.479 80.9519 15.6523 80.9519 15.8551C80.9519 16.0089 80.9225 16.1495 80.8636 16.2787C80.8047 16.4079 80.7246 16.5175 80.6216 16.6074C80.5185 16.6974 80.3959 16.7644 80.2569 16.8069V16.8298C80.4172 16.8609 80.5578 16.9198 80.6805 17.0065C80.8031 17.0931 80.8996 17.206 80.9699 17.3482C81.0402 17.4889 81.0746 17.6557 81.0746 17.8487C81.0746 18.0989 81.0173 18.305 80.9045 18.4636C80.7917 18.6222 80.6412 18.7383 80.4548 18.8136C80.2683 18.8888 80.059 18.9248 79.8284 18.9248H76.9289ZM77.5601 18.3835H79.7352C79.938 18.3835 80.1032 18.3344 80.2291 18.2363C80.355 18.1381 80.4188 17.9828 80.4188 17.7718C80.4188 17.6312 80.391 17.5118 80.3338 17.4169C80.2765 17.3204 80.1947 17.2485 80.0884 17.2027C79.9805 17.1553 79.8579 17.1324 79.7172 17.1324H77.5601V18.3835ZM77.5601 16.6009H79.5897C79.7188 16.6009 79.8366 16.5763 79.9429 16.5273C80.0508 16.4782 80.1375 16.4079 80.2029 16.3163C80.2683 16.2247 80.3027 16.1119 80.3027 15.9778C80.3027 15.7864 80.2454 15.6474 80.1326 15.5608C80.0198 15.4741 79.8693 15.4316 79.6829 15.4316H77.5601V16.6009ZM83.1156 18.9951C82.7018 18.9951 82.3878 18.9019 82.1736 18.7154C81.9593 18.529 81.8514 18.2265 81.8514 17.8078V15.8257H82.4238V17.7015C82.4238 17.8699 82.445 18.0073 82.4859 18.1136C82.5268 18.2199 82.5873 18.3 82.6675 18.3573C82.7476 18.4145 82.8392 18.4521 82.9455 18.4718C83.0501 18.4914 83.1663 18.5012 83.2905 18.5012C83.477 18.5012 83.6569 18.4619 83.8286 18.3835C84.0003 18.305 84.1393 18.1937 84.2472 18.0482C84.3552 17.9026 84.4075 17.7326 84.4075 17.5363V15.8257H84.9815V18.9248H84.5253L84.4778 18.3785H84.4304C84.3176 18.5437 84.1867 18.6696 84.0379 18.758C83.8891 18.8463 83.7354 18.9084 83.5767 18.9428C83.4181 18.9771 83.2644 18.9951 83.1156 18.9951ZM87.2629 18.9951C87.0372 18.9951 86.8279 18.9771 86.6349 18.9395C86.4419 18.9019 86.2735 18.8463 86.1296 18.771C85.9857 18.6958 85.8745 18.601 85.796 18.4865C85.7175 18.3704 85.6782 18.233 85.6782 18.0711C85.6782 18.0515 85.6799 18.0318 85.6815 18.0122C85.6831 17.9926 85.6864 17.9746 85.6897 17.9599H86.2751C86.2751 17.9681 86.2735 17.9795 86.2719 17.9959C86.2702 18.0122 86.2686 18.0237 86.2686 18.0318C86.2686 18.1692 86.3177 18.2755 86.4141 18.3524C86.5123 18.4292 86.6366 18.4816 86.7919 18.511C86.9456 18.5404 87.1043 18.5552 87.2678 18.5552C87.4428 18.5552 87.6063 18.5421 87.7568 18.5143C87.9073 18.4865 88.0283 18.4391 88.1231 18.3736C88.2163 18.3066 88.2638 18.2134 88.2638 18.0907C88.2638 17.9582 88.2196 17.8585 88.1297 17.7931C88.0397 17.7277 87.9089 17.6802 87.7372 17.6492C87.5655 17.6181 87.3594 17.5837 87.1174 17.5494C86.9178 17.5183 86.738 17.4807 86.576 17.4382C86.4141 17.3957 86.2751 17.3401 86.1607 17.273C86.0462 17.206 85.9579 17.1226 85.8974 17.0195C85.8368 16.9181 85.8074 16.7922 85.8074 16.6434C85.8074 16.4978 85.8385 16.3703 85.9006 16.2607C85.9628 16.1511 86.056 16.0596 86.1819 15.9843C86.3062 15.9091 86.4632 15.8535 86.6529 15.8142C86.8426 15.775 87.0634 15.7554 87.3169 15.7554C87.5475 15.7554 87.7503 15.775 87.9252 15.8175C88.1002 15.8584 88.2507 15.9173 88.3733 15.9941C88.496 16.071 88.5909 16.1626 88.6563 16.2705C88.7233 16.3785 88.756 16.4962 88.756 16.6254C88.756 16.6418 88.756 16.6548 88.756 16.6663C88.756 16.6777 88.7544 16.6941 88.7495 16.7137H88.164V16.6908C88.164 16.5616 88.1231 16.4619 88.0414 16.3915C87.9596 16.3212 87.8549 16.2722 87.729 16.2444C87.6031 16.2166 87.4657 16.2035 87.3169 16.2035C87.2318 16.2035 87.1354 16.2067 87.0307 16.2149C86.926 16.2231 86.823 16.2411 86.7232 16.2673C86.6235 16.2951 86.5433 16.3327 86.4812 16.3817C86.4191 16.4308 86.388 16.4995 86.388 16.5911C86.388 16.7006 86.437 16.7857 86.5335 16.8445C86.6316 16.9034 86.7592 16.9476 86.9162 16.977C87.0732 17.0064 87.2449 17.0343 87.4281 17.0621C87.6145 17.0899 87.7944 17.1193 87.9661 17.1536C88.1378 17.1863 88.2883 17.2354 88.4191 17.3008C88.55 17.3662 88.653 17.4545 88.7299 17.569C88.8051 17.6835 88.8443 17.8323 88.8443 18.0155C88.8443 18.1921 88.81 18.3426 88.7397 18.4685C88.6694 18.5944 88.568 18.6958 88.4322 18.7743C88.2981 18.8528 88.1329 18.91 87.9383 18.9444C87.7405 18.9771 87.5164 18.9951 87.2629 18.9951ZM89.5606 15.2255V14.6662H90.133V15.2255H89.5606ZM89.5606 18.9248V15.8257H90.133V18.9248H89.5606ZM91.0292 18.9248V15.8257H91.4855L91.5329 16.3719H91.5804C91.6981 16.2116 91.8289 16.0874 91.9745 15.999C92.12 15.9107 92.2754 15.8486 92.4373 15.811C92.5992 15.7734 92.7513 15.7554 92.8968 15.7554C93.1732 15.7554 93.4055 15.7963 93.5935 15.878C93.78 15.9598 93.9222 16.089 94.0171 16.264C94.1119 16.439 94.161 16.6663 94.161 16.9492V18.9248H93.5886V17.0555C93.5886 16.8871 93.5674 16.7497 93.5248 16.6434C93.4823 16.5371 93.4218 16.457 93.3433 16.3997C93.2648 16.3425 93.1732 16.3032 93.0686 16.282C92.9639 16.2607 92.8478 16.2493 92.7235 16.2493C92.5371 16.2493 92.3572 16.2901 92.1854 16.3703C92.0137 16.4504 91.8747 16.5616 91.7668 16.7055C91.6588 16.8478 91.6065 17.0179 91.6065 17.2141V18.9248H91.0292ZM96.6959 18.9951C96.3181 18.9951 95.9959 18.9378 95.731 18.8217C95.466 18.7056 95.2616 18.5274 95.1193 18.287C94.9771 18.0466 94.9051 17.7424 94.9051 17.3793C94.9051 17.0195 94.9738 16.7186 95.1128 16.4799C95.2518 16.2411 95.453 16.0612 95.7179 15.9385C95.9828 15.8175 96.3034 15.757 96.6762 15.757C97.0704 15.757 97.3958 15.8192 97.6526 15.9451C97.9093 16.071 98.1007 16.2444 98.225 16.4651C98.3492 16.6859 98.4114 16.9459 98.4114 17.2436V17.5314H95.5102C95.5135 17.7751 95.5691 17.9697 95.6737 18.1169C95.7784 18.2641 95.9207 18.3704 96.1006 18.4341C96.2805 18.4979 96.4865 18.5306 96.7204 18.5306C96.8725 18.5306 97.0115 18.5126 97.1391 18.475C97.265 18.4374 97.3778 18.3884 97.4759 18.3278C97.5741 18.2673 97.6509 18.197 97.7098 18.1185C97.7687 18.04 97.8014 17.9599 97.8096 17.8781H98.382C98.3787 18.0122 98.3427 18.1447 98.2773 18.2772C98.2102 18.4113 98.1088 18.5306 97.9698 18.6386C97.8308 18.7465 97.6558 18.8332 97.4432 18.897C97.2339 18.9624 96.9837 18.9951 96.6959 18.9951ZM95.5135 17.1128H97.8128C97.8128 16.9443 97.7818 16.8037 97.7196 16.6892C97.6575 16.5763 97.5724 16.4848 97.4645 16.4161C97.3566 16.3474 97.2339 16.2983 97.0965 16.2656C96.9575 16.2345 96.8152 16.2182 96.6664 16.2182C96.4555 16.2182 96.2658 16.2493 96.0957 16.313C95.9256 16.3752 95.7899 16.4733 95.6885 16.6074C95.5887 16.7399 95.5298 16.91 95.5135 17.1128ZM100.578 18.9951C100.353 18.9951 100.143 18.9771 99.9503 18.9395C99.7573 18.9019 99.5889 18.8463 99.445 18.771C99.301 18.6958 99.1898 18.601 99.1113 18.4865C99.0328 18.3704 98.9936 18.233 98.9936 18.0711C98.9936 18.0515 98.9952 18.0318 98.9969 18.0122C98.9985 17.9926 99.0018 17.9746 99.005 17.9599H99.5905C99.5905 17.9681 99.5889 17.9795 99.5872 17.9959C99.5856 18.0122 99.584 18.0237 99.584 18.0318C99.584 18.1692 99.633 18.2755 99.7295 18.3524C99.8276 18.4292 99.9519 18.4816 100.107 18.511C100.261 18.5404 100.42 18.5552 100.583 18.5552C100.758 18.5552 100.922 18.5421 101.072 18.5143C101.223 18.4865 101.344 18.4391 101.439 18.3736C101.532 18.3066 101.579 18.2134 101.579 18.0907C101.579 17.9582 101.535 17.8585 101.445 17.7931C101.355 17.7277 101.224 17.6802 101.053 17.6492C100.881 17.6181 100.675 17.5837 100.433 17.5494C100.233 17.5183 100.053 17.4807 99.8914 17.4382C99.7295 17.3957 99.5905 17.3401 99.476 17.273C99.3616 17.206 99.2732 17.1226 99.2127 17.0195C99.1522 16.9181 99.1228 16.7922 99.1228 16.6434C99.1228 16.4978 99.1539 16.3703 99.216 16.2607C99.2781 16.1511 99.3714 16.0596 99.4973 15.9843C99.6216 15.9091 99.7786 15.8535 99.9683 15.8142C100.158 15.775 100.379 15.7554 100.632 15.7554C100.863 15.7554 101.066 15.775 101.241 15.8175C101.416 15.8584 101.566 15.9173 101.689 15.9941C101.811 16.071 101.906 16.1626 101.972 16.2705C102.039 16.3785 102.071 16.4962 102.071 16.6254C102.071 16.6418 102.071 16.6548 102.071 16.6663C102.071 16.6777 102.07 16.6941 102.065 16.7137H101.479V16.6908C101.479 16.5616 101.439 16.4619 101.357 16.3915C101.275 16.3212 101.17 16.2722 101.044 16.2444C100.918 16.2166 100.779 16.2035 100.632 16.2035C100.547 16.2035 100.451 16.2067 100.346 16.2149C100.241 16.2231 100.138 16.2411 100.039 16.2673C99.9388 16.2951 99.8587 16.3327 99.7966 16.3817C99.7344 16.4308 99.7034 16.4995 99.7034 16.5911C99.7034 16.7006 99.7524 16.7857 99.8489 16.8445C99.947 16.9034 100.075 16.9476 100.232 16.977C100.389 17.0064 100.56 17.0343 100.743 17.0621C100.932 17.0899 101.11 17.1193 101.282 17.1536C101.453 17.1863 101.604 17.2354 101.735 17.3008C101.865 17.3662 101.968 17.4545 102.044 17.569C102.12 17.6835 102.158 17.8323 102.158 18.0155C102.158 18.1921 102.124 18.3426 102.053 18.4685C101.983 18.5944 101.882 18.6958 101.746 18.7743C101.612 18.8528 101.447 18.91 101.252 18.9444C101.056 18.9771 100.832 18.9951 100.578 18.9951ZM104.256 18.9951C104.031 18.9951 103.821 18.9771 103.628 18.9395C103.435 18.9019 103.267 18.8463 103.123 18.771C102.979 18.6958 102.868 18.601 102.789 18.4865C102.711 18.3704 102.672 18.233 102.672 18.0711C102.672 18.0515 102.673 18.0318 102.675 18.0122C102.676 17.9926 102.68 17.9746 102.683 17.9599H103.269C103.269 17.9681 103.267 17.9795 103.265 17.9959C103.264 18.0122 103.262 18.0237 103.262 18.0318C103.262 18.1692 103.311 18.2755 103.408 18.3524C103.506 18.4292 103.63 18.4816 103.785 18.511C103.939 18.5404 104.098 18.5552 104.261 18.5552C104.436 18.5552 104.6 18.5421 104.75 18.5143C104.901 18.4865 105.022 18.4391 105.117 18.3736C105.21 18.3066 105.257 18.2134 105.257 18.0907C105.257 17.9582 105.213 17.8585 105.123 17.7931C105.033 17.7277 104.902 17.6802 104.731 17.6492C104.559 17.6181 104.353 17.5837 104.111 17.5494C103.911 17.5183 103.731 17.4807 103.569 17.4382C103.408 17.3957 103.269 17.3401 103.154 17.273C103.04 17.206 102.951 17.1226 102.891 17.0195C102.83 16.9181 102.801 16.7922 102.801 16.6434C102.801 16.4978 102.832 16.3703 102.894 16.2607C102.956 16.1511 103.049 16.0596 103.175 15.9843C103.3 15.9091 103.457 15.8535 103.646 15.8142C103.836 15.775 104.057 15.7554 104.31 15.7554C104.541 15.7554 104.744 15.775 104.919 15.8175C105.094 15.8584 105.244 15.9173 105.367 15.9941C105.489 16.071 105.584 16.1626 105.65 16.2705C105.717 16.3785 105.749 16.4962 105.749 16.6254C105.749 16.6418 105.749 16.6548 105.749 16.6663C105.749 16.6777 105.748 16.6941 105.743 16.7137H105.157V16.6908C105.157 16.5616 105.117 16.4619 105.035 16.3915C104.953 16.3212 104.848 16.2722 104.722 16.2444C104.596 16.2166 104.457 16.2035 104.31 16.2035C104.225 16.2035 104.129 16.2067 104.024 16.2149C103.919 16.2231 103.816 16.2411 103.717 16.2673C103.617 16.2951 103.537 16.3327 103.475 16.3817C103.412 16.4308 103.381 16.4995 103.381 16.5911C103.381 16.7006 103.43 16.7857 103.527 16.8445C103.625 16.9034 103.753 16.9476 103.91 16.977C104.068 17.0064 104.238 17.0343 104.421 17.0621C104.608 17.0899 104.788 17.1193 104.96 17.1536C105.131 17.1863 105.282 17.2354 105.413 17.3008C105.543 17.3662 105.646 17.4545 105.722 17.569C105.797 17.6835 105.836 17.8323 105.836 18.0155C105.836 18.1921 105.802 18.3426 105.731 18.4685C105.661 18.5944 105.56 18.6958 105.424 18.7743C105.29 18.8528 105.125 18.91 104.93 18.9444C104.734 18.9771 104.51 18.9951 104.256 18.9951Z" fill="white"/>
</svg>
