<svg width="7" height="16" viewBox="0 0 7 16" fill="none" xmlns="http://www.w3.org/2000/svg">
<path d="M3.50064 6.04429C5.04701 6.04429 6.3006 4.77081 6.3006 3.19988C6.3006 1.62896 5.04701 0.355469 3.50064 0.355469C1.95427 0.355469 0.700684 1.62896 0.700684 3.19988C0.700684 4.77081 1.95427 6.04429 3.50064 6.04429Z" fill="#5084DE"/>
<path d="M6.30014 3.19995C6.30014 4.77089 5.04657 6.04436 3.50019 6.04436C1.95381 6.04436 0.700195 4.77089 0.700195 3.19995H6.30014Z" fill="#5084DE"/>
<path d="M5.3814 14.5368V11.8127C6.27531 11.8127 6.99998 11.2491 6.99998 10.5539V9.22348C6.99998 7.72014 5.43297 6.50146 3.5 6.50146V16C4.53906 16 5.3814 15.3449 5.3814 14.5368Z" fill="#5084DE"/>
<path d="M5.38135 6.92773V11.8126C6.27526 11.8126 6.99992 11.249 6.99992 10.5538V9.22336C6.99992 8.25863 6.35457 7.41118 5.38135 6.92773Z" fill="#5084DE"/>
<path d="M0 9.22336V10.5538C0 11.249 0.724666 11.8126 1.61858 11.8126V6.92773C0.645351 7.41118 0 8.25863 0 9.22336Z" fill="#5084DE"/>
<path d="M3.50002 6.50146C1.56701 6.50146 0 7.72017 0 9.22348V10.5539C0 11.2491 0.724666 11.8127 1.61858 11.8127V14.5368C1.61858 15.3449 2.46092 16 3.50002 16C4.53911 16 5.38142 15.3449 5.38142 14.5368V11.8127C6.27533 11.8127 7 11.2491 7 10.5539V9.22348C7 7.72014 5.43299 6.50146 3.50002 6.50146Z" fill="#5084DE"/>
</svg>
