<svg width="80" height="80" viewBox="0 0 80 80" fill="none" xmlns="http://www.w3.org/2000/svg">
<g filter="url(#filter0_d_4319_23669)">
<rect x="20" y="16" width="40" height="40" rx="8" fill="#59B8FD" shape-rendering="crispEdges"/>
<path d="M42.8267 43.4893C42.6408 43.5767 42.4341 43.6247 42.2162 43.6247H32.0944C31.2944 43.6247 30.6445 42.9761 30.6445 42.1749C30.6445 40.5158 31.3178 39.0143 32.4045 37.9263C33.4913 36.8383 34.9941 36.1663 36.6531 36.1663H37.6575C38.263 36.1663 38.8488 36.2561 39.4002 36.4223L39.3953 36.4309C39.223 36.73 39.1775 37.0783 39.2661 37.4118C39.3559 37.7453 39.5701 38.0247 39.8691 38.197L40.007 38.277C39.991 38.437 39.9824 38.5983 39.9824 38.7595C39.9824 38.9207 39.991 39.082 40.007 39.242L39.8691 39.322C39.5701 39.4943 39.3559 39.7736 39.2661 40.1072C39.1775 40.4407 39.223 40.789 39.3953 41.0881L40.071 42.2573C40.3011 42.6561 40.7307 42.9047 41.191 42.9047C41.4175 42.9047 41.6402 42.8444 41.8371 42.7312L41.975 42.6512C42.2371 42.8395 42.5178 43.002 42.8119 43.1336V43.2936C42.8119 43.3601 42.8168 43.4253 42.8267 43.4893Z" fill="white"/>
<path opacity="0.4" d="M37.1538 34.8863C38.9517 34.8863 40.4092 33.4288 40.4092 31.6309C40.4092 29.833 38.9517 28.3755 37.1538 28.3755C35.3559 28.3755 33.8984 29.833 33.8984 31.6309C33.8984 33.4288 35.3559 34.8863 37.1538 34.8863Z" fill="white"/>
<path d="M49.1972 40.175L48.4599 39.7491C48.5449 39.4328 48.5904 39.1017 48.5904 38.7596C48.5904 38.4174 48.5449 38.0851 48.4599 37.77L49.1972 37.3442C49.3449 37.2593 49.3953 37.071 49.3104 36.9233L48.6347 35.754C48.5498 35.6063 48.3615 35.5559 48.2138 35.6408L47.4766 36.0666C47.0089 35.599 46.4206 35.2519 45.7621 35.0759V34.2254C45.7621 34.0556 45.6242 33.9177 45.4544 33.9177H44.1042C43.9344 33.9177 43.7966 34.0556 43.7966 34.2254V35.0759C43.1381 35.2506 42.5498 35.5977 42.0821 36.0666L41.3449 35.6408C41.1972 35.5559 41.0089 35.6063 40.9239 35.754L40.2482 36.9233C40.1633 37.071 40.2138 37.2593 40.3615 37.3442L41.0987 37.77C41.0138 38.0863 40.9682 38.4174 40.9682 38.7596C40.9682 39.1017 41.0138 39.434 41.0987 39.7491L40.3615 40.175C40.2138 40.2599 40.1633 40.4482 40.2482 40.5959L40.9239 41.7651C41.0089 41.9128 41.1972 41.9633 41.3449 41.8783L42.0821 41.4525C42.5498 41.9202 43.1381 42.2673 43.7966 42.4433V43.2937C43.7966 43.4636 43.9344 43.6014 44.1042 43.6014H45.4544C45.6242 43.6014 45.7621 43.4636 45.7621 43.2937V42.4433C46.4206 42.2685 47.0089 41.9214 47.4766 41.4525L48.2138 41.8783C48.3615 41.9633 48.5498 41.9128 48.6347 41.7651L49.3104 40.5959C49.3953 40.4482 49.3449 40.2599 49.1972 40.175ZM44.7787 40.314C43.9196 40.314 43.2242 39.6174 43.2242 38.7596C43.2242 37.9005 43.9209 37.2051 44.7787 37.2051C45.6366 37.2051 46.3332 37.9017 46.3332 38.7596C46.3332 39.6174 45.6378 40.314 44.7787 40.314Z" fill="white"/>
</g>
<defs>
<filter id="filter0_d_4319_23669" x="0" y="0" width="80" height="80" filterUnits="userSpaceOnUse" color-interpolation-filters="sRGB">
<feFlood flood-opacity="0" result="BackgroundImageFix"/>
<feColorMatrix in="SourceAlpha" type="matrix" values="0 0 0 0 0 0 0 0 0 0 0 0 0 0 0 0 0 0 127 0" result="hardAlpha"/>
<feOffset dy="4"/>
<feGaussianBlur stdDeviation="10"/>
<feComposite in2="hardAlpha" operator="out"/>
<feColorMatrix type="matrix" values="0 0 0 0 0.34902 0 0 0 0 0.721569 0 0 0 0 0.992157 0 0 0 0.2 0"/>
<feBlend mode="normal" in2="BackgroundImageFix" result="effect1_dropShadow_4319_23669"/>
<feBlend mode="normal" in="SourceGraphic" in2="effect1_dropShadow_4319_23669" result="shape"/>
</filter>
</defs>
</svg>
