<svg xmlns="http://www.w3.org/2000/svg" width="32" height="33" viewBox="0 0 32 33" fill="none">
    <path d="M4 28.5H28M4 24.5H28M7.76444 4.50049C8.31773 4.98911 8.66667 5.7038 8.66667 6.5C8.66667 7.97276 7.47276 9.16667 6 9.16667C5.2038 9.16667 4.48911 8.81773 4.00049 8.26444M7.76444 4.50049C7.92192 4.5 8.08901 4.5 8.26667 4.5H23.7333C23.911 4.5 24.0781 4.5 24.2356 4.50049M7.76444 4.50049C6.59803 4.50411 5.9586 4.53457 5.45603 4.79065C4.95426 5.04631 4.54631 5.45426 4.29065 5.95603C4.03457 6.4586 4.00411 7.09803 4.00049 8.26444M4.00049 8.26444C4 8.42192 4 8.58901 4 8.76667V16.2333C4 16.411 4 16.5781 4.00049 16.7356M4.00049 16.7356C4.48911 16.1823 5.2038 15.8333 6 15.8333C7.47276 15.8333 8.66667 17.0272 8.66667 18.5C8.66667 19.2962 8.31773 20.0109 7.76444 20.4995M4.00049 16.7356C4.00411 17.902 4.03457 18.5414 4.29065 19.044C4.54631 19.5457 4.95426 19.9537 5.45603 20.2094C5.9586 20.4654 6.59803 20.4959 7.76444 20.4995M7.76444 20.4995C7.92192 20.5 8.08901 20.5 8.26667 20.5H23.7333C23.911 20.5 24.0781 20.5 24.2356 20.4995M28 16.7361C27.5114 16.1825 26.7965 15.8333 26 15.8333C24.5272 15.8333 23.3333 17.0272 23.3333 18.5C23.3333 19.2962 23.6823 20.0109 24.2356 20.4995M28 16.7361C28.0005 16.5785 28 16.4112 28 16.2333V8.76667C28 8.58901 28 8.42192 27.9995 8.26444M28 16.7361C27.9964 17.9022 27.9654 18.5415 27.7094 19.044C27.4537 19.5457 27.0457 19.9537 26.544 20.2094C26.0414 20.4654 25.402 20.4959 24.2356 20.4995M27.9995 8.26444C27.5109 8.81773 26.7962 9.16667 26 9.16667C24.5272 9.16667 23.3333 7.97276 23.3333 6.5C23.3333 5.7038 23.6823 4.98911 24.2356 4.50049M27.9995 8.26444C27.9959 7.09803 27.9654 6.4586 27.7094 5.95603C27.4537 5.45426 27.0457 5.04631 26.544 4.79065C26.0414 4.53457 25.402 4.50411 24.2356 4.50049M18.6667 12.5C18.6667 13.9728 17.4728 15.1667 16 15.1667C14.5272 15.1667 13.3333 13.9728 13.3333 12.5C13.3333 11.0272 14.5272 9.83333 16 9.83333C17.4728 9.83333 18.6667 11.0272 18.6667 12.5Z" stroke="#02BFDF" stroke-width="2" stroke-miterlimit="10" stroke-linecap="round" stroke-linejoin="round"/>
</svg>