<svg width="24" height="24" viewBox="0 0 24 24" fill="none" xmlns="http://www.w3.org/2000/svg">
    <path fill-rule="evenodd" clip-rule="evenodd" d="M7.16957 3.25H16.8304C17.3646 3.24999 17.8104 3.24998 18.1747 3.27974C18.5546 3.31078 18.9112 3.37789 19.2485 3.54973C19.7659 3.81338 20.1866 4.23408 20.4503 4.75153C20.6221 5.08879 20.6892 5.44545 20.7203 5.82533C20.75 6.18956 20.75 6.6354 20.75 7.16955V16.8305C20.75 17.3646 20.75 17.8104 20.7203 18.1747C20.6892 18.5546 20.6221 18.9112 20.4503 19.2485C20.1866 19.7659 19.7659 20.1866 19.2485 20.4503C18.9112 20.6221 18.5546 20.6892 18.1747 20.7203C17.8104 20.75 17.3646 20.75 16.8305 20.75H7.16955C6.6354 20.75 6.18956 20.75 5.82533 20.7203C5.44545 20.6892 5.08879 20.6221 4.75153 20.4503C4.23408 20.1866 3.81338 19.7659 3.54973 19.2485C3.37789 18.9112 3.31078 18.5546 3.27974 18.1747C3.24998 17.8104 3.24999 17.3646 3.25 16.8304V7.16957C3.24999 6.63541 3.24998 6.18956 3.27974 5.82533C3.31078 5.44545 3.37789 5.08879 3.54973 4.75153C3.81338 4.23408 4.23408 3.81338 4.75153 3.54973C5.08879 3.37789 5.44545 3.31078 5.82533 3.27974C6.18956 3.24998 6.63541 3.24999 7.16957 3.25ZM5.94748 4.77476C5.66036 4.79822 5.52307 4.8401 5.43251 4.88624C5.19731 5.00608 5.00608 5.19731 4.88624 5.43251C4.8401 5.52307 4.79822 5.66036 4.77476 5.94748C4.75058 6.24336 4.75 6.62757 4.75 7.2V16.8C4.75 17.3724 4.75058 17.7566 4.77476 18.0525C4.79822 18.3396 4.8401 18.4769 4.88624 18.5675C5.00608 18.8027 5.19731 18.9939 5.43251 19.1138C5.52307 19.1599 5.66036 19.2018 5.94748 19.2252C6.24336 19.2494 6.62757 19.25 7.2 19.25H16.8C17.3724 19.25 17.7566 19.2494 18.0525 19.2252C18.3396 19.2018 18.4769 19.1599 18.5675 19.1138C18.8027 18.9939 18.9939 18.8027 19.1138 18.5675C19.1599 18.4769 19.2018 18.3396 19.2252 18.0525C19.2494 17.7566 19.25 17.3724 19.25 16.8V7.2C19.25 6.62757 19.2494 6.24336 19.2252 5.94748C19.2018 5.66036 19.1599 5.52307 19.1138 5.43251C18.9939 5.19731 18.8027 5.00608 18.5675 4.88624C18.4769 4.8401 18.3396 4.79822 18.0525 4.77476C17.7566 4.75058 17.3724 4.75 16.8 4.75H7.2C6.62757 4.75 6.24336 4.75058 5.94748 4.77476ZM13.441 7.49759C14.3024 6.63622 15.6989 6.63622 16.5603 7.49759C17.4216 8.35896 17.4216 9.75551 16.5603 10.6169L12.5395 14.6377C12.5231 14.654 12.507 14.6702 12.4911 14.6861C12.0259 15.1513 11.726 15.4513 11.3793 15.6928C11.0722 15.9067 10.7408 16.0835 10.3921 16.2197C9.99856 16.3733 9.58242 16.4555 8.93703 16.583C8.9149 16.5873 8.89251 16.5917 8.86983 16.5962L8.1122 16.7459C7.86212 16.7954 7.60406 16.7144 7.42706 16.5309C7.25006 16.3475 7.17836 16.0867 7.2367 15.8385L7.42774 15.0259C7.43269 15.0049 7.43757 14.9841 7.4424 14.9636C7.58342 14.3633 7.67436 13.9763 7.82787 13.6104C7.96387 13.2863 8.13545 12.9782 8.33943 12.6919C8.56967 12.3687 8.85084 12.0876 9.28687 11.6517C9.30179 11.6368 9.31689 11.6217 9.33217 11.6064L13.441 7.49759ZM15.4996 8.55825C15.224 8.28267 14.7772 8.28267 14.5017 8.55825L10.3928 12.6671C9.89654 13.1634 9.70997 13.3533 9.56108 13.5623C9.42151 13.7582 9.30412 13.9689 9.21106 14.1907C9.12913 14.386 9.07174 14.5963 8.96388 15.048C9.42274 14.9551 9.64235 14.9021 9.84665 14.8224C10.0852 14.7292 10.3119 14.6082 10.5221 14.4619C10.7463 14.3057 10.9491 14.1067 11.4788 13.577L15.4996 9.55622C15.7752 9.28064 15.7752 8.83383 15.4996 8.55825Z" fill="black"/>
</svg>
