<svg width="80" height="80" viewBox="0 0 80 80" fill="none" xmlns="http://www.w3.org/2000/svg">
<g filter="url(#filter0_d_4319_23678)">
<rect x="20" y="16" width="40" height="40" rx="8" fill="#08D572" shape-rendering="crispEdges"/>
<path d="M40 36C42.7614 36 45 33.7614 45 31C45 28.2386 42.7614 26 40 26C37.2386 26 35 28.2386 35 31C35 33.7614 37.2386 36 40 36Z" fill="white"/>
<path opacity="0.4" d="M40.0002 38.5C34.9902 38.5 30.9102 41.86 30.9102 46C30.9102 46.28 31.1302 46.5 31.4102 46.5H48.5902C48.8702 46.5 49.0902 46.28 49.0902 46C49.0902 41.86 45.0102 38.5 40.0002 38.5Z" fill="white"/>
<path d="M49.431 38.7401C48.531 37.8401 47.821 38.1301 47.211 38.7401L43.671 42.2801C43.531 42.4201 43.401 42.6801 43.371 42.8701L43.181 44.2201C43.111 44.7101 43.451 45.0501 43.941 44.9801L45.291 44.7901C45.481 44.7601 45.751 44.6301 45.881 44.4901L49.421 40.9501C50.041 40.3501 50.331 39.6401 49.431 38.7401Z" fill="white"/>
</g>
<defs>
<filter id="filter0_d_4319_23678" x="0" y="0" width="80" height="80" filterUnits="userSpaceOnUse" color-interpolation-filters="sRGB">
<feFlood flood-opacity="0" result="BackgroundImageFix"/>
<feColorMatrix in="SourceAlpha" type="matrix" values="0 0 0 0 0 0 0 0 0 0 0 0 0 0 0 0 0 0 127 0" result="hardAlpha"/>
<feOffset dy="4"/>
<feGaussianBlur stdDeviation="10"/>
<feComposite in2="hardAlpha" operator="out"/>
<feColorMatrix type="matrix" values="0 0 0 0 0.0313726 0 0 0 0 0.835294 0 0 0 0 0.447059 0 0 0 0.2 0"/>
<feBlend mode="normal" in2="BackgroundImageFix" result="effect1_dropShadow_4319_23678"/>
<feBlend mode="normal" in="SourceGraphic" in2="effect1_dropShadow_4319_23678" result="shape"/>
</filter>
</defs>
</svg>
