<svg width="80" height="80" viewBox="0 0 80 80" fill="none" xmlns="http://www.w3.org/2000/svg">
<g filter="url(#filter0_d_5119_26414)">
<rect x="20" y="16" width="40" height="40" rx="8" fill="#30DF14" shape-rendering="crispEdges"/>
<path d="M39.9536 38.3438C36.7691 38.3438 34.082 38.8642 34.082 40.8725C34.082 42.8817 36.7864 43.3838 39.9536 43.3838C43.1382 43.3838 45.8253 42.8635 45.8253 40.8551C45.8253 38.8459 43.1209 38.3438 39.9536 38.3438Z" fill="white"/>
<path opacity="0.4" d="M39.9518 36.4309C42.1082 36.4309 43.8373 34.6919 43.8373 32.5231C43.8373 30.3534 42.1082 28.6152 39.9518 28.6152C37.7955 28.6152 36.0664 30.3534 36.0664 32.5231C36.0664 34.6919 37.7955 36.4309 39.9518 36.4309Z" fill="white"/>
<path opacity="0.4" d="M48.3885 33.4331C48.9464 31.2385 47.3107 29.2676 45.2279 29.2676C45.0014 29.2676 44.7849 29.2925 44.5733 29.3349C44.5452 29.3416 44.5138 29.3557 44.4973 29.3806C44.4782 29.4122 44.4923 29.4546 44.513 29.4821C45.1386 30.3649 45.4981 31.4397 45.4981 32.5935C45.4981 33.6991 45.1684 34.7299 44.5898 35.5853C44.5303 35.6734 44.5832 35.7922 44.6882 35.8106C44.8336 35.8364 44.9824 35.8496 45.1345 35.8538C46.6512 35.8937 48.0124 34.9119 48.3885 33.4331Z" fill="white"/>
<path d="M49.9794 38.6003C49.7017 38.0052 49.0314 37.5971 48.0123 37.3967C47.5312 37.2787 46.2294 37.1124 45.0186 37.1349C45.0005 37.1374 44.9905 37.1498 44.9888 37.1581C44.9864 37.1698 44.9913 37.1897 45.0153 37.2022C45.5749 37.4807 47.7379 38.6918 47.466 41.2463C47.4543 41.3569 47.5428 41.4525 47.6527 41.4358C48.1851 41.3594 49.5545 41.0635 49.9794 40.1416C50.2141 39.6544 50.2141 39.0884 49.9794 38.6003Z" fill="white"/>
<path opacity="0.4" d="M35.425 29.3349C35.2142 29.2917 34.9969 29.2676 34.7704 29.2676C32.6876 29.2676 31.0519 31.2385 31.6106 33.4331C31.9858 34.9119 33.3471 35.8937 34.8638 35.8538C35.0159 35.8497 35.1655 35.8355 35.3101 35.8105C35.4151 35.7923 35.468 35.6734 35.4085 35.5853C34.8299 34.7291 34.5001 33.6991 34.5001 32.5935C34.5001 31.4389 34.8605 30.364 35.4862 29.482C35.506 29.4546 35.5209 29.4122 35.501 29.3806C35.4845 29.3549 35.4539 29.3416 35.425 29.3349Z" fill="white"/>
<path d="M31.9906 37.3961C30.9715 37.5964 30.302 38.0045 30.0243 38.5997C29.7888 39.0877 29.7888 39.6538 30.0243 40.1417C30.4492 41.0628 31.8187 41.3595 32.351 41.4352C32.4609 41.4518 32.5485 41.357 32.5369 41.2456C32.265 38.692 34.428 37.4808 34.9884 37.2023C35.0115 37.189 35.0165 37.1699 35.014 37.1574C35.0124 37.1491 35.0033 37.1367 34.9851 37.135C33.7734 37.1118 32.4725 37.278 31.9906 37.3961Z" fill="white"/>
<rect x="20.8" y="16.8" width="38.4" height="38.4" rx="7.2" stroke="white" stroke-opacity="0.17" stroke-width="1.6" shape-rendering="crispEdges"/>
</g>
<defs>
<filter id="filter0_d_5119_26414" x="0" y="0" width="80" height="80" filterUnits="userSpaceOnUse" color-interpolation-filters="sRGB">
<feFlood flood-opacity="0" result="BackgroundImageFix"/>
<feColorMatrix in="SourceAlpha" type="matrix" values="0 0 0 0 0 0 0 0 0 0 0 0 0 0 0 0 0 0 127 0" result="hardAlpha"/>
<feOffset dy="4"/>
<feGaussianBlur stdDeviation="10"/>
<feComposite in2="hardAlpha" operator="out"/>
<feColorMatrix type="matrix" values="0 0 0 0 0.188235 0 0 0 0 0.87451 0 0 0 0 0.0784314 0 0 0 0.2 0"/>
<feBlend mode="normal" in2="BackgroundImageFix" result="effect1_dropShadow_5119_26414"/>
<feBlend mode="normal" in="SourceGraphic" in2="effect1_dropShadow_5119_26414" result="shape"/>
</filter>
</defs>
</svg>
