<svg width="80" height="80" viewBox="0 0 80 80" fill="none" xmlns="http://www.w3.org/2000/svg">
<g filter="url(#filter0_d_5119_26474)">
<rect x="20" y="16" width="40" height="40" rx="8" fill="#EE195F" shape-rendering="crispEdges"/>
<g clip-path="url(#clip0_5119_26474)">
<path opacity="0.4" d="M31.5625 35.25C32.1298 35.25 32.6432 35.0224 33.0226 34.6569L35.1039 35.6975C35.0935 35.7823 35.0781 35.8656 35.0781 35.9531C35.0781 37.1162 36.0244 38.0625 37.1875 38.0625C38.3506 38.0625 39.2969 37.1162 39.2969 35.9531C39.2969 35.6285 39.217 35.3245 39.0854 35.0495L41.9089 32.226C42.1839 32.3577 42.4879 32.4375 42.8125 32.4375C43.9756 32.4375 44.9219 31.4912 44.9219 30.3281C44.9219 30.1091 44.8788 29.902 44.8166 29.7034L47.2698 27.8639C47.6046 28.0875 48.0057 28.2188 48.4375 28.2188C49.6006 28.2188 50.5469 27.2725 50.5469 26.1094C50.5469 24.9463 49.6006 24 48.4375 24C47.2744 24 46.3281 24.9463 46.3281 26.1094C46.3281 26.3284 46.3712 26.5355 46.4334 26.7341L43.9802 28.5736C43.6454 28.35 43.2443 28.2188 42.8125 28.2188C41.6494 28.2188 40.7031 29.165 40.7031 30.3281C40.7031 30.6528 40.783 30.9567 40.9146 31.2318L38.0911 34.0552C37.8161 33.9236 37.5121 33.8438 37.1875 33.8438C36.6202 33.8438 36.1068 34.0714 35.7274 34.4368L33.6461 33.3962C33.6565 33.3115 33.6719 33.2281 33.6719 33.1406C33.6719 31.9775 32.7256 31.0312 31.5625 31.0312C30.3994 31.0312 29.4531 31.9775 29.4531 33.1406C29.4531 34.3037 30.3994 35.25 31.5625 35.25Z" fill="white"/>
<path d="M51.2969 46.5938H50.5469V31.7344C50.5469 31.3458 50.2323 31.0312 49.8438 31.0312H47.0312C46.6427 31.0312 46.3281 31.3458 46.3281 31.7344V46.5938H44.9219V35.9531C44.9219 35.5646 44.6073 35.25 44.2188 35.25H41.4062C41.0177 35.25 40.7031 35.5646 40.7031 35.9531V46.5938H39.2969V41.5781C39.2969 41.1896 38.9823 40.875 38.5938 40.875H35.7812C35.3927 40.875 35.0781 41.1896 35.0781 41.5781V46.5938H33.6719V38.7656C33.6719 38.3771 33.3573 38.0625 32.9688 38.0625H30.1562C29.7677 38.0625 29.4531 38.3771 29.4531 38.7656V46.5938H28.7031C28.3146 46.5938 28 46.9083 28 47.2969C28 47.6854 28.3146 48 28.7031 48H51.2969C51.6854 48 52 47.6854 52 47.2969C52 46.9083 51.6854 46.5938 51.2969 46.5938Z" fill="white"/>
</g>
<rect x="20.8" y="16.8" width="38.4" height="38.4" rx="7.2" stroke="white" stroke-opacity="0.17" stroke-width="1.6" shape-rendering="crispEdges"/>
</g>
<defs>
<filter id="filter0_d_5119_26474" x="0" y="0" width="80" height="80" filterUnits="userSpaceOnUse" color-interpolation-filters="sRGB">
<feFlood flood-opacity="0" result="BackgroundImageFix"/>
<feColorMatrix in="SourceAlpha" type="matrix" values="0 0 0 0 0 0 0 0 0 0 0 0 0 0 0 0 0 0 127 0" result="hardAlpha"/>
<feOffset dy="4"/>
<feGaussianBlur stdDeviation="10"/>
<feComposite in2="hardAlpha" operator="out"/>
<feColorMatrix type="matrix" values="0 0 0 0 0.933333 0 0 0 0 0.0980392 0 0 0 0 0.372549 0 0 0 0.2 0"/>
<feBlend mode="normal" in2="BackgroundImageFix" result="effect1_dropShadow_5119_26474"/>
<feBlend mode="normal" in="SourceGraphic" in2="effect1_dropShadow_5119_26474" result="shape"/>
</filter>
<clipPath id="clip0_5119_26474">
<rect width="24" height="24" fill="white" transform="translate(28 24)"/>
</clipPath>
</defs>
</svg>
