<svg width="80" height="80" viewBox="0 0 80 80" fill="none" xmlns="http://www.w3.org/2000/svg">
<g filter="url(#filter0_d_5119_26451)">
<rect x="20" y="16" width="40" height="40" rx="8" fill="#4489F7" shape-rendering="crispEdges"/>
<path d="M49.091 30.9795C48.241 30.0395 46.821 29.5695 44.761 29.5695H44.521V29.5295C44.521 27.8495 44.521 25.7695 40.761 25.7695H39.241C35.481 25.7695 35.481 27.8595 35.481 29.5295V29.5795H35.241C33.171 29.5795 31.761 30.0495 30.911 30.9895C29.921 32.0895 29.951 33.5695 30.051 34.5795L30.061 34.6495L30.161 35.6995C30.171 35.7095 30.191 35.7295 30.211 35.7395C30.541 35.9595 30.881 36.1795 31.241 36.3795C31.381 36.4695 31.531 36.5495 31.681 36.6295C33.391 37.5695 35.271 38.1995 37.181 38.5095C37.271 39.4495 37.681 40.5495 39.871 40.5495C42.061 40.5495 42.491 39.4595 42.561 38.4895C44.601 38.1595 46.571 37.4495 48.351 36.4095C48.411 36.3795 48.451 36.3495 48.501 36.3195C48.961 36.0595 49.391 35.7795 49.811 35.4695C49.831 35.4595 49.851 35.4395 49.861 35.4195L49.901 35.0595L49.951 34.5895C49.961 34.5295 49.961 34.4795 49.971 34.4095C50.051 33.3995 50.031 32.0195 49.091 30.9795ZM41.091 37.8295C41.091 38.8895 41.091 39.0495 39.861 39.0495C38.631 39.0495 38.631 38.8595 38.631 37.8395V36.5795H41.091V37.8295ZM36.911 29.5695V29.5295C36.911 27.8295 36.911 27.1995 39.241 27.1995H40.761C43.091 27.1995 43.091 27.8395 43.091 29.5295V29.5795H36.911V29.5695Z" fill="white"/>
<path opacity="0.4" d="M48.5002 36.3004C48.4502 36.3304 48.4002 36.3604 48.3502 36.3904C46.5702 37.4304 44.6002 38.1304 42.5602 38.4704C42.4802 39.4304 42.0602 40.5304 39.8702 40.5304C37.6802 40.5304 37.2602 39.4404 37.1802 38.4904C35.2702 38.1904 33.3902 37.5604 31.6802 36.6104C31.5302 36.5304 31.3802 36.4504 31.2402 36.3604C30.8802 36.1604 30.5402 35.9404 30.2102 35.7204C30.1902 35.7104 30.1702 35.6904 30.1602 35.6804L30.7702 42.1904C30.9802 44.1804 31.8002 46.2304 36.2002 46.2304H43.8202C48.2202 46.2304 49.0402 44.1804 49.2502 42.1804L49.8802 35.4004C49.8702 35.4204 49.8502 35.4404 49.8302 35.4504C49.4002 35.7604 48.9602 36.0504 48.5002 36.3004Z" fill="white"/>
<rect x="20.8" y="16.8" width="38.4" height="38.4" rx="7.2" stroke="white" stroke-opacity="0.17" stroke-width="1.6" shape-rendering="crispEdges"/>
</g>
<defs>
<filter id="filter0_d_5119_26451" x="0" y="0" width="80" height="80" filterUnits="userSpaceOnUse" color-interpolation-filters="sRGB">
<feFlood flood-opacity="0" result="BackgroundImageFix"/>
<feColorMatrix in="SourceAlpha" type="matrix" values="0 0 0 0 0 0 0 0 0 0 0 0 0 0 0 0 0 0 127 0" result="hardAlpha"/>
<feOffset dy="4"/>
<feGaussianBlur stdDeviation="10"/>
<feComposite in2="hardAlpha" operator="out"/>
<feColorMatrix type="matrix" values="0 0 0 0 0.266667 0 0 0 0 0.537255 0 0 0 0 0.968627 0 0 0 0.2 0"/>
<feBlend mode="normal" in2="BackgroundImageFix" result="effect1_dropShadow_5119_26451"/>
<feBlend mode="normal" in="SourceGraphic" in2="effect1_dropShadow_5119_26451" result="shape"/>
</filter>
</defs>
</svg>
