<svg width="80" height="80" viewBox="0 0 80 80" fill="none" xmlns="http://www.w3.org/2000/svg">
<g filter="url(#filter0_d_5119_26426)">
<rect x="20" y="16" width="40" height="40" rx="8" fill="#59B8FD" shape-rendering="crispEdges"/>
<path opacity="0.4" d="M36 34.25C38.0711 34.25 39.75 32.5711 39.75 30.5C39.75 28.4289 38.0711 26.75 36 26.75C33.9289 26.75 32.25 28.4289 32.25 30.5C32.25 32.5711 33.9289 34.25 36 34.25Z" fill="white"/>
<path opacity="0.4" d="M44 32.75C46.0711 32.75 47.75 31.0711 47.75 29C47.75 26.9289 46.0711 25.25 44 25.25C41.9289 25.25 40.25 26.9289 40.25 29C40.25 31.0711 41.9289 32.75 44 32.75Z" fill="white"/>
<path fill-rule="evenodd" clip-rule="evenodd" d="M40 36.25C37.102 36.25 34.75 38.602 34.75 41.5C34.75 44.398 37.102 46.75 40 46.75C42.898 46.75 45.25 44.398 45.25 41.5C45.25 38.602 42.898 36.25 40 36.25ZM40.75 40.75V39.75C40.75 39.336 40.414 39 40 39C39.586 39 39.25 39.336 39.25 39.75V40.75H38.25C37.836 40.75 37.5 41.086 37.5 41.5C37.5 41.914 37.836 42.25 38.25 42.25H39.25V43.25C39.25 43.664 39.586 44 40 44C40.414 44 40.75 43.664 40.75 43.25V42.25H41.75C42.164 42.25 42.5 41.914 42.5 41.5C42.5 41.086 42.164 40.75 41.75 40.75H40.75Z" fill="white"/>
<path fill-rule="evenodd" clip-rule="evenodd" d="M33.874 40.2586C34.447 37.4176 36.95 35.2726 39.954 35.2506C38.854 34.8216 37.486 34.5586 36 34.5586C33.837 34.5586 31.925 35.1066 30.736 35.9176C29.767 36.5776 29.25 37.4276 29.25 38.3086V38.9086C29.25 39.2666 29.392 39.6096 29.645 39.8626C29.899 40.1166 30.242 40.2586 30.6 40.2586H33.874Z" fill="white"/>
<path fill-rule="evenodd" clip-rule="evenodd" d="M39.4336 34.0226C39.7426 34.1106 40.0366 34.2106 40.3166 34.3196C40.7286 34.4796 40.9816 34.8896 40.9506 35.3226C43.0056 35.6376 44.7326 36.9546 45.6156 38.7586H49.3986C49.7566 38.7586 50.0996 38.6166 50.3536 38.3626C50.6066 38.1096 50.7486 37.7666 50.7486 37.4086V36.8086C50.7486 35.9276 50.2316 35.0776 49.2626 34.4176C48.0736 33.6066 46.1616 33.0586 43.9986 33.0586C42.2236 33.0586 40.6186 33.4346 39.4336 34.0226Z" fill="white"/>
<rect x="20.8" y="16.8" width="38.4" height="38.4" rx="7.2" stroke="white" stroke-opacity="0.17" stroke-width="1.6" shape-rendering="crispEdges"/>
</g>
<defs>
<filter id="filter0_d_5119_26426" x="0" y="0" width="80" height="80" filterUnits="userSpaceOnUse" color-interpolation-filters="sRGB">
<feFlood flood-opacity="0" result="BackgroundImageFix"/>
<feColorMatrix in="SourceAlpha" type="matrix" values="0 0 0 0 0 0 0 0 0 0 0 0 0 0 0 0 0 0 127 0" result="hardAlpha"/>
<feOffset dy="4"/>
<feGaussianBlur stdDeviation="10"/>
<feComposite in2="hardAlpha" operator="out"/>
<feColorMatrix type="matrix" values="0 0 0 0 0.34902 0 0 0 0 0.721569 0 0 0 0 0.992157 0 0 0 0.2 0"/>
<feBlend mode="normal" in2="BackgroundImageFix" result="effect1_dropShadow_5119_26426"/>
<feBlend mode="normal" in="SourceGraphic" in2="effect1_dropShadow_5119_26426" result="shape"/>
</filter>
</defs>
</svg>
