<svg width="80" height="80" viewBox="0 0 80 80" fill="none" xmlns="http://www.w3.org/2000/svg">
<g filter="url(#filter0_d_5119_26438)">
<rect x="20" y="16" width="40" height="40" rx="8" fill="#08D573" shape-rendering="crispEdges"/>
<path opacity="0.4" d="M46 42.8597H45.24C44.44 42.8597 43.68 43.1697 43.12 43.7297L41.41 45.4197C40.63 46.1897 39.36 46.1897 38.58 45.4197L36.87 43.7297C36.31 43.1697 35.54 42.8597 34.75 42.8597H34C32.34 42.8597 31 41.5298 31 39.8898V28.9797C31 27.3397 32.34 26.0098 34 26.0098H46C47.66 26.0098 49 27.3397 49 28.9797V39.8898C49 41.5198 47.66 42.8597 46 42.8597Z" fill="white"/>
<path d="M40.0019 34.41C41.2887 34.41 42.3319 33.3668 42.3319 32.08C42.3319 30.7932 41.2887 29.75 40.0019 29.75C38.7151 29.75 37.6719 30.7932 37.6719 32.08C37.6719 33.3668 38.7151 34.41 40.0019 34.41Z" fill="white"/>
<path d="M42.6811 39.0608C43.4911 39.0608 43.9612 38.1608 43.5112 37.4908C42.8312 36.4808 41.5111 35.8008 40.0011 35.8008C38.4911 35.8008 37.1711 36.4808 36.4911 37.4908C36.0411 38.1608 36.5112 39.0608 37.3212 39.0608H42.6811Z" fill="white"/>
<rect x="20.8" y="16.8" width="38.4" height="38.4" rx="7.2" stroke="white" stroke-opacity="0.17" stroke-width="1.6" shape-rendering="crispEdges"/>
</g>
<defs>
<filter id="filter0_d_5119_26438" x="0" y="0" width="80" height="80" filterUnits="userSpaceOnUse" color-interpolation-filters="sRGB">
<feFlood flood-opacity="0" result="BackgroundImageFix"/>
<feColorMatrix in="SourceAlpha" type="matrix" values="0 0 0 0 0 0 0 0 0 0 0 0 0 0 0 0 0 0 127 0" result="hardAlpha"/>
<feOffset dy="4"/>
<feGaussianBlur stdDeviation="10"/>
<feComposite in2="hardAlpha" operator="out"/>
<feColorMatrix type="matrix" values="0 0 0 0 0.0313726 0 0 0 0 0.835294 0 0 0 0 0.45098 0 0 0 0.2 0"/>
<feBlend mode="normal" in2="BackgroundImageFix" result="effect1_dropShadow_5119_26438"/>
<feBlend mode="normal" in="SourceGraphic" in2="effect1_dropShadow_5119_26438" result="shape"/>
</filter>
</defs>
</svg>
