<svg width="80" height="80" viewBox="0 0 80 80" fill="none" xmlns="http://www.w3.org/2000/svg">
<g filter="url(#filter0_d_5119_26462)">
<rect x="20" y="16" width="40" height="40" rx="8" fill="#FD7759" shape-rendering="crispEdges"/>
<g clip-path="url(#clip0_5119_26462)">
<path d="M37.9807 33.8496L37.5273 34.838H38.4341L37.9807 33.8496Z" fill="white"/>
<path opacity="0.4" d="M35.7355 28.4543V24.4141L31.6953 28.4543H35.7355Z" fill="white"/>
<path d="M48.0424 24H37.1492V29.161C37.1492 29.5514 36.8328 29.8678 36.4424 29.8678H31.2812V47.2932C31.2812 47.6836 31.5977 48 31.988 48H48.0424C48.4327 48 48.7491 47.6836 48.7491 47.2932V24.7068C48.7491 24.3164 48.4327 24 48.0424 24ZM42.0808 34.0913C41.6904 34.0913 41.374 33.7749 41.374 33.3845C41.374 32.9943 41.6904 32.6777 42.0808 32.6777H42.5794V32.1791C42.5794 31.7888 42.8958 31.4724 43.2862 31.4724C43.6766 31.4724 43.993 31.7888 43.993 32.1791V32.6777H44.4916C44.882 32.6777 45.1984 32.9943 45.1984 33.3845C45.1984 33.7749 44.882 34.0913 44.4916 34.0913H43.993V34.5901C43.993 34.9803 43.6766 35.2969 43.2862 35.2969C42.8958 35.2969 42.5794 34.9803 42.5794 34.5901V34.0913H42.0808ZM34.8963 37.1832L37.3386 31.8593L37.3391 31.8594C37.4072 31.7109 37.5262 31.585 37.6863 31.5115C38.0411 31.3488 38.4606 31.5044 38.6234 31.8593L41.0657 37.1832C41.2285 37.5381 41.0728 37.9576 40.718 38.1204C40.6226 38.1641 40.5224 38.1848 40.4237 38.1848C40.156 38.1848 39.8998 38.0319 39.7808 37.7726L39.083 36.251H36.8792L36.1812 37.7726C36.0623 38.0319 35.8062 38.1848 35.5383 38.1848C35.4398 38.1848 35.3396 38.1641 35.244 38.1204C34.8892 37.9576 34.7335 37.5381 34.8963 37.1832ZM35.5388 39.5878H44.4916C44.882 39.5878 45.1984 39.9042 45.1984 40.2946C45.1984 40.6849 44.882 41.0013 44.4916 41.0013H35.5388C35.1484 41.0013 34.832 40.6849 34.832 40.2946C34.832 39.9042 35.1484 39.5878 35.5388 39.5878ZM35.5388 41.7448H41.4427C41.8329 41.7448 42.1495 42.0612 42.1495 42.4515C42.1495 42.8419 41.8329 43.1583 41.4427 43.1583H35.5388C35.1484 43.1583 34.832 42.8419 34.832 42.4515C34.832 42.0612 35.1484 41.7448 35.5388 41.7448Z" fill="white"/>
</g>
<rect x="20.8" y="16.8" width="38.4" height="38.4" rx="7.2" stroke="white" stroke-opacity="0.17" stroke-width="1.6" shape-rendering="crispEdges"/>
</g>
<defs>
<filter id="filter0_d_5119_26462" x="0" y="0" width="80" height="80" filterUnits="userSpaceOnUse" color-interpolation-filters="sRGB">
<feFlood flood-opacity="0" result="BackgroundImageFix"/>
<feColorMatrix in="SourceAlpha" type="matrix" values="0 0 0 0 0 0 0 0 0 0 0 0 0 0 0 0 0 0 127 0" result="hardAlpha"/>
<feOffset dy="4"/>
<feGaussianBlur stdDeviation="10"/>
<feComposite in2="hardAlpha" operator="out"/>
<feColorMatrix type="matrix" values="0 0 0 0 0.992157 0 0 0 0 0.580392 0 0 0 0 0.34902 0 0 0 0.2 0"/>
<feBlend mode="normal" in2="BackgroundImageFix" result="effect1_dropShadow_5119_26462"/>
<feBlend mode="normal" in="SourceGraphic" in2="effect1_dropShadow_5119_26462" result="shape"/>
</filter>
<clipPath id="clip0_5119_26462">
<rect width="24" height="24" fill="white" transform="translate(28 24)"/>
</clipPath>
</defs>
</svg>
