<svg width="16" height="16" viewBox="0 0 16 16" fill="none" xmlns="http://www.w3.org/2000/svg">
    <path fill-rule="evenodd" clip-rule="evenodd" d="M1.33337 7.99996C1.33337 5.4858 1.33337 4.22872 2.11442 3.44767C2.89547 2.66663 4.15255 2.66663 6.66671 2.66663H7.66671C10.1809 2.66663 11.4379 2.66663 12.219 3.44767C13 4.22872 13 5.4858 13 7.99996C13 10.5141 13 11.7712 12.219 12.5522C11.4379 13.3333 10.1809 13.3333 7.66671 13.3333H6.66671C4.15255 13.3333 2.89547 13.3333 2.11442 12.5522C1.33337 11.7712 1.33337 10.5141 1.33337 7.99996ZM7.9868 5.61585C8.19894 5.79263 8.2276 6.10791 8.05082 6.32005L7.06756 7.49996H8.33337C8.52738 7.49996 8.70388 7.61219 8.78617 7.78788C8.86846 7.96357 8.84169 8.17101 8.71749 8.32005L7.05082 10.3201C6.87404 10.5322 6.55875 10.5609 6.34662 10.3841C6.13448 10.2073 6.10581 9.89201 6.2826 9.67987L7.26585 8.49996H6.00004C5.80603 8.49996 5.62954 8.38773 5.54725 8.21204C5.46496 8.03634 5.49173 7.82891 5.61593 7.67987L7.2826 5.67987C7.45938 5.46773 7.77466 5.43907 7.9868 5.61585Z" fill="black"/>
    <path d="M14.1667 9.33329C14.1667 9.60943 14.3906 9.83329 14.6667 9.83329C14.9428 9.83329 15.1667 9.60943 15.1667 9.33329V6.66663C15.1667 6.39048 14.9428 6.16663 14.6667 6.16663C14.3906 6.16663 14.1667 6.39048 14.1667 6.66663V9.33329Z" fill="black"/>
</svg>
