<svg width="16" height="16" viewBox="0 0 16 16" fill="none" xmlns="http://www.w3.org/2000/svg">
    <path fill-rule="evenodd" clip-rule="evenodd" d="M4.83001 1.33337H11.17C11.9426 1.33337 12.3289 1.33337 12.6404 1.44178C13.2312 1.64734 13.695 2.12483 13.8947 2.73302C14 3.05374 14 3.45141 14 4.24675V13.5828C14 14.155 13.3433 14.4586 12.9279 14.0784C12.6839 13.8551 12.3161 13.8551 12.0721 14.0784L11.75 14.3732C11.3223 14.7646 10.6777 14.7646 10.25 14.3732C9.82228 13.9818 9.17772 13.9818 8.75 14.3732C8.32228 14.7646 7.67772 14.7646 7.25 14.3732C6.82228 13.9818 6.17772 13.9818 5.75 14.3732C5.32228 14.7646 4.67772 14.7646 4.25 14.3732L3.92794 14.0784C3.68388 13.8551 3.31612 13.8551 3.07206 14.0784C2.65666 14.4586 2 14.155 2 13.5828V4.24675C2 3.45141 2 3.05374 2.1053 2.73302C2.30499 2.12483 2.76881 1.64734 3.35959 1.44178C3.67114 1.33337 4.05743 1.33337 4.83001 1.33337ZM10.0396 5.66639C10.2236 5.4604 10.2057 5.14433 9.99967 4.96041C9.79369 4.7765 9.47761 4.79439 9.2937 5.00037L7.28571 7.24931L6.7063 6.60037C6.52239 6.39439 6.20631 6.3765 6.00033 6.56041C5.79434 6.74433 5.77645 7.0604 5.96036 7.26639L6.91275 8.33305C7.00761 8.4393 7.14328 8.50005 7.28571 8.50005C7.42815 8.50005 7.56382 8.4393 7.65868 8.33305L10.0396 5.66639ZM5 9.83338C4.72386 9.83338 4.5 10.0572 4.5 10.3334C4.5 10.6095 4.72386 10.8334 5 10.8334H11C11.2761 10.8334 11.5 10.6095 11.5 10.3334C11.5 10.0572 11.2761 9.83338 11 9.83338H5Z" fill="black"/>
</svg>
