<svg width="14" height="14" viewBox="0 0 14 14" fill="none" xmlns="http://www.w3.org/2000/svg">
    <mask id="mask0_184_207" style="mask-type:luminance" maskUnits="userSpaceOnUse" x="1" y="1" width="12" height="12">
        <path d="M1.16663 1.16663H12.8332V12.8333H1.16663V1.16663Z" fill="white"/>
        <path fill-rule="evenodd" clip-rule="evenodd" d="M12.8332 1.16663H1.16663V12.8333H12.8332V1.16663ZM12.0332 12.0333H1.96663V1.96663H12.0332V12.0333Z" fill="white"/>
    </mask>
    <g mask="url(#mask0_184_207)">
        <path fill-rule="evenodd" clip-rule="evenodd" d="M2.4415 12.795C2.66242 12.795 2.8415 12.616 2.8415 12.395V9.35976C2.8415 9.13885 2.66242 8.95976 2.4415 8.95976C2.22059 8.95976 2.0415 9.13885 2.0415 9.35976V12.395C2.0415 12.616 2.22059 12.795 2.4415 12.795Z" fill="black"/>
        <path fill-rule="evenodd" clip-rule="evenodd" d="M11.5584 12.795C11.7794 12.795 11.9584 12.616 11.9584 12.395V9.35976C11.9584 9.13885 11.7794 8.95976 11.5584 8.95976C11.3375 8.95976 11.1584 9.13885 11.1584 9.35976V12.395C11.1584 12.616 11.3375 12.795 11.5584 12.795Z" fill="black"/>
        <path fill-rule="evenodd" clip-rule="evenodd" d="M7.75665 8.83353C7.2667 8.97857 6.73328 8.97857 6.24333 8.83353L5.56227 8.63191C4.92411 8.443 4.23295 8.443 3.59477 8.63191L2.73194 8.88735C2.73194 8.88735 2.73195 8.88735 2.73194 8.88735C2.67485 8.90425 2.62026 8.89285 2.58499 8.87105C2.56815 8.86065 2.56052 8.85088 2.55801 8.84679C2.55755 8.84604 2.55726 8.84548 2.55708 8.84511V7.96435C2.55708 7.94929 2.56318 7.92292 2.59788 7.89292C2.6334 7.8622 2.69262 7.83541 2.76885 7.83541H11.2311C11.3074 7.83541 11.3666 7.8622 11.4021 7.89291C11.4368 7.92291 11.4429 7.94928 11.4429 7.96435V8.84511C11.4427 8.84548 11.4424 8.84604 11.4419 8.84679C11.4394 8.85088 11.4318 8.86065 11.415 8.87105C11.3797 8.89285 11.3251 8.90425 11.268 8.88735C11.268 8.88735 11.268 8.88735 11.268 8.88735L10.4052 8.63192C9.76702 8.443 9.07585 8.443 8.43769 8.63192L7.75665 8.83353ZM7.98373 9.60062L8.66478 9.39901C9.15472 9.25397 9.68813 9.25397 10.1781 9.39901C10.1781 9.39901 10.1781 9.39901 10.1781 9.39901L11.0409 9.65444C11.3213 9.73744 11.6109 9.69037 11.8355 9.55162C12.0606 9.41253 12.2429 9.1632 12.2429 8.84554V7.96435C12.2429 7.39869 11.7333 7.03541 11.2311 7.03541H2.76885C2.26666 7.03541 1.75708 7.39868 1.75708 7.96435V8.84554C1.75708 9.1632 1.93937 9.41253 2.16447 9.55162C2.38903 9.69037 2.67865 9.73744 2.95902 9.65445L3.82185 9.39901C3.82185 9.39901 3.82184 9.39901 3.82185 9.39901C4.31182 9.25397 4.84524 9.25397 5.33519 9.39901L6.01625 9.60062C6.65441 9.78954 7.34558 9.78954 7.98373 9.60062Z" fill="black"/>
        <path fill-rule="evenodd" clip-rule="evenodd" d="M1.1084 12.395C1.1084 12.616 1.28748 12.795 1.5084 12.795H12.4914C12.7123 12.795 12.8914 12.616 12.8914 12.395C12.8914 12.1741 12.7123 11.995 12.4914 11.995H1.5084C1.28748 11.995 1.1084 12.1741 1.1084 12.395Z" fill="black"/>
        <path fill-rule="evenodd" clip-rule="evenodd" d="M3.15686 7.4335C3.15686 7.65441 3.33595 7.8335 3.55686 7.8335H4.93657C5.15749 7.8335 5.33657 7.65441 5.33657 7.4335V4.95149C5.33657 4.56079 5.01993 4.24383 4.62903 4.24383H3.86441C3.47351 4.24383 3.15686 4.56079 3.15686 4.95149V7.4335ZM3.95686 7.0335V5.04383H4.53657V7.0335H3.95686Z" fill="black"/>
        <path fill-rule="evenodd" clip-rule="evenodd" d="M4.24656 5.03223C4.46747 5.03223 4.64656 4.85314 4.64656 4.63223V3.95438C4.64656 3.73346 4.46747 3.55438 4.24656 3.55438C4.02564 3.55438 3.84656 3.73346 3.84656 3.95438V4.63223C3.84656 4.85314 4.02564 5.03223 4.24656 5.03223Z" fill="black"/>
        <path fill-rule="evenodd" clip-rule="evenodd" d="M3.15234 3.08944C3.15234 3.69383 3.64215 4.18408 4.24671 4.18408C4.85126 4.18408 5.3411 3.69385 5.3411 3.08944C5.3411 2.90612 5.26723 2.69966 5.20215 2.54256C5.12981 2.36791 5.03607 2.18118 4.94628 2.01405C4.85583 1.84566 4.76587 1.69066 4.69879 1.57814C4.66515 1.52172 4.63704 1.4756 4.6172 1.44336L4.59393 1.40579L4.58756 1.39559L4.5858 1.39279L4.58512 1.39172L4.24671 1.60498L3.90835 1.39164L3.90763 1.39279L3.90587 1.3956L3.89949 1.40579L3.87622 1.44337C3.85638 1.47561 3.82827 1.52173 3.79464 1.57815C3.72756 1.69067 3.6376 1.84567 3.54715 2.01405C3.45737 2.18118 3.36363 2.36791 3.29129 2.54256C3.22621 2.69966 3.15234 2.90612 3.15234 3.08944ZM4.24671 1.60498L3.90835 1.39164C3.98162 1.27549 4.10938 1.20498 4.24671 1.20498C4.38404 1.20498 4.51186 1.27557 4.58512 1.39172L4.24671 1.60498ZM4.24672 2.4023C4.32864 2.55527 4.4064 2.71195 4.46306 2.84872C4.49197 2.91852 4.5131 2.97768 4.5265 3.02484C4.53782 3.06467 4.54036 3.08477 4.54094 3.08929C4.5411 3.09059 4.54094 3.09046 4.54094 3.08929C4.54094 3.25215 4.40916 3.38408 4.24671 3.38408C4.08429 3.38408 3.95234 3.25231 3.95234 3.08944C3.95234 3.09061 3.95218 3.09074 3.95234 3.08944C3.95292 3.08492 3.95563 3.06466 3.96695 3.02484C3.98035 2.97768 4.00148 2.91851 4.03039 2.84872C4.08704 2.71195 4.1648 2.55527 4.24672 2.4023Z" fill="black"/>
        <path fill-rule="evenodd" clip-rule="evenodd" d="M5.91016 7.4335C5.91016 7.65441 6.08924 7.8335 6.31016 7.8335H7.68985C7.91076 7.8335 8.08985 7.65441 8.08985 7.4335V4.95149C8.08985 4.56083 7.77326 4.24383 7.38232 4.24383H6.61768C6.22674 4.24383 5.91016 4.56083 5.91016 4.95149V7.4335ZM6.71016 7.0335V5.04383H7.28985V7.0335H6.71016Z" fill="black"/>
        <path fill-rule="evenodd" clip-rule="evenodd" d="M6.99998 5.03223C7.22089 5.03223 7.39998 4.85314 7.39998 4.63223V3.95438C7.39998 3.73346 7.22089 3.55438 6.99998 3.55438C6.77906 3.55438 6.59998 3.73346 6.59998 3.95438V4.63223C6.59998 4.85314 6.77906 5.03223 6.99998 5.03223Z" fill="black"/>
        <path fill-rule="evenodd" clip-rule="evenodd" d="M5.90564 3.08944C5.90564 3.69383 6.39545 4.18408 7.00001 4.18408C7.60455 4.18408 8.0944 3.69385 8.0944 3.08944C8.0944 2.90612 8.02053 2.69966 7.95545 2.54256C7.8831 2.36791 7.78936 2.18118 7.69958 2.01405C7.60913 1.84566 7.51916 1.69066 7.45208 1.57814C7.41845 1.52172 7.39034 1.4756 7.37049 1.44336L7.34723 1.40579L7.34085 1.39559L7.33909 1.39279L7.33842 1.39172L7.00001 1.60498L6.66165 1.39164L6.66092 1.39279L6.65916 1.3956L6.65279 1.40579L6.62952 1.44337C6.60968 1.47561 6.58157 1.52173 6.54793 1.57815C6.48086 1.69067 6.3909 1.84567 6.30045 2.01405C6.21067 2.18118 6.11693 2.36791 6.04459 2.54256C5.97951 2.69966 5.90564 2.90612 5.90564 3.08944ZM7.00001 1.60498L6.66165 1.39164C6.73491 1.27549 6.86268 1.20498 7.00001 1.20498C7.13733 1.20498 7.26515 1.27557 7.33842 1.39172L7.00001 1.60498ZM7.00001 2.4023C7.08193 2.55527 7.1597 2.71195 7.21635 2.84872C7.24527 2.91852 7.2664 2.97768 7.2798 3.02484C7.29111 3.06467 7.29366 3.08477 7.29423 3.08929C7.2944 3.09059 7.29423 3.09046 7.29423 3.08929C7.29423 3.25215 7.16245 3.38408 7.00001 3.38408C6.83758 3.38408 6.70564 3.25231 6.70564 3.08944C6.70564 3.09061 6.70548 3.09074 6.70564 3.08944C6.70621 3.08492 6.70893 3.06466 6.72024 3.02484C6.73364 2.97768 6.75477 2.91851 6.78368 2.84872C6.84034 2.71195 6.9181 2.55527 7.00001 2.4023Z" fill="black"/>
        <path fill-rule="evenodd" clip-rule="evenodd" d="M8.66333 7.4335C8.66333 7.65441 8.84242 7.8335 9.06333 7.8335H10.443C10.664 7.8335 10.843 7.65441 10.843 7.4335V4.95149C10.843 4.56079 10.5264 4.24383 10.1355 4.24383H9.37088C8.97998 4.24383 8.66333 4.56079 8.66333 4.95149V7.4335ZM9.46333 7.0335V5.04383H10.043V7.0335H9.46333Z" fill="black"/>
        <path fill-rule="evenodd" clip-rule="evenodd" d="M9.75327 5.03223C9.97419 5.03223 10.1533 4.85314 10.1533 4.63223V3.95438C10.1533 3.73346 9.97419 3.55438 9.75327 3.55438C9.53236 3.55438 9.35327 3.73346 9.35327 3.95438V4.63223C9.35327 4.85314 9.53236 5.03223 9.75327 5.03223Z" fill="black"/>
        <path fill-rule="evenodd" clip-rule="evenodd" d="M8.65881 3.08944C8.65881 3.69383 9.14862 4.18408 9.75318 4.18408C10.3577 4.18408 10.8476 3.69385 10.8476 3.08944C10.8476 2.90612 10.7737 2.69966 10.7086 2.54256C10.6363 2.36791 10.5425 2.18118 10.4528 2.01405C10.3623 1.84566 10.2723 1.69066 10.2053 1.57814C10.1716 1.52172 10.1435 1.4756 10.1237 1.44336L10.1004 1.40579L10.094 1.39559L10.0923 1.39279L10.0916 1.39172L9.75318 1.60498L9.41482 1.39164L9.4141 1.39279L9.41233 1.3956L9.40596 1.40579L9.38269 1.44337C9.36285 1.47561 9.33474 1.52173 9.30111 1.57815C9.23403 1.69067 9.14407 1.84567 9.05362 2.01405C8.96384 2.18118 8.8701 2.36791 8.79776 2.54256C8.73268 2.69966 8.65881 2.90612 8.65881 3.08944ZM9.75318 1.60498L9.41482 1.39164C9.48809 1.27549 9.61585 1.20498 9.75318 1.20498C9.8905 1.20498 10.0183 1.27557 10.0916 1.39172L9.75318 1.60498ZM9.75319 2.4023C9.83511 2.55527 9.91287 2.71195 9.96953 2.84872C9.99844 2.91852 10.0196 2.97768 10.033 3.02484C10.0443 3.06467 10.0468 3.08477 10.0474 3.08929C10.0476 3.09059 10.0474 3.09046 10.0474 3.08929C10.0474 3.25215 9.91563 3.38408 9.75318 3.38408C9.59076 3.38408 9.45881 3.25231 9.45881 3.08944C9.45881 3.09061 9.45865 3.09074 9.45881 3.08944C9.45939 3.08492 9.4621 3.06466 9.47342 3.02484C9.48682 2.97768 9.50795 2.91851 9.53686 2.84872C9.59351 2.71195 9.67127 2.55527 9.75319 2.4023Z" fill="black"/>
    </g>
</svg>
