<svg width="16" height="16" viewBox="0 0 16 16" fill="none" xmlns="http://www.w3.org/2000/svg">
    <g clip-path="url(#clip0_185_168)">
        <path d="M3.48962 9.33337H6.4342L5.82629 15.0807C5.82361 15.098 5.82288 15.1493 5.82288 15.1666C5.82288 15.626 6.1969 16 6.65625 16C6.9176 16 7.16687 15.8746 7.33228 15.6527L13.1562 7.33337C13.2635 7.18994 13.3229 7.0127 13.3229 6.83337C13.3229 6.37402 12.949 6 12.4896 6H8.88562L9.4856 0.931274C9.48755 0.911987 9.48889 0.852661 9.48889 0.833374C9.48962 0.374023 9.1156 0 8.65625 0C8.3949 0 8.14563 0.125366 7.97498 0.354004L2.82288 8C2.71558 8.14331 2.65625 8.32068 2.65625 8.5C2.65625 8.95935 3.03027 9.33337 3.48962 9.33337Z" fill="#0E0E0E"/>
    </g>
    <defs>
        <clipPath id="clip0_185_168">
            <rect width="16" height="16" fill="white"/>
        </clipPath>
    </defs>
</svg>
