<svg width="250" height="50" viewBox="0 0 950 185" fill="none" xmlns="http://www.w3.org/2000/svg">
<path d="M287.166 51.1123H317.016C323.748 51.1123 328.879 51.6273 332.41 52.6572C337.155 54.055 341.22 56.5379 344.604 60.106C347.988 63.674 350.563 68.0513 352.329 73.2378C354.094 78.3875 354.977 84.7511 354.977 92.3286C354.977 98.9865 354.149 104.725 352.494 109.543C350.471 115.429 347.583 120.192 343.832 123.834C340.999 126.593 337.174 128.745 332.355 130.29C328.75 131.43 323.931 132 317.899 132H287.166V51.1123ZM303.498 64.7959V118.372H315.692C320.253 118.372 323.545 118.114 325.568 117.599C328.217 116.937 330.405 115.815 332.134 114.233C333.9 112.652 335.334 110.058 336.438 106.454C337.542 102.812 338.093 97.8646 338.093 91.6113C338.093 85.3581 337.542 80.5578 336.438 77.2104C335.334 73.8631 333.79 71.2515 331.803 69.3755C329.817 67.4995 327.297 66.2305 324.244 65.5684C321.964 65.0534 317.494 64.7959 310.836 64.7959H303.498ZM441.824 132H424.057L416.995 113.626H384.662L377.985 132H360.66L392.166 51.1123H409.436L441.824 132ZM411.753 99.998L400.607 69.9824L389.683 99.998H411.753ZM462.791 132L433.878 51.1123H451.59L472.06 110.978L491.868 51.1123H509.193L480.226 132H462.791ZM517.58 132V51.1123H551.955C560.599 51.1123 566.87 51.848 570.77 53.3193C574.705 54.7539 577.85 57.3288 580.205 61.0439C582.559 64.7591 583.736 69.0076 583.736 73.7896C583.736 79.8589 581.952 84.8799 578.384 88.8525C574.816 92.7884 569.482 95.2713 562.383 96.3013C565.914 98.3612 568.82 100.623 571.101 103.088C573.418 105.552 576.526 109.93 580.425 116.22L590.302 132H570.77L558.962 114.399C554.769 108.109 551.899 104.155 550.354 102.536C548.81 100.881 547.173 99.759 545.444 99.1704C543.715 98.5451 540.975 98.2324 537.223 98.2324H533.912V132H517.58ZM533.912 85.3213H545.996C553.831 85.3213 558.723 84.9902 560.672 84.3281C562.622 83.666 564.148 82.5257 565.252 80.9072C566.355 79.2887 566.907 77.2656 566.907 74.8379C566.907 72.1159 566.172 69.9272 564.7 68.272C563.266 66.5799 561.224 65.5132 558.576 65.0718C557.251 64.8879 553.279 64.7959 546.658 64.7959H533.912V85.3213ZM630.69 51.1123H663.023C669.424 51.1123 674.187 51.3882 677.314 51.9399C680.477 52.4549 683.291 53.5584 685.756 55.2505C688.257 56.9425 690.335 59.2048 691.991 62.0371C693.646 64.8327 694.474 67.9777 694.474 71.4722C694.474 75.2609 693.444 78.737 691.384 81.9004C689.361 85.0638 686.602 87.4364 683.107 89.0181C688.036 90.4526 691.825 92.8988 694.474 96.3564C697.122 99.8141 698.446 103.879 698.446 108.55C698.446 112.229 697.582 115.815 695.853 119.31C694.161 122.767 691.825 125.544 688.846 127.641C685.903 129.701 682.261 130.97 677.921 131.448C675.199 131.743 668.633 131.926 658.223 132H630.69V51.1123ZM647.022 64.5752V83.2798H657.727C664.09 83.2798 668.044 83.1878 669.589 83.0039C672.385 82.6729 674.574 81.7165 676.155 80.1348C677.774 78.5163 678.583 76.4012 678.583 73.7896C678.583 71.2882 677.884 69.2651 676.486 67.7202C675.125 66.1385 673.084 65.1821 670.362 64.8511C668.743 64.6672 664.09 64.5752 656.402 64.5752H647.022ZM647.022 96.7427V118.372H662.141C668.026 118.372 671.76 118.206 673.341 117.875C675.769 117.434 677.737 116.367 679.245 114.675C680.79 112.946 681.562 110.647 681.562 107.778C681.562 105.35 680.974 103.29 679.797 101.598C678.62 99.9061 676.909 98.6738 674.666 97.9014C672.458 97.1289 667.64 96.7427 660.209 96.7427H647.022ZM785.238 132H767.471L760.409 113.626H728.076L721.399 132H704.074L735.58 51.1123H752.85L785.238 132ZM755.167 99.998L744.021 69.9824L733.097 99.998H755.167ZM794.121 132V51.1123H810.012L843.117 105.129V51.1123H858.291V132H841.903L809.294 79.252V132H794.121ZM875.836 132V51.1123H892.168V87.0317L925.164 51.1123H947.124L916.667 82.6177L948.779 132H927.646L905.411 94.0391L892.168 107.557V132H875.836Z" fill="white"/>
<path d="M56.6218 136.37L93.4151 173.116L124.548 142.023M50.2537 130.01L12.0453 91.8514L49.5462 54.399M56.6218 47.3325L92 12L173.37 93.2647L144.36 122.237" stroke="#006B9D" stroke-width="16"/>
<path d="M212.501 135.664L175 173.116L94.3377 92.558L124.763 62.1721M220.284 127.89L255.662 92.558L216.746 53.6923M209.671 46.6258L175 12L145.282 41.6793" stroke="#269A42" stroke-width="16"/>
</svg>
