<svg width="40" height="40" viewBox="0 0 40 40" fill="none" xmlns="http://www.w3.org/2000/svg">
    <path d="M20.0003 1.66675C17.0347 1.66831 14.136 2.54873 11.6705 4.1968C9.20499 5.84487 7.28319 8.18665 6.14786 10.9264C5.01253 13.6661 4.7146 16.6808 5.29171 19.5897C5.86882 22.4986 7.29507 25.1713 9.39031 27.2701C12.107 29.9867 18.5003 33.9167 18.8786 38.0451C18.9353 38.6617 19.3836 39.1667 20.0003 39.1667C20.617 39.1667 21.067 38.6617 21.122 38.0451C21.5003 33.9167 27.8886 29.9934 30.6036 27.2784C32.7013 25.1805 34.13 22.5077 34.7089 19.598C35.2879 16.6882 34.9912 13.6722 33.8564 10.931C32.7215 8.18989 30.7995 5.84673 28.3332 4.19775C25.8669 2.54876 22.9671 1.66798 20.0003 1.66675Z" fill="#02BFDF"/>
    <path d="M19.9998 21.7982C19.3259 21.7982 18.6586 21.6655 18.036 21.4076C17.4134 21.1497 16.8477 20.7717 16.3712 20.2952C15.8947 19.8187 15.5167 19.253 15.2588 18.6304C15.0009 18.0078 14.8682 17.3405 14.8682 16.6666C14.8682 15.9927 15.0009 15.3254 15.2588 14.7028C15.5167 14.0802 15.8947 13.5145 16.3712 13.0379C16.8477 12.5614 17.4134 12.1834 18.036 11.9255C18.6586 11.6676 19.3259 11.5349 19.9998 11.5349C21.3608 11.5349 22.6661 12.0756 23.6285 13.0379C24.5908 14.0003 25.1315 15.3056 25.1315 16.6666C25.1315 18.0276 24.5908 19.3328 23.6285 20.2952C22.6661 21.2576 21.3608 21.7982 19.9998 21.7982Z" fill="white"/>
</svg>
