<svg width="16" height="16" viewBox="0 0 16 16" fill="none" xmlns="http://www.w3.org/2000/svg">
    <path d="M7.99968 1.3335C6.68114 1.3335 5.3922 1.72449 4.29588 2.45703C3.19955 3.18957 2.34506 4.23077 1.84048 5.44894C1.3359 6.66711 1.20387 8.00756 1.46111 9.30077C1.71834 10.594 2.35328 11.7819 3.28563 12.7142C4.21798 13.6466 5.40587 14.2815 6.69908 14.5387C7.99228 14.796 9.33273 14.6639 10.5509 14.1594C11.7691 13.6548 12.8103 12.8003 13.5428 11.704C14.2754 10.6076 14.6663 9.31871 14.6663 8.00016C14.6643 6.23268 13.9613 4.53816 12.7115 3.28836C11.4617 2.03856 9.76716 1.33553 7.99968 1.3335ZM10.3681 9.92983L7.70148 8.5965C7.59074 8.54112 7.49762 8.45599 7.43254 8.35067C7.36746 8.24534 7.333 8.12397 7.33301 8.00016V4.66683C7.33301 4.49002 7.40325 4.32045 7.52827 4.19543C7.6533 4.0704 7.82287 4.00016 7.99968 4.00016C8.17649 4.00016 8.34606 4.0704 8.47108 4.19543C8.59611 4.32045 8.66634 4.49002 8.66634 4.66683V7.58803L10.9645 8.7371C11.1227 8.81618 11.243 8.95486 11.2989 9.12263C11.3548 9.29039 11.3418 9.4735 11.2627 9.63166C11.1836 9.78983 11.0449 9.9101 10.8772 9.96602C10.7094 10.0219 10.5263 10.0089 10.3681 9.92983Z" fill="black"/>
</svg>
