<svg width="24" height="24" viewBox="0 0 24 24" fill="none" xmlns="http://www.w3.org/2000/svg">
    <path fill-rule="evenodd" clip-rule="evenodd" d="M5.45902 2.39863C5.75191 2.69152 5.75191 3.16639 5.45902 3.45929C1.84667 7.07163 1.84667 12.9284 5.45902 16.5408C5.75191 16.8337 5.75191 17.3085 5.45902 17.6014C5.16613 17.8943 4.69125 17.8943 4.39836 17.6014C0.200222 13.4033 0.200222 6.59676 4.39836 2.39863C4.69125 2.10573 5.16613 2.10573 5.45902 2.39863ZM18.5409 2.39863C18.8338 2.10573 19.3087 2.10573 19.6016 2.39863C23.7997 6.59676 23.7997 13.4033 19.6016 17.6014C19.3087 17.8943 18.8338 17.8943 18.5409 17.6014C18.248 17.3085 18.248 16.8337 18.5409 16.5408C22.1533 12.9284 22.1533 7.07163 18.5409 3.45929C18.248 3.16639 18.248 2.69152 18.5409 2.39863ZM8.28767 5.22699C8.58056 5.51989 8.58056 5.99476 8.28767 6.28765C6.23741 8.33791 6.23741 11.662 8.28767 13.7123C8.58056 14.0052 8.58056 14.48 8.28767 14.7729C7.99477 15.0658 7.5199 15.0658 7.22701 14.7729C4.59097 12.1369 4.59097 7.86303 7.22701 5.22699C7.5199 4.9341 7.99477 4.9341 8.28767 5.22699ZM15.7123 5.22699C16.0052 4.9341 16.4801 4.9341 16.773 5.22699C19.409 7.86303 19.409 12.1369 16.773 14.7729C16.4801 15.0658 16.0052 15.0658 15.7123 14.7729C15.4194 14.48 15.4194 14.0052 15.7123 13.7123C17.7626 11.662 17.7626 8.33791 15.7123 6.28765C15.4194 5.99476 15.4194 5.51989 15.7123 5.22699ZM12 8.75C11.3096 8.75 10.75 9.30964 10.75 10C10.75 10.6904 11.3096 11.25 12 11.25C12.6903 11.25 13.25 10.6904 13.25 10C13.25 9.30964 12.6903 8.75 12 8.75ZM9.24998 10C9.24998 8.48122 10.4812 7.25 12 7.25C13.5188 7.25 14.75 8.48122 14.75 10C14.75 11.2588 13.9042 12.32 12.75 12.6465V21C12.75 21.4142 12.4142 21.75 12 21.75C11.5858 21.75 11.25 21.4142 11.25 21V12.6465C10.0957 12.32 9.24998 11.2588 9.24998 10Z" fill="black"/>
</svg>
