<svg width="24" height="24" viewBox="0 0 24 24" fill="none" xmlns="http://www.w3.org/2000/svg">
<path d="M11.9536 14.3447C8.76905 14.3447 6.08203 14.8652 6.08203 16.8735C6.08203 18.8827 8.78641 19.3848 11.9536 19.3848C15.1382 19.3848 17.8253 18.8644 17.8253 16.856C17.8253 14.8469 15.1209 14.3447 11.9536 14.3447Z" fill="white"/>
<path opacity="0.4" d="M11.9538 12.4309C14.1102 12.4309 15.8393 10.6919 15.8393 8.52306C15.8393 6.35343 14.1102 4.61523 11.9538 4.61523C9.79744 4.61523 8.06836 6.35343 8.06836 8.52306C8.06836 10.6919 9.79744 12.4309 11.9538 12.4309Z" fill="white"/>
<path opacity="0.4" d="M20.3885 9.43311C20.9464 7.23854 19.3107 5.26758 17.2279 5.26758C17.0014 5.26758 16.7849 5.29252 16.5733 5.33492C16.5452 5.34156 16.5138 5.35569 16.4973 5.38064C16.4782 5.41222 16.4923 5.45462 16.513 5.48205C17.1386 6.36487 17.4981 7.43971 17.4981 8.59352C17.4981 9.69912 17.1684 10.7299 16.5898 11.5853C16.5303 11.6734 16.5832 11.7922 16.6882 11.8106C16.8336 11.8364 16.9824 11.8496 17.1345 11.8538C18.6512 11.8937 20.0124 10.9119 20.3885 9.43311Z" fill="white"/>
<path d="M21.9775 14.6003C21.6997 14.0052 21.0295 13.5971 20.0103 13.3967C19.5293 13.2787 18.2275 13.1124 17.0167 13.1349C16.9985 13.1374 16.9885 13.1498 16.9869 13.1581C16.9845 13.1698 16.9894 13.1897 17.0134 13.2022C17.5729 13.4807 19.736 14.6918 19.464 17.2463C19.4524 17.3569 19.5408 17.4525 19.6508 17.4358C20.1831 17.3594 21.5526 17.0635 21.9775 16.1416C22.2122 15.6544 22.2122 15.0884 21.9775 14.6003Z" fill="white"/>
<path opacity="0.4" d="M7.42694 5.33491C7.21618 5.29168 6.9988 5.26758 6.77234 5.26758C4.68951 5.26758 3.05383 7.23854 3.61256 9.4331C3.9878 10.9119 5.34907 11.8937 6.86573 11.8538C7.01782 11.8497 7.16742 11.8355 7.31206 11.8105C7.41703 11.7923 7.46992 11.6734 7.41041 11.5853C6.83185 10.7291 6.50207 9.69911 6.50207 8.59351C6.50207 7.43887 6.86243 6.36403 7.48811 5.48204C7.50794 5.45461 7.52282 5.41221 7.50299 5.38063C7.48645 5.35486 7.45587 5.34156 7.42694 5.33491Z" fill="white"/>
<path d="M3.98867 13.3961C2.96956 13.5964 2.30008 14.0045 2.02237 14.5997C1.78681 15.0877 1.78681 15.6538 2.02237 16.1417C2.4472 17.0628 3.81674 17.3595 4.34902 17.4352C4.45895 17.4518 4.54656 17.357 4.53499 17.2456C4.26307 14.692 6.42607 13.4808 6.98645 13.2023C7.00959 13.189 7.01455 13.1699 7.01207 13.1574C7.01042 13.1491 7.00133 13.1367 6.98314 13.135C5.77147 13.1118 4.47053 13.278 3.98867 13.3961Z" fill="white"/>
</svg>
