<svg width="24" height="24" viewBox="0 0 24 24" fill="none" xmlns="http://www.w3.org/2000/svg">
<path d="M21.0891 6.97953C20.2391 6.03953 18.8191 5.56953 16.7591 5.56953H16.5191V5.52953C16.5191 3.84953 16.5191 1.76953 12.7591 1.76953H11.2391C7.47906 1.76953 7.47906 3.85953 7.47906 5.52953V5.57953H7.23906C5.16906 5.57953 3.75906 6.04953 2.90906 6.98953C1.91906 8.08953 1.94906 9.56953 2.04906 10.5795L2.05906 10.6495L2.15906 11.6995C2.16906 11.7095 2.18906 11.7295 2.20906 11.7395C2.53906 11.9595 2.87906 12.1795 3.23906 12.3795C3.37906 12.4695 3.52906 12.5495 3.67906 12.6295C5.38906 13.5695 7.26906 14.1995 9.17906 14.5095C9.26906 15.4495 9.67906 16.5495 11.8691 16.5495C14.0591 16.5495 14.4891 15.4595 14.5591 14.4895C16.5991 14.1595 18.5691 13.4495 20.3491 12.4095C20.4091 12.3795 20.4491 12.3495 20.4991 12.3195C20.9591 12.0595 21.3891 11.7795 21.8091 11.4695C21.8291 11.4595 21.8491 11.4395 21.8591 11.4195L21.8991 11.0595L21.9491 10.5895C21.9591 10.5295 21.9591 10.4795 21.9691 10.4095C22.0491 9.39953 22.0291 8.01953 21.0891 6.97953ZM13.0891 13.8295C13.0891 14.8895 13.0891 15.0495 11.8591 15.0495C10.6291 15.0495 10.6291 14.8595 10.6291 13.8395V12.5795H13.0891V13.8295ZM8.90906 5.56953V5.52953C8.90906 3.82953 8.90906 3.19953 11.2391 3.19953H12.7591C15.0891 3.19953 15.0891 3.83953 15.0891 5.52953V5.57953H8.90906V5.56953Z" fill="white"/>
<path opacity="0.4" d="M20.5002 12.3004C20.4502 12.3304 20.4002 12.3604 20.3502 12.3904C18.5702 13.4304 16.6002 14.1304 14.5602 14.4704C14.4802 15.4304 14.0602 16.5304 11.8702 16.5304C9.68016 16.5304 9.26016 15.4404 9.18016 14.4904C7.27016 14.1904 5.39016 13.5604 3.68016 12.6104C3.53016 12.5304 3.38016 12.4504 3.24016 12.3604C2.88016 12.1604 2.54016 11.9404 2.21016 11.7204C2.19016 11.7104 2.17016 11.6904 2.16016 11.6804L2.77016 18.1904C2.98016 20.1804 3.80016 22.2304 8.20016 22.2304H15.8202C20.2202 22.2304 21.0402 20.1804 21.2502 18.1804L21.8802 11.4004C21.8702 11.4204 21.8502 11.4404 21.8302 11.4504C21.4002 11.7604 20.9602 12.0504 20.5002 12.3004Z" fill="white"/>
<path opacity="0.4" d="M18 18.8597H17.24C16.44 18.8597 15.68 19.1697 15.12 19.7297L13.41 21.4197C12.63 22.1897 11.36 22.1897 10.58 21.4197L8.87 19.7297C8.31 19.1697 7.54 18.8597 6.75 18.8597H6C4.34 18.8597 3 17.5298 3 15.8898V4.97974C3 3.33974 4.34 2.00977 6 2.00977H18C19.66 2.00977 21 3.33974 21 4.97974V15.8898C21 17.5198 19.66 18.8597 18 18.8597Z" fill="white"/>
<path d="M11.9999 10.41C13.2868 10.41 14.33 9.36684 14.33 8.08002C14.33 6.79319 13.2868 5.75 11.9999 5.75C10.7131 5.75 9.66992 6.79319 9.66992 8.08002C9.66992 9.36684 10.7131 10.41 11.9999 10.41Z" fill="white"/>
<path d="M14.6792 15.0598C15.4892 15.0598 15.9592 14.1598 15.5092 13.4898C14.8292 12.4798 13.5092 11.7998 11.9992 11.7998C10.4892 11.7998 9.16918 12.4798 8.48918 13.4898C8.03918 14.1598 8.5092 15.0598 9.3192 15.0598H14.6792Z" fill="white"/>
</svg>
