<svg width="16" height="17" viewBox="0 0 16 17" fill="none" xmlns="http://www.w3.org/2000/svg">
<path fill-rule="evenodd" clip-rule="evenodd" d="M4.66635 4.49999C4.66635 4.1318 4.96483 3.83333 5.33302 3.83333H13.9997C14.3679 3.83333 14.6664 4.1318 14.6664 4.49999C14.6664 4.86818 14.3679 5.16666 13.9997 5.16666H5.33302C4.96483 5.16666 4.66635 4.86818 4.66635 4.49999Z" fill="black"/>
<path fill-rule="evenodd" clip-rule="evenodd" d="M4.66635 8.49999C4.66635 8.1318 4.96483 7.83333 5.33302 7.83333H13.9997C14.3679 7.83333 14.6664 8.1318 14.6664 8.49999C14.6664 8.86818 14.3679 9.16666 13.9997 9.16666H5.33302C4.96483 9.16666 4.66635 8.86818 4.66635 8.49999Z" fill="black"/>
<path fill-rule="evenodd" clip-rule="evenodd" d="M4.66635 12.5C4.66635 12.1318 4.96483 11.8333 5.33302 11.8333H13.9997C14.3679 11.8333 14.6664 12.1318 14.6664 12.5C14.6664 12.8682 14.3679 13.1667 13.9997 13.1667H5.33302C4.96483 13.1667 4.66635 12.8682 4.66635 12.5Z" fill="black"/>
<path fill-rule="evenodd" clip-rule="evenodd" d="M1.33333 4.49999C1.33333 4.1318 1.6318 3.83333 1.99999 3.83333H2.00666C2.37485 3.83333 2.67333 4.1318 2.67333 4.49999C2.67333 4.86818 2.37485 5.16666 2.00666 5.16666H1.99999C1.6318 5.16666 1.33333 4.86818 1.33333 4.49999Z" fill="black"/>
<path fill-rule="evenodd" clip-rule="evenodd" d="M1.33333 8.49999C1.33333 8.1318 1.6318 7.83333 1.99999 7.83333H2.00666C2.37485 7.83333 2.67333 8.1318 2.67333 8.49999C2.67333 8.86818 2.37485 9.16666 2.00666 9.16666H1.99999C1.6318 9.16666 1.33333 8.86818 1.33333 8.49999Z" fill="black"/>
<path fill-rule="evenodd" clip-rule="evenodd" d="M1.33333 12.5C1.33333 12.1318 1.6318 11.8333 1.99999 11.8333H2.00666C2.37485 11.8333 2.67333 12.1318 2.67333 12.5C2.67333 12.8682 2.37485 13.1667 2.00666 13.1667H1.99999C1.6318 13.1667 1.33333 12.8682 1.33333 12.5Z" fill="black"/>
</svg>
