<svg width="24" height="25" viewBox="0 0 24 25" fill="none" xmlns="http://www.w3.org/2000/svg">
<path d="M5.31499 2.4252C6.10599 2.3122 7.21499 2.5702 8.64799 3.3912L8.91999 3.5522L9.07999 3.6522L9.47699 3.5692C10.9908 3.27668 12.5439 3.24961 14.067 3.4892L14.523 3.5692L14.919 3.6522L15.08 3.5522C16.465 2.7122 17.567 2.3822 18.402 2.4042L18.566 2.4122L18.713 2.4292L18.789 2.4432L18.839 2.4542L18.983 2.5012C19.2188 2.59865 19.4084 2.78253 19.513 3.0152C19.9222 3.9269 20.06 4.9372 19.91 5.9252L19.863 6.1922L19.817 6.3882L19.94 6.5512C20.514 7.3462 20.87 8.2792 20.97 9.2582L20.993 9.5532L21 9.8252C21 13.6802 19.341 15.7082 16.356 16.5052L16.111 16.5662L15.979 16.5952L15.993 16.7562L16.001 16.9132L16.005 17.2782L16.003 17.4912L16 21.3252C16 21.5701 15.91 21.8065 15.7473 21.9896C15.5845 22.1726 15.3602 22.2895 15.117 22.3182L15 22.3252H8.99999C8.75506 22.3252 8.51865 22.2352 8.33562 22.0725C8.15258 21.9097 8.03565 21.6854 8.00699 21.4422L7.99999 21.3252V20.5912C6.18199 20.8512 4.96999 20.1672 3.88999 18.7132L3.35499 17.9472C3.07499 17.5512 2.89999 17.3682 2.76599 17.3032L2.71799 17.2842C2.4704 17.2037 2.26395 17.0299 2.14251 16.7996C2.02107 16.5694 1.99422 16.3008 2.06766 16.051C2.1411 15.8013 2.30905 15.59 2.53581 15.4621C2.76257 15.3342 3.03026 15.2998 3.28199 15.3662C3.92399 15.5542 4.35599 15.9342 4.85199 16.6052L5.38999 17.3742C6.14999 18.4532 6.74999 18.8332 7.99899 18.5652L7.99999 17.8872L7.98199 17.7192C7.95246 17.4456 7.94544 17.17 7.96099 16.8952L7.97799 16.7102L7.99699 16.5902L7.88899 16.5662C4.91299 15.8562 3.18599 13.9932 3.01399 10.4272L3.00399 10.1172L2.99999 9.8252C3.00115 8.74177 3.31656 7.68195 3.90799 6.7742L4.05999 6.5522L4.18199 6.3892L4.13699 6.1932C3.95671 5.31476 4.00666 4.40463 4.28199 3.5512L4.38199 3.2692L4.48799 3.0162C4.59239 2.78372 4.7816 2.59986 5.01699 2.5022L5.16099 2.4552L5.31499 2.4252Z" fill="#131612"/>
</svg>
