<svg xmlns="http://www.w3.org/2000/svg" width="41" height="40" viewBox="0 0 41 40" fill="none">
    <path d="M20.4993 24.1667V27.5M12.166 16.7146C12.9517 16.6667 13.9203 16.6667 15.166 16.6667H25.8327C27.0784 16.6667 28.047 16.6667 28.8327 16.7146M12.166 16.7146C11.1855 16.7745 10.4898 16.9091 9.89606 17.2116C8.95525 17.691 8.19035 18.4559 7.71098 19.3967C7.16602 20.4663 7.16602 21.8664 7.16602 24.6667V27C7.16602 29.8003 7.16602 31.2004 7.71098 32.27C8.19035 33.2108 8.95525 33.9757 9.89606 34.455C10.9656 35 12.3658 35 15.166 35H25.8327C28.6329 35 30.0331 35 31.1026 34.455C32.0434 33.9757 32.8083 33.2108 33.2877 32.27C33.8327 31.2004 33.8327 29.8003 33.8327 27V24.6667C33.8327 21.8664 33.8327 20.4663 33.2877 19.3967C32.8083 18.4559 32.0434 17.691 31.1026 17.2116C30.5089 16.9091 29.8132 16.7745 28.8327 16.7146M12.166 16.7146V13.3333C12.166 8.73096 15.897 5 20.4993 5C25.1017 5 28.8327 8.73096 28.8327 13.3333V16.7146" stroke="#E62E30" stroke-width="3.2" stroke-miterlimit="10" stroke-linecap="round" stroke-linejoin="round"/>
</svg>