<svg width="28" height="28" viewBox="0 0 28 28" fill="none" xmlns="http://www.w3.org/2000/svg">
<g id="map-pin">
<path id="Icon" d="M13 18.6667C13 19.219 13.4477 19.6667 14 19.6667C14.5523 19.6667 15 19.219 15 18.6667H13ZM9.54901 16.6282C10.0883 16.5091 10.4289 15.9753 10.3098 15.4361C10.1907 14.8968 9.65695 14.5562 9.11766 14.6753L9.54901 16.6282ZM18.8823 14.6753C18.3431 14.5562 17.8093 14.8968 17.6902 15.4361C17.5711 15.9753 17.9117 16.5091 18.451 16.6282L18.8823 14.6753ZM17.6667 8.16667C17.6667 10.1917 16.025 11.8333 14 11.8333V13.8333C17.1296 13.8333 19.6667 11.2963 19.6667 8.16667H17.6667ZM14 11.8333C11.975 11.8333 10.3333 10.1917 10.3333 8.16667H8.33333C8.33333 11.2963 10.8704 13.8333 14 13.8333V11.8333ZM10.3333 8.16667C10.3333 6.14162 11.975 4.5 14 4.5V2.5C10.8704 2.5 8.33333 5.03705 8.33333 8.16667H10.3333ZM14 4.5C16.025 4.5 17.6667 6.14162 17.6667 8.16667H19.6667C19.6667 5.03705 17.1296 2.5 14 2.5V4.5ZM13 12.8333V18.6667H15V12.8333H13ZM23.5 19.8333C23.5 20.1523 23.3587 20.5314 22.9505 20.9604C22.5373 21.3946 21.8922 21.831 21.0185 22.2193C19.2736 22.9948 16.7931 23.5 14 23.5V25.5C17.0059 25.5 19.7754 24.9605 21.8308 24.047C22.8572 23.5908 23.7498 23.0217 24.3993 22.3392C25.0536 21.6516 25.5 20.803 25.5 19.8333H23.5ZM14 23.5C11.2069 23.5 8.72636 22.9948 6.98152 22.2193C6.10783 21.831 5.46271 21.3946 5.04954 20.9604C4.64127 20.5314 4.5 20.1523 4.5 19.8333H2.5C2.5 20.803 2.94635 21.6516 3.60075 22.3392C4.25024 23.0217 5.1428 23.5908 6.16924 24.047C8.22465 24.9605 10.9941 25.5 14 25.5V23.5ZM4.5 19.8333C4.5 19.3849 4.79291 18.7938 5.69501 18.16C6.57933 17.5388 7.90182 16.992 9.54901 16.6282L9.11766 14.6753C7.30751 15.0751 5.71332 15.703 4.54532 16.5235C3.39509 17.3316 2.5 18.4494 2.5 19.8333H4.5ZM18.451 16.6282C20.0982 16.992 21.4207 17.5388 22.305 18.16C23.2071 18.7938 23.5 19.3849 23.5 19.8333H25.5C25.5 18.4494 24.6049 17.3316 23.4547 16.5235C22.2867 15.703 20.6925 15.0751 18.8823 14.6753L18.451 16.6282Z" fill="#02BFDF"/>
</g>
</svg>
