<svg width="16" height="16" viewBox="0 0 16 16" fill="none" xmlns="http://www.w3.org/2000/svg">
<path d="M12.2 1H3.8C2.81991 1 2.32986 1 1.95552 1.19074C1.62623 1.35852 1.35852 1.62623 1.19074 1.95552C1 2.32986 1 2.81991 1 3.8V12.2C1 13.1801 1 13.6701 1.19074 14.0445C1.35852 14.3738 1.62623 14.6415 1.95552 14.8093C2.32986 15 2.81991 15 3.8 15H12.2C13.1801 15 13.6701 15 14.0445 14.8093C14.3738 14.6415 14.6415 14.3738 14.8093 14.0445C15 13.6701 15 13.1801 15 12.2V3.8C15 2.81991 15 2.32986 14.8093 1.95552C14.6415 1.62623 14.3738 1.35852 14.0445 1.19074C13.6701 1 13.1801 1 12.2 1Z" fill="#2684FC"/>
<path fill-rule="evenodd" clip-rule="evenodd" d="M5.8125 4.5H8.875C10.0831 4.5 11.0625 5.47938 11.0625 6.6875C11.0625 7.89562 10.0831 8.875 8.875 8.875H7V11.783H5.8125V4.5ZM7.14583 7.54167H8.875C9.34674 7.54167 9.72917 7.15924 9.72917 6.6875C9.72917 6.21576 9.34674 5.83333 8.875 5.83333H7.14583V7.54167Z" fill="white"/>
</svg>
