<svg width="16" height="16" viewBox="0 0 16 16" fill="none" xmlns="http://www.w3.org/2000/svg">
<g clip-path="url(#clip0_37_37864)">
<path fill-rule="evenodd" clip-rule="evenodd" d="M8 1.99999C4.68629 1.99999 2 4.68628 2 7.99999C2 11.3137 4.68629 14 8 14C11.3137 14 14 11.3137 14 7.99999C14 4.68628 11.3137 1.99999 8 1.99999ZM0.666668 7.99999C0.666668 3.9499 3.94991 0.666656 8 0.666656C12.0501 0.666656 15.3333 3.9499 15.3333 7.99999C15.3333 12.0501 12.0501 15.3333 8 15.3333C3.94991 15.3333 0.666668 12.0501 0.666668 7.99999Z" fill="black"/>
<path fill-rule="evenodd" clip-rule="evenodd" d="M8 5.99999C6.89543 5.99999 6 6.89542 6 7.99999C6 9.10456 6.89543 9.99999 8 9.99999C9.10457 9.99999 10 9.10456 10 7.99999C10 6.89542 9.10457 5.99999 8 5.99999ZM4.66667 7.99999C4.66667 6.15904 6.15905 4.66666 8 4.66666C9.84095 4.66666 11.3333 6.15904 11.3333 7.99999C11.3333 9.84094 9.84095 11.3333 8 11.3333C6.15905 11.3333 4.66667 9.84094 4.66667 7.99999Z" fill="black"/>
<path fill-rule="evenodd" clip-rule="evenodd" d="M2.81538 2.81523C3.07573 2.55488 3.49784 2.55488 3.75819 2.81523L6.58486 5.64189C6.8452 5.90224 6.8452 6.32435 6.58486 6.5847C6.32451 6.84505 5.9024 6.84505 5.64205 6.5847L2.81538 3.75804C2.55503 3.49769 2.55503 3.07558 2.81538 2.81523Z" fill="black"/>
<path fill-rule="evenodd" clip-rule="evenodd" d="M9.41531 9.41532C9.67566 9.15497 10.0978 9.15497 10.3581 9.41532L13.1848 12.242C13.4451 12.5023 13.4451 12.9245 13.1848 13.1848C12.9244 13.4451 12.5023 13.4451 12.242 13.1848L9.41531 10.3581C9.15496 10.0978 9.15496 9.67567 9.41531 9.41532Z" fill="black"/>
<path fill-rule="evenodd" clip-rule="evenodd" d="M13.1848 2.81523C13.4451 3.07558 13.4451 3.49769 13.1848 3.75804L10.3581 6.5847C10.0978 6.84505 9.67566 6.84505 9.41531 6.5847C9.15496 6.32435 9.15496 5.90224 9.41531 5.64189L12.242 2.81523C12.5023 2.55488 12.9244 2.55488 13.1848 2.81523Z" fill="black"/>
<path fill-rule="evenodd" clip-rule="evenodd" d="M12.7115 3.28852C12.9718 3.54887 12.9718 3.97098 12.7115 4.23133L10.3581 6.58467C10.0978 6.84502 9.67566 6.84502 9.41531 6.58467C9.15496 6.32432 9.15496 5.90221 9.41531 5.64186L11.7686 3.28852C12.029 3.02817 12.4511 3.02817 12.7115 3.28852Z" fill="black"/>
<path fill-rule="evenodd" clip-rule="evenodd" d="M6.58486 9.41532C6.8452 9.67567 6.8452 10.0978 6.58486 10.3581L3.75819 13.1848C3.49784 13.4451 3.07573 13.4451 2.81538 13.1848C2.55503 12.9245 2.55503 12.5023 2.81538 12.242L5.64205 9.41532C5.9024 9.15497 6.32451 9.15497 6.58486 9.41532Z" fill="black"/>
</g>
<defs>
<clipPath id="clip0_37_37864">
<rect width="16" height="16" fill="white"/>
</clipPath>
</defs>
</svg>
