<svg xmlns="http://www.w3.org/2000/svg" width="41" height="40" viewBox="0 0 41 40" fill="none">
    <path d="M28.1393 10C26.8533 7.05683 23.9165 5 20.4993 5C15.897 5 12.166 8.73096 12.166 13.3333V16.7146M20.4993 24.1667V27.5M12.166 16.7146C12.9517 16.6667 13.9203 16.6667 15.166 16.6667H25.8327C28.6329 16.6667 30.0331 16.6667 31.1026 17.2116C32.0434 17.691 32.8083 18.4559 33.2877 19.3967C33.8327 20.4663 33.8327 21.8664 33.8327 24.6667V27C33.8327 29.8003 33.8327 31.2004 33.2877 32.27C32.8083 33.2108 32.0434 33.9757 31.1026 34.455C30.0331 35 28.6329 35 25.8327 35H15.166C12.3658 35 10.9656 35 9.89606 34.455C8.95525 33.9757 8.19035 33.2108 7.71098 32.27C7.16602 31.2004 7.16602 29.8003 7.16602 27V24.6667C7.16602 21.8664 7.16602 20.4663 7.71098 19.3967C8.19035 18.4559 8.95525 17.691 9.89606 17.2116C10.4898 16.9091 11.1855 16.7745 12.166 16.7146Z" stroke="#F2B33A" stroke-width="3.2" stroke-miterlimit="10" stroke-linecap="round" stroke-linejoin="round"/>
</svg>