<svg width="64" height="75" viewBox="0 0 64 75" fill="none" xmlns="http://www.w3.org/2000/svg">
<path d="M32 67C49.6726 67 64 52.7008 64 35C64 17.2992 49.6095 3 32 3C14.3274 3 0 17.2992 0 35C0 52.7008 14.3274 67 32 67Z" fill="#EDF1F5"/>
<g filter="url(#filter0_d_4721_22821)">
<path d="M53.7752 19.0004L54.2801 59.5673C54.2801 60.9531 53.144 62.024 51.7555 62.024H12.1184C10.7298 62.024 9.59375 60.8901 9.59375 59.5673V7.40982C9.59375 6.02399 10.7298 4.95312 12.1184 4.95312H40.8364L53.7752 19.0004Z" fill="white"/>
</g>
<path d="M31.7821 43.0002C36.8212 43.0002 40.9061 38.8876 40.9061 33.8145C40.9061 28.7415 36.8212 24.6289 31.7821 24.6289C26.7431 24.6289 22.6582 28.7415 22.6582 33.8145C22.6582 38.8876 26.7431 43.0002 31.7821 43.0002Z" fill="#16CC53"/>
<path fill-rule="evenodd" clip-rule="evenodd" d="M31.9997 29C32.2649 29 32.5192 29.1054 32.7068 29.2929L35.3734 31.9596C35.764 32.3501 35.764 32.9832 35.3734 33.3738C34.9829 33.7643 34.3498 33.7643 33.9592 33.3738L32.9997 32.4142V38C32.9997 38.5523 32.552 39 31.9997 39C31.4474 39 30.9997 38.5523 30.9997 38V32.4142L30.0401 33.3738C29.6496 33.7643 29.0164 33.7643 28.6259 33.3738C28.2354 32.9832 28.2354 32.3501 28.6259 31.9596L31.2926 29.2929C31.4801 29.1054 31.7345 29 31.9997 29Z" fill="white"/>
<path d="M21.8747 5.5291C21.8747 6.58867 21.4067 7.58478 20.5567 8.33397L12.4511 15.5636C11.7918 16.1447 10.9262 16.4352 10.061 16.4352C9.19703 16.4352 8.33303 16.1452 7.67546 15.5656C6.35978 14.4053 6.35978 12.5182 7.67546 11.3585L13.5311 6.22622C14.4103 5.45621 15.8075 5.43092 16.6473 6.1702C17.0574 6.53165 17.2734 7.01954 17.256 7.54462C17.2385 8.0583 16.9983 8.5452 16.5793 8.91458L11.0223 13.8128C10.8024 14.0067 10.4469 14.0067 10.227 13.8128C10.007 13.619 10.007 13.3056 10.227 13.1117L15.7839 8.21349C15.9993 8.02359 16.1231 7.77568 16.1315 7.51537C16.14 7.26646 16.0404 7.03739 15.852 6.87129C15.4498 6.51827 14.7647 6.54355 14.3248 6.9293L8.46971 12.0606C7.5939 12.8331 7.5939 14.0915 8.47084 14.8645C9.34834 15.6375 10.7754 15.6375 11.6529 14.8645L19.7585 7.63486C20.3987 7.07061 20.7497 6.3239 20.7497 5.5291C20.7497 4.73429 20.3987 3.98758 19.7613 3.42581C19.1235 2.86354 18.2763 2.55415 17.3747 2.55415C16.473 2.55415 15.6258 2.86354 14.988 3.42581L7.08371 10.3435C6.86265 10.5364 6.50715 10.5354 6.28834 10.3406C6.06953 10.1462 6.07065 9.83285 6.29115 9.63948L14.1943 2.72322C15.0425 1.97503 16.1726 1.5625 17.3747 1.5625C18.5767 1.5625 19.7068 1.97503 20.5567 2.72471C21.4067 3.47341 21.8747 4.46952 21.8747 5.5291Z" fill="#C8CFD6"/>
<g filter="url(#filter1_d_4721_22821)">
<path d="M12.1184 4.95312C10.7298 4.95312 9.59375 6.02399 9.59375 7.40982V9L14 4.95312H12.1184Z" fill="white"/>
</g>
<path d="M40.8359 4.95312V16.1657C40.8359 17.7405 42.2245 19.0004 43.8024 19.0004H53.7748" fill="url(#paint0_linear_4721_22821)"/>
<defs>
<filter id="filter0_d_4721_22821" x="1.59375" y="0.953125" width="60.6865" height="73.0708" filterUnits="userSpaceOnUse" color-interpolation-filters="sRGB">
<feFlood flood-opacity="0" result="BackgroundImageFix"/>
<feColorMatrix in="SourceAlpha" type="matrix" values="0 0 0 0 0 0 0 0 0 0 0 0 0 0 0 0 0 0 127 0" result="hardAlpha"/>
<feOffset dy="4"/>
<feGaussianBlur stdDeviation="4"/>
<feComposite in2="hardAlpha" operator="out"/>
<feColorMatrix type="matrix" values="0 0 0 0 0.0313726 0 0 0 0 0.0392157 0 0 0 0 0.0823529 0 0 0 0.15 0"/>
<feBlend mode="normal" in2="BackgroundImageFix" result="effect1_dropShadow_4721_22821"/>
<feBlend mode="normal" in="SourceGraphic" in2="effect1_dropShadow_4721_22821" result="shape"/>
</filter>
<filter id="filter1_d_4721_22821" x="1.59375" y="0.953125" width="20.4062" height="20.0469" filterUnits="userSpaceOnUse" color-interpolation-filters="sRGB">
<feFlood flood-opacity="0" result="BackgroundImageFix"/>
<feColorMatrix in="SourceAlpha" type="matrix" values="0 0 0 0 0 0 0 0 0 0 0 0 0 0 0 0 0 0 127 0" result="hardAlpha"/>
<feOffset dy="4"/>
<feGaussianBlur stdDeviation="4"/>
<feComposite in2="hardAlpha" operator="out"/>
<feColorMatrix type="matrix" values="0 0 0 0 0.0313726 0 0 0 0 0.0392157 0 0 0 0 0.0823529 0 0 0 0.15 0"/>
<feBlend mode="normal" in2="BackgroundImageFix" result="effect1_dropShadow_4721_22821"/>
<feBlend mode="normal" in="SourceGraphic" in2="effect1_dropShadow_4721_22821" result="shape"/>
</filter>
<linearGradient id="paint0_linear_4721_22821" x1="46.7953" y1="4.97519" x2="46.7953" y2="16.8909" gradientUnits="userSpaceOnUse">
<stop stop-color="#B0BACC"/>
<stop offset="1" stop-color="#969EAE"/>
</linearGradient>
</defs>
</svg>
