<svg width="74" height="77" viewBox="0 0 74 77" fill="none" xmlns="http://www.w3.org/2000/svg">
<path d="M37 66C54.6726 66 69 51.7008 69 34C69 16.2992 54.6095 2 37 2C19.3274 2 5 16.2992 5 34C5 51.7008 19.3274 66 37 66Z" fill="#EDF1F5"/>
<g filter="url(#filter0_d_4720_23848)">
<path d="M63.9963 64.1824H10.2112C9.16341 64.1824 8.30371 63.3169 8.30371 62.2621V49.0361C8.30371 47.9812 9.16341 47.1157 10.2112 47.1157H63.9963C65.044 47.1157 65.9037 47.9812 65.9037 49.0361V62.2621C65.9037 63.3169 65.044 64.1824 63.9963 64.1824Z" fill="white"/>
</g>
<path d="M55.0763 53.5258H25.121C24.4763 53.5258 23.9658 53.1314 23.9658 52.6333C23.9658 52.1351 24.4763 51.7407 25.121 51.7407H55.0763C55.7211 51.7407 56.2315 52.1351 56.2315 52.6333C56.2315 53.1314 55.7211 53.5258 55.0763 53.5258Z" fill="#C8CFD6"/>
<path d="M44.33 58.9624H25.121C24.4763 58.9624 23.9658 58.568 23.9658 58.0698C23.9658 57.5716 24.4763 57.1772 25.121 57.1772H44.33C44.9748 57.1772 45.4852 57.5716 45.4852 58.0698C45.4852 58.568 44.9748 58.9624 44.33 58.9624Z" fill="#C8CFD6"/>
<path d="M16.2557 60.4495C18.8968 60.4495 21.0378 58.2941 21.0378 55.6352C21.0378 52.9763 18.8968 50.8208 16.2557 50.8208C13.6146 50.8208 11.4736 52.9763 11.4736 55.6352C11.4736 58.2941 13.6146 60.4495 16.2557 60.4495Z" fill="#8898AA"/>
<path fill-rule="evenodd" clip-rule="evenodd" d="M18.1429 54.5372L15.1339 57.5394L14.3662 56.7595L17.3752 53.7573L18.1429 54.5372Z" fill="white"/>
<path fill-rule="evenodd" clip-rule="evenodd" d="M15.1339 53.7573L18.1429 56.7595L17.3752 57.5394L14.3662 54.5372L15.1339 53.7573Z" fill="white"/>
<g filter="url(#filter1_d_4720_23848)">
<path d="M63.9963 21.2H10.2112C9.16341 21.2 8.30371 20.3345 8.30371 19.2796V6.05364C8.30371 4.9988 9.16341 4.1333 10.2112 4.1333H63.9963C65.044 4.1333 65.9037 4.9988 65.9037 6.05364V19.2796C65.9037 20.3345 65.044 21.2 63.9963 21.2Z" fill="white"/>
</g>
<path d="M55.0763 10.5434H25.121C24.4763 10.5434 23.9658 10.149 23.9658 9.65085C23.9658 9.15268 24.4763 8.7583 25.121 8.7583H55.0763C55.7211 8.7583 56.2315 9.15268 56.2315 9.65085C56.2315 10.149 55.7211 10.5434 55.0763 10.5434Z" fill="#C8CFD6"/>
<path d="M44.33 15.9799H25.121C24.4763 15.9799 23.9658 15.5855 23.9658 15.0874C23.9658 14.5892 24.4763 14.1948 25.121 14.1948H44.33C44.9748 14.1948 45.4852 14.5892 45.4852 15.0874C45.4852 15.5855 44.9748 15.9799 44.33 15.9799Z" fill="#C8CFD6"/>
<path d="M16.2547 17.4676C18.8958 17.4676 21.0368 15.3121 21.0368 12.6532C21.0368 9.99433 18.8958 7.83887 16.2547 7.83887C13.6137 7.83887 11.4727 9.99433 11.4727 12.6532C11.4727 15.3121 13.6137 17.4676 16.2547 17.4676Z" fill="#8898AA"/>
<path fill-rule="evenodd" clip-rule="evenodd" d="M18.1419 11.5552L15.1329 14.5574L14.3652 13.7776L17.3742 10.7754L18.1419 11.5552Z" fill="white"/>
<path fill-rule="evenodd" clip-rule="evenodd" d="M15.1329 10.7754L18.1419 13.7776L17.3742 14.5574L14.3652 11.5552L15.1329 10.7754Z" fill="white"/>
<g filter="url(#filter2_d_4720_23848)">
<path d="M64.0225 42.5901H10.2112C9.1634 42.5901 8.30371 41.7246 8.30371 40.6698V27.4438C8.30371 26.3889 9.1634 25.5234 10.2112 25.5234H63.9957C65.0434 25.5234 65.9031 26.3889 65.9031 27.4438V40.6698C65.93 41.7516 65.0703 42.5901 64.0225 42.5901Z" fill="white"/>
</g>
<path d="M16.283 38.8851C18.9241 38.8851 21.0651 36.7296 21.0651 34.0707C21.0651 31.4118 18.9241 29.2563 16.283 29.2563C13.642 29.2563 11.501 31.4118 11.501 34.0707C11.501 36.7296 13.642 38.8851 16.283 38.8851Z" fill="#16CC53"/>
<path fill-rule="evenodd" clip-rule="evenodd" d="M18.9252 32.9438L15.5307 36.3613L13.6406 34.4585L14.4118 33.6821L15.5307 34.8086L18.154 32.1675L18.9252 32.9438Z" fill="white"/>
<path d="M55.1033 31.934H25.1484C24.5036 31.934 23.9932 31.5396 23.9932 31.0415C23.9932 30.5433 24.5036 30.1489 25.1484 30.1489H55.1033C55.7481 30.1489 56.2585 30.5433 56.2585 31.0415C56.2585 31.5396 55.7212 31.934 55.1033 31.934Z" fill="#C8CFD6"/>
<path d="M44.3571 37.3974H25.1484C24.5036 37.3974 23.9932 37.003 23.9932 36.5049C23.9932 36.0067 24.5036 35.6123 25.1484 35.6123H44.3571C45.0019 35.6123 45.5123 36.0067 45.5123 36.5049C45.4855 37.003 44.975 37.3974 44.3571 37.3974Z" fill="#C8CFD6"/>
<defs>
<filter id="filter0_d_4720_23848" x="0.303711" y="43.1157" width="73.5996" height="33.0669" filterUnits="userSpaceOnUse" color-interpolation-filters="sRGB">
<feFlood flood-opacity="0" result="BackgroundImageFix"/>
<feColorMatrix in="SourceAlpha" type="matrix" values="0 0 0 0 0 0 0 0 0 0 0 0 0 0 0 0 0 0 127 0" result="hardAlpha"/>
<feOffset dy="4"/>
<feGaussianBlur stdDeviation="4"/>
<feComposite in2="hardAlpha" operator="out"/>
<feColorMatrix type="matrix" values="0 0 0 0 0.0313726 0 0 0 0 0.0392157 0 0 0 0 0.0823529 0 0 0 0.15 0"/>
<feBlend mode="normal" in2="BackgroundImageFix" result="effect1_dropShadow_4720_23848"/>
<feBlend mode="normal" in="SourceGraphic" in2="effect1_dropShadow_4720_23848" result="shape"/>
</filter>
<filter id="filter1_d_4720_23848" x="0.303711" y="0.133301" width="73.5996" height="33.0669" filterUnits="userSpaceOnUse" color-interpolation-filters="sRGB">
<feFlood flood-opacity="0" result="BackgroundImageFix"/>
<feColorMatrix in="SourceAlpha" type="matrix" values="0 0 0 0 0 0 0 0 0 0 0 0 0 0 0 0 0 0 127 0" result="hardAlpha"/>
<feOffset dy="4"/>
<feGaussianBlur stdDeviation="4"/>
<feComposite in2="hardAlpha" operator="out"/>
<feColorMatrix type="matrix" values="0 0 0 0 0.0313726 0 0 0 0 0.0392157 0 0 0 0 0.0823529 0 0 0 0.15 0"/>
<feBlend mode="normal" in2="BackgroundImageFix" result="effect1_dropShadow_4720_23848"/>
<feBlend mode="normal" in="SourceGraphic" in2="effect1_dropShadow_4720_23848" result="shape"/>
</filter>
<filter id="filter2_d_4720_23848" x="0.303711" y="21.5234" width="73.5996" height="33.0669" filterUnits="userSpaceOnUse" color-interpolation-filters="sRGB">
<feFlood flood-opacity="0" result="BackgroundImageFix"/>
<feColorMatrix in="SourceAlpha" type="matrix" values="0 0 0 0 0 0 0 0 0 0 0 0 0 0 0 0 0 0 127 0" result="hardAlpha"/>
<feOffset dy="4"/>
<feGaussianBlur stdDeviation="4"/>
<feComposite in2="hardAlpha" operator="out"/>
<feColorMatrix type="matrix" values="0 0 0 0 0.0313726 0 0 0 0 0.0392157 0 0 0 0 0.0823529 0 0 0 0.15 0"/>
<feBlend mode="normal" in2="BackgroundImageFix" result="effect1_dropShadow_4720_23848"/>
<feBlend mode="normal" in="SourceGraphic" in2="effect1_dropShadow_4720_23848" result="shape"/>
</filter>
</defs>
</svg>
