<svg width="64" height="72" viewBox="0 0 64 72" fill="none" xmlns="http://www.w3.org/2000/svg">
<path d="M32 66C49.6726 66 64 51.7008 64 34C64 16.2992 49.6095 2 32 2C14.3274 2 0 16.2992 0 34C0 51.7008 14.3274 66 32 66Z" fill="#EDF1F5"/>
<g filter="url(#filter0_d_4720_23829)">
<path d="M55.8012 56.3969C55.8012 58.0538 54.4514 59.3969 52.7945 59.3969C40.1288 59.3969 40.6697 59.3969 32 59.3969C26.3149 59.3969 21.1294 59.3969 16.5783 59.3969C14.3692 59.3969 12.5791 57.6061 12.5791 55.3969V7.17054C12.5791 5.44293 13.9729 4.0332 15.7117 4.0332H46.7897L55.8012 13.0582V56.3969Z" fill="white"/>
</g>
<path d="M25.2037 55.1982H20.678C20.5091 55.1982 20.374 54.7615 20.374 54.2375C20.374 53.7135 20.5091 53.2769 20.678 53.2769H25.2037C25.3726 53.2769 25.5077 53.7135 25.5077 54.2375C25.5077 54.8489 25.3726 55.1982 25.2037 55.1982Z" fill="#16CC53"/>
<path d="M35.1627 14.851H20.9863C20.6566 14.851 20.374 14.4076 20.374 13.8903C20.374 13.3731 20.6566 12.9297 20.9863 12.9297H35.1627C35.4924 12.9297 35.7749 13.3731 35.7749 13.8903C35.7749 14.4076 35.4924 14.851 35.1627 14.851Z" fill="#C8CFD6"/>
<path d="M24.4837 19.3334H20.7882C20.5652 19.3334 20.374 18.8901 20.374 18.3728C20.374 17.8555 20.5652 17.4121 20.7882 17.4121H24.4518C24.6748 17.4121 24.866 17.8555 24.866 18.3728C24.866 18.8901 24.6748 19.3334 24.4837 19.3334Z" fill="#C8CFD6"/>
<path d="M37.8131 44.311H22.422H20.7257H15.5954C15.3885 44.311 15.1816 44.7113 15.1816 45.2717C15.1816 45.752 15.3471 46.2324 15.5954 46.2324H20.7257H22.422H37.8131C38.0199 46.2324 38.2268 45.8321 38.2268 45.2717C38.1854 44.7113 38.0199 44.311 37.8131 44.311Z" fill="#C8CFD6"/>
<path d="M37.8123 39.1875H32.0925H30.1444H15.5961C15.3889 39.1875 15.1816 39.5878 15.1816 40.1482C15.1816 40.6285 15.3474 41.1088 15.5961 41.1088H30.1444H32.0925H37.8123C38.0196 41.1088 38.2268 40.7086 38.2268 40.1482C38.1854 39.5878 38.0196 39.1875 37.8123 39.1875Z" fill="#C8CFD6"/>
<path d="M38.4028 34.7046H36.8801H35.3574H15.6046C15.3931 34.7046 15.1816 35.1049 15.1816 35.6653C15.1816 36.1456 15.3508 36.6259 15.6046 36.6259H35.3574H37.0493H38.3605C38.572 36.6259 38.7834 36.2256 38.7834 35.6653C38.8257 35.1849 38.6143 34.7046 38.4028 34.7046Z" fill="#C8CFD6"/>
<path d="M38.3696 29.5811H33.4636H32.2476H15.601C15.3913 29.5811 15.1816 29.9813 15.1816 30.5417C15.1816 31.0221 15.3494 31.5024 15.601 31.5024H32.2476H33.4636H38.3276C38.6212 31.5024 38.7889 31.1021 38.7889 30.5417C38.7889 30.0614 38.6212 29.5811 38.3696 29.5811Z" fill="#C8CFD6"/>
<path d="M47 4.00488V10.0299C47 11.6868 48.3431 13.0299 50 13.0299H55.7847" fill="#16CC53"/>
<path d="M10.5035 49.6209L7.56622 55.8403L4.62891 49.6209V19.7402V15.4143C4.62891 14.8061 5.06406 14.3086 5.59592 14.3086H9.53652C10.0684 14.3086 10.5035 14.8061 10.5035 15.4143V49.6209Z" fill="url(#paint0_linear_4720_23829)"/>
<path fill-rule="evenodd" clip-rule="evenodd" d="M4.62891 18.8774H10.5035V20.0231H4.62891V18.8774Z" fill="#8898AA"/>
<path fill-rule="evenodd" clip-rule="evenodd" d="M4.62891 48.1719H10.5035V49.3176H4.62891V48.1719Z" fill="#8898AA"/>
<defs>
<filter id="filter0_d_4720_23829" x="4.5791" y="0.0332031" width="59.2217" height="71.3638" filterUnits="userSpaceOnUse" color-interpolation-filters="sRGB">
<feFlood flood-opacity="0" result="BackgroundImageFix"/>
<feColorMatrix in="SourceAlpha" type="matrix" values="0 0 0 0 0 0 0 0 0 0 0 0 0 0 0 0 0 0 127 0" result="hardAlpha"/>
<feOffset dy="4"/>
<feGaussianBlur stdDeviation="4"/>
<feComposite in2="hardAlpha" operator="out"/>
<feColorMatrix type="matrix" values="0 0 0 0 0.0313726 0 0 0 0 0.0392157 0 0 0 0 0.0823529 0 0 0 0.15 0"/>
<feBlend mode="normal" in2="BackgroundImageFix" result="effect1_dropShadow_4720_23829"/>
<feBlend mode="normal" in="SourceGraphic" in2="effect1_dropShadow_4720_23829" result="shape"/>
</filter>
<linearGradient id="paint0_linear_4720_23829" x1="7.33462" y1="14.3738" x2="7.33462" y2="49.6036" gradientUnits="userSpaceOnUse">
<stop stop-color="#B0BACC"/>
<stop offset="1" stop-color="#969EAE"/>
</linearGradient>
</defs>
</svg>
