<svg width="28" height="28" viewBox="0 0 28 28" fill="none" xmlns="http://www.w3.org/2000/svg">
<rect x="0.5" y="0.5" width="27" height="27" rx="7.5" stroke="#0EDCFE"/>
<path d="M8.75 16.5C7.36148 17.0294 6.5 17.7671 6.5 18.5831C6.5 20.1941 9.85786 21.5 14 21.5C18.1421 21.5 21.5 20.1941 21.5 18.5831C21.5 17.7671 20.6385 17.0294 19.25 16.5M14 11.5H14.0083M19 11.5C19 14.8864 15.25 16.5 14 19C12.75 16.5 9 14.8864 9 11.5C9 8.73858 11.2386 6.5 14 6.5C16.7614 6.5 19 8.73858 19 11.5ZM14.8333 11.5C14.8333 11.9602 14.4602 12.3333 14 12.3333C13.5398 12.3333 13.1667 11.9602 13.1667 11.5C13.1667 11.0398 13.5398 10.6667 14 10.6667C14.4602 10.6667 14.8333 11.0398 14.8333 11.5Z" stroke="#0EDCFE" stroke-width="1.5" stroke-linecap="round" stroke-linejoin="round"/>
</svg>
