<svg width="18" height="19" viewBox="0 0 18 19" fill="none" xmlns="http://www.w3.org/2000/svg">
<g clip-path="url(#clip0_466_3856)">
<path d="M14.0625 0.5H3.9375C1.76288 0.5 0 2.26288 0 4.4375V6.50001H18V4.4375C18 2.26288 16.2371 0.5 14.0625 0.5Z" fill="#82AFFF"/>
<path d="M0 14.5625C0 16.7371 1.76288 18.5 3.9375 18.5H14.0625C16.2371 18.5 18 16.7371 18 14.5625V12.5H0V14.5625Z" fill="#73AF00"/>
<path d="M18 6.5H0V12.5001H18V6.5Z" fill="#F5F5F5"/>
<path d="M18 5.96704H0V6.7152H18V5.96704Z" fill="#FF4B55"/>
<path d="M18 12.2847H0V13.0328H18V12.2847Z" fill="#FF4B55"/>
<path d="M4.2616 4.99649C3.29185 4.99649 2.50582 4.2123 2.50582 3.24603C2.50582 2.27621 3.29185 1.48853 4.2616 1.48853C4.26529 1.48853 4.26898 1.48857 4.27267 1.4886C4.32973 1.48938 4.34977 1.41351 4.29946 1.38654C4.00084 1.22651 3.66004 1.13591 3.29772 1.13848C2.13738 1.14678 1.19488 2.1083 1.20715 3.2686C1.21931 4.41698 2.15813 5.34651 3.31283 5.34651C3.6702 5.34651 4.00619 5.25612 4.30104 5.09827C4.35121 5.07141 4.33092 4.99551 4.27404 4.99639C4.26989 4.99646 4.26574 4.99649 4.2616 4.99649Z" fill="#F5F5F5"/>
<path d="M5.63683 4.51234L5.5584 4.74746L5.31054 4.74939C5.27845 4.74964 5.26516 4.7906 5.29096 4.80965L5.49037 4.95689L5.41559 5.19321C5.40592 5.22379 5.44076 5.24911 5.46685 5.23044L5.6685 5.0863L5.87016 5.23044C5.89628 5.24911 5.93112 5.22379 5.92142 5.19321L5.84664 4.95689L6.04601 4.80965C6.07182 4.7906 6.05853 4.74964 6.02643 4.74939L5.77858 4.74746L5.70015 4.51234C5.69006 4.48189 5.64699 4.48189 5.63683 4.51234Z" fill="#F5F5F5"/>
<path d="M7.00398 4.51234L6.92558 4.74746L6.67773 4.74939C6.64563 4.74964 6.63234 4.7906 6.65815 4.80965L6.85756 4.95689L6.78278 5.19321C6.77311 5.22379 6.80791 5.24911 6.83404 5.23044L7.03569 5.0863L7.23735 5.23044C7.26347 5.24911 7.29831 5.22379 7.28861 5.19321L7.21383 4.95689L7.41323 4.80965C7.43904 4.7906 7.42575 4.74964 7.39365 4.74939L7.1458 4.74746L7.06737 4.51234C7.05721 4.48189 7.01414 4.48189 7.00398 4.51234Z" fill="#F5F5F5"/>
<path d="M9.78132 4.51234L9.70293 4.74746L9.45507 4.74939C9.42298 4.74964 9.40969 4.7906 9.43549 4.80965L9.6349 4.95689L9.56012 5.19321C9.55045 5.22379 9.58526 5.24911 9.61138 5.23044L9.81304 5.0863L10.0147 5.23044C10.0408 5.24911 10.0756 5.22379 10.066 5.19321L9.99117 4.95689L10.1906 4.80965C10.2164 4.7906 10.2031 4.74964 10.171 4.74939L9.92314 4.74746L9.84471 4.51234C9.83455 4.48189 9.79148 4.48189 9.78132 4.51234Z" fill="#F5F5F5"/>
<path d="M11.1446 4.51234L11.0662 4.74746L10.8184 4.74939C10.7863 4.74964 10.773 4.7906 10.7988 4.80965L10.9982 4.95689L10.9234 5.19321C10.9137 5.22379 10.9486 5.24911 10.9747 5.23044L11.1763 5.0863L11.378 5.23044C11.4041 5.24911 11.4389 5.22379 11.4292 5.19321L11.3545 4.95689L11.5539 4.80965C11.5797 4.7906 11.5664 4.74964 11.5343 4.74939L11.2864 4.74746L11.208 4.51234C11.1978 4.48189 11.1548 4.48189 11.1446 4.51234Z" fill="#F5F5F5"/>
<path d="M7.00398 2.88269L6.92558 3.11782L6.67773 3.11975C6.64563 3.12 6.63234 3.16095 6.65815 3.18001L6.85756 3.32724L6.78278 3.56356C6.77311 3.59415 6.80791 3.61946 6.83404 3.60083L7.03569 3.45669L7.23735 3.60083C7.26347 3.6195 7.29831 3.59418 7.28861 3.5636L7.21383 3.32728L7.41323 3.18004C7.43904 3.16099 7.42575 3.12003 7.39365 3.11979L7.1458 3.11785L7.06737 2.88273C7.05721 2.85225 7.01414 2.85225 7.00398 2.88269Z" fill="#F5F5F5"/>
<path d="M8.40245 2.88269L8.32402 3.11782L8.07617 3.11975C8.04407 3.12 8.03078 3.16095 8.05659 3.18001L8.25599 3.32724L8.18122 3.56356C8.17155 3.59415 8.20635 3.61946 8.23247 3.60083L8.43413 3.45669L8.63579 3.60083C8.66191 3.6195 8.69675 3.59418 8.68704 3.5636L8.61227 3.32728L8.81167 3.18004C8.83748 3.16099 8.82419 3.12003 8.79209 3.11979L8.54424 3.11785L8.46581 2.88273C8.45565 2.85225 8.41258 2.85225 8.40245 2.88269Z" fill="#F5F5F5"/>
<path d="M9.78132 2.88269L9.70293 3.11782L9.45507 3.11975C9.42298 3.12 9.40969 3.16095 9.43549 3.18001L9.6349 3.32724L9.56012 3.56356C9.55045 3.59415 9.58526 3.61946 9.61138 3.60083L9.81304 3.45669L10.0147 3.60083C10.0408 3.6195 10.0756 3.59418 10.066 3.5636L9.99117 3.32728L10.1906 3.18004C10.2164 3.16099 10.2031 3.12003 10.171 3.11979L9.92314 3.11785L9.84471 2.88273C9.83455 2.85225 9.79148 2.85225 9.78132 2.88269Z" fill="#F5F5F5"/>
<path d="M11.1446 2.88269L11.0662 3.11782L10.8184 3.11975C10.7863 3.12 10.773 3.16095 10.7988 3.18001L10.9982 3.32724L10.9234 3.56356C10.9137 3.59415 10.9486 3.61946 10.9747 3.60083L11.1763 3.45669L11.378 3.60083C11.4041 3.6195 11.4389 3.59418 11.4292 3.5636L11.3545 3.32728L11.5539 3.18004C11.5797 3.16099 11.5664 3.12003 11.5343 3.11979L11.2864 3.11785L11.208 2.88273C11.1978 2.85225 11.1548 2.85225 11.1446 2.88269Z" fill="#F5F5F5"/>
<path d="M8.40245 4.51234L8.32402 4.74746L8.07617 4.74939C8.04407 4.74964 8.03078 4.7906 8.05659 4.80965L8.25599 4.95689L8.18122 5.19321C8.17155 5.22379 8.20635 5.24911 8.23247 5.23044L8.43413 5.0863L8.63579 5.23044C8.66191 5.24911 8.69675 5.22379 8.68704 5.19321L8.61227 4.95689L8.81167 4.80965C8.83748 4.7906 8.82419 4.74964 8.79209 4.74939L8.54424 4.74746L8.46581 4.51234C8.45565 4.48189 8.41258 4.48189 8.40245 4.51234Z" fill="#F5F5F5"/>
<path d="M8.40245 1.25281L8.32402 1.48794L8.07617 1.48987C8.04407 1.49012 8.03078 1.53108 8.05659 1.55013L8.25599 1.69737L8.18122 1.93369C8.17155 1.96427 8.20635 1.98958 8.23247 1.97092L8.43413 1.82678L8.63579 1.97092C8.66191 1.98958 8.69675 1.96427 8.68704 1.93369L8.61227 1.69737L8.81167 1.55013C8.83748 1.53108 8.82419 1.49012 8.79209 1.48987L8.54424 1.48794L8.46581 1.25281C8.45565 1.22237 8.41258 1.22237 8.40245 1.25281Z" fill="#F5F5F5"/>
<path d="M9.78132 4.51234L9.70293 4.74746L9.45507 4.74939C9.42298 4.74964 9.40969 4.7906 9.43549 4.80965L9.6349 4.95689L9.56012 5.19321C9.55045 5.22379 9.58526 5.24911 9.61138 5.23044L9.81304 5.0863L10.0147 5.23044C10.0408 5.24911 10.0756 5.22379 10.066 5.19321L9.99117 4.95689L10.1906 4.80965C10.2164 4.7906 10.2031 4.74964 10.171 4.74939L9.92314 4.74746L9.84471 4.51234C9.83455 4.48189 9.79148 4.48189 9.78132 4.51234Z" fill="#F5F5F5"/>
<path d="M11.1446 4.51234L11.0662 4.74746L10.8184 4.74939C10.7863 4.74964 10.773 4.7906 10.7988 4.80965L10.9982 4.95689L10.9234 5.19321C10.9137 5.22379 10.9486 5.24911 10.9747 5.23044L11.1763 5.0863L11.378 5.23044C11.4041 5.24911 11.4389 5.22379 11.4292 5.19321L11.3545 4.95689L11.5539 4.80965C11.5797 4.7906 11.5664 4.74964 11.5343 4.74939L11.2864 4.74746L11.208 4.51234C11.1978 4.48189 11.1548 4.48189 11.1446 4.51234Z" fill="#F5F5F5"/>
<path d="M9.78132 1.25281L9.70293 1.48794L9.45507 1.48987C9.42298 1.49012 9.40969 1.53108 9.43549 1.55013L9.6349 1.69737L9.56012 1.93369C9.55045 1.96427 9.58526 1.98958 9.61138 1.97092L9.81304 1.82678L10.0147 1.97092C10.0408 1.98958 10.0756 1.96427 10.066 1.93369L9.99117 1.69737L10.1906 1.55013C10.2164 1.53108 10.2031 1.49012 10.171 1.48987L9.92314 1.48794L9.84471 1.25281C9.83455 1.22237 9.79148 1.22237 9.78132 1.25281Z" fill="#F5F5F5"/>
<path d="M11.1446 1.25281L11.0662 1.48794L10.8184 1.48987C10.7863 1.49012 10.773 1.53108 10.7988 1.55013L10.9982 1.69737L10.9234 1.93369C10.9137 1.96427 10.9486 1.98958 10.9747 1.97092L11.1763 1.82678L11.378 1.97092C11.4041 1.98958 11.4389 1.96427 11.4292 1.93369L11.3545 1.69737L11.5539 1.55013C11.5797 1.53108 11.5664 1.49012 11.5343 1.48987L11.2864 1.48794L11.208 1.25281C11.1978 1.22237 11.1548 1.22237 11.1446 1.25281Z" fill="#F5F5F5"/>
</g>
<defs>
<clipPath id="clip0_466_3856">
<rect width="18" height="18" fill="white" transform="translate(0 0.5)"/>
</clipPath>
</defs>
</svg>
