<svg width="18" height="19" viewBox="0 0 18 19" fill="none" xmlns="http://www.w3.org/2000/svg">
<g clip-path="url(#clip0_466_3885)">
<path d="M14.0625 18.5H3.9375C1.76288 18.5 0 16.7371 0 14.5625V4.4375C0 2.26288 1.76288 0.5 3.9375 0.5H14.0625C16.2371 0.5 18 2.26288 18 4.4375V14.5625C18 16.7371 16.2371 18.5 14.0625 18.5Z" fill="#41479B"/>
<path d="M18.0008 14.5622V13.6978L15.2088 11.8685H18.0008V10.9211H10.4219V18.5001H11.3692V12.7506L17.3786 16.6878C17.5914 16.3564 17.7557 15.991 17.862 15.6016" fill="#F5F5F5"/>
<path d="M0.264762 15.9844C0.360668 16.2319 0.480691 16.4674 0.62223 16.6878L6.63156 12.7506V18.5001H7.57891V10.9211H0V11.8685H2.79207L0 13.6978V14.5626C0 14.714 0.00885938 14.8633 0.0254883 15.0102" fill="#F5F5F5"/>
<path d="M0 4.57134V5.30227L2.79207 7.13159H0V8.07895H7.57895V0.5H6.63159V6.24945L0.62223 2.3123C0.388687 2.67593 0.213504 3.08054 0.109477 3.51289" fill="#F5F5F5"/>
<path d="M17.7309 3.00204C17.6359 2.75949 17.5175 2.52862 17.3786 2.31227L11.3692 6.24945V0.5H10.4219V8.07895H18.0008V7.13159H15.2088L18.0008 5.30227V4.4375C18.0008 4.2807 17.9914 4.12609 17.9735 3.97407" fill="#F5F5F5"/>
<path d="M10.4211 0.5H7.57895V8.07895H0V10.9211H7.57895V18.5H10.4211V10.9211H18V8.07895H10.4211V0.5Z" fill="#FF4B55"/>
<path d="M4.8673 11.8684L0.0273438 15.0101C0.0658047 15.3499 0.147367 15.6765 0.266652 15.9843L6.6074 11.8684H4.8673V11.8684Z" fill="#FF4B55"/>
<path d="M12.1094 11.8684L17.8604 15.6015C17.9508 15.2705 17.9993 14.9222 17.9993 14.5625V14.5621L13.8495 11.8684L12.1094 11.8684Z" fill="#FF4B55"/>
<path d="M5.6842 7.13164L0.109477 3.51294C0.0380742 3.80952 0 4.11907 0 4.43755V4.57139L3.94411 7.13164H5.6842Z" fill="#FF4B55"/>
<path d="M13.1072 7.13148L17.9715 3.97395C17.9317 3.63491 17.8491 3.30901 17.7288 3.00195L11.3672 7.13148H13.1072Z" fill="#FF4B55"/>
</g>
<defs>
<clipPath id="clip0_466_3885">
<rect width="18" height="18" fill="white" transform="translate(0 0.5)"/>
</clipPath>
</defs>
</svg>
